<svg width="173" height="24" viewBox="0 0 173 24" fill="none" xmlns="http://www.w3.org/2000/svg">
<g clip-path="url(#clip0_429_29)">
<path d="M14.5022 9.50794L9.75683 9.06465C7.85125 8.86006 7.10263 8.0019 7.10263 6.83117C7.10263 5.31945 8.59987 4.39309 11.1427 4.39309C13.9454 4.39309 15.4426 5.59224 15.7025 7.41653H22.205C21.8709 3.36444 18.8022 8.18257e-06 11.1365 8.18257e-06C3.96584 -0.00567498 0.445461 2.94957 0.445461 7.24036C0.445461 11.122 3.02542 13.4577 7.51097 13.9351L12.9307 14.4864C14.7992 14.7251 15.7706 15.4809 15.7706 16.9927C15.7706 18.5044 14.5765 19.6012 11.3964 19.6012C7.91931 19.6012 6.57674 17.8849 6.38494 15.9981H0C0.259852 20.0843 3.09967 24 11.2912 24C19.4827 24 22.4339 20.9766 22.4339 16.4812C22.4339 12.3609 19.9653 9.99101 14.5084 9.50794H14.5022Z" fill="#001996"/>
<path d="M122.547 0.581055H116.007V23.416H122.547V0.581055Z" fill="#001996"/>
<path d="M112.147 0.581055H105.607V23.416H112.147V0.581055Z" fill="#001996"/>
<path d="M164.209 0.581055H154.081L145.593 23.416H152.176L153.784 19.1252H164.475L166.084 23.416H172.704L164.216 0.581055H164.209ZM155.461 14.5559L159.124 4.76954L162.786 14.5559H155.461Z" fill="#001996"/>
<path d="M91.0263 0.581055H78.4668V23.416H91.0263C99.1003 23.416 102.8 17.8863 102.8 11.9474C102.8 6.00847 99.1003 0.581055 91.0263 0.581055ZM89.5291 18.6421H85.0435V5.35491H89.5291C94.0146 5.35491 95.9202 7.4861 95.9202 11.9474C95.9202 16.4087 94.0517 18.6421 89.5291 18.6421Z" fill="#001996"/>
<path d="M137.562 0.581055H135.106L122.837 11.9644L136.077 23.4046H138.571L128.666 11.9928L137.562 0.581055Z" fill="#001996"/>
<path d="M36.5022 8.06578C35.902 9.3729 35.3452 10.6402 34.8193 11.9474C34.3367 10.6402 33.7737 9.3729 33.1736 8.06578L29.6223 0.581055H22.2227L31.5711 16.8235V23.416H38.185V16.8235L47.4531 0.581055H40.1648L36.5022 8.06578Z" fill="#001996"/>
<path d="M68.333 18.7444C67.9989 17.7158 67.6215 16.6871 67.2131 15.7892L60.2219 0.581055H49.4194V23.416H55.6992V5.28103C56.0333 6.37788 56.4107 7.48041 56.8933 8.50906L63.8103 23.4103H74.6127V0.581055H68.333V18.7444Z" fill="#001996"/>
<path d="M127.54 11.9919L136.969 0.580078H143.88L135.373 11.9919H127.54Z" fill="#3255FF"/>
<path d="M135.373 11.9912L144.468 23.403H138.144L127.54 11.9912H135.373Z" fill="#FF7800"/>
</g>
<defs>
<clipPath id="clip0_429_29">
<rect width="172.704" height="24" fill="white"/>
</clipPath>
</defs>
</svg>
