<svg width="98" height="16" viewBox="0 0 98 16" fill="none" xmlns="http://www.w3.org/2000/svg">
<path d="M11.201 3.954V1.035H0.134V15H3.83V9.561H10.445V6.852H3.83V3.954H11.201ZM17.8396 15.336C22.2916 15.336 23.8666 12.564 23.8666 9.75C23.8666 6.936 22.2916 4.164 17.8396 4.164C13.3876 4.164 11.8336 6.936 11.8336 9.75C11.8336 12.585 13.3876 15.336 17.8396 15.336ZM15.4456 9.75C15.4456 7.65 16.1176 6.978 17.8396 6.978C19.5616 6.978 20.2336 7.65 20.2336 9.75C20.2336 11.85 19.5616 12.522 17.8396 12.522C16.1176 12.522 15.4456 11.85 15.4456 9.75ZM25.3161 15H28.9281V0.299999H25.3161V15ZM31.0993 15H34.7113V0.299999H31.0993V15ZM42.3054 15.336C46.7574 15.336 48.3324 12.564 48.3324 9.75C48.3324 6.936 46.7574 4.164 42.3054 4.164C37.8534 4.164 36.2994 6.936 36.2994 9.75C36.2994 12.585 37.8534 15.336 42.3054 15.336ZM39.9114 9.75C39.9114 7.65 40.5834 6.978 42.3054 6.978C44.0274 6.978 44.6994 7.65 44.6994 9.75C44.6994 11.85 44.0274 12.522 42.3054 12.522C40.5834 12.522 39.9114 11.85 39.9114 9.75ZM64.3179 4.5L62.6379 12.27L60.3069 4.5H56.5059L54.1749 12.249L52.4319 4.5H48.7989L51.3609 15H56.3799L58.2489 8.091L60.0969 15H65.0949L67.6779 4.5H64.3179ZM81.9938 4.5V9.435C81.9938 11.451 81.1538 12.417 79.7468 12.417C78.4658 12.417 77.8988 11.661 77.8988 10.254V4.5H74.2868V10.884C74.2868 13.635 75.5258 15.336 78.2768 15.336C80.1248 15.336 81.3218 14.454 81.9938 13.089V15H85.6058V4.5H81.9938ZM87.0919 11.619C87.1759 13.551 88.6039 15.336 92.4469 15.336C96.3529 15.336 97.5919 13.761 97.5919 11.766C97.5919 9.75 96.5629 8.742 94.0849 8.49L91.9219 8.28C90.9349 8.175 90.6829 7.776 90.6829 7.335C90.6829 6.747 91.1449 6.306 92.3629 6.306C93.5179 6.306 94.0849 6.789 94.1899 7.608H97.4659C97.2559 5.151 95.2399 4.164 92.3419 4.164C89.5279 4.164 87.3859 5.172 87.3859 7.671C87.3859 9.498 88.4779 10.59 90.5149 10.821L92.7409 11.073C93.9589 11.22 94.1479 11.661 94.1479 12.186C94.1479 12.795 93.6859 13.173 92.5099 13.173C91.1659 13.173 90.4519 12.48 90.3679 11.619H87.0919Z" fill="#001996"/>
</svg>
