<svg width="88" height="32" viewBox="0 0 88 32" fill="none" xmlns="http://www.w3.org/2000/svg">
<rect width="32" height="32" rx="4" fill="#3255FF"/>
<path d="M26.46 10C25.69 10.35 24.86 10.58 24 10.69C24.88 10.16 25.56 9.32 25.88 8.31C25.05 8.81 24.13 9.16 23.16 9.36C22.37 8.5 21.26 8 20 8C17.65 8 15.73 9.92 15.73 12.29C15.73 12.63 15.77 12.96 15.84 13.27C12.28 13.09 9.11004 11.38 7.00004 8.79C6.63004 9.42 6.42004 10.16 6.42004 10.94C6.42004 12.43 7.17004 13.75 8.33004 14.5C7.62004 14.5 6.96004 14.3 6.38004 14V14.03C6.38004 16.11 7.86004 17.85 9.82004 18.24C9.19077 18.4122 8.53013 18.4362 7.89004 18.31C8.16165 19.1625 8.69358 19.9084 9.41106 20.4429C10.1285 20.9775 10.9955 21.2737 11.89 21.29C10.3737 22.4904 8.49404 23.1393 6.56004 23.13C6.22004 23.13 5.88004 23.11 5.54004 23.07C7.44004 24.29 9.70004 25 12.12 25C20 25 24.33 18.46 24.33 12.79C24.33 12.6 24.33 12.42 24.32 12.23C25.16 11.63 25.88 10.87 26.46 10Z" fill="white"/>
<rect x="56" width="32" height="32" rx="4" fill="#3255FF"/>
<path d="M79 7C79.5304 7 80.0391 7.21071 80.4142 7.58579C80.7893 7.96086 81 8.46957 81 9V23C81 23.5304 80.7893 24.0391 80.4142 24.4142C80.0391 24.7893 79.5304 25 79 25H65C64.4696 25 63.9609 24.7893 63.5858 24.4142C63.2107 24.0391 63 23.5304 63 23V9C63 8.46957 63.2107 7.96086 63.5858 7.58579C63.9609 7.21071 64.4696 7 65 7H79ZM78.5 22.5V17.2C78.5 16.3354 78.1565 15.5062 77.5452 14.8948C76.9338 14.2835 76.1046 13.94 75.24 13.94C74.39 13.94 73.4 14.46 72.92 15.24V14.13H70.13V22.5H72.92V17.57C72.92 16.8 73.54 16.17 74.31 16.17C74.6813 16.17 75.0374 16.3175 75.2999 16.5801C75.5625 16.8426 75.71 17.1987 75.71 17.57V22.5H78.5ZM66.88 12.56C67.3256 12.56 67.7529 12.383 68.0679 12.0679C68.383 11.7529 68.56 11.3256 68.56 10.88C68.56 9.95 67.81 9.19 66.88 9.19C66.4318 9.19 66.0019 9.36805 65.685 9.68499C65.3681 10.0019 65.19 10.4318 65.19 10.88C65.19 11.81 65.95 12.56 66.88 12.56ZM68.27 22.5V14.13H65.5V22.5H68.27Z" fill="white"/>
</svg>
