<svg width="128" height="128" viewBox="0 0 128 128" fill="none" xmlns="http://www.w3.org/2000/svg">
<g clip-path="url(#clip0_0_968)">
<path d="M66.8594 65.0059L66.5234 66.0742L109.499 79.6106L109.835 78.5423L66.8594 65.0059Z" fill="#3255FF" fill-opacity="0.5"/>
<path d="M18.9537 58.4869L18.7891 59.5947L67.0828 66.7837L67.2474 65.6759L18.9537 58.4869Z" fill="#3255FF" fill-opacity="0.5"/>
<path d="M32.7186 33.803L31.9648 34.6309L66.3081 65.9504L67.0618 65.1226L32.7186 33.803Z" fill="#3255FF" fill-opacity="0.5"/>
<path d="M105.441 33.7279L85.6172 45.2148L86.1779 46.1841L106.002 34.6971L105.441 33.7279Z" fill="#3255FF" fill-opacity="0.5"/>
<path d="M48.0034 84.6419L28.1797 96.1289L28.7404 97.0982L48.5641 85.6112L48.0034 84.6419Z" fill="#3255FF" fill-opacity="0.5"/>
<path d="M67.705 15.5762H66.5859V45.0695H67.705V15.5762Z" fill="#3255FF" fill-opacity="0.5"/>
<path d="M67.705 80.6611H66.5859V110.154H67.705V80.6611Z" fill="#3255FF" fill-opacity="0.5"/>
<path d="M82.2943 44.4334L83.1785 43.1613L78.6607 40.5894C78.5778 40.5341 78.4949 40.4926 78.412 40.4511C74.4469 38.2803 68.6581 38.8057 62.2199 42.539C50.2555 49.4526 40.543 64.7731 40.543 76.7474C40.543 81.7805 42.2561 85.4171 45.116 87.4358C45.5443 87.74 45.9864 88.0028 46.4699 88.224L50.3936 90.5193L51.264 89.2748C54.4831 89.3025 58.2272 88.224 62.2199 85.9148C74.1844 79.0013 83.8969 63.6808 83.8969 51.7065C83.8969 48.8166 83.3305 46.383 82.3081 44.4472L82.2943 44.4334Z" fill="#4968FF" fill-opacity="0.5"/>
<path d="M73.0359 39.512C74.9977 39.512 76.7385 39.9268 78.2444 40.7426H78.2583C78.3412 40.7979 78.4102 40.8394 78.4931 40.8809L82.6793 43.2592L82.0162 44.2271L81.8918 44.4068L81.9885 44.6004C83.0247 46.5362 83.5359 48.9283 83.5359 51.6937C83.5359 63.5436 73.8925 78.7535 62.0385 85.6118C58.2945 87.7826 54.6056 88.9303 51.3866 88.9303C51.3451 88.9303 51.3037 88.9303 51.2484 88.9303H51.0688L50.9583 89.0824L50.2813 90.0641L46.6339 87.9347C46.178 87.7135 45.7359 87.4646 45.3352 87.1742H45.3214C42.9175 85.4597 41.4254 82.6113 41.0247 78.9194C41.0109 78.7811 40.9971 78.6429 40.9833 78.5046C40.928 77.9515 40.9142 77.3708 40.9142 76.7624C40.9142 75.7392 40.9833 74.6745 41.1352 73.596C41.1491 73.4715 41.1629 73.3471 41.1905 73.2365C41.3977 71.8123 41.7293 70.3189 42.1852 68.7979C42.2129 68.6873 42.2543 68.5767 42.2819 68.4661C42.6964 67.111 43.2214 65.7145 43.8155 64.3318C43.857 64.2211 43.9122 64.1243 43.9537 64.0137C44.5339 62.714 45.1971 61.4004 45.9155 60.1283C45.9708 60.0315 46.026 59.9347 46.0813 59.8241C46.7997 58.5797 47.5734 57.3352 48.4162 56.1461C48.4852 56.0493 48.5543 55.9525 48.6096 55.8695C49.4523 54.6804 50.3504 53.5051 51.2898 52.3989C51.3589 52.316 51.4418 52.2192 51.5109 52.1362C52.4918 51.0024 53.5142 49.8962 54.5642 48.873C54.6471 48.79 54.73 48.7071 54.8267 48.6241C55.9596 47.5456 57.1339 46.5362 58.3221 45.6236C58.4188 45.5545 58.5155 45.4715 58.626 45.4024C59.8694 44.4621 61.1543 43.6048 62.4254 42.872C62.5083 42.8305 62.5912 42.7752 62.6741 42.7337C62.7846 42.6646 62.9089 42.5955 63.0194 42.5402C64.6773 41.6276 66.3352 40.9085 67.9241 40.4108H67.9793C68.1589 40.3416 68.2971 40.3002 68.4352 40.2587C70.0517 39.8024 71.6129 39.5673 73.0773 39.5673L73.0359 39.512ZM73.0359 39.1663C71.5576 39.1663 69.9688 39.4014 68.2971 39.8715C68.1451 39.913 67.9931 39.9545 67.8412 40.0098C66.2385 40.5076 64.553 41.2266 62.826 42.1806C62.7155 42.2498 62.5912 42.3051 62.4668 42.3742C62.3839 42.4157 62.301 42.471 62.2181 42.5125C60.9056 43.273 59.6346 44.1303 58.3912 45.0705C58.2945 45.1397 58.1977 45.2226 58.0872 45.2918C56.8714 46.232 55.6971 47.2414 54.5642 48.3199C54.4813 48.4029 54.3846 48.4858 54.3017 48.5688C53.2379 49.6058 52.2017 50.6982 51.2208 51.8458C51.1379 51.9288 51.0688 52.0256 50.9859 52.1085C50.0326 53.2285 49.1346 54.4039 48.278 55.6068C48.2089 55.7036 48.1398 55.8004 48.0708 55.8972C47.228 57.1002 46.4405 58.3446 45.7221 59.6029C45.6668 59.6997 45.6116 59.8103 45.5563 59.9071C44.8241 61.193 44.1747 62.5066 43.5806 63.8202C43.5392 63.9308 43.4839 64.0276 43.4425 64.1382C42.8346 65.5209 42.3234 66.9174 41.8951 68.3002C41.8537 68.4108 41.826 68.5214 41.7984 68.6458C41.3425 70.153 41.0109 71.6602 40.8037 73.1258C40.7898 73.2503 40.7622 73.3747 40.7484 73.4992C40.6102 74.5915 40.5273 75.6562 40.5273 76.7071C40.5273 77.3155 40.555 77.91 40.5964 78.4769C40.5964 78.6152 40.6241 78.7673 40.6379 78.9056C41.0662 82.8048 42.6688 85.6809 45.1004 87.3955C45.5287 87.6997 45.9846 87.9624 46.4543 88.1836L50.378 90.4789L51.2484 89.2345C51.2484 89.2345 51.3451 89.2345 51.3866 89.2345C54.5642 89.2345 58.2668 88.156 62.2043 85.8745C74.1688 78.9609 83.8813 63.6404 83.8813 51.6661C83.8813 48.7762 83.3148 46.3426 82.2925 44.4068L83.1767 43.1347L78.6589 40.5629C78.576 40.5076 78.4931 40.4661 78.4102 40.4108C76.8767 39.5673 75.053 39.1387 73.0359 39.1387V39.1663Z" fill="#FF8B24" fill-opacity="0.5"/>
<path d="M79.6387 76.5603C89.2065 63.8298 91.1297 49.1186 83.9343 43.7019C76.739 38.2852 63.1497 44.2141 53.5819 56.9446C44.0141 69.675 42.0908 84.3863 49.2862 89.803C56.4816 95.2197 70.0709 89.2908 79.6387 76.5603Z" fill="#FF7800" fill-opacity="0.5"/>
<path d="M79.6387 76.5603C89.2065 63.8298 91.1297 49.1186 83.9343 43.7019C76.739 38.2852 63.1497 44.2141 53.5819 56.9446C44.0141 69.675 42.0908 84.3863 49.2862 89.803C56.4816 95.2197 70.0709 89.2908 79.6387 76.5603Z" fill="#FF8B24"/>
<path d="M67.1659 85.6944C62.1093 88.612 57.3567 89.4001 53.7784 87.8791C50.2001 86.372 48.2383 82.7493 48.2383 77.6885C48.2383 72.6278 50.2139 66.7236 53.7784 61.0821C57.3567 55.4406 62.1093 50.7117 67.1659 47.7942C72.2225 44.8767 76.9751 44.0885 80.5534 45.6095C84.1317 47.1167 86.0936 50.7394 86.0936 55.8001C86.0936 60.8609 84.1179 66.7651 80.5534 72.4065C76.9751 78.048 72.2225 82.7769 67.1659 85.6944ZM67.1659 48.8312C57.3014 54.528 49.2745 67.2075 49.2745 77.0801C49.2745 86.9527 57.3014 90.3542 67.1659 84.6436C77.0304 78.9468 85.0574 66.2673 85.0574 56.3947C85.0574 46.5221 77.0304 43.1206 67.1659 48.8312Z" fill="#4968FF" fill-opacity="0.5"/>
<path d="M74.2553 63.9719C73.6751 63.5432 72.8738 63.4741 71.8652 63.7507C72.6942 62.9072 73.3159 61.9946 73.7442 60.9991C74.1725 60.0035 74.3935 59.0771 74.3935 58.206C74.3935 57.6667 74.2968 57.1828 74.1034 56.7541C73.91 56.3255 73.6475 56.0074 73.3021 55.7862C72.9567 55.565 72.5284 55.4682 72.0448 55.482C71.5475 55.5097 70.9948 55.6894 70.3869 56.0489L69.8343 56.367V53.5186L68.0659 54.5418V57.3902L65.9106 58.6346V55.7862L64.1422 56.8094V59.6578L60.9922 61.483V79.0573L64.1422 77.2321V80.1911L65.9106 79.1679V76.2089L68.0659 74.9645V77.9235L69.8343 76.9003V73.9274C70.4836 73.5265 71.0915 73.084 71.6718 72.5724C72.3626 71.9778 72.9567 71.3418 73.4817 70.6642C74.0067 69.9867 74.4073 69.2815 74.7113 68.5487C75.0152 67.8158 75.1534 67.083 75.1534 66.3363C75.1534 65.1749 74.8632 64.3867 74.2692 63.9581L74.2553 63.9719ZM64.3909 62.4232L69.0882 59.7131C69.3507 59.561 69.5994 59.4642 69.8205 59.4366C70.0553 59.3951 70.2764 59.4366 70.4698 59.5195C70.8428 59.6993 71.0225 60.1279 71.0225 60.8055C71.0225 61.483 70.8152 62.1605 70.4146 62.7966C70.235 63.0731 70.0415 63.3358 69.8205 63.5571C69.558 63.8336 69.2678 64.0549 68.9501 64.2484L65.9106 66.0045L64.4047 66.8756V62.4371L64.3909 62.4232ZM71.5198 68.687C71.4093 69.0326 71.2435 69.3645 71.0501 69.6825C70.8567 70.0005 70.6218 70.3047 70.3455 70.5674C70.1797 70.7334 70.0001 70.8855 69.8205 71.0099C69.7099 71.0929 69.5856 71.1758 69.4613 71.245L68.0521 72.0608L64.3909 74.1763V69.5442L65.8968 68.6731L69.6271 66.5161C69.6271 66.5161 69.7514 66.447 69.8067 66.4193C70.0277 66.3087 70.2488 66.2395 70.4422 66.2257C70.6909 66.2119 70.8981 66.2534 71.0915 66.364C71.2711 66.4746 71.4231 66.6405 71.5198 66.8756C71.6303 67.0968 71.6856 67.3734 71.6856 67.6914C71.6856 68.0094 71.6303 68.3413 71.506 68.687H71.5198Z" fill="#4968FF"/>
<path d="M68.7688 45.6088L68.5891 45.913L62.4688 42.3733C62.5931 42.3041 62.7036 42.235 62.828 42.1797L68.7688 45.6226V45.6088Z" fill="#FF8B24" fill-opacity="0.5"/>
<path d="M63.3518 47.9462L63.1722 48.2504L58.0742 45.3052C58.1709 45.2223 58.2676 45.1531 58.3782 45.084L63.3518 47.96V47.9462Z" fill="#FF8B24" fill-opacity="0.5"/>
<path d="M59.5922 51.2375L59.4126 51.5417L54.3008 48.5965C54.3837 48.5136 54.4804 48.4306 54.5633 48.3477L59.5784 51.2514L59.5922 51.2375Z" fill="#FF8B24" fill-opacity="0.5"/>
<path d="M55.8217 54.514L55.6421 54.8182L51 52.1358C51.0691 52.039 51.152 51.956 51.2349 51.873L55.8217 54.5279V54.514Z" fill="#FF8B24" fill-opacity="0.5"/>
<path d="M53.697 58.7451L53.5174 59.0493L48.1016 55.9105C48.1706 55.8137 48.2397 55.7169 48.3088 55.6201L53.697 58.7312V58.7451Z" fill="#FF8B24" fill-opacity="0.5"/>
<path d="M52.328 63.4454L52.1484 63.7496L45.5859 59.9194C45.6412 59.8226 45.6965 59.712 45.7517 59.6152L52.328 63.4454Z" fill="#FF8B24" fill-opacity="0.5"/>
<path d="M49.6465 67.3321L49.4669 67.6363L43.457 64.1657C43.4985 64.0551 43.5537 63.9583 43.5952 63.8477L49.6327 67.3321H49.6465Z" fill="#FF8B24" fill-opacity="0.5"/>
<path d="M48.6375 72.2136L48.4579 72.5178L41.8125 68.6738C41.8401 68.5632 41.8816 68.4526 41.9092 68.3281L48.6237 72.2136H48.6375Z" fill="#FF8B24" fill-opacity="0.5"/>
<path d="M46.9118 76.6783L46.7322 76.9825L40.75 73.5257C40.7638 73.4012 40.7776 73.2768 40.8053 73.1523L46.9118 76.6783Z" fill="#FF8B24" fill-opacity="0.5"/>
<path d="M47.1719 82.2789L46.9923 82.5831L40.6508 78.9189C40.637 78.7806 40.6232 78.6423 40.6094 78.4902L47.1581 82.2789H47.1719Z" fill="#FF8B24" fill-opacity="0.5"/>
<path d="M73.9762 43.1481L73.7965 43.4523L67.8281 40.0094C67.9801 39.9679 68.1321 39.9126 68.284 39.8711L73.9623 43.1481H73.9762Z" fill="#FF8B24" fill-opacity="0.5"/>
<path d="M110.877 28.1459L111.126 27.7726L109.827 27.0397C109.827 27.0397 109.772 27.0121 109.758 26.9983C108.612 26.376 106.954 26.5281 105.089 27.5928C101.635 29.5839 98.8439 33.9948 98.8439 37.4516C98.8439 38.9034 99.3413 39.9543 100.156 40.535C100.281 40.618 100.405 40.701 100.543 40.7563L101.676 41.42L101.925 41.0605C102.85 41.0605 103.928 40.7563 105.075 40.0926C108.529 38.1015 111.32 33.6906 111.32 30.2338C111.32 29.4042 111.154 28.699 110.864 28.1459H110.877Z" fill="#4968FF" fill-opacity="0.5"/>
<path d="M110.109 37.4025C112.865 33.7347 113.419 29.4961 111.346 27.9354C109.273 26.3746 105.357 28.0827 102.601 31.7505C99.844 35.4183 99.2901 39.6568 101.363 41.2176C103.437 42.7784 107.352 41.0703 110.109 37.4025Z" fill="#FF8B24" fill-opacity="0.5"/>
<path d="M72.2912 9.52079L72.5399 9.14746L71.2412 8.41462C71.2412 8.41462 71.186 8.38696 71.1721 8.37314C70.0254 7.75091 68.3675 7.90301 66.5024 8.9677C63.0484 10.9588 60.2577 15.3697 60.2577 18.8265C60.2577 20.2783 60.755 21.3292 61.5702 21.9099C61.6945 21.9929 61.8188 22.0759 61.957 22.1312L63.0899 22.7949L63.3386 22.4354C64.2642 22.4354 65.3419 22.1312 66.4886 21.4675C69.9425 19.4763 72.7333 15.0655 72.7333 11.6087C72.7333 10.7791 72.5675 10.0739 72.2774 9.52079H72.2912Z" fill="#4968FF" fill-opacity="0.5"/>
<path d="M71.5304 18.7814C74.287 15.1136 74.841 10.875 72.7677 9.31426C70.6945 7.75351 66.7791 9.4616 64.0225 13.1294C61.2659 16.7972 60.712 21.0357 62.7852 22.5965C64.8585 24.1573 68.7738 22.4492 71.5304 18.7814Z" fill="#FF8B24" fill-opacity="0.5"/>
<path d="M114.815 72.5444L115.063 72.1711L113.765 71.4382C113.765 71.4382 113.71 71.4106 113.696 71.3968C112.549 70.7745 110.891 70.9266 109.026 71.9913C105.572 73.9824 102.781 78.3933 102.781 81.8501C102.781 83.3019 103.279 84.3528 104.094 84.9335C104.218 85.0165 104.342 85.0995 104.481 85.1548L105.613 85.8185L105.862 85.459C106.788 85.459 107.865 85.1548 109.026 84.4911C112.48 82.5 115.271 78.0891 115.271 74.6323C115.271 73.8027 115.105 73.0975 114.815 72.5444Z" fill="#4968FF" fill-opacity="0.5"/>
<path d="M114.05 81.8068C116.807 78.139 117.36 73.9004 115.287 72.3396C113.214 70.7789 109.299 72.487 106.542 76.1548C103.785 79.8226 103.231 84.0611 105.305 85.6219C107.378 87.1827 111.293 85.4746 114.05 81.8068Z" fill="#FF8B24" fill-opacity="0.5"/>
<path d="M72.3187 104.084L72.5674 103.711L71.2687 102.978C71.2687 102.978 71.2134 102.951 71.1996 102.937C70.0529 102.315 68.395 102.467 66.5299 103.531C63.0759 105.522 60.2852 109.933 60.2852 113.39C60.2852 114.842 60.7825 115.893 61.5977 116.474C61.722 116.557 61.8463 116.64 61.9845 116.695L63.1174 117.359L63.3661 116.999C64.2917 116.999 65.3694 116.695 66.5161 116.031C69.97 114.04 72.7608 109.629 72.7608 106.172C72.7608 105.343 72.595 104.638 72.3049 104.084H72.3187Z" fill="#4968FF" fill-opacity="0.5"/>
<path d="M71.5538 113.338C74.3104 109.67 74.8644 105.432 72.7912 103.871C70.7179 102.31 66.8025 104.018 64.0459 107.686C61.2893 111.354 60.7354 115.592 62.8086 117.153C64.8819 118.714 68.7973 117.006 71.5538 113.338Z" fill="#FF8B24" fill-opacity="0.5"/>
<path d="M33.6039 90.8227L33.8525 90.4494L32.5539 89.7166C32.5539 89.7166 32.4986 89.6889 32.4848 89.6751C31.3381 89.0529 29.6802 89.205 27.815 90.2696C24.3611 92.2608 21.5703 96.6716 21.5703 100.128C21.5703 101.58 22.0677 102.631 22.8828 103.212C23.0072 103.295 23.1315 103.378 23.2697 103.433L24.4025 104.097L24.6512 103.737C25.5769 103.737 26.6545 103.433 27.815 102.769C31.269 100.778 34.0598 96.3674 34.0598 92.9106C34.0598 92.081 33.894 91.3758 33.6039 90.8227Z" fill="#4968FF" fill-opacity="0.5"/>
<path d="M32.8429 100.087C35.5995 96.4192 36.1535 92.1807 34.0802 90.6199C32.007 89.0592 28.0916 90.7673 25.335 94.4351C22.5784 98.1028 22.0245 102.341 24.0977 103.902C26.171 105.463 30.0863 103.755 32.8429 100.087Z" fill="#FF8B24" fill-opacity="0.5"/>
<path d="M24.0336 52.98L24.2822 52.6066L22.9836 51.8738C22.9836 51.8738 22.9283 51.8461 22.9145 51.8323C21.7678 51.2101 20.1099 51.3622 18.2447 52.4269C14.7908 54.418 12 58.8288 12 62.2856C12 63.7375 12.4974 64.7884 13.3125 65.3691C13.4368 65.4521 13.5612 65.535 13.6993 65.5903L14.8322 66.254L15.0809 65.8945C16.0066 65.8945 17.0842 65.5903 18.2309 64.9266C21.6849 62.9355 24.4757 58.5246 24.4757 55.0679C24.4757 54.2382 24.3099 53.533 24.0197 52.98H24.0336Z" fill="#4968FF" fill-opacity="0.5"/>
<path d="M23.257 62.2374C26.0136 58.5696 26.5675 54.3311 24.4943 52.7703C22.421 51.2096 18.5057 52.9177 15.7491 56.5854C12.9925 60.2532 12.4385 64.4918 14.5118 66.0526C16.585 67.6133 20.5004 65.9052 23.257 62.2374Z" fill="#FF8B24" fill-opacity="0.5"/>
<path d="M37.4984 28.146L37.7471 27.7726L36.4484 27.0398C36.4484 27.0398 36.3931 27.0121 36.3793 26.9983C35.2326 26.3761 33.5747 26.5282 31.7096 27.5929C28.2556 29.584 25.4648 33.9949 25.4648 37.4517C25.4648 38.9035 25.9622 39.9544 26.7773 40.5351C26.9017 40.6181 27.026 40.701 27.1642 40.7563L28.2971 41.42L28.5458 41.0605C29.4714 41.0605 30.5491 40.7563 31.6958 40.0926C35.1497 38.1015 37.9405 33.6907 37.9405 30.2339C37.9405 29.4042 37.7747 28.6991 37.4846 28.146H37.4984Z" fill="#4968FF" fill-opacity="0.5"/>
<path d="M36.7374 37.4064C39.494 33.7386 40.048 29.5 37.9747 27.9393C35.9015 26.3785 31.9861 28.0866 29.2295 31.7544C26.4729 35.4222 25.919 39.6607 27.9922 41.2215C30.0655 42.7823 33.9808 41.0742 36.7374 37.4064Z" fill="#FF8B24" fill-opacity="0.5"/>
</g>
<defs>
<clipPath id="clip0_0_968">
<rect width="105" height="112" fill="white" transform="translate(12 8)"/>
</clipPath>
</defs>
</svg>
