<svg width="128" height="128" viewBox="0 0 128 128" fill="none" xmlns="http://www.w3.org/2000/svg">
<g clip-path="url(#clip0_0_2024)">
<g style="mix-blend-mode:multiply" opacity="0.5">
<path d="M99.3829 101.947L60.0371 79.2305H52.9005L13.5547 101.947L52.9005 124.676H60.0371L99.3829 101.947Z" fill="#FF7800"/>
</g>
<path d="M99.33 97.6633L59.9708 74.9473L20.625 97.6633L59.9708 120.393L99.33 97.6633Z" fill="#FF800F"/>
<path d="M59.9708 124.029L20.625 101.3V97.6639L59.9708 120.393V124.029Z" fill="#FF800F"/>
<path d="M99.328 101.3L59.9688 124.029V120.394L99.328 97.6641V101.3Z" fill="#FF8A21"/>
<path d="M105.711 105.984V106.199L106.599 105.674L106.612 105.459L105.711 105.984Z" fill="#FFD7B3"/>
<path d="M104.041 103.979C103.718 103.791 103.395 103.521 103.112 103.198C102.775 102.821 102.493 102.377 102.277 101.892C102.277 101.865 102.25 101.838 102.237 101.811L101.496 100.047C101.496 100.047 101.469 99.9798 101.456 99.9529C101.227 99.4277 100.917 98.943 100.554 98.539C100.244 98.1889 99.8939 97.8927 99.5438 97.6907L97.6991 96.627L96.7969 97.1521L98.6416 98.2159C98.9917 98.4178 99.3418 98.7141 99.6515 99.0642C100.015 99.4681 100.325 99.9529 100.554 100.478C100.567 100.505 100.581 100.545 100.594 100.572L101.335 102.336C101.335 102.336 101.362 102.39 101.375 102.417C101.591 102.902 101.873 103.346 102.21 103.723C102.493 104.046 102.816 104.316 103.139 104.504L105.711 105.985L106.613 105.46L104.041 103.979Z" fill="url(#paint0_linear_0_2024)"/>
<path d="M98.6533 98.2161C99.4478 98.6739 100.175 99.5626 100.606 100.573L101.346 102.337C101.737 103.266 102.41 104.087 103.137 104.504L105.709 105.986V106.201L103.137 104.72C102.343 104.262 101.616 103.373 101.185 102.363L100.444 100.599C100.054 99.6704 99.3805 98.849 98.6533 98.4315L96.8086 97.3678V97.1523L98.6533 98.2161Z" fill="#FFC087"/>
<path d="M100.328 109.093V109.308L101.229 108.784V108.568L100.328 109.093Z" fill="#FFD7B3"/>
<path d="M98.6584 107.088C98.3353 106.9 98.0121 106.631 97.7293 106.307C97.3927 105.93 97.1099 105.486 96.8945 105.001C96.8945 104.974 96.8675 104.947 96.8541 104.92L96.1135 103.157C96.1135 103.157 96.0865 103.089 96.0731 103.062C95.8442 102.537 95.5345 102.052 95.1709 101.648C94.8612 101.298 94.5111 101.002 94.161 100.8L92.3162 99.7363L91.4141 100.261L93.2588 101.325C93.6089 101.527 93.959 101.823 94.2687 102.174C94.6188 102.578 94.942 103.062 95.1709 103.587C95.1844 103.614 95.1978 103.655 95.2113 103.682L95.9519 105.446C95.9519 105.446 95.9788 105.5 95.9923 105.526C96.2077 106.011 96.4905 106.456 96.8271 106.833C97.1099 107.156 97.4331 107.425 97.7562 107.614L100.328 109.095L101.23 108.57L98.6584 107.088Z" fill="url(#paint1_linear_0_2024)"/>
<path d="M93.2705 101.325C94.065 101.783 94.7921 102.672 95.223 103.682L95.9636 105.446C96.3541 106.375 97.0274 107.196 97.7545 107.614L100.326 109.095V109.31L97.7545 107.829C96.96 107.371 96.2329 106.483 95.802 105.473L95.0614 103.709C94.6709 102.78 93.9977 101.958 93.2705 101.541L91.4258 100.477V100.262L93.2705 101.325Z" fill="#FFC087"/>
<path d="M94.9375 112.204V112.406L95.8388 111.895V111.68L94.9375 112.204Z" fill="#FFD7B3"/>
<path d="M93.2717 110.2C92.9485 110.011 92.6254 109.742 92.3426 109.419C92.006 109.042 91.7232 108.597 91.5077 108.113C91.5077 108.086 91.4808 108.059 91.4674 108.032L90.7268 106.268C90.7268 106.268 90.6998 106.201 90.6864 106.174C90.4574 105.648 90.1477 105.164 89.7842 104.76C89.4745 104.41 89.1244 104.113 88.7743 103.911L86.9295 102.848L86.0273 103.373L87.8721 104.437C88.2222 104.639 88.5723 104.935 88.882 105.285C89.2456 105.689 89.5553 106.174 89.7842 106.699C89.7976 106.726 89.8111 106.766 89.8246 106.793L90.5652 108.557C90.5652 108.557 90.5921 108.611 90.6056 108.638C90.821 109.123 91.1038 109.567 91.4404 109.944C91.7232 110.267 92.0464 110.536 92.3695 110.725L94.9414 112.206L95.8436 111.681L93.2717 110.2Z" fill="url(#paint2_linear_0_2024)"/>
<path d="M87.8838 104.437C88.6783 104.895 89.4054 105.783 89.8363 106.793L90.5769 108.557C90.9674 109.486 91.6406 110.308 92.3678 110.725L94.9397 112.206V112.422L92.3678 110.941C91.5733 110.483 90.8462 109.594 90.4153 108.584L89.6747 106.82C89.2842 105.891 88.6109 105.07 87.8838 104.652L86.0391 103.588V103.373L87.8838 104.437Z" fill="#FFC087"/>
<path d="M89.5547 115.302V115.517L90.456 115.006V114.791L89.5547 115.302Z" fill="#FFD7B3"/>
<path d="M87.885 113.311C87.5618 113.123 87.2386 112.853 86.9559 112.53C86.6192 112.153 86.3365 111.709 86.121 111.224C86.121 111.197 86.0941 111.17 86.0806 111.143L85.34 109.379C85.34 109.379 85.3131 109.312 85.2996 109.285C85.0707 108.76 84.761 108.275 84.3975 107.871C84.0878 107.521 83.7377 107.225 83.3876 107.023L81.5428 105.959L80.6406 106.484L82.4854 107.548C82.8355 107.75 83.1856 108.046 83.4953 108.396C83.8588 108.8 84.1686 109.285 84.3975 109.81C84.4109 109.837 84.4244 109.877 84.4379 109.904L85.1784 111.668C85.1784 111.668 85.2054 111.722 85.2188 111.749C85.4343 112.234 85.7171 112.678 86.0537 113.055C86.3365 113.378 86.6596 113.648 86.9828 113.836L89.5547 115.317L90.4569 114.792L87.885 113.311Z" fill="url(#paint3_linear_0_2024)"/>
<path d="M82.4972 107.534C83.2916 107.992 84.0187 108.881 84.4496 109.891L85.1902 111.655C85.5807 112.584 86.254 113.405 86.9811 113.823L89.553 115.304V115.519L86.9811 114.038C86.1867 113.58 85.4595 112.692 85.0286 111.682L84.288 109.918C83.8976 108.989 83.2243 108.167 82.4972 107.75L80.6524 106.686V106.471L82.4972 107.534Z" fill="#FFC087"/>
<path d="M84.1641 118.415V118.631L85.0654 118.106V117.904L84.1641 118.415Z" fill="#FFD7B3"/>
<path d="M82.4983 116.409C82.1751 116.22 81.8519 115.951 81.5692 115.628C81.2325 115.251 80.9498 114.806 80.7343 114.322C80.7343 114.295 80.7074 114.268 80.6939 114.241L79.9533 112.477C79.9533 112.477 79.9264 112.41 79.9129 112.383C79.684 111.857 79.3743 111.373 79.0107 110.969C78.701 110.619 78.3509 110.322 78.0008 110.12L76.1561 109.057L75.2539 109.582L77.0987 110.646C77.4488 110.848 77.7989 111.144 78.1086 111.494C78.4587 111.898 78.7818 112.383 79.0107 112.908C79.0242 112.935 79.0377 112.975 79.0511 113.002L79.7917 114.766C79.7917 114.766 79.8187 114.82 79.8321 114.847C80.0476 115.332 80.3303 115.776 80.667 116.153C80.9498 116.476 81.2729 116.745 81.5961 116.934L84.168 118.415L85.0702 117.89L82.4983 116.409Z" fill="url(#paint4_linear_0_2024)"/>
<path d="M77.1104 110.646C77.9048 111.104 78.632 111.992 79.0629 113.002L79.8035 114.766C80.1939 115.695 80.8672 116.517 81.5943 116.934L84.1662 118.415V118.631L81.5943 117.15C80.7999 116.692 80.0728 115.803 79.6419 114.793L78.9013 113.029C78.5108 112.1 77.8375 111.279 77.1104 110.861L75.2656 109.797V109.582L77.1104 110.646Z" fill="#FFC087"/>
<path d="M78.781 121.523V121.738L79.6823 121.213V120.998L78.781 121.523Z" fill="#FFD7B3"/>
<path d="M77.1152 119.518C76.792 119.33 76.4689 119.06 76.1861 118.737C75.8495 118.36 75.5667 117.916 75.3513 117.431C75.3513 117.404 75.3243 117.377 75.3109 117.35L74.5703 115.586C74.5703 115.586 74.5433 115.519 74.5299 115.492C74.301 114.967 73.9913 114.482 73.6277 114.078C73.318 113.728 72.9679 113.432 72.6178 113.23L70.773 112.166L69.8708 112.691L71.7156 113.755C72.0657 113.957 72.4158 114.253 72.7255 114.603C73.0756 115.007 73.3988 115.492 73.6277 116.017C73.6412 116.044 73.6546 116.084 73.6681 116.111L74.4087 117.875C74.4087 117.875 74.4356 117.929 74.4491 117.956C74.6645 118.441 74.9473 118.885 75.2839 119.262C75.5667 119.585 75.8899 119.855 76.213 120.043L78.7849 121.524L79.6871 120.999L77.1152 119.518Z" fill="url(#paint5_linear_0_2024)"/>
<path d="M71.7274 113.756C72.5218 114.213 73.249 115.102 73.6799 116.112L74.4205 117.876C74.8109 118.805 75.4842 119.626 76.2113 120.044L78.7832 121.525V121.741L76.2113 120.259C75.4169 119.801 74.6898 118.913 74.2589 117.903L73.5183 116.152C73.1278 115.223 72.4545 114.402 71.7274 113.984L69.8826 112.921V112.705L71.7274 113.769V113.756Z" fill="#FFC087"/>
<path d="M73.3984 124.632V124.847L74.2998 124.323V124.107L73.3984 124.632Z" fill="#FFD7B3"/>
<path d="M71.7287 122.627C71.4056 122.439 71.0824 122.17 70.7996 121.846C70.463 121.469 70.1802 121.025 69.9648 120.54C69.9648 120.513 69.9378 120.486 69.9244 120.46L69.1838 118.696C69.1838 118.696 69.1569 118.628 69.1434 118.601C68.9145 118.076 68.6048 117.591 68.2412 117.187C67.9315 116.837 67.5814 116.541 67.2313 116.339L65.3866 115.275L64.4844 115.801L66.3291 116.864C66.6792 117.066 67.0293 117.363 67.339 117.713C67.7026 118.117 68.0123 118.601 68.2412 119.126C68.2547 119.153 68.2681 119.194 68.2816 119.221L69.0222 120.985C69.0222 120.985 69.0491 121.039 69.0626 121.065C69.278 121.55 69.5608 121.995 69.8974 122.372C70.1802 122.695 70.5034 122.964 70.8266 123.153L73.3984 124.634L74.3006 124.109L71.7287 122.627Z" fill="url(#paint6_linear_0_2024)"/>
<path d="M66.3408 116.865C67.1353 117.322 67.8624 118.211 68.2933 119.221L69.0339 120.985C69.4244 121.914 70.0977 122.735 70.8248 123.153L73.3967 124.634V124.85L70.8248 123.368C70.0304 122.91 69.3032 122.022 68.8723 121.012L68.1317 119.248C67.7412 118.319 67.068 117.497 66.3408 117.08L64.4961 116.016V115.801L66.3408 116.865Z" fill="#FFC087"/>
<path d="M68.0078 127.743V127.958L68.9091 127.434V127.219L68.0078 127.743Z" fill="#FFD7B3"/>
<path d="M66.342 125.739C66.0189 125.55 65.6957 125.281 65.4129 124.958C65.0763 124.581 64.7935 124.136 64.5781 123.652C64.5781 123.625 64.5511 123.598 64.5377 123.571L63.7971 121.807C63.7971 121.807 63.7701 121.739 63.7567 121.713C63.5278 121.187 63.2181 120.703 62.8545 120.299C62.5448 119.949 62.1947 119.652 61.8446 119.45L59.9998 118.387L59.0977 118.912L60.9424 119.975C61.2925 120.177 61.6426 120.474 61.9523 120.824C62.3159 121.228 62.6256 121.713 62.8545 122.238C62.868 122.265 62.8814 122.305 62.8949 122.332L63.6355 124.096C63.6355 124.096 63.6624 124.15 63.6759 124.177C63.8913 124.661 64.1741 125.106 64.5107 125.483C64.7935 125.806 65.1167 126.075 65.4398 126.264L68.0117 127.745L68.9139 127.22L66.342 125.739Z" fill="url(#paint7_linear_0_2024)"/>
<path d="M60.9541 119.976C61.7486 120.434 62.4757 121.322 62.9066 122.332L63.6472 124.096C64.0377 125.025 64.711 125.847 65.4381 126.264L68.01 127.745V127.961L65.4381 126.479C64.6436 126.022 63.9165 125.133 63.4856 124.123L62.745 122.359C62.3545 121.43 61.6813 120.609 60.9541 120.191L59.1094 119.127V118.912L60.9541 119.976Z" fill="#FFC087"/>
<path d="M51.5897 73.8146L54.1481 75.2958C54.7271 75.6325 55.2657 75.6863 55.6697 75.4439L54.7675 75.9691C54.3635 76.198 53.8249 76.1576 53.2459 75.821L50.6875 74.3398L51.5897 73.8146Z" fill="#FFF2E6"/>
<path d="M55.2238 75.9279L55.9778 75.0392C56.0586 74.9449 56.1529 74.8641 56.2606 74.7968L57.1628 74.2717C57.0551 74.3255 56.9608 74.4063 56.88 74.514L56.1259 75.4028C56.0317 75.5105 55.9374 75.6047 55.8162 75.6721L54.9141 76.1972C55.0353 76.1299 55.1295 76.0491 55.2238 75.9279Z" fill="#FFC087"/>
<path d="M50.6993 74.3398L53.2577 75.821C53.9983 76.2519 54.6581 76.2115 55.0755 75.7267L55.8161 74.8246C56.2605 74.3129 56.9876 74.2725 57.7821 74.7303L59.6268 75.7941V76.023L57.7821 74.9592C57.0549 74.5418 56.3817 74.5687 55.9777 75.04L55.2236 75.9287C54.7793 76.4539 54.0522 76.4808 53.2577 76.023L50.6993 74.5418V74.3263V74.3398Z" fill="#FFC087"/>
<path d="M59.6306 75.7944L60.5185 75.2697V75.4984L59.6172 76.023L59.6306 75.7944Z" fill="#FFC087"/>
<path d="M57.0155 74.0435C57.4463 73.7876 58.0388 73.8415 58.6717 74.205L60.5165 75.2688L59.6143 75.794L57.7695 74.7302C57.1366 74.3666 56.5442 74.3128 56.1133 74.5686L57.0155 74.0435Z" fill="#FFF2E6"/>
<path d="M46.2069 76.924L48.7653 78.4052C49.3443 78.7418 49.8829 78.7957 50.2869 78.5533L49.3847 79.0785C48.9807 79.3074 48.4421 79.267 47.8631 78.9303L45.3047 77.4492L46.2069 76.924Z" fill="#FFF2E6"/>
<path d="M49.841 79.0373L50.595 78.1486C50.6758 78.0543 50.7701 77.9735 50.8778 77.9062L51.78 77.381C51.6722 77.4349 51.578 77.5157 51.4972 77.6234L50.7431 78.5121C50.6489 78.6199 50.5546 78.7141 50.4334 78.7814L49.5312 79.3066C49.6524 79.2393 49.7467 79.1585 49.841 79.0373Z" fill="#FFC087"/>
<path d="M45.3165 77.4354L47.8749 78.9166C48.6155 79.3475 49.2753 79.3071 49.6927 78.8223L50.4333 77.9202C50.8777 77.4085 51.6048 77.3681 52.3992 77.8259L54.244 78.8897V79.1186L52.3992 78.0548C51.6721 77.6374 50.9988 77.6643 50.5949 78.1356L49.8408 79.0243C49.3965 79.5495 48.6693 79.5764 47.8749 79.1186L45.3165 77.6374V77.4219V77.4354Z" fill="#FFC087"/>
<path d="M54.2461 78.9037L55.134 78.3791V78.6078L54.2461 79.1324V78.9037Z" fill="#FFC087"/>
<path d="M51.6326 77.1528C52.0635 76.897 52.656 76.9509 53.2889 77.3144L55.1336 78.3782L54.2315 78.9033L52.3867 77.8396C51.7538 77.476 51.1614 77.4221 50.7305 77.678L51.6326 77.1528Z" fill="#FFF2E6"/>
<path d="M40.8319 80.0373L43.3903 81.5185C43.9693 81.8551 44.5079 81.909 44.9119 81.6666L44.0097 82.1918C43.6057 82.4207 43.0671 82.3803 42.4881 82.0436L39.9297 80.5624L40.8319 80.0373Z" fill="#FFF2E6"/>
<path d="M44.4542 82.1506L45.2083 81.2618C45.2891 81.1676 45.3833 81.0868 45.4911 81.0195L46.3932 80.4943C46.2855 80.5482 46.1913 80.629 46.1105 80.7367L45.3564 81.6254C45.2622 81.7331 45.1544 81.8274 45.0467 81.8947L44.1445 82.4199C44.2523 82.3525 44.36 82.2718 44.4542 82.1506Z" fill="#FFC087"/>
<path d="M39.9297 80.5487L42.4881 82.0299C43.2287 82.4608 43.8885 82.4204 44.3059 81.9356L45.0465 81.0334C45.4909 80.5218 46.218 80.4814 47.0125 80.9392L48.8572 82.0029V82.2319L47.0125 81.1681C46.2853 80.7507 45.6121 80.7776 45.2081 81.2489L44.454 82.1376C44.0097 82.6627 43.2826 82.6897 42.4881 82.2319L39.9297 80.7507V80.5352V80.5487Z" fill="#FFC087"/>
<path d="M48.8594 82.017L49.7472 81.4924V81.7211L48.8594 82.2323V82.017Z" fill="#FFC087"/>
<path d="M46.2459 80.2661C46.6768 80.0103 47.2693 80.0641 47.9022 80.4277L49.7469 81.4915L48.8447 82.0166L47 80.9528C46.3671 80.5893 45.7746 80.5354 45.3438 80.7913L46.2459 80.2661Z" fill="#FFF2E6"/>
<path d="M35.4491 83.1349L38.0075 84.6161C38.5865 84.9528 39.1251 85.0066 39.5291 84.7643L38.6269 85.2894C38.2229 85.5183 37.6843 85.4779 37.1053 85.1413L34.5469 83.6601L35.4491 83.1349Z" fill="#FFF2E6"/>
<path d="M39.0714 85.2619L39.8255 84.3732C39.9063 84.2789 40.0005 84.1981 40.1083 84.1308L41.0104 83.6057C40.9027 83.6595 40.8085 83.7403 40.7277 83.848L39.9736 84.7367C39.8793 84.8445 39.7851 84.9387 39.6639 85.0061L38.7617 85.5312C38.8694 85.4639 38.9772 85.3831 39.0714 85.2619Z" fill="#FFC087"/>
<path d="M34.5469 83.6601L37.1053 85.1413C37.8459 85.5722 38.5057 85.5318 38.9231 85.0471L39.6637 84.1449C40.1081 83.6332 40.8352 83.5928 41.6297 84.0506L43.4744 85.1144V85.3433L41.6297 84.2795C40.9025 83.8621 40.2293 83.889 39.8253 84.3603L39.0712 85.249C38.6269 85.7742 37.8997 85.8011 37.1053 85.3433L34.5469 83.8621V83.6467V83.6601Z" fill="#FFC087"/>
<path d="M43.4766 85.1264L44.3644 84.6017V84.8304L43.4766 85.3416V85.1264Z" fill="#FFC087"/>
<path d="M40.8631 83.3638C41.294 83.1079 41.8865 83.1618 42.5194 83.5254L44.3641 84.5891L43.4619 85.1143L41.6172 84.0505C40.9843 83.6869 40.3918 83.6331 39.9609 83.8889L40.8631 83.3638Z" fill="#FFF2E6"/>
<path d="M30.0623 86.2443L32.6208 87.7255C33.1998 88.0621 33.7384 88.116 34.1423 87.8736L33.2402 88.3988C32.8362 88.6277 32.2976 88.5873 31.7186 88.2507L29.1602 86.7695L30.0623 86.2443Z" fill="#FFF2E6"/>
<path d="M33.6847 88.3713L34.4388 87.4826C34.5196 87.3883 34.6138 87.3075 34.7215 87.2402L35.6237 86.715C35.516 86.7689 35.4217 86.8497 35.3409 86.9574L34.5869 87.8461C34.4926 87.9538 34.3984 88.0481 34.2772 88.1154L33.375 88.6406C33.4962 88.5732 33.5904 88.4924 33.6847 88.3713Z" fill="#FFC087"/>
<path d="M29.1602 86.7695L31.7186 88.2507C32.4592 88.6816 33.119 88.6412 33.5364 88.1564L34.277 87.2542C34.7214 86.7426 35.4485 86.7022 36.2429 87.16L38.0877 88.2237V88.4527L36.2429 87.3889C35.5158 86.9715 34.8425 86.9984 34.4386 87.4697L33.6845 88.3584C33.2402 88.8836 32.513 88.9105 31.7186 88.4527L29.1602 86.9715V86.756V86.7695Z" fill="#FFC087"/>
<path d="M38.0898 88.2223L38.9912 87.7111L38.9777 87.9264L38.0898 88.451V88.2223Z" fill="#FFC087"/>
<path d="M35.4725 86.4731C35.9034 86.2173 36.4959 86.2712 37.1287 86.6347L38.9735 87.6985L38.0713 88.2236L36.2266 87.1599C35.5937 86.7963 35.0012 86.7425 34.5703 86.9983L35.4725 86.4731Z" fill="#FFF2E6"/>
<path d="M24.6754 89.3537L27.2338 90.8349C27.8128 91.1715 28.3514 91.2254 28.7554 90.983L27.8532 91.5081C27.4492 91.737 26.9106 91.6966 26.3316 91.36L23.7732 89.8788L24.6754 89.3537Z" fill="#FFF2E6"/>
<path d="M28.2977 91.4806L29.0518 90.5919C29.1326 90.4976 29.2269 90.4169 29.3346 90.3495L30.2368 89.8244C30.129 89.8782 30.0348 89.959 29.954 90.0668L29.1999 90.9555C29.1057 91.0632 28.9979 91.1574 28.8902 91.2248L27.988 91.7499C28.1092 91.6826 28.2035 91.6018 28.2977 91.4806Z" fill="#FFC087"/>
<path d="M23.7732 89.8788L26.3316 91.36C27.0722 91.7909 27.732 91.7505 28.1494 91.2658L28.89 90.3636C29.3344 89.8519 30.0615 89.8115 30.856 90.2693L32.7007 91.3331V91.562L30.856 90.4982C30.1288 90.0808 29.4556 90.1078 29.0516 90.579L28.2976 91.4678C27.8532 91.9929 27.1261 92.0198 26.3316 91.562L23.7732 90.0808V89.8654V89.8788Z" fill="#FFC087"/>
<path d="M32.7029 91.3317L33.6042 90.8205V91.0357L32.7029 91.5604V91.3317Z" fill="#FFC087"/>
<path d="M30.0894 89.5825C30.5203 89.3267 31.1128 89.3805 31.7457 89.7441L33.5904 90.8078L32.6882 91.333L30.8435 90.2692C30.2106 89.9057 29.6181 89.8518 29.1873 90.1076L30.0894 89.5825Z" fill="#FFF2E6"/>
<path d="M19.2889 92.4631L21.8473 93.9443C22.4263 94.2809 22.9649 94.3348 23.3689 94.0924L22.4667 94.6175C22.0628 94.8464 21.5241 94.8061 20.9451 94.4694L18.3867 92.9882L19.2889 92.4631Z" fill="#FFF2E6"/>
<path d="M22.9113 94.5763L23.6653 93.6876C23.7461 93.5934 23.8404 93.5126 23.9481 93.4453L24.8503 92.9201C24.7426 92.974 24.6483 93.0548 24.5675 93.1625L23.8134 94.0512C23.7192 94.1589 23.6115 94.2532 23.5037 94.3205L22.6016 94.8457C22.7093 94.7783 22.817 94.6975 22.9113 94.5763Z" fill="#FFC087"/>
<path d="M18.3867 92.9882L20.9451 94.4694C21.6857 94.9003 22.3455 94.8598 22.7629 94.3751L23.5035 93.4729C23.9479 92.9612 24.675 92.9208 25.4694 93.3787L27.3142 94.4424V94.6713L25.4694 93.6076C24.7423 93.1901 24.069 93.2171 23.6651 93.6884L22.911 94.5771C22.4667 95.1022 21.7395 95.1292 20.9451 94.6713L18.3867 93.1901V92.9747V92.9882Z" fill="#FFC087"/>
<path d="M27.3164 94.4428L28.2177 93.9182V94.1468L27.3164 94.6715V94.4428Z" fill="#FFC087"/>
<path d="M24.6991 92.6919C25.1299 92.4361 25.7224 92.4899 26.3553 92.8535L28.2 93.9172L27.2979 94.4424L25.4531 93.3786C24.8202 93.0151 24.2278 92.9612 23.7969 93.2171L24.6991 92.6919Z" fill="#FFF2E6"/>
<path d="M13.9022 95.5744L16.4606 97.0556C17.0396 97.3922 17.5782 97.4461 17.9822 97.2037L17.08 97.7289C16.676 97.9578 16.1374 97.9174 15.5584 97.5807L13 96.0996L13.9022 95.5744Z" fill="#FFF2E6"/>
<path d="M17.5245 97.6877L18.2786 96.799C18.3594 96.7047 18.4537 96.6239 18.5614 96.5566L19.4636 96.0314C19.3558 96.0853 19.2616 96.1661 19.1808 96.2738L18.4267 97.1625C18.3325 97.2703 18.2382 97.3645 18.117 97.4318L17.2148 97.957C17.336 97.8897 17.4303 97.8089 17.5245 97.6877Z" fill="#FFC087"/>
<path d="M13 96.0997L15.5584 97.5809C16.299 98.0118 16.9588 97.9714 17.3762 97.4866L18.1168 96.5845C18.5612 96.0728 19.2883 96.0324 20.0828 96.4902L21.9275 97.554V97.7829L20.0828 96.7191C19.3557 96.3017 18.6824 96.3286 18.2784 96.7999L17.5244 97.6886C17.08 98.2138 16.3529 98.2407 15.5584 97.7829L13 96.3017V96.0862V96.0997Z" fill="#FFC087"/>
<path d="M21.9297 97.5541L22.831 97.0295V97.2582L21.9297 97.7828V97.5541Z" fill="#FFC087"/>
<path d="M19.3162 95.8032C19.7471 95.5474 20.3396 95.6012 20.9725 95.9648L22.8172 97.0286L21.9151 97.5537L20.0703 96.49C19.4374 96.1264 18.845 96.0725 18.4141 96.3284L19.3162 95.8032Z" fill="#FFF2E6"/>
<path d="M14.1708 106.132V106.347L13.2695 105.823V105.607L14.1708 106.132Z" fill="#FFC087"/>
<path d="M15.8414 104.127C16.1646 103.939 16.4878 103.67 16.7705 103.346C17.1072 102.969 17.3899 102.525 17.6054 102.04C17.6054 102.013 17.6323 101.986 17.6458 101.96L18.3864 100.196C18.3864 100.196 18.4133 100.128 18.4268 100.101C18.6557 99.5762 18.9654 99.0914 19.3289 98.6875C19.6386 98.3374 19.9887 98.0411 20.3388 97.8392L22.1836 96.7754L23.0858 97.3005L21.241 98.3643C20.8909 98.5663 20.5408 98.8625 20.2311 99.2126C19.881 99.6166 19.5579 100.101 19.3289 100.626C19.3155 100.653 19.302 100.694 19.2885 100.721L18.548 102.485C18.548 102.485 18.521 102.539 18.5076 102.565C18.2921 103.05 18.0093 103.495 17.6727 103.872C17.3899 104.195 17.0668 104.464 16.7436 104.653L14.1717 106.134L13.2695 105.609L15.8414 104.127Z" fill="url(#paint8_linear_0_2024)"/>
<path d="M21.2277 98.3645C20.4333 98.8224 19.7061 99.7111 19.2752 100.721L18.5347 102.485C18.1442 103.414 17.4709 104.235 16.7438 104.653L14.1719 106.134V106.35L16.7438 104.868C17.5382 104.41 18.2653 103.522 18.6962 102.512L19.4368 100.748C19.8273 99.8188 20.5006 98.9974 21.2277 98.58L23.0725 97.5162V97.3008L21.2277 98.3645Z" fill="#FFD7B3"/>
<path d="M19.5537 109.239V109.455L18.6523 108.93V108.715L19.5537 109.239Z" fill="#FFC087"/>
<path d="M21.2125 107.235C21.5357 107.046 21.8588 106.777 22.1416 106.454C22.4783 106.077 22.761 105.633 22.9765 105.148C22.9765 105.121 23.0034 105.094 23.0169 105.067L23.7575 103.303C23.7575 103.303 23.7844 103.236 23.7979 103.209C24.0268 102.684 24.3365 102.199 24.7 101.795C25.0097 101.445 25.3598 101.149 25.7099 100.947L27.5547 99.8828L28.4569 100.408L26.6121 101.472C26.262 101.674 25.9119 101.97 25.6022 102.32C25.2387 102.724 24.9289 103.209 24.7 103.734C24.6866 103.761 24.6731 103.801 24.6596 103.828L23.919 105.592C23.919 105.592 23.8921 105.646 23.8787 105.673C23.6632 106.158 23.3804 106.602 23.0438 106.979C22.761 107.302 22.4379 107.572 22.1147 107.76L19.5428 109.241L18.6406 108.716L21.2125 107.235Z" fill="url(#paint9_linear_0_2024)"/>
<path d="M26.6105 101.472C25.8161 101.93 25.089 102.818 24.6581 103.828L23.9175 105.579C23.527 106.508 22.8537 107.329 22.1266 107.747L19.5547 109.228V109.443L22.1266 107.962C22.921 107.504 23.6482 106.616 24.079 105.606L24.8196 103.842C25.2101 102.913 25.8834 102.091 26.6105 101.674L28.4553 100.61V100.395L26.6105 101.458V101.472Z" fill="#FFD7B3"/>
<path d="M24.9404 112.351V112.566L24.0391 112.041V111.826L24.9404 112.351Z" fill="#FFC087"/>
<path d="M26.5992 110.346C26.9224 110.158 27.2456 109.888 27.5283 109.565C27.865 109.188 28.1477 108.744 28.3632 108.259C28.3632 108.232 28.3901 108.205 28.4036 108.178L29.1442 106.414C29.1442 106.414 29.1711 106.347 29.1846 106.32C29.4135 105.795 29.7232 105.31 30.0868 104.906C30.3965 104.556 30.7466 104.26 31.0967 104.058L32.9414 102.994L33.8436 103.519L31.9988 104.583C31.6487 104.785 31.2986 105.081 30.9889 105.431C30.6254 105.835 30.3157 106.32 30.0868 106.845C30.0733 106.872 30.0598 106.913 30.0464 106.939L29.3058 108.703C29.3058 108.703 29.2788 108.757 29.2654 108.784C29.0499 109.269 28.7672 109.713 28.4305 110.09C28.1477 110.414 27.8246 110.683 27.5014 110.871L24.9295 112.353L24.0273 111.827L26.5992 110.346Z" fill="url(#paint10_linear_0_2024)"/>
<path d="M31.9973 104.581C31.2028 105.039 30.4757 105.928 30.0448 106.938L29.3042 108.702C28.9137 109.631 28.2404 110.452 27.5133 110.87L24.9414 112.351V112.566L27.5133 111.085C28.3077 110.627 29.0349 109.739 29.4658 108.729L30.2064 106.965C30.5969 106.036 31.2701 105.214 31.9973 104.797L33.842 103.733V103.518L31.9973 104.581Z" fill="#FFD7B3"/>
<path d="M30.3271 115.462V115.677L29.4258 115.153V114.938L30.3271 115.462Z" fill="#FFC087"/>
<path d="M31.9859 113.458C32.3091 113.269 32.6323 113 32.9151 112.677C33.2517 112.3 33.5345 111.855 33.7499 111.37C33.7499 111.343 33.7768 111.317 33.7903 111.29L34.5309 109.526C34.5309 109.526 34.5578 109.458 34.5713 109.431C34.8002 108.906 35.1099 108.422 35.4735 108.018C35.7832 107.667 36.1333 107.371 36.4834 107.169L38.3281 106.105L39.2303 106.631L37.3856 107.694C37.0355 107.896 36.6854 108.193 36.3757 108.543C36.0121 108.947 35.7024 109.431 35.4735 109.957C35.46 109.983 35.4465 110.024 35.4331 110.051L34.6925 111.815C34.6925 111.815 34.6656 111.869 34.6521 111.896C34.4366 112.38 34.1539 112.825 33.8172 113.202C33.5345 113.525 33.2113 113.794 32.8881 113.983L30.3162 115.464L29.4141 114.939L31.9859 113.458Z" fill="url(#paint11_linear_0_2024)"/>
<path d="M37.384 107.695C36.5895 108.152 35.8624 109.041 35.4315 110.051L34.6909 111.815C34.3004 112.744 33.6271 113.566 32.9 113.983L30.3281 115.464V115.68L32.9 114.198C33.6945 113.741 34.4216 112.852 34.8525 111.842L35.5931 110.078C35.9836 109.149 36.6568 108.327 37.384 107.91L39.2287 106.846V106.631L37.384 107.695Z" fill="#FFD7B3"/>
<path d="M35.7004 118.573L35.7138 118.789L34.8125 118.264V118.049L35.7004 118.573Z" fill="#FFC087"/>
<path d="M37.3727 116.569C37.6958 116.38 38.019 116.111 38.3018 115.788C38.6384 115.411 38.9212 114.967 39.1366 114.482C39.1366 114.455 39.1636 114.428 39.177 114.401L39.9176 112.637C39.9176 112.637 39.9445 112.57 39.958 112.543C40.1869 112.018 40.4966 111.533 40.8602 111.129C41.1699 110.779 41.52 110.483 41.8701 110.281L43.7148 109.217L44.617 109.742L42.7723 110.806C42.4222 111.008 42.0721 111.304 41.7624 111.654C41.4123 112.058 41.0891 112.543 40.8602 113.068C40.8467 113.095 40.8333 113.135 40.8198 113.162L40.0792 114.926C40.0792 114.926 40.0523 114.98 40.0388 115.007C39.8234 115.492 39.5406 115.936 39.204 116.313C38.9212 116.636 38.598 116.906 38.2748 117.094L35.703 118.575L34.8008 118.05L37.3727 116.569Z" fill="url(#paint12_linear_0_2024)"/>
<path d="M42.759 110.806C41.9645 111.264 41.2374 112.152 40.8065 113.162L40.0659 114.926C39.6754 115.855 39.0021 116.677 38.275 117.094L35.7031 118.575V118.791L38.275 117.31C39.0695 116.852 39.7966 115.963 40.2275 114.953L40.9681 113.189C41.3586 112.26 42.0318 111.439 42.759 111.021L44.6037 109.958V109.742L42.759 110.806Z" fill="#FFD7B3"/>
<path d="M41.0871 121.683V121.898L40.1992 121.373V121.158L41.0871 121.683Z" fill="#FFC087"/>
<path d="M42.7594 119.678C43.0826 119.49 43.4057 119.22 43.6885 118.897C44.0251 118.52 44.3079 118.076 44.5233 117.591C44.5233 117.564 44.5503 117.537 44.5637 117.51L45.3043 115.746C45.3043 115.746 45.3313 115.679 45.3447 115.652C45.5736 115.127 45.8833 114.642 46.2469 114.238C46.5566 113.888 46.9067 113.592 47.2568 113.39L49.1016 112.326L50.0037 112.851L48.159 113.915C47.8089 114.117 47.4588 114.413 47.1491 114.763C46.7855 115.167 46.4758 115.652 46.2469 116.177C46.2334 116.204 46.22 116.245 46.2065 116.272L45.4659 118.035C45.4659 118.035 45.439 118.089 45.4255 118.116C45.2101 118.601 44.9273 119.045 44.5907 119.422C44.3079 119.746 43.9847 120.015 43.6616 120.203L41.0897 121.685L40.1875 121.159L42.7594 119.678Z" fill="url(#paint13_linear_0_2024)"/>
<path d="M48.1457 113.916C47.3512 114.373 46.6241 115.262 46.1932 116.272L45.4526 118.036C45.0621 118.965 44.3889 119.786 43.6617 120.204L41.0898 121.685V121.9L43.6617 120.419C44.4562 119.961 45.1833 119.073 45.6142 118.063L46.3548 116.312C46.7453 115.383 47.4186 114.562 48.1457 114.144L49.9904 113.081V112.865L48.1457 113.929V113.916Z" fill="#FFD7B3"/>
<path d="M46.4699 124.794V125.009L45.582 124.485V124.27L46.4699 124.794Z" fill="#FFC087"/>
<path d="M48.1422 122.79C48.4654 122.601 48.7885 122.332 49.0713 122.009C49.4079 121.632 49.6907 121.187 49.9062 120.702C49.9062 120.676 49.9331 120.649 49.9466 120.622L50.6871 118.858C50.6871 118.858 50.7141 118.79 50.7275 118.763C50.9565 118.238 51.2662 117.754 51.6297 117.35C51.9394 116.999 52.2895 116.703 52.6396 116.501L54.4844 115.438L55.3866 115.963L53.5418 117.026C53.1917 117.228 52.8416 117.525 52.5319 117.875C52.1683 118.279 51.8586 118.763 51.6297 119.289C51.6163 119.316 51.6028 119.356 51.5893 119.383L50.8487 121.147C50.8487 121.147 50.8218 121.201 50.8083 121.228C50.5929 121.712 50.3101 122.157 49.9735 122.534C49.6907 122.857 49.3675 123.126 49.0444 123.315L46.4725 124.796L45.5703 124.271L48.1422 122.79Z" fill="url(#paint14_linear_0_2024)"/>
<path d="M53.5285 117.027C52.734 117.484 52.0069 118.373 51.576 119.383L50.8354 121.147C50.4449 122.076 49.7717 122.898 49.0445 123.315L46.4727 124.796V125.012L49.0445 123.53C49.839 123.073 50.5661 122.184 50.997 121.174L51.7376 119.41C52.1281 118.481 52.8014 117.66 53.5285 117.242L55.3733 116.178V115.963L53.5285 117.027Z" fill="#FFD7B3"/>
<path d="M51.8605 127.906V128.121L50.9727 127.596V127.381L51.8605 127.906Z" fill="#FFC087"/>
<path d="M53.5328 125.901C53.856 125.712 54.1792 125.443 54.4619 125.12C54.7986 124.743 55.0813 124.299 55.2968 123.814C55.2968 123.787 55.3237 123.76 55.3372 123.733L56.0778 121.969C56.0778 121.969 56.1047 121.902 56.1182 121.875C56.3471 121.35 56.6568 120.865 57.0203 120.461C57.3301 120.111 57.6801 119.815 58.0302 119.613L59.875 118.549L60.7772 119.074L58.9324 120.138C58.5823 120.34 58.2322 120.636 57.9225 120.986C57.5724 121.39 57.2493 121.875 57.0203 122.4C57.0069 122.427 56.9934 122.467 56.98 122.494L56.2394 124.258C56.2394 124.258 56.2124 124.312 56.199 124.339C55.9835 124.824 55.7007 125.268 55.3641 125.645C55.0813 125.968 54.7582 126.238 54.435 126.426L51.8631 127.907L50.9609 127.382L53.5328 125.901Z" fill="url(#paint15_linear_0_2024)"/>
<path d="M58.9191 120.138C58.1247 120.596 57.3975 121.485 56.9667 122.494L56.2261 124.258C55.8356 125.187 55.1623 126.009 54.4352 126.426L51.8633 127.907V128.123L54.4352 126.642C55.2296 126.184 55.9568 125.295 56.3876 124.285L57.1282 122.521C57.5187 121.592 58.192 120.771 58.9191 120.353L60.7639 119.29V119.074L58.9191 120.138Z" fill="#FFD7B3"/>
<path d="M68.2792 73.9629L65.7208 75.4441C65.1418 75.7807 64.6032 75.8346 64.1992 75.5922L65.1014 76.1173C65.5054 76.3463 66.044 76.3059 66.623 75.9692L69.1814 74.488L68.2792 73.9629Z" fill="#FFF2E6"/>
<path d="M64.6578 76.0762L63.9037 75.1874C63.8229 75.0932 63.7287 75.0124 63.6209 74.9451L62.7188 74.4199C62.8265 74.4738 62.9207 74.5546 63.0015 74.6623L63.7556 75.551C63.8498 75.6587 63.9576 75.753 64.0653 75.8203L64.9675 76.3455C64.8463 76.2781 64.752 76.1973 64.6578 76.0762Z" fill="#FFC087"/>
<path d="M69.1814 74.4881L66.623 75.9693C65.8824 76.4002 65.2226 76.3598 64.8052 75.875L64.0646 74.9728C63.6202 74.4611 62.8931 74.4207 62.0987 74.8786L60.2539 75.9423V76.1712L62.0987 75.1075C62.8258 74.6901 63.4991 74.717 63.903 75.1883L64.6571 76.077C65.1014 76.6021 65.8286 76.6291 66.623 76.1712L69.1814 74.6901V74.4746V74.4881Z" fill="#FFC087"/>
<path d="M60.2529 75.9409L59.3516 75.4297V75.6449L60.2529 76.1696V75.9409Z" fill="#FFC087"/>
<path d="M62.8643 74.1917C62.4334 73.9359 61.8409 73.9897 61.208 74.3533L59.3633 75.4171L60.2655 75.9422L62.1102 74.8784C62.7431 74.5149 63.3356 74.461 63.7665 74.7169L62.8643 74.1917Z" fill="#FFF2E6"/>
<path d="M73.662 77.0723L71.1036 78.5535C70.5246 78.8901 69.986 78.9439 69.582 78.7016L70.4842 79.2267C70.8882 79.4556 71.4268 79.4152 72.0058 79.0786L74.5642 77.5974L73.662 77.0723Z" fill="#FFF2E6"/>
<path d="M70.0406 79.1855L69.2865 78.2968C69.2057 78.2026 69.1115 78.1218 69.0037 78.0544L68.1016 77.5293C68.2093 77.5832 68.3035 77.6639 68.3843 77.7717L69.1384 78.6604C69.2327 78.7681 69.3404 78.8624 69.4481 78.9297L70.3503 79.4548C70.2426 79.3875 70.1348 79.3067 70.0406 79.1855Z" fill="#FFC087"/>
<path d="M74.5643 77.5975L72.0058 79.0786C71.2652 79.5095 70.6054 79.4691 70.188 78.9844L69.4474 78.0822C69.0031 77.5705 68.2759 77.5301 67.4815 77.9879L65.6367 79.0517V79.2806L67.4815 78.2169C68.2086 77.7994 68.8819 77.8264 69.2858 78.2977L70.0399 79.1864C70.4842 79.7115 71.2114 79.7384 72.0058 79.2806L74.5643 77.7994V77.584V77.5975Z" fill="#FFC087"/>
<path d="M65.6357 79.052L64.7344 78.5273V78.756L65.6357 79.2807V79.052Z" fill="#FFC087"/>
<path d="M68.2471 77.3011C67.8162 77.0452 67.2237 77.0991 66.5908 77.4627L64.7461 78.5264L65.6483 79.0516L67.493 77.9878C68.1259 77.6243 68.7184 77.5704 69.1493 77.8262L68.2471 77.3011Z" fill="#FFF2E6"/>
<path d="M79.0527 80.1836L76.4942 81.6648C75.9152 82.0014 75.3766 82.0553 74.9727 81.8129L75.8748 82.3381C76.2788 82.567 76.8174 82.5266 77.3964 82.1899L79.9548 80.7087L79.0527 80.1836Z" fill="#FFF2E6"/>
<path d="M75.4312 82.2969L74.6771 81.4082C74.5963 81.3139 74.5021 81.2331 74.3944 81.1658L73.4922 80.6406C73.5999 80.6945 73.6942 80.7753 73.775 80.883L74.529 81.7717C74.6233 81.8794 74.7175 81.9737 74.8387 82.041L75.7409 82.5662C75.6332 82.4988 75.5255 82.4181 75.4312 82.2969Z" fill="#FFC087"/>
<path d="M79.9549 80.7088L77.3965 82.19C76.6559 82.6209 75.9961 82.5805 75.5786 82.0957L74.838 81.1935C74.3937 80.6818 73.6666 80.6415 72.8721 81.0993L71.0273 82.163V82.3919L72.8721 81.3282C73.5992 80.9108 74.2725 80.9377 74.6765 81.409L75.4305 82.2977C75.8749 82.8228 76.602 82.8498 77.3965 82.3919L79.9549 80.9108V80.6953V80.7088Z" fill="#FFC087"/>
<path d="M71.0263 82.1633L70.125 81.6387V81.8674L71.0263 82.392V82.1633Z" fill="#FFC087"/>
<path d="M73.6377 80.4124C73.2068 80.1566 72.6143 80.2104 71.9815 80.574L70.1367 81.6378L71.0389 82.1629L72.8837 81.0991C73.5165 80.7356 74.109 80.6817 74.5399 80.9376L73.6377 80.4124Z" fill="#FFF2E6"/>
<path d="M84.4355 83.293L81.8771 84.7742C81.298 85.1108 80.7594 85.1647 80.3555 84.9223L81.2576 85.4474C81.6616 85.6763 82.2002 85.6359 82.7792 85.2993L85.3377 83.8181L84.4355 83.293Z" fill="#FFF2E6"/>
<path d="M80.814 85.4062L80.06 84.5175C79.9792 84.4233 79.8849 84.3425 79.7772 84.2751L78.875 83.75C78.9827 83.8039 79.077 83.8847 79.1578 83.9924L79.9118 84.8811C80.0061 84.9888 80.1003 85.0831 80.2215 85.1504L81.1237 85.6755C81.0025 85.6082 80.9083 85.5274 80.814 85.4062Z" fill="#FFC087"/>
<path d="M85.3377 83.8182L82.7793 85.2993C82.0387 85.7302 81.3789 85.6898 80.9614 85.2051L80.2209 84.3029C79.7765 83.7912 79.0494 83.7508 78.2549 84.2086L76.4102 85.2724V85.5013L78.2549 84.4376C78.982 84.0201 79.6553 84.0471 80.0593 84.5183L80.8133 85.4071C81.2577 85.9322 81.9848 85.9591 82.7793 85.5013L85.3377 84.0201V83.8047V83.8182Z" fill="#FFC087"/>
<path d="M76.4091 85.2727L75.5078 84.748V84.9767L76.4091 85.5014V85.2727Z" fill="#FFC087"/>
<path d="M79.0205 83.5218C78.5896 83.2659 77.9972 83.3198 77.3643 83.6834L75.5195 84.7471L76.4217 85.2723L78.2665 84.2085C78.8993 83.845 79.4918 83.7911 79.9227 84.0469L79.0205 83.5218Z" fill="#FFF2E6"/>
<path d="M89.8261 86.4043L87.2677 87.8855C86.6887 88.2221 86.1501 88.276 85.7461 88.0336L86.6483 88.5588C87.0522 88.7877 87.5908 88.7473 88.1699 88.4106L90.7283 86.9294L89.8261 86.4043Z" fill="#FFF2E6"/>
<path d="M86.2046 88.5176L85.4506 87.6289C85.3698 87.5346 85.2755 87.4538 85.1678 87.3865L84.2656 86.8613C84.3733 86.9152 84.4676 86.996 84.5484 87.1037L85.3025 87.9924C85.3967 88.1001 85.491 88.1944 85.6122 88.2617L86.5143 88.7869C86.3932 88.7195 86.2989 88.6387 86.2046 88.5176Z" fill="#FFC087"/>
<path d="M90.7283 86.9295L88.1699 88.4107C87.4293 88.8416 86.7695 88.8012 86.3521 88.3164L85.6115 87.4142C85.1671 86.9025 84.44 86.8621 83.6455 87.32L81.8008 88.3837V88.6126L83.6455 87.5489C84.3727 87.1315 85.0459 87.1584 85.4499 87.6297L86.204 88.5184C86.6483 89.0435 87.3754 89.0705 88.1699 88.6126L90.7283 87.1315V86.916V86.9295Z" fill="#FFC087"/>
<path d="M81.7998 88.384L80.8984 87.8594V88.0881L81.7998 88.6127V88.384Z" fill="#FFC087"/>
<path d="M84.4111 86.6331C83.9803 86.3773 83.3878 86.4311 82.7549 86.7947L80.9102 87.8585L81.8123 88.3836L83.6571 87.3199C84.29 86.9563 84.8824 86.9024 85.3133 87.1583L84.4111 86.6331Z" fill="#FFF2E6"/>
<path d="M95.2089 89.5156L92.6505 90.9968C92.0715 91.3334 91.5329 91.3873 91.1289 91.1449L92.0311 91.6701C92.435 91.899 92.9737 91.8586 93.5527 91.522L96.1111 90.0408L95.2089 89.5156Z" fill="#FFF2E6"/>
<path d="M91.5875 91.6289L90.8334 90.7402C90.7526 90.6459 90.6583 90.5651 90.5506 90.4978L89.6484 89.9727C89.7562 90.0265 89.8504 90.1073 89.9312 90.215L90.6853 91.1038C90.7795 91.2115 90.8873 91.3057 90.995 91.3731L91.8972 91.8982C91.7894 91.8309 91.6817 91.7501 91.5875 91.6289Z" fill="#FFC087"/>
<path d="M96.1111 90.0408L93.5527 91.522C92.8121 91.9529 92.1523 91.9125 91.7349 91.4277L90.9943 90.5256C90.5499 90.0139 89.8228 89.9735 89.0283 90.4313L87.1836 91.4951V91.724L89.0283 90.6602C89.7555 90.2428 90.4287 90.2697 90.8327 90.741L91.5868 91.6297C92.0311 92.1549 92.7583 92.1818 93.5527 91.724L96.1111 90.2428V90.0273V90.0408Z" fill="#FFC087"/>
<path d="M87.1826 91.4953L86.2812 90.9707V91.1994L87.1826 91.724V91.4953Z" fill="#FFC087"/>
<path d="M89.794 89.7445C89.3631 89.4886 88.7706 89.5425 88.1377 89.906L86.293 90.9698L87.1951 91.4949L89.0399 90.4312C89.6728 90.0676 90.2653 90.0138 90.6961 90.2696L89.794 89.7445Z" fill="#FFF2E6"/>
<path d="M100.6 92.627L98.0411 94.1081C97.4621 94.4448 96.9235 94.4986 96.5195 94.2563L97.4217 94.7814C97.8257 95.0103 98.3643 94.9699 98.9433 94.6333L101.502 93.1521L100.6 92.627Z" fill="#FFF2E6"/>
<path d="M96.9781 94.7402L96.224 93.8515C96.1432 93.7573 96.049 93.6765 95.9412 93.6091L95.0391 93.084C95.1468 93.1378 95.241 93.2186 95.3218 93.3264L96.0759 94.2151C96.1702 94.3228 96.2644 94.4171 96.3856 94.4844L97.2878 95.0095C97.1666 94.9422 97.0723 94.8614 96.9781 94.7402Z" fill="#FFC087"/>
<path d="M101.49 93.1521L98.9316 94.6333C98.191 95.0642 97.5312 95.0238 97.1138 94.5391L96.3732 93.6369C95.9288 93.1252 95.2017 93.0848 94.4073 93.5426L92.5625 94.6064V94.8353L94.4073 93.7715C95.1344 93.3541 95.8077 93.381 96.2116 93.8523L96.9657 94.7411C97.41 95.2662 98.1372 95.2931 98.9316 94.8353L101.49 93.3541V93.1387V93.1521Z" fill="#FFC087"/>
<path d="M92.5732 94.6067L91.6719 94.082V94.3107L92.5732 94.8354V94.6067Z" fill="#FFC087"/>
<path d="M95.1846 92.8558C94.7537 92.5999 94.1612 92.6538 93.5283 93.0174L91.6836 94.0811L92.5858 94.6063L94.4305 93.5425C95.0634 93.1789 95.6559 93.1251 96.0868 93.3809L95.1846 92.8558Z" fill="#FFF2E6"/>
<path d="M105.982 95.7383L103.424 97.2195C102.845 97.5561 102.306 97.61 101.902 97.3676L102.805 97.8927C103.208 98.1216 103.747 98.0813 104.326 97.7446L106.885 96.2634L105.982 95.7383Z" fill="#FFF2E6"/>
<path d="M102.361 97.8515L101.607 96.9628C101.526 96.8686 101.432 96.7878 101.324 96.7205L100.422 96.1953C100.53 96.2492 100.624 96.33 100.705 96.4377L101.459 97.3264C101.553 97.4341 101.661 97.5284 101.768 97.5957L102.671 98.1209C102.549 98.0535 102.455 97.9727 102.361 97.8515Z" fill="#FFC087"/>
<path d="M106.873 96.2498L104.314 97.731C103.574 98.1619 102.914 98.1215 102.497 97.6367L101.756 96.7345C101.312 96.2229 100.585 96.1825 99.7901 96.6403L97.9453 97.704V97.933L99.7901 96.8692C100.517 96.4518 101.19 96.4787 101.594 96.95L102.348 97.8387C102.793 98.3639 103.52 98.3908 104.314 97.933L106.873 96.4518V96.2363V96.2498Z" fill="#FFC087"/>
<path d="M97.956 97.718L97.0547 97.1934V97.422L97.956 97.9467V97.718Z" fill="#FFC087"/>
<path d="M100.567 95.9671C100.137 95.7113 99.544 95.7651 98.9112 96.1287L97.0664 97.1925L97.9686 97.7176L99.8133 96.6538C100.446 96.2903 101.039 96.2364 101.47 96.4923L100.567 95.9671Z" fill="#FFF2E6"/>
<path d="M99.33 95.8057L59.9708 73.0762L20.625 95.8057L59.9708 118.522L99.33 95.8057Z" fill="#FFDFC2"/>
<path d="M37.1484 95.8056L59.9722 82.623L82.796 95.8056L59.9722 108.975L37.1484 95.8056Z" fill="#FF800F"/>
<path d="M59.9708 119.935L20.625 97.2051V95.8047L59.9708 118.521V119.935Z" fill="#FF800F"/>
<path d="M99.328 97.2051L59.9688 119.935V118.521L99.328 95.8047V97.2051Z" fill="#FF8A21"/>
<g opacity="0.3">
<path d="M14.2109 0L37.1424 95.806L59.9662 108.975L82.79 95.806L115.847 0H14.2109Z" fill="url(#paint16_linear_0_2024)" style="mix-blend-mode:screen"/>
</g>
<path d="M52.7656 85.1167L93.1752 61.7812V55.668L52.7656 65.0264V85.1167Z" fill="#FF9C45"/>
<path d="M32.7969 73.5894L52.766 85.1157V65.0254L32.7969 67.4761V73.5894Z" fill="#FF800F"/>
<path d="M93.1777 55.667L52.7682 79.0024L32.8125 67.4761L73.222 44.1406L93.1777 55.667Z" fill="#F7FDFD"/>
<path d="M57.4268 53.2422L48.8359 58.2109L68.8051 69.7507L77.4094 64.782L57.4268 53.2422Z" fill="#F7FDFD"/>
<path d="M77.4091 70.9503L68.8047 75.9056V69.7385L77.4091 64.7832V70.9503Z" fill="#FFE5CF"/>
<path d="M76.467 65.335L56.4844 53.7952L57.5616 53.1758L77.5442 64.7021V70.8693L76.467 71.4887V65.335Z" fill="#FFA14D"/>
<path d="M68.6293 69.8467L48.6602 58.3069L49.7374 57.6875L69.7065 69.2273V75.3944L68.6293 76.0139V69.8467Z" fill="#FFA14D"/>
<path d="M76.4648 65.334L77.5421 64.7012V70.8683L76.4648 71.4877V65.334Z" fill="#FF8A21"/>
<path d="M68.6289 69.846L69.7061 69.2266V75.3937L68.6289 76.0131V69.846Z" fill="#FF8A21"/>
<g style="mix-blend-mode:multiply">
<path d="M32.8125 67.4756L46.628 75.4471L84.4387 53.6197L70.6232 45.6348L32.8125 67.4756Z" fill="#FFDBBA"/>
</g>
<path d="M93.1777 43.1455L52.7682 66.4675L32.8125 54.9411L73.222 31.6191L93.1777 43.1455Z" fill="#F7FDFD"/>
<g style="mix-blend-mode:multiply">
<path d="M32.8125 54.9375L51.1389 65.5213L90.1749 42.9803L71.8486 32.3965L32.8125 54.9375Z" fill="#FFDBBA"/>
</g>
<path d="M93.1777 38.7529L52.7682 62.0749L32.8125 50.5486L73.222 27.2266L93.1777 38.7529Z" fill="#F7FDFD"/>
<g style="mix-blend-mode:multiply">
<path d="M32.8125 50.5488L51.1389 61.1326L90.1749 38.5916L71.8486 28.0078L32.8125 50.5488Z" fill="#FFDBBA"/>
</g>
<path d="M93.1777 34.3232L52.7682 57.6587L32.8125 46.1323L73.222 22.7969L93.1777 34.3232Z" fill="#F7FDFD"/>
<g style="mix-blend-mode:multiply">
<path d="M32.8125 46.1309L51.1389 56.7146L90.1749 34.1736L71.8486 23.5898L32.8125 46.1309Z" fill="#FFDBBA"/>
</g>
<path d="M93.1777 30.0285L52.7682 53.364L32.8125 41.8376L73.222 18.5156L93.1777 30.0285Z" fill="#F7FDFD"/>
<path d="M67.6719 26.4205L68.3855 26.8379L75.401 22.7983L74.6739 22.3809L67.6719 26.4205Z" fill="#FFA14D"/>
<path d="M70.1261 23.0552L69.0758 22.4492L68.6719 22.7455C68.7257 22.7724 68.8604 22.732 68.8604 22.732C68.9143 22.7051 68.9546 22.7051 69.0085 22.7455L69.8434 23.2302C69.8434 23.2302 69.8972 23.2841 69.8434 23.311L69.7356 23.3918L69.803 23.4322L70.4628 23.0552L70.3954 23.0148L70.2608 23.0821C70.2608 23.0821 70.18 23.109 70.1261 23.0821V23.0552Z" fill="#F7FDFD"/>
<path d="M69.9399 21.9231C69.6032 22.1251 69.7783 22.354 70.1015 22.5425C70.4246 22.731 70.842 22.8388 71.1787 22.6368C71.5153 22.4348 71.3403 22.2059 71.0171 22.0174C70.6939 21.8289 70.2765 21.7211 69.9399 21.9231ZM71.0979 22.5964C70.9498 22.6772 70.5997 22.5021 70.3977 22.3809C70.1957 22.2597 69.8725 22.0578 70.0207 21.977C70.1688 21.8962 70.5189 22.0712 70.7209 22.1924C70.9228 22.3136 71.246 22.5156 71.0979 22.5964Z" fill="#F7FDFD"/>
<path d="M70.9633 21.3313C70.6267 21.5333 70.8017 21.7622 71.1249 21.9507C71.4481 22.1392 71.8655 22.247 72.2021 22.045C72.5387 21.843 72.3637 21.6141 72.0405 21.4256C71.7174 21.2371 71.2999 21.1293 70.9633 21.3313ZM72.1213 22.0046C71.9732 22.0854 71.6231 21.9103 71.4211 21.7891C71.2191 21.6679 70.896 21.466 71.0441 21.3852C71.1922 21.3044 71.5423 21.4794 71.7443 21.6006C71.9463 21.7218 72.2694 21.9238 72.1213 22.0046Z" fill="#F7FDFD"/>
<path d="M39.3957 40.7876L38.3454 40.1816L37.9414 40.4779C37.9953 40.5048 38.1299 40.4644 38.1299 40.4644C38.1838 40.4375 38.2242 40.4375 38.278 40.4779L39.1129 40.9626C39.1129 40.9626 39.1668 41.0165 39.1129 41.0434L39.0052 41.1242L39.0725 41.1646L39.7323 40.7876L39.665 40.7472L39.5303 40.8145C39.5303 40.8145 39.4495 40.8414 39.3957 40.8145V40.7876Z" fill="#F7FDFD"/>
<path d="M39.2055 39.6555C38.8689 39.8575 39.0439 40.0864 39.3671 40.2749C39.6902 40.4635 40.1077 40.5712 40.4443 40.3692C40.7809 40.1672 40.6059 39.9383 40.2827 39.7498C39.9595 39.5613 39.5421 39.4536 39.2055 39.6555ZM40.3635 40.3288C40.2154 40.4096 39.8653 40.2345 39.6633 40.1134C39.4613 39.9922 39.1382 39.7902 39.2863 39.7094C39.4344 39.6286 39.7845 39.8036 39.9865 39.9248C40.1885 40.046 40.5116 40.248 40.3635 40.3288Z" fill="#F7FDFD"/>
<path d="M40.2289 39.0637C39.8923 39.2657 40.0673 39.4946 40.3905 39.6831C40.7137 39.8717 41.1311 39.9794 41.4677 39.7774C41.8044 39.5754 41.6293 39.3465 41.3062 39.158C40.983 38.9695 40.5656 38.8618 40.2289 39.0637ZM41.3869 39.737C41.2388 39.8178 40.8887 39.6427 40.6867 39.5216C40.4848 39.4004 40.1616 39.1984 40.3097 39.1176C40.4578 39.0368 40.8079 39.2119 41.0099 39.333C41.2119 39.4542 41.5351 39.6562 41.3869 39.737Z" fill="#F7FDFD"/>
<g style="mix-blend-mode:multiply">
<path d="M32.8125 41.8362L45.5642 49.2017L81.2609 28.5863L68.5092 21.2207L32.8125 41.8362Z" fill="#FFDBBA"/>
</g>
<path d="M93.1777 15.3232L52.7682 38.6452L32.8125 27.1189L73.222 3.79688L93.1777 15.3232Z" fill="#F7FDFD"/>
<path d="M70.1261 8.33446L69.0758 7.72852L68.6719 8.02475C68.7257 8.05168 68.8604 8.01129 68.8604 8.01129C68.9143 7.98436 68.9546 7.98436 69.0085 8.02475L69.8434 8.50951C69.8434 8.50951 69.8972 8.56337 69.8434 8.5903L69.7356 8.67109L69.803 8.71149L70.4628 8.33446L70.3954 8.29406L70.2608 8.36139C70.2608 8.36139 70.18 8.38832 70.1261 8.36139V8.33446Z" fill="#F7FDFD"/>
<path d="M69.9399 7.20241C69.6032 7.40439 69.7783 7.6333 70.1015 7.82181C70.4246 8.01033 70.842 8.11805 71.1787 7.91607C71.5153 7.71409 71.3403 7.48518 71.0171 7.29666C70.6939 7.10815 70.2765 7.00042 69.9399 7.20241ZM71.0979 7.87567C70.9498 7.95647 70.5997 7.78142 70.3977 7.66023C70.1957 7.53904 69.8725 7.33706 70.0207 7.25627C70.1688 7.17547 70.5189 7.35052 70.7209 7.47171C70.9228 7.5929 71.246 7.79488 71.0979 7.87567Z" fill="#F7FDFD"/>
<path d="M70.9633 6.61061C70.6267 6.81259 70.8017 7.0415 71.1249 7.23002C71.4481 7.41853 71.8655 7.52625 72.2021 7.32427C72.5387 7.12229 72.3637 6.89338 72.0405 6.70487C71.7174 6.51635 71.2999 6.40863 70.9633 6.61061ZM72.1213 7.28388C71.9732 7.36467 71.6231 7.18962 71.4211 7.06843C71.2191 6.94724 70.896 6.74526 71.0441 6.66447C71.1922 6.58368 71.5423 6.75873 71.7443 6.87992C71.9463 7.0011 72.2694 7.20308 72.1213 7.28388Z" fill="#F7FDFD"/>
</g>
<defs>
<linearGradient id="paint0_linear_0_2024" x1="98.682" y1="96.0614" x2="104.728" y2="106.551" gradientUnits="userSpaceOnUse">
<stop stop-color="#FFF2E6"/>
<stop offset="0.13" stop-color="#FFF0E2"/>
<stop offset="0.24" stop-color="#FFEBD9"/>
<stop offset="0.33" stop-color="#FFE2C9"/>
<stop offset="0.41" stop-color="#FFD7B3"/>
<stop offset="0.53" stop-color="#FFD7B4"/>
<stop offset="0.58" stop-color="#FFDBBB"/>
<stop offset="0.61" stop-color="#FFE1C7"/>
<stop offset="0.64" stop-color="#FFEAD8"/>
<stop offset="0.65" stop-color="#FFF2E6"/>
</linearGradient>
<linearGradient id="paint1_linear_0_2024" x1="93.2992" y1="99.1708" x2="99.3452" y2="109.647" gradientUnits="userSpaceOnUse">
<stop stop-color="#FFF2E6"/>
<stop offset="0.13" stop-color="#FFF0E2"/>
<stop offset="0.24" stop-color="#FFEBD9"/>
<stop offset="0.33" stop-color="#FFE2C9"/>
<stop offset="0.41" stop-color="#FFD7B3"/>
<stop offset="0.53" stop-color="#FFD7B4"/>
<stop offset="0.58" stop-color="#FFDBBB"/>
<stop offset="0.61" stop-color="#FFE1C7"/>
<stop offset="0.64" stop-color="#FFEAD8"/>
<stop offset="0.65" stop-color="#FFF2E6"/>
</linearGradient>
<linearGradient id="paint2_linear_0_2024" x1="87.9125" y1="102.282" x2="93.9584" y2="112.758" gradientUnits="userSpaceOnUse">
<stop stop-color="#FFF2E6"/>
<stop offset="0.13" stop-color="#FFF0E2"/>
<stop offset="0.24" stop-color="#FFEBD9"/>
<stop offset="0.33" stop-color="#FFE2C9"/>
<stop offset="0.41" stop-color="#FFD7B3"/>
<stop offset="0.53" stop-color="#FFD7B4"/>
<stop offset="0.58" stop-color="#FFDBBB"/>
<stop offset="0.61" stop-color="#FFE1C7"/>
<stop offset="0.64" stop-color="#FFEAD8"/>
<stop offset="0.65" stop-color="#FFF2E6"/>
</linearGradient>
<linearGradient id="paint3_linear_0_2024" x1="82.5258" y1="105.393" x2="88.5717" y2="115.869" gradientUnits="userSpaceOnUse">
<stop stop-color="#FFF2E6"/>
<stop offset="0.13" stop-color="#FFF0E2"/>
<stop offset="0.24" stop-color="#FFEBD9"/>
<stop offset="0.33" stop-color="#FFE2C9"/>
<stop offset="0.41" stop-color="#FFD7B3"/>
<stop offset="0.53" stop-color="#FFD7B4"/>
<stop offset="0.58" stop-color="#FFDBBB"/>
<stop offset="0.61" stop-color="#FFE1C7"/>
<stop offset="0.64" stop-color="#FFEAD8"/>
<stop offset="0.65" stop-color="#FFF2E6"/>
</linearGradient>
<linearGradient id="paint4_linear_0_2024" x1="77.1391" y1="108.491" x2="83.185" y2="118.981" gradientUnits="userSpaceOnUse">
<stop stop-color="#FFF2E6"/>
<stop offset="0.13" stop-color="#FFF0E2"/>
<stop offset="0.24" stop-color="#FFEBD9"/>
<stop offset="0.33" stop-color="#FFE2C9"/>
<stop offset="0.41" stop-color="#FFD7B3"/>
<stop offset="0.53" stop-color="#FFD7B4"/>
<stop offset="0.58" stop-color="#FFDBBB"/>
<stop offset="0.61" stop-color="#FFE1C7"/>
<stop offset="0.64" stop-color="#FFEAD8"/>
<stop offset="0.65" stop-color="#FFF2E6"/>
</linearGradient>
<linearGradient id="paint5_linear_0_2024" x1="71.756" y1="111.6" x2="77.8154" y2="122.09" gradientUnits="userSpaceOnUse">
<stop stop-color="#FFF2E6"/>
<stop offset="0.13" stop-color="#FFF0E2"/>
<stop offset="0.24" stop-color="#FFEBD9"/>
<stop offset="0.33" stop-color="#FFE2C9"/>
<stop offset="0.41" stop-color="#FFD7B3"/>
<stop offset="0.53" stop-color="#FFD7B4"/>
<stop offset="0.58" stop-color="#FFDBBB"/>
<stop offset="0.61" stop-color="#FFE1C7"/>
<stop offset="0.64" stop-color="#FFEAD8"/>
<stop offset="0.65" stop-color="#FFF2E6"/>
</linearGradient>
<linearGradient id="paint6_linear_0_2024" x1="66.3695" y1="114.71" x2="72.4289" y2="125.199" gradientUnits="userSpaceOnUse">
<stop stop-color="#FFF2E6"/>
<stop offset="0.13" stop-color="#FFF0E2"/>
<stop offset="0.24" stop-color="#FFEBD9"/>
<stop offset="0.33" stop-color="#FFE2C9"/>
<stop offset="0.41" stop-color="#FFD7B3"/>
<stop offset="0.53" stop-color="#FFD7B4"/>
<stop offset="0.58" stop-color="#FFDBBB"/>
<stop offset="0.61" stop-color="#FFE1C7"/>
<stop offset="0.64" stop-color="#FFEAD8"/>
<stop offset="0.65" stop-color="#FFF2E6"/>
</linearGradient>
<linearGradient id="paint7_linear_0_2024" x1="60.9828" y1="117.821" x2="67.0422" y2="128.311" gradientUnits="userSpaceOnUse">
<stop stop-color="#FFF2E6"/>
<stop offset="0.13" stop-color="#FFF0E2"/>
<stop offset="0.24" stop-color="#FFEBD9"/>
<stop offset="0.33" stop-color="#FFE2C9"/>
<stop offset="0.41" stop-color="#FFD7B3"/>
<stop offset="0.53" stop-color="#FFD7B4"/>
<stop offset="0.58" stop-color="#FFDBBB"/>
<stop offset="0.61" stop-color="#FFE1C7"/>
<stop offset="0.64" stop-color="#FFEAD8"/>
<stop offset="0.65" stop-color="#FFF2E6"/>
</linearGradient>
<linearGradient id="paint8_linear_0_2024" x1="21.2006" y1="96.2098" x2="15.1412" y2="106.699" gradientUnits="userSpaceOnUse">
<stop offset="0.07" stop-color="#FFD7B3"/>
<stop offset="0.11" stop-color="#FED7B4"/>
<stop offset="0.13" stop-color="#FDDBBB"/>
<stop offset="0.14" stop-color="#FCE1C7"/>
<stop offset="0.15" stop-color="#F6F4EE"/>
<stop offset="0.16" stop-color="#F5FCFC"/>
<stop offset="0.27" stop-color="#F5FBFA"/>
<stop offset="0.31" stop-color="#F5F7F3"/>
<stop offset="0.33" stop-color="#F6F1E7"/>
<stop offset="0.36" stop-color="#F8E8D6"/>
<stop offset="0.38" stop-color="#FADDC0"/>
<stop offset="0.39" stop-color="#FCCFA6"/>
<stop offset="0.41" stop-color="#FFC087"/>
<stop offset="0.52" stop-color="#FFC088"/>
<stop offset="0.56" stop-color="#FFC48F"/>
<stop offset="0.59" stop-color="#FFCA9B"/>
<stop offset="0.61" stop-color="#FFD3AC"/>
<stop offset="0.63" stop-color="#FFDFC2"/>
<stop offset="0.65" stop-color="#FFF2E6"/>
</linearGradient>
<linearGradient id="paint9_linear_0_2024" x1="26.5852" y1="99.3173" x2="20.5258" y2="109.807" gradientUnits="userSpaceOnUse">
<stop offset="0.07" stop-color="#FFD7B3"/>
<stop offset="0.11" stop-color="#FED7B4"/>
<stop offset="0.13" stop-color="#FDDBBB"/>
<stop offset="0.14" stop-color="#FCE1C7"/>
<stop offset="0.15" stop-color="#F6F4EE"/>
<stop offset="0.16" stop-color="#F5FCFC"/>
<stop offset="0.27" stop-color="#F5FBFA"/>
<stop offset="0.31" stop-color="#F5F7F3"/>
<stop offset="0.33" stop-color="#F6F1E7"/>
<stop offset="0.36" stop-color="#F8E8D6"/>
<stop offset="0.38" stop-color="#FADDC0"/>
<stop offset="0.39" stop-color="#FCCFA6"/>
<stop offset="0.41" stop-color="#FFC087"/>
<stop offset="0.52" stop-color="#FFC088"/>
<stop offset="0.56" stop-color="#FFC48F"/>
<stop offset="0.59" stop-color="#FFCA9B"/>
<stop offset="0.61" stop-color="#FFD3AC"/>
<stop offset="0.63" stop-color="#FFDFC2"/>
<stop offset="0.65" stop-color="#FFF2E6"/>
</linearGradient>
<linearGradient id="paint10_linear_0_2024" x1="31.9719" y1="102.429" x2="25.9125" y2="112.918" gradientUnits="userSpaceOnUse">
<stop offset="0.07" stop-color="#FFD7B3"/>
<stop offset="0.11" stop-color="#FED7B4"/>
<stop offset="0.13" stop-color="#FDDBBB"/>
<stop offset="0.14" stop-color="#FCE1C7"/>
<stop offset="0.15" stop-color="#F6F4EE"/>
<stop offset="0.16" stop-color="#F5FCFC"/>
<stop offset="0.27" stop-color="#F5FBFA"/>
<stop offset="0.31" stop-color="#F5F7F3"/>
<stop offset="0.33" stop-color="#F6F1E7"/>
<stop offset="0.36" stop-color="#F8E8D6"/>
<stop offset="0.38" stop-color="#FADDC0"/>
<stop offset="0.39" stop-color="#FCCFA6"/>
<stop offset="0.41" stop-color="#FFC087"/>
<stop offset="0.52" stop-color="#FFC088"/>
<stop offset="0.56" stop-color="#FFC48F"/>
<stop offset="0.59" stop-color="#FFCA9B"/>
<stop offset="0.61" stop-color="#FFD3AC"/>
<stop offset="0.63" stop-color="#FFDFC2"/>
<stop offset="0.65" stop-color="#FFF2E6"/>
</linearGradient>
<linearGradient id="paint11_linear_0_2024" x1="37.3586" y1="105.54" x2="31.2992" y2="116.029" gradientUnits="userSpaceOnUse">
<stop offset="0.07" stop-color="#FFD7B3"/>
<stop offset="0.11" stop-color="#FED7B4"/>
<stop offset="0.13" stop-color="#FDDBBB"/>
<stop offset="0.14" stop-color="#FCE1C7"/>
<stop offset="0.15" stop-color="#F6F4EE"/>
<stop offset="0.16" stop-color="#F5FCFC"/>
<stop offset="0.27" stop-color="#F5FBFA"/>
<stop offset="0.31" stop-color="#F5F7F3"/>
<stop offset="0.33" stop-color="#F6F1E7"/>
<stop offset="0.36" stop-color="#F8E8D6"/>
<stop offset="0.38" stop-color="#FADDC0"/>
<stop offset="0.39" stop-color="#FCCFA6"/>
<stop offset="0.41" stop-color="#FFC087"/>
<stop offset="0.52" stop-color="#FFC088"/>
<stop offset="0.56" stop-color="#FFC48F"/>
<stop offset="0.59" stop-color="#FFCA9B"/>
<stop offset="0.61" stop-color="#FFD3AC"/>
<stop offset="0.63" stop-color="#FFDFC2"/>
<stop offset="0.65" stop-color="#FFF2E6"/>
</linearGradient>
<linearGradient id="paint12_linear_0_2024" x1="42.7453" y1="108.651" x2="36.6859" y2="119.141" gradientUnits="userSpaceOnUse">
<stop offset="0.07" stop-color="#FFD7B3"/>
<stop offset="0.11" stop-color="#FED7B4"/>
<stop offset="0.13" stop-color="#FDDBBB"/>
<stop offset="0.14" stop-color="#FCE1C7"/>
<stop offset="0.15" stop-color="#F6F4EE"/>
<stop offset="0.16" stop-color="#F5FCFC"/>
<stop offset="0.27" stop-color="#F5FBFA"/>
<stop offset="0.31" stop-color="#F5F7F3"/>
<stop offset="0.33" stop-color="#F6F1E7"/>
<stop offset="0.36" stop-color="#F8E8D6"/>
<stop offset="0.38" stop-color="#FADDC0"/>
<stop offset="0.39" stop-color="#FCCFA6"/>
<stop offset="0.41" stop-color="#FFC087"/>
<stop offset="0.52" stop-color="#FFC088"/>
<stop offset="0.56" stop-color="#FFC48F"/>
<stop offset="0.59" stop-color="#FFCA9B"/>
<stop offset="0.61" stop-color="#FFD3AC"/>
<stop offset="0.63" stop-color="#FFDFC2"/>
<stop offset="0.65" stop-color="#FFF2E6"/>
</linearGradient>
<linearGradient id="paint13_linear_0_2024" x1="48.1321" y1="111.761" x2="42.0726" y2="122.25" gradientUnits="userSpaceOnUse">
<stop offset="0.07" stop-color="#FFD7B3"/>
<stop offset="0.11" stop-color="#FED7B4"/>
<stop offset="0.13" stop-color="#FDDBBB"/>
<stop offset="0.14" stop-color="#FCE1C7"/>
<stop offset="0.15" stop-color="#F6F4EE"/>
<stop offset="0.16" stop-color="#F5FCFC"/>
<stop offset="0.27" stop-color="#F5FBFA"/>
<stop offset="0.31" stop-color="#F5F7F3"/>
<stop offset="0.33" stop-color="#F6F1E7"/>
<stop offset="0.36" stop-color="#F8E8D6"/>
<stop offset="0.38" stop-color="#FADDC0"/>
<stop offset="0.39" stop-color="#FCCFA6"/>
<stop offset="0.41" stop-color="#FFC087"/>
<stop offset="0.52" stop-color="#FFC088"/>
<stop offset="0.56" stop-color="#FFC48F"/>
<stop offset="0.59" stop-color="#FFCA9B"/>
<stop offset="0.61" stop-color="#FFD3AC"/>
<stop offset="0.63" stop-color="#FFDFC2"/>
<stop offset="0.65" stop-color="#FFF2E6"/>
</linearGradient>
<linearGradient id="paint14_linear_0_2024" x1="53.5149" y1="114.872" x2="47.4555" y2="125.348" gradientUnits="userSpaceOnUse">
<stop offset="0.07" stop-color="#FFD7B3"/>
<stop offset="0.11" stop-color="#FED7B4"/>
<stop offset="0.13" stop-color="#FDDBBB"/>
<stop offset="0.14" stop-color="#FCE1C7"/>
<stop offset="0.15" stop-color="#F6F4EE"/>
<stop offset="0.16" stop-color="#F5FCFC"/>
<stop offset="0.27" stop-color="#F5FBFA"/>
<stop offset="0.31" stop-color="#F5F7F3"/>
<stop offset="0.33" stop-color="#F6F1E7"/>
<stop offset="0.36" stop-color="#F8E8D6"/>
<stop offset="0.38" stop-color="#FADDC0"/>
<stop offset="0.39" stop-color="#FCCFA6"/>
<stop offset="0.41" stop-color="#FFC087"/>
<stop offset="0.52" stop-color="#FFC088"/>
<stop offset="0.56" stop-color="#FFC48F"/>
<stop offset="0.59" stop-color="#FFCA9B"/>
<stop offset="0.61" stop-color="#FFD3AC"/>
<stop offset="0.63" stop-color="#FFDFC2"/>
<stop offset="0.65" stop-color="#FFF2E6"/>
</linearGradient>
<linearGradient id="paint15_linear_0_2024" x1="58.9055" y1="117.983" x2="52.8461" y2="128.459" gradientUnits="userSpaceOnUse">
<stop offset="0.07" stop-color="#FFD7B3"/>
<stop offset="0.11" stop-color="#FED7B4"/>
<stop offset="0.13" stop-color="#FDDBBB"/>
<stop offset="0.14" stop-color="#FCE1C7"/>
<stop offset="0.15" stop-color="#F6F4EE"/>
<stop offset="0.16" stop-color="#F5FCFC"/>
<stop offset="0.27" stop-color="#F5FBFA"/>
<stop offset="0.31" stop-color="#F5F7F3"/>
<stop offset="0.33" stop-color="#F6F1E7"/>
<stop offset="0.36" stop-color="#F8E8D6"/>
<stop offset="0.38" stop-color="#FADDC0"/>
<stop offset="0.39" stop-color="#FCCFA6"/>
<stop offset="0.41" stop-color="#FFC087"/>
<stop offset="0.52" stop-color="#FFC088"/>
<stop offset="0.56" stop-color="#FFC48F"/>
<stop offset="0.59" stop-color="#FFCA9B"/>
<stop offset="0.61" stop-color="#FFD3AC"/>
<stop offset="0.63" stop-color="#FFDFC2"/>
<stop offset="0.65" stop-color="#FFF2E6"/>
</linearGradient>
<linearGradient id="paint16_linear_0_2024" x1="65.0292" y1="1.34654" x2="65.0292" y2="107.736" gradientUnits="userSpaceOnUse">
<stop stop-color="#FFDBBA" stop-opacity="0"/>
<stop offset="1" stop-color="#FF7D0A"/>
</linearGradient>
<clipPath id="clip0_0_2024">
<rect width="128" height="128" fill="white"/>
</clipPath>
</defs>
</svg>
