<svg width="128" height="128" viewBox="0 0 128 128" fill="none" xmlns="http://www.w3.org/2000/svg">
<path d="M105.114 57.04L115.676 50.9011L84.8856 33.1279L74.3242 39.2669L105.114 57.04Z" fill="#FFD7B3"/>
<path d="M0 68.1504V70.0338L55.4651 102.052V100.18L0 68.1504Z" fill="#7F95FF"/>
<path d="M55.4648 100.18V102.051L128 59.901V58.0176L55.4648 100.18Z" fill="#8CA0FF"/>
<path d="M128 58.0179L115.674 50.9015L105.113 57.0404L74.323 39.2673L84.8843 33.1283L72.5468 26L0 68.1501L55.4651 100.18L128 58.0179Z" fill="#99ABFF"/>
<path d="M109.023 40.7101C109.023 40.7697 109.011 40.8412 108.999 40.9008C108.999 40.9246 108.999 40.9366 108.999 40.9485C108.999 41.02 108.999 41.0915 108.975 41.163C108.975 41.1869 108.975 41.2107 108.963 41.2346C108.963 41.2584 108.963 41.2703 108.963 41.2942C108.951 41.3657 108.927 41.4253 108.904 41.4968C108.904 41.4968 108.904 41.4968 108.904 41.5087C108.88 41.5803 108.868 41.6518 108.856 41.7233C108.856 41.7471 108.832 41.771 108.82 41.8067C108.82 41.8306 108.82 41.8425 108.796 41.8663C108.772 41.9259 108.737 41.9855 108.713 42.0451C108.713 42.0451 108.713 42.0571 108.713 42.069C108.677 42.1405 108.653 42.212 108.618 42.2835C108.606 42.3193 108.582 42.3432 108.558 42.3789C108.546 42.4028 108.534 42.4266 108.522 42.4504C108.498 42.4981 108.451 42.5458 108.427 42.5935C108.427 42.5935 108.427 42.6054 108.415 42.6173C108.367 42.6888 108.343 42.7484 108.296 42.82C108.26 42.8676 108.224 42.9153 108.188 42.963C108.165 42.9988 108.153 43.0226 108.117 43.0584C108.093 43.0941 108.057 43.118 108.033 43.1537C107.986 43.2133 107.938 43.2729 107.89 43.3325C107.795 43.4279 107.7 43.5233 107.592 43.6305C107.557 43.6663 107.533 43.7021 107.497 43.7378C107.473 43.7617 107.461 43.7736 107.437 43.7855C107.414 43.8093 107.402 43.8213 107.378 43.8451C107.294 43.9166 107.199 43.9881 107.104 44.0597C107.008 44.1312 106.925 44.2027 106.829 44.2742C106.806 44.2862 106.794 44.31 106.77 44.3219C106.675 44.3934 106.555 44.465 106.448 44.5246C106.365 44.5842 106.281 44.6438 106.198 44.6914C106.15 44.7153 106.114 44.7391 106.079 44.763C105.637 45.0252 105.149 45.2398 104.648 45.4424C104.517 45.502 104.386 45.5497 104.243 45.5974C104.1 45.6451 103.969 45.7047 103.826 45.7524C103.647 45.812 103.456 45.8358 103.277 45.8954C102.943 45.9908 102.598 46.0742 102.252 46.1457C102.121 46.1696 102.002 46.2172 101.883 46.2411C101.596 46.2888 101.298 46.3245 101 46.3603C100.905 46.3722 100.81 46.396 100.702 46.396C100.655 46.396 100.619 46.408 100.571 46.408C100.19 46.4437 99.8084 46.4676 99.427 46.4795C99.272 46.4795 99.1171 46.4795 98.9621 46.4795C98.8667 46.4795 98.7833 46.4795 98.6879 46.4795C98.5807 46.4795 98.4734 46.4795 98.378 46.4795C98.0442 46.4795 97.6986 46.4556 97.3648 46.4199C97.2337 46.4199 97.1145 46.396 96.9833 46.3722C96.8999 46.3722 96.8165 46.3484 96.733 46.3484C96.6138 46.3364 96.4827 46.3245 96.3635 46.3126C96.0178 46.2649 95.684 46.2053 95.3503 46.1338C95.2549 46.11 95.1715 46.0861 95.0761 46.0623C94.9807 46.0384 94.8854 46.0146 94.79 45.9908C94.6231 45.9431 94.4443 45.9073 94.2774 45.8596C93.9675 45.7643 93.6695 45.657 93.3715 45.5497C93.2881 45.5259 93.2046 45.502 93.1212 45.4663C93.0973 45.4663 93.0616 45.4424 93.0377 45.4424C92.5132 45.2398 92.0245 45.0014 91.5596 44.7272C91.3093 44.5842 91.0709 44.4292 90.8444 44.2742C90.7848 44.2266 90.7252 44.1789 90.6656 44.1312C90.5106 44.0239 90.3676 43.9047 90.2245 43.7855C90.153 43.7259 90.0934 43.6544 90.0219 43.5948C89.9146 43.4875 89.7954 43.3921 89.7 43.2849C89.6404 43.2253 89.5928 43.1537 89.5332 43.0822C89.4378 42.9749 89.3544 42.8676 89.2709 42.7484C89.2232 42.6769 89.1875 42.6054 89.1398 42.5339C89.0683 42.4266 88.9967 42.3074 88.9371 42.2001C88.9014 42.1286 88.8775 42.0571 88.8418 41.9855C88.7941 41.8663 88.7345 41.7591 88.6987 41.6399C88.6749 41.5683 88.663 41.4968 88.6511 41.4372C88.6153 41.318 88.5795 41.1988 88.5557 41.0677C88.5557 40.9962 88.5557 40.9366 88.5319 40.865C88.5199 40.7458 88.508 40.6386 88.4961 40.5193V42.367C88.4961 43.9047 89.4974 45.4305 91.5238 46.5987C91.9887 46.8609 92.4894 47.0993 93.002 47.302C93.0258 47.3139 93.0496 47.3258 93.0854 47.3377C93.1688 47.3735 93.2523 47.3854 93.3357 47.4212C93.6337 47.5285 93.9437 47.6119 94.2417 47.6954C94.4086 47.743 94.5754 47.8026 94.7542 47.8503C94.8496 47.8742 94.9569 47.898 95.0522 47.9218C95.1357 47.9338 95.2311 47.9457 95.3145 47.9695C95.6483 48.041 95.994 48.1006 96.3396 48.1483C96.4588 48.1602 96.578 48.196 96.7092 48.2079C96.7926 48.2079 96.8761 48.2318 96.9595 48.2318C97.0787 48.2437 97.2098 48.2318 97.341 48.2556C97.6747 48.2795 98.0085 48.3033 98.3542 48.3152C98.4615 48.3152 98.5568 48.3271 98.6641 48.3271C98.7595 48.3271 98.8429 48.3271 98.9383 48.3271C99.0932 48.3271 99.2482 48.3033 99.4032 48.3033C99.7846 48.3033 100.166 48.2795 100.548 48.2437C100.595 48.2437 100.631 48.2437 100.679 48.2437C100.774 48.2437 100.869 48.2198 100.977 48.2079C101.275 48.1722 101.573 48.1126 101.859 48.053C101.978 48.0291 102.109 48.0172 102.228 47.9934C102.574 47.9218 102.92 47.8265 103.253 47.743C103.444 47.6954 103.623 47.6358 103.802 47.5762C103.945 47.5285 104.088 47.4927 104.219 47.445C104.35 47.3974 104.493 47.3497 104.624 47.2901C105.125 47.0874 105.614 46.8729 106.055 46.6106C106.102 46.5868 106.138 46.551 106.174 46.5272C106.257 46.4795 106.341 46.4199 106.424 46.3603C106.555 46.2768 106.686 46.1934 106.806 46.11C106.901 46.0384 106.996 45.955 107.092 45.8835C107.199 45.8 107.306 45.7047 107.402 45.6212C107.426 45.5974 107.437 45.5855 107.461 45.5616C107.497 45.5259 107.533 45.4901 107.569 45.4543C107.724 45.2994 107.867 45.1444 107.998 44.9895C108.033 44.9537 108.069 44.906 108.093 44.8703C108.117 44.8464 108.141 44.8106 108.165 44.7749C108.248 44.6676 108.32 44.5484 108.391 44.4292C108.427 44.3696 108.463 44.31 108.498 44.2504C108.51 44.2266 108.522 44.2146 108.534 44.1908C108.594 44.0835 108.629 43.9762 108.677 43.8809C108.701 43.8093 108.737 43.7378 108.761 43.6782C108.761 43.6663 108.773 43.6544 108.784 43.6305C108.82 43.5352 108.844 43.4279 108.868 43.3206C108.892 43.2372 108.916 43.1657 108.927 43.0822V43.0584C108.951 42.9511 108.951 42.8557 108.963 42.7484C108.963 42.6531 108.987 42.5458 108.987 42.4504V40.567C108.987 40.567 108.987 40.6266 108.987 40.6624L109.023 40.7101Z" fill="#91A4FF"/>
<path d="M88.5319 41.1392C88.5557 41.2584 88.5915 41.3776 88.6272 41.5087C88.6511 41.5802 88.663 41.6518 88.6749 41.7114C88.7107 41.8306 88.7703 41.9378 88.8179 42.057C88.8537 42.1286 88.8775 42.2001 88.9133 42.2716C88.9729 42.3789 89.0444 42.4981 89.116 42.6054C89.1636 42.6769 89.1994 42.7484 89.2471 42.8199C89.3305 42.9272 89.414 43.0464 89.5093 43.1537C89.5689 43.2252 89.6166 43.2968 89.6762 43.3564C89.7716 43.4636 89.8908 43.5709 89.9981 43.6663C90.0696 43.7259 90.1292 43.7974 90.2007 43.857C90.3318 43.9762 90.4868 44.0954 90.6417 44.2027C90.7013 44.2504 90.761 44.2981 90.8206 44.3457C91.047 44.5007 91.2735 44.6557 91.5358 44.7987C92.0245 45.0848 92.549 45.3232 93.0973 45.5378C93.1808 45.5735 93.2642 45.5974 93.3476 45.6212C93.8125 45.7881 94.2774 45.9311 94.7662 46.0503C94.8615 46.0742 94.9569 46.098 95.0522 46.1219C95.5887 46.2411 96.1489 46.3364 96.7092 46.4079C96.7926 46.4079 96.8761 46.4318 96.9595 46.4318C97.5197 46.4914 98.0919 46.5272 98.6641 46.5272C98.7595 46.5272 98.8429 46.5272 98.9383 46.5272C99.5224 46.5272 100.095 46.4914 100.667 46.4318C100.762 46.4318 100.857 46.4079 100.965 46.396C101.394 46.3483 101.811 46.2649 102.228 46.1815C102.574 46.1099 102.92 46.0265 103.253 45.9311C103.575 45.8358 103.909 45.7523 104.219 45.6331C104.35 45.5854 104.493 45.5378 104.624 45.4782C105.125 45.2755 105.614 45.061 106.055 44.7987C106.305 44.6557 106.531 44.5007 106.758 44.3457C106.782 44.3338 106.794 44.31 106.818 44.2981C107.008 44.155 107.199 44.012 107.366 43.8689C107.39 43.857 107.402 43.8332 107.426 43.8093C107.592 43.6663 107.747 43.5113 107.878 43.3683C107.938 43.3087 107.974 43.2491 108.022 43.1895C108.117 43.0822 108.212 42.963 108.296 42.8438C108.343 42.7723 108.379 42.7127 108.415 42.6411C108.486 42.5339 108.558 42.4147 108.618 42.2955C108.653 42.2239 108.677 42.1524 108.713 42.0809C108.761 41.9617 108.82 41.8544 108.856 41.7352C108.88 41.6637 108.892 41.5922 108.904 41.5206C108.939 41.4014 108.975 41.2822 108.987 41.1749C108.987 41.1034 108.987 41.0319 109.011 40.9604C109.178 39.3154 108.176 37.6465 106.007 36.383C101.99 34.0585 95.4814 34.0585 91.4762 36.383C89.4855 37.5393 88.4961 39.0531 88.4961 40.567C88.4961 40.567 88.4961 40.567 88.4961 40.5789C88.4961 40.7101 88.5199 40.8293 88.5319 40.9365C88.5319 41.0081 88.5319 41.0677 88.5557 41.1392H88.5319ZM96.6973 39.3869C97.8297 38.7313 99.6773 38.7313 100.822 39.3869C101.966 40.0544 101.966 41.1153 100.834 41.771C99.6892 42.4385 97.8535 42.4385 96.7092 41.771C95.5648 41.1153 95.5648 40.0425 96.7092 39.375L96.6973 39.3869Z" fill="#FFBC80"/>
<path d="M96.6978 41.783C97.8421 42.4386 99.6897 42.4386 100.822 41.783C101.955 41.1274 101.955 40.0546 100.81 39.3989C99.6659 38.7433 97.8183 38.7433 96.6858 39.3989C95.5415 40.0665 95.5534 41.1274 96.6858 41.7949L96.6978 41.783Z" fill="#5D79FF"/>
<path d="M105.911 52.8086L52.2697 84.0517L52.2578 91.1681L105.899 59.925L105.911 52.8086Z" fill="#FFD7B3"/>
<path d="M52.2692 84.0522L14.4104 62.1904L14.3984 69.3188L52.2573 91.1686L52.2692 84.0522Z" fill="#FFB370"/>
<path d="M68.0553 30.9473L105.914 52.8091L68.0673 30.9473L14.4141 62.1903L68.0553 30.9473Z" fill="#FFE9D5"/>
<path d="M14.4141 62.1903L52.2729 84.0521L105.914 52.8091L68.0553 30.9473L14.4141 62.1903Z" fill="white"/>
<path d="M57.6687 43.332L57.6806 45.1678H63.307V46.4075H55.5707V46.3955L55.5588 46.4075L55.5469 43.332H57.6687Z" fill="white"/>
<path d="M47.6467 51.1157C50.1858 50.1025 53.1897 49.6495 56.1459 49.7449L55.4188 57.6957L45.668 52.0693C46.2878 51.7117 46.9434 51.4018 47.6348 51.1276L47.6467 51.1157Z" fill="white"/>
<path d="M47.0848 65.1942C41.6968 62.083 41.673 57.0526 47.0252 53.9414L56.764 59.5678L57.4912 51.6289C60.7454 51.7362 63.952 52.511 66.4552 53.9534C69.1492 55.503 70.4962 57.5414 70.5201 59.5797H56.776L62.1043 66.9226C57.1216 68.1266 51.1615 67.5544 47.0967 65.2061L47.0848 65.1942Z" fill="white"/>
<path d="M64.8831 68.6622L59.5547 61.3193L69.3055 66.9457C68.0062 67.7086 66.4923 68.2689 64.8831 68.6622Z" fill="white"/>
<path d="M70.3641 66.3266L60.6133 60.7002H74.3574C74.3574 62.7386 73.0342 64.7769 70.3641 66.3266Z" fill="white"/>
<path d="M82.9393 58.507L64.1172 47.6476L66.4059 46.3125L85.228 57.1719L82.9393 58.507Z" fill="white"/>
<path d="M87.5055 55.8368L68.6953 44.9774L70.984 43.6543L89.8061 54.5137L87.5055 55.8368Z" fill="white"/>
<path d="M75.5621 40.9961L94.3723 51.8555L92.0836 53.1786L73.2734 42.3192L75.5621 40.9961Z" fill="white"/>
<path d="M71.8929 41.4131L64.1567 41.425L64.1447 41.4131L64.1328 38.3496H66.2427L66.2546 40.1853L71.8929 40.1973V41.4131Z" fill="white"/>
<path d="M57.4928 51.6164L56.7656 59.5553L66.4449 53.9289C63.9416 52.4866 60.747 51.7118 57.4808 51.6045L57.4928 51.6164Z" fill="#FFAE66"/>
<path d="M56.1457 49.7449C53.1895 49.6495 50.1856 50.1025 47.6465 51.1157C46.9552 51.3899 46.2876 51.6998 45.6797 52.0574L55.4305 57.6838L56.1576 49.7329L56.1457 49.7449Z" fill="#FFBC80"/>
<path d="M47.0252 53.9414C41.673 57.0526 41.6968 62.083 47.0848 65.1942L56.776 59.5678L47.0371 53.9414H47.0252Z" fill="#FFC99A"/>
<path d="M47.0861 65.1938C51.151 67.5421 57.1111 68.1142 62.0938 66.9103L56.7654 59.5674L47.0742 65.1938H47.0861Z" fill="#879CFF"/>
<path d="M64.8831 68.6622C66.4923 68.2689 68.0062 67.7086 69.3055 66.9457L59.5547 61.3193L64.8831 68.6622Z" fill="#FFDBBB"/>
<path d="M70.3641 66.3266C73.0342 64.7769 74.3693 62.7386 74.3574 60.7002H60.6133L70.3641 66.3266Z" fill="#94A7FF"/>
<path d="M66.4566 53.9414L56.7773 59.5678H70.5214C70.4976 57.5294 69.1506 55.491 66.4566 53.9414Z" fill="#FFAA5E"/>
<path d="M68.6953 44.9774L87.5055 55.8368L89.8061 54.5137L70.984 43.6543L68.6953 44.9774Z" fill="#879CFF"/>
<path d="M64.1172 47.6476L82.9393 58.507L85.228 57.1719L66.4059 46.3125L64.1172 47.6476Z" fill="#879CFF"/>
<path d="M94.3723 51.8555L75.5621 40.9961L73.2734 42.3192L92.0836 53.1786L94.3723 51.8555Z" fill="#879CFF"/>
<path d="M66.2427 38.3496H64.1328L64.1447 41.4131L64.1567 41.425L71.8929 41.4131V40.1973L66.2546 40.1853L66.2427 38.3496Z" fill="#FFAA5E"/>
<path d="M55.5707 46.3955V46.4075H63.307V45.1678H57.6806L57.6687 43.332H55.5469L55.5588 46.4075L55.5707 46.3955Z" fill="#FFAA5E"/>
</svg>
