<svg width="128" height="128" viewBox="0 0 128 128" fill="none" xmlns="http://www.w3.org/2000/svg">
<path d="M13 0L35.9315 95.806L58.7553 108.975L81.5791 95.806L114.637 0H13Z" fill="url(#paint0_linear_0_2500)" style="mix-blend-mode:screen"/>
<g clip-path="url(#clip0_0_2500)">
<path opacity="0.3" d="M21.8052 74.0921L8.25063 71.9952L7.94315 72.6601L21.5106 74.7569C21.4081 75.3706 21.7412 76.0227 22.5611 76.4958C22.7405 76.598 22.9326 76.6875 23.1376 76.7643C23.1761 76.777 23.2145 76.7898 23.2529 76.8026C23.3298 76.8282 23.4067 76.8538 23.4835 76.8665C23.6629 76.9177 23.8551 76.9688 24.0472 77.0072C24.1369 77.02 24.2138 77.0328 24.3035 77.0455C24.5213 77.0711 24.7391 77.0967 24.9569 77.1095C25.0081 77.1095 25.0722 77.1095 25.1234 77.1095C25.2771 77.1095 25.4309 77.1095 25.5718 77.0967L28.2622 82.863C28.2622 82.863 28.1726 82.8886 28.1341 82.9014C28.0829 82.9142 28.0188 82.9269 27.9676 82.9525C27.9291 82.9525 27.8907 82.9781 27.8523 82.9909C27.6088 83.0804 27.3654 83.1827 27.1604 83.2977C25.8409 84.0521 25.7256 85.2284 26.7761 86.0722L19.4351 90.3043C19.1148 90.1764 18.7817 90.0741 18.423 90.0102C18.423 90.0102 18.423 90.0102 18.4358 90.0102C18.3974 90.0102 18.3589 90.0102 18.3205 90.0102C18.2308 89.9974 18.1283 89.9718 18.0386 89.9591C17.8721 89.9335 17.7055 89.9335 17.5518 89.9207C17.5005 89.9207 17.4493 89.9207 17.3981 89.9207C17.3212 89.9207 17.2443 89.9207 17.1803 89.9207C17.1418 89.9207 17.1034 89.9207 17.0521 89.9207C16.86 89.9207 16.6678 89.9335 16.4884 89.9591C16.4372 89.9591 16.3988 89.9718 16.3603 89.9846C16.2835 89.9846 16.2066 90.0102 16.1297 90.023C15.9632 90.0614 15.7838 90.0997 15.6173 90.1381C15.566 90.1508 15.502 90.1636 15.4507 90.1892C15.4123 90.1892 15.3738 90.2148 15.3354 90.2276C15.092 90.3171 14.8486 90.4193 14.6436 90.5344C14.3233 90.7262 14.0799 90.9308 13.9005 91.1609L0.307477 89.0768L0 89.7417L13.5546 91.8386C13.4393 92.4651 13.7852 93.1043 14.6051 93.5902C14.7845 93.6925 14.9767 93.782 15.1817 93.8587C15.2201 93.8715 15.2585 93.8843 15.297 93.897C15.3738 93.9226 15.4507 93.9482 15.5276 93.961C15.7069 94.0121 15.8991 94.0633 16.0913 94.1016C16.1682 94.1144 16.2578 94.1272 16.3347 94.14C16.5525 94.1655 16.7703 94.1911 16.9881 94.2039C17.0393 94.2039 17.1034 94.2039 17.1546 94.2039C17.3084 94.2039 17.4749 94.2039 17.6287 94.1911L20.3063 99.9575C20.3063 99.9575 20.2038 99.983 20.1525 100.009C20.1013 100.021 20.0372 100.034 19.986 100.06C19.9476 100.073 19.9091 100.085 19.8707 100.098C19.6273 100.188 19.3838 100.29 19.1789 100.405C17.8721 101.159 17.744 102.336 18.7945 103.179L8.86558 108.895L9.71114 109.38L19.6401 103.665C19.6401 103.665 19.7169 103.704 19.7554 103.716C19.7938 103.729 19.8322 103.742 19.8707 103.755C19.9476 103.78 20.0244 103.806 20.1013 103.819C20.2807 103.87 20.4728 103.921 20.665 103.959C20.7547 103.972 20.8315 103.985 20.9212 103.998C21.139 104.023 21.3568 104.049 21.5746 104.062C21.6387 104.062 21.6899 104.062 21.7412 104.062C22.023 104.062 22.3049 104.062 22.5867 104.023H22.5995C23.2785 103.934 23.9319 103.755 24.4572 103.448C24.7903 103.256 25.0337 103.039 25.2131 102.809L35.2317 104.356C35.1292 104.969 35.4623 105.622 36.2951 106.095C36.4744 106.197 36.6666 106.286 36.8716 106.363C36.91 106.376 36.9485 106.389 36.9869 106.401C37.0638 106.427 37.1406 106.453 37.2175 106.465C37.3969 106.516 37.589 106.568 37.7812 106.606C37.8581 106.619 37.9478 106.632 38.0374 106.644C38.2552 106.67 38.473 106.695 38.6908 106.708C38.7421 106.708 38.8061 106.708 38.8574 106.708C39.0111 106.708 39.1648 106.708 39.3186 106.695L42.009 112.462C42.009 112.462 41.9193 112.487 41.8809 112.5C41.8296 112.513 41.7656 112.526 41.7143 112.551C41.6759 112.551 41.6375 112.577 41.599 112.59C41.3556 112.679 41.1122 112.781 40.9072 112.897C39.5876 113.651 39.4723 114.827 40.5229 115.671L30.5939 121.386L31.4395 121.872L41.3684 116.157C41.3684 116.157 41.4453 116.195 41.4837 116.208C41.5222 116.221 41.5606 116.234 41.599 116.246C41.6759 116.272 41.7528 116.298 41.8296 116.31C42.009 116.361 42.2012 116.413 42.3934 116.451C42.4702 116.464 42.5599 116.477 42.6496 116.489C42.8674 116.515 43.0852 116.54 43.303 116.553C43.3542 116.553 43.4183 116.553 43.4695 116.553C43.7514 116.553 44.046 116.553 44.3151 116.515C44.3151 116.515 44.3151 116.515 44.3279 116.515C45.0069 116.425 45.6603 116.246 46.1856 115.94C46.5187 115.748 46.7621 115.53 46.9543 115.287L56.9601 116.835C56.8448 117.461 57.1907 118.1 58.0106 118.573C58.19 118.676 58.3821 118.765 58.5871 118.842C58.6256 118.842 58.664 118.867 58.7024 118.88C58.7793 118.906 58.8562 118.931 58.933 118.944C59.1124 118.995 59.3046 119.046 59.4967 119.085C59.5736 119.098 59.6633 119.11 59.7402 119.123C59.958 119.149 60.1758 119.174 60.3936 119.187C60.4448 119.187 60.5089 119.187 60.5601 119.187C60.7138 119.187 60.8804 119.187 61.0341 119.174L64.6598 126.986L65.8128 126.807L62.1872 118.995C62.5843 118.893 62.9559 118.752 63.2761 118.561C64.5957 117.806 64.711 116.63 63.6605 115.786L71.0015 111.554C71.0015 111.554 71.0784 111.592 71.1168 111.605C71.1552 111.618 71.1937 111.631 71.2321 111.644C71.309 111.669 71.3858 111.695 71.4627 111.707C71.6421 111.759 71.8343 111.81 72.0264 111.848C72.1161 111.861 72.193 111.874 72.2826 111.886C72.5004 111.912 72.7182 111.938 72.936 111.95C72.9873 111.95 73.0513 111.95 73.1026 111.95C73.3844 111.95 73.6663 111.95 73.9482 111.912C73.9482 111.912 73.9482 111.912 73.961 111.912C74.64 111.823 75.2934 111.631 75.8186 111.337C76.1517 111.145 76.3951 110.928 76.5745 110.697L86.5931 112.244C86.4906 112.858 86.8237 113.51 87.6565 113.983C87.8358 114.086 88.028 114.175 88.233 114.252C88.2714 114.265 88.3099 114.277 88.3483 114.29C88.4252 114.316 88.502 114.341 88.5789 114.354C88.7583 114.405 88.9505 114.456 89.1426 114.495C89.2195 114.508 89.3092 114.52 89.3988 114.533C89.6166 114.559 89.8344 114.584 90.0522 114.597C90.1035 114.597 90.1675 114.597 90.2188 114.597C90.3725 114.597 90.5263 114.597 90.68 114.584L94.3185 122.396L95.4715 122.217L91.833 114.405C92.2302 114.303 92.6146 114.162 92.9477 113.971C94.2544 113.216 94.3825 112.04 93.332 111.196L100.66 106.977C100.66 106.977 100.737 107.015 100.775 107.028C100.814 107.041 100.852 107.053 100.891 107.066C100.968 107.092 101.045 107.117 101.109 107.13C101.288 107.181 101.48 107.232 101.672 107.271C101.749 107.284 101.839 107.296 101.916 107.309C102.134 107.348 102.351 107.36 102.569 107.373C102.62 107.373 102.684 107.373 102.736 107.373C103.018 107.373 103.312 107.373 103.581 107.335H103.594C104.273 107.258 104.926 107.066 105.452 106.759C105.785 106.568 106.028 106.35 106.208 106.12L119.762 108.217L120.07 107.552L106.502 105.455C106.605 104.829 106.272 104.19 105.439 103.716C105.016 103.474 104.504 103.307 103.953 103.205C103.953 103.205 103.953 103.205 103.966 103.205C103.927 103.205 103.889 103.205 103.85 103.205C103.761 103.192 103.658 103.167 103.568 103.154C103.402 103.128 103.235 103.128 103.069 103.116C103.018 103.116 102.966 103.116 102.915 103.116C102.838 103.116 102.761 103.116 102.697 103.116C102.659 103.116 102.62 103.116 102.569 103.116C102.518 103.116 102.467 103.116 102.415 103.116L99.7249 97.3492C100.122 97.2469 100.506 97.1063 100.84 96.9145C102.146 96.1601 102.274 94.9838 101.224 94.14L109.065 89.6266C109.065 89.6266 109.141 89.665 109.18 89.6778C109.218 89.6906 109.257 89.7033 109.295 89.7161C109.372 89.7417 109.449 89.7673 109.526 89.7801C109.705 89.8312 109.897 89.8824 110.089 89.9207C110.166 89.9335 110.256 89.9463 110.333 89.9591C110.551 89.9846 110.768 90.0102 110.986 90.023C111.05 90.023 111.102 90.023 111.153 90.023C111.435 90.023 111.717 90.023 111.998 89.9846C111.998 89.9846 111.998 89.9846 112.011 89.9846C112.69 89.8951 113.344 89.7034 113.869 89.4093C114.035 89.307 114.189 89.2047 114.317 89.0896L127.68 91.1481L127.987 90.4833L114.817 88.4504C115.163 87.7344 114.855 86.9289 113.869 86.3663C113.446 86.1234 112.934 85.9571 112.383 85.8549C112.383 85.8549 112.383 85.8549 112.396 85.8549C112.357 85.8549 112.319 85.8549 112.28 85.8549C112.191 85.8421 112.088 85.8165 111.998 85.8037C111.832 85.7781 111.665 85.7782 111.499 85.7654C111.447 85.7654 111.396 85.7654 111.345 85.7654C111.268 85.7654 111.191 85.7654 111.127 85.7654C111.089 85.7654 111.05 85.7654 110.999 85.7654C110.807 85.7654 110.615 85.7781 110.423 85.8037C110.371 85.8037 110.333 85.8165 110.294 85.8293C110.269 85.8293 110.256 85.8293 110.23 85.8293L107.578 80.1141C108.193 80.0246 108.796 79.8456 109.27 79.5643C110.589 78.81 110.704 77.6337 109.654 76.7898L119.096 71.3559L118.25 70.8701L108.808 76.304C108.488 76.1761 108.155 76.0738 107.796 76.0099C107.796 76.0099 107.796 76.0099 107.809 76.0099C107.771 76.0099 107.732 76.0099 107.694 76.0099C107.604 75.9971 107.502 75.9715 107.412 75.9588C107.245 75.9332 107.079 75.9332 106.912 75.9204C106.861 75.9204 106.81 75.9204 106.758 75.9204C106.682 75.9204 106.605 75.9204 106.541 75.9204C106.502 75.9204 106.464 75.9204 106.413 75.9204C106.22 75.9204 106.028 75.9332 105.849 75.9588C105.798 75.9588 105.759 75.9715 105.708 75.9843C105.631 75.9843 105.554 76.0099 105.477 76.0227C105.311 76.061 105.131 76.0994 104.965 76.1378C104.901 76.1505 104.85 76.1633 104.798 76.1889C104.76 76.1889 104.721 76.2145 104.683 76.2273C104.44 76.3168 104.196 76.419 103.991 76.5341C103.504 76.8154 103.197 77.1478 103.043 77.5058L93.1142 75.9715C93.4473 75.2555 93.1398 74.4628 92.1661 73.9003C91.7306 73.6573 91.2181 73.4911 90.68 73.3888C90.68 73.3888 90.68 73.3888 90.6928 73.3888C90.6544 73.3888 90.6159 73.3888 90.5775 73.3888C90.4878 73.3761 90.3853 73.3505 90.2957 73.3377C90.1291 73.3121 89.9626 73.3121 89.796 73.2993C89.7448 73.2993 89.6935 73.2993 89.6423 73.2993C89.5654 73.2993 89.4885 73.2993 89.4117 73.2993C89.3732 73.2993 89.3348 73.2993 89.2836 73.2993C89.0914 73.2993 88.8992 73.3121 88.707 73.3377C88.6558 73.3377 88.6173 73.3505 88.5789 73.3633C88.5789 73.3633 88.5533 73.3633 88.5405 73.3633L85.8885 67.6481C86.5034 67.5586 87.0928 67.3796 87.5668 67.0983C88.8736 66.3439 89.0017 65.1677 87.9512 64.3238L97.3804 58.8899L96.5349 58.404L87.0928 63.8379C86.7725 63.7101 86.4394 63.6078 86.0807 63.5439C86.0807 63.5439 86.0807 63.5439 86.0935 63.5439C86.055 63.5439 86.0166 63.5439 85.9782 63.5439C85.8885 63.5311 85.786 63.5055 85.6963 63.4927C85.5298 63.4672 85.3632 63.4672 85.1967 63.4544C85.1454 63.4544 85.0942 63.4544 85.0429 63.4544C84.9661 63.4544 84.8892 63.4544 84.8251 63.4544C84.7867 63.4544 84.7355 63.4544 84.697 63.4544C84.5049 63.4544 84.3127 63.4672 84.1333 63.4927C84.0821 63.4927 84.0436 63.5055 83.9924 63.5183C83.9155 63.5183 83.8386 63.5439 83.7618 63.5567C83.5824 63.595 83.4159 63.6334 83.2493 63.6717C83.1981 63.6845 83.134 63.6973 83.0828 63.7229C83.0443 63.7229 83.0059 63.7484 82.9675 63.7612C82.7241 63.8507 82.4806 63.9402 82.2756 64.0681C81.7888 64.3494 81.4813 64.6818 81.3148 65.0398L71.3858 63.5055C71.7318 62.7895 71.4243 61.984 70.4378 61.4215C70.0022 61.1785 69.5025 61.0123 68.9517 60.91C68.9517 60.91 68.9517 60.91 68.9645 60.91C68.926 60.91 68.8876 60.91 68.8492 60.91C68.7595 60.8972 68.657 60.8717 68.5673 60.8589C68.4008 60.8333 68.2342 60.8333 68.0677 60.8205C68.0164 60.8205 67.9652 60.8205 67.9139 60.8205C67.837 60.8205 67.7602 60.8205 67.6961 60.8205C67.6577 60.8205 67.6193 60.8205 67.568 60.8205C67.3758 60.8205 67.1837 60.8333 66.9915 60.8589C66.9402 60.8589 66.9018 60.8717 66.8634 60.8845C66.8377 60.8845 66.8249 60.8845 66.7993 60.8845L63.2761 53.3026L62.1231 53.4816L65.6975 61.1785C65.5053 61.2552 65.3132 61.3447 65.1466 61.4342C64.0576 62.0607 63.7758 62.9813 64.3267 63.7612C64.442 63.9147 64.5829 64.0681 64.7623 64.2087L56.9216 68.7221C56.6013 68.5942 56.2682 68.4919 55.9095 68.428C55.9095 68.428 55.9095 68.428 55.9223 68.428C55.8839 68.428 55.8455 68.428 55.807 68.428C55.7173 68.4152 55.6148 68.3896 55.5252 68.3769C55.3586 68.3513 55.1921 68.3513 55.0255 68.3385C54.9743 68.3385 54.923 68.3385 54.8718 68.3385C54.7949 68.3385 54.718 68.3385 54.6412 68.3385C54.6027 68.3385 54.5643 68.3385 54.5131 68.3385C54.3209 68.3385 54.1287 68.3513 53.9365 68.3769C53.8853 68.3769 53.8469 68.3896 53.8084 68.4024C53.7316 68.4024 53.6547 68.428 53.5778 68.4408C53.3985 68.4791 53.2319 68.5175 53.0654 68.5559C53.0141 68.5686 52.9501 68.5814 52.8988 68.607C52.8604 68.6198 52.8219 68.6326 52.7835 68.6454C52.5401 68.7349 52.2967 68.8371 52.0917 68.9522C51.9123 69.0545 51.7458 69.1696 51.6177 69.2846C51.5023 69.3869 51.4255 69.4892 51.3486 69.5915L41.33 68.0444C41.4325 67.4307 41.0994 66.7787 40.2666 66.3056C39.831 66.0627 39.3186 65.8964 38.7805 65.7942C38.7805 65.7942 38.7805 65.7942 38.8061 65.7942C38.7677 65.7942 38.7293 65.7942 38.6908 65.7942C38.6011 65.7814 38.4986 65.7558 38.409 65.743C38.2424 65.7174 38.0759 65.7174 37.9093 65.7047C37.8581 65.7047 37.8068 65.7047 37.7556 65.7047C37.6787 65.7047 37.6018 65.7047 37.5378 65.7047C37.4993 65.7047 37.4609 65.7047 37.4097 65.7047C37.3584 65.7047 37.3072 65.7047 37.2559 65.7047L33.6175 57.8926L32.4644 58.0716L36.1029 65.8837C36.1029 65.8837 36.0132 65.9092 35.9748 65.922C35.9235 65.9348 35.8595 65.9476 35.8082 65.9732C35.7698 65.9732 35.7314 65.9987 35.6929 66.0115C35.4495 66.101 35.2061 66.2033 35.0011 66.3184C34.8217 66.4207 34.6552 66.5357 34.5271 66.6508C33.6815 67.3924 33.7199 68.3641 34.6296 69.0929L27.3014 73.3121C26.9811 73.1843 26.648 73.082 26.2893 73.0181C26.2893 73.0181 26.2893 73.0181 26.3149 73.0181C26.2764 73.0181 26.238 73.0181 26.1996 73.0181C26.1099 73.0053 26.0074 72.9797 25.9177 72.9669C25.7512 72.9413 25.5846 72.9413 25.4309 72.9286C25.3796 72.9286 25.3284 72.9286 25.2771 72.9286C25.2003 72.9286 25.1234 72.9286 25.0594 72.9286C25.0209 72.9286 24.9825 72.9286 24.9312 72.9286C24.7391 72.9286 24.5469 72.9413 24.3675 72.9669C24.3163 72.9669 24.2778 72.9797 24.2266 72.9925C24.1497 72.9925 24.0729 73.0181 23.996 73.0308C23.8294 73.0692 23.6501 73.1076 23.4835 73.1459C23.4323 73.1587 23.3682 73.1715 23.317 73.1971C23.2786 73.2098 23.2401 73.2226 23.2017 73.2354C22.9583 73.3249 22.7148 73.4272 22.5099 73.5423C22.1768 73.7341 21.9333 73.9514 21.754 74.1816L21.8052 74.0921ZM20.2678 90.8029L27.6088 86.5709C27.6088 86.5709 27.6857 86.6092 27.7241 86.622C27.7626 86.6348 27.801 86.6476 27.8395 86.6604C27.9163 86.6859 27.9932 86.7115 28.0701 86.7243C28.2494 86.7754 28.4416 86.8266 28.6338 86.8649C28.7234 86.8777 28.8003 86.8905 28.89 86.9033C29.1078 86.9289 29.3256 86.9544 29.5434 86.9672C29.5946 86.9672 29.6587 86.9672 29.7099 86.9672C29.9918 86.9672 30.2736 86.9672 30.5555 86.9289H30.5683C31.2473 86.8394 31.9007 86.6604 32.426 86.3535C32.7591 86.1617 33.0025 85.9444 33.1819 85.7142L43.2005 87.2613C43.098 87.875 43.4311 88.5271 44.2638 89.0001C44.4432 89.1024 44.6354 89.1919 44.8404 89.2686C44.8788 89.2814 44.9172 89.2942 44.9557 89.307C45.0325 89.3326 45.1094 89.3581 45.1863 89.3709C45.3656 89.4221 45.5578 89.4732 45.75 89.5116C45.8268 89.5244 45.9165 89.5371 46.0062 89.5499C46.224 89.5755 46.4418 89.6011 46.6596 89.6138C46.7108 89.6138 46.7749 89.6138 46.8261 89.6138C46.9799 89.6138 47.1336 89.6138 47.2874 89.6011L49.9778 95.3674C49.9778 95.3674 49.8881 95.393 49.8497 95.4058C49.7984 95.4185 49.7344 95.4313 49.6831 95.4569C49.6447 95.4569 49.6062 95.4825 49.5678 95.4953C49.3244 95.5848 49.081 95.687 48.876 95.8021C47.5564 96.5565 47.4411 97.7327 48.4916 98.5766L41.1506 102.809C40.8303 102.681 40.4844 102.579 40.1385 102.515C40.1385 102.515 40.1385 102.515 40.1513 102.515C40.1129 102.515 40.0745 102.515 40.036 102.515C39.9464 102.502 39.8439 102.476 39.7542 102.463C39.5876 102.438 39.4211 102.438 39.2545 102.425C39.2033 102.425 39.152 102.425 39.1008 102.425C39.0239 102.425 38.9471 102.425 38.883 102.425C38.8446 102.425 38.7933 102.425 38.7549 102.425C38.5627 102.425 38.3833 102.438 38.1912 102.463C38.1399 102.463 38.1015 102.476 38.0502 102.489C37.9734 102.489 37.8965 102.515 37.8196 102.527C37.6403 102.566 37.4737 102.604 37.3072 102.642C37.2559 102.655 37.1919 102.668 37.1406 102.694C37.1022 102.694 37.0638 102.719 37.0253 102.732C36.7819 102.821 36.5385 102.911 36.3335 103.039C36.0132 103.231 35.7698 103.435 35.5904 103.665L25.5718 102.118C25.6743 101.505 25.3284 100.865 24.5085 100.392C24.0729 100.149 23.5732 99.983 23.0223 99.8807C23.0223 99.8807 23.0223 99.8807 23.0479 99.8807C23.0095 99.8807 22.9711 99.8807 22.9326 99.8807C22.843 99.868 22.7405 99.8424 22.6508 99.8296C22.4842 99.804 22.3177 99.804 22.1511 99.7912C22.0999 99.7912 22.0486 99.7912 21.9974 99.7912C21.9205 99.7912 21.8437 99.7912 21.7796 99.7912C21.7412 99.7912 21.7027 99.7912 21.6515 99.7912C21.6002 99.7912 21.5618 99.7912 21.5234 99.7912L18.8329 94.0121C19.2301 93.9098 19.6016 93.7692 19.9219 93.5774C21.2415 92.8231 21.3568 91.6468 20.3063 90.8029H20.2678ZM108.219 89.1408L100.378 93.6541C100.058 93.5263 99.7249 93.424 99.3662 93.36C99.3662 93.36 99.3662 93.36 99.379 93.36C99.3406 93.36 99.3022 93.36 99.2637 93.36C99.1741 93.3473 99.0716 93.3217 98.9819 93.3089C98.8153 93.2833 98.6488 93.2833 98.4822 93.2705C98.431 93.2705 98.3797 93.2705 98.3285 93.2705C98.2516 93.2705 98.1748 93.2705 98.0979 93.2705C98.0594 93.2705 98.021 93.2705 97.9698 93.2705C97.7776 93.2705 97.5854 93.2833 97.4061 93.3089C97.3548 93.3089 97.3164 93.3217 97.2651 93.3345C97.1883 93.3345 97.1114 93.36 97.0345 93.3728C96.8552 93.4112 96.6886 93.4496 96.5221 93.4879C96.4708 93.5007 96.4068 93.5135 96.3555 93.5391C96.3171 93.5391 96.2786 93.5646 96.2402 93.5774C95.9968 93.6669 95.7534 93.7692 95.5484 93.8843C95.369 93.9865 95.2025 94.1016 95.0744 94.2167C94.9591 94.319 94.8822 94.4213 94.8053 94.5235L84.7867 92.9765C84.8892 92.3628 84.5561 91.7107 83.7233 91.2376C83.2878 90.9947 82.7753 90.8285 82.2372 90.7262C82.2372 90.7262 82.2372 90.7262 82.2628 90.7262C82.2244 90.7262 82.186 90.7262 82.1475 90.7262C82.0579 90.7134 81.9554 90.6878 81.8657 90.6751C81.6991 90.6495 81.5326 90.6495 81.366 90.6367C81.3148 90.6367 81.2635 90.6367 81.2123 90.6367C81.1354 90.6367 81.0585 90.6367 80.9945 90.6367C80.9561 90.6367 80.9176 90.6367 80.8664 90.6367C80.8151 90.6367 80.7639 90.6367 80.7126 90.6367L78.0222 84.8704C78.4194 84.7681 78.8037 84.6274 79.1368 84.4357C80.4564 83.6813 80.5717 82.505 79.5212 81.6612L87.3618 77.1478C87.3618 77.1478 87.4387 77.1862 87.4771 77.199C87.5156 77.2118 87.554 77.2245 87.5924 77.2373C87.6693 77.2629 87.7462 77.2885 87.823 77.3013C88.0024 77.3524 88.1946 77.4035 88.3867 77.4419C88.4636 77.4547 88.5533 77.4675 88.643 77.4803C88.8608 77.5058 89.0786 77.5314 89.2964 77.5442C89.3476 77.5442 89.4117 77.5442 89.4629 77.5442C89.7448 77.5442 90.0394 77.5442 90.3085 77.5058C90.3085 77.5058 90.3085 77.5058 90.3213 77.5058C91.0003 77.4163 91.6537 77.2373 92.179 76.9305C92.3455 76.8282 92.4992 76.7259 92.6274 76.6108L102.941 78.209C103.005 78.7077 103.351 79.1935 104.004 79.5771C104.183 79.6794 104.376 79.7689 104.581 79.8456C104.619 79.8584 104.657 79.8712 104.696 79.884C104.773 79.9095 104.85 79.9351 104.926 79.9479C105.106 79.999 105.298 80.0502 105.49 80.0885C105.58 80.1013 105.657 80.1141 105.746 80.1269C105.964 80.1525 106.169 80.178 106.387 80.178L109.154 86.1234C108.962 86.2001 108.77 86.2896 108.603 86.3791C107.514 87.0056 107.232 87.9261 107.783 88.7061C107.899 88.8595 108.052 89.0129 108.219 89.1536V89.1408ZM72.7951 107.693L70.1175 101.926C70.5147 101.824 70.899 101.684 71.2321 101.492C72.5517 100.737 72.667 99.5611 71.6165 98.7172L78.9446 94.498C78.9446 94.498 79.0215 94.5363 79.06 94.5491C79.0984 94.5619 79.1368 94.5747 79.1753 94.5875C79.2521 94.613 79.329 94.6386 79.3931 94.6514C79.5724 94.7025 79.7646 94.7537 79.9568 94.792C80.0336 94.8048 80.1233 94.8176 80.2002 94.8304C80.418 94.856 80.6358 94.8815 80.8664 94.8943C80.9176 94.8943 80.9817 94.8943 81.0329 94.8943C81.3148 94.8943 81.6094 94.8943 81.8785 94.856H81.8913C82.5703 94.7665 83.2237 94.5875 83.749 94.2806C84.0821 94.0888 84.3255 93.8715 84.5048 93.6413L94.5235 95.1884C94.421 95.8021 94.7541 96.4542 95.5868 96.9272C95.7021 96.9912 95.8302 97.0423 95.9455 97.0935C96.0224 97.1318 96.0865 97.1702 96.1633 97.1957C96.2018 97.2085 96.2402 97.2213 96.2786 97.2341C96.3427 97.2597 96.4196 97.2852 96.4964 97.298C96.6758 97.3492 96.868 97.4003 97.0602 97.4387C97.137 97.4515 97.2267 97.4642 97.3036 97.477C97.5214 97.5026 97.7392 97.5282 97.957 97.541C98.0082 97.541 98.0723 97.541 98.1235 97.541C98.2772 97.541 98.431 97.541 98.5847 97.5282L101.275 103.295C101.275 103.295 101.185 103.32 101.147 103.333C101.096 103.346 101.032 103.358 100.98 103.384C100.942 103.384 100.904 103.41 100.865 103.422C100.622 103.512 100.378 103.614 100.173 103.729C99.994 103.832 99.8274 103.947 99.6993 104.062C98.8538 104.803 98.8922 105.775 99.8018 106.491L92.4736 110.71C92.1533 110.582 91.8202 110.48 91.4615 110.416C91.4615 110.416 91.4615 110.416 91.4743 110.416C91.4359 110.416 91.3974 110.416 91.359 110.416C91.2693 110.403 91.1668 110.378 91.0772 110.365C90.9106 110.339 90.7441 110.339 90.5775 110.327C90.5263 110.327 90.475 110.327 90.4238 110.327C90.3469 110.327 90.27 110.327 90.206 110.327C90.1675 110.327 90.1163 110.327 90.0779 110.327C89.8857 110.327 89.7063 110.339 89.5142 110.365C89.4629 110.365 89.4245 110.378 89.3732 110.391C89.2964 110.391 89.2195 110.416 89.1426 110.429C88.9633 110.467 88.7967 110.506 88.6302 110.544C88.5661 110.557 88.5149 110.57 88.4636 110.595C88.4252 110.595 88.3867 110.621 88.3483 110.633C88.1049 110.723 87.8615 110.825 87.6565 110.94C87.3234 111.132 87.08 111.349 86.9006 111.58L76.882 110.033C76.9845 109.419 76.6514 108.767 75.8186 108.294C75.383 108.051 74.8834 107.885 74.3325 107.782C74.3325 107.782 74.3325 107.782 74.3453 107.782C74.3069 107.782 74.2684 107.782 74.23 107.782C74.1403 107.769 74.0378 107.744 73.9482 107.731C73.7816 107.706 73.6151 107.706 73.4485 107.693C73.3973 107.693 73.346 107.693 73.2948 107.693C73.2179 107.693 73.141 107.693 73.077 107.693C73.0385 107.693 73.0001 107.693 72.9488 107.693C72.8976 107.693 72.8464 107.693 72.7951 107.693ZM65.1851 99.088L55.1664 97.541C55.2689 96.9145 54.9358 96.2752 54.1159 95.8021C53.6803 95.5592 53.1679 95.393 52.6298 95.2907C52.6298 95.2907 52.6298 95.2907 52.6426 95.2907C52.6041 95.2907 52.5657 95.2907 52.5273 95.2907C52.4376 95.2779 52.3351 95.2523 52.2454 95.2395C52.0789 95.214 51.9123 95.214 51.7458 95.2012C51.6945 95.2012 51.6433 95.2012 51.592 95.2012C51.5152 95.2012 51.4383 95.2012 51.3614 95.2012C51.323 95.2012 51.2846 95.2012 51.2333 95.2012C51.1821 95.2012 51.1308 95.2012 51.0796 95.2012L48.3891 89.4348C48.7863 89.3326 49.1707 89.1919 49.5037 89.0001C50.8105 88.2458 50.9386 87.0695 49.8881 86.2257L57.2163 82.0064C57.2163 82.0064 57.2932 82.0447 57.3316 82.0575C57.37 82.0703 57.4085 82.0831 57.4469 82.0959C57.5238 82.1214 57.6006 82.147 57.6647 82.1598C57.8441 82.211 58.0362 82.2621 58.2284 82.3005C58.3053 82.3132 58.395 82.326 58.4718 82.3388C58.6896 82.3644 58.9074 82.3899 59.1252 82.4027C59.1765 82.4027 59.2405 82.4027 59.2918 82.4027C59.5736 82.4027 59.8555 82.4027 60.1373 82.3644C60.1373 82.3644 60.1373 82.3644 60.1501 82.3644C60.8291 82.2749 61.4825 82.0831 62.0078 81.789C62.3409 81.5972 62.5843 81.3799 62.7637 81.1497L72.7823 82.6968C72.6798 83.3105 73.0129 83.9626 73.8457 84.4357C73.961 84.4996 74.0763 84.5507 74.2044 84.6019C74.2812 84.6402 74.3453 84.6786 74.435 84.7042C74.4734 84.7169 74.5119 84.7297 74.5503 84.7425C74.6272 84.7681 74.704 84.7937 74.7681 84.8064C74.9474 84.8576 75.1396 84.9087 75.3318 84.9471C75.4087 84.9599 75.4983 84.9727 75.5752 84.9854C75.793 85.011 76.0108 85.0366 76.2286 85.0494C76.2927 85.0494 76.3439 85.0494 76.3951 85.0494C76.5489 85.0494 76.7026 85.0494 76.8564 85.0366L79.534 90.8029C79.534 90.8029 79.4443 90.8285 79.4059 90.8413C79.3546 90.8541 79.2906 90.8668 79.2393 90.8924C79.2009 90.8924 79.1624 90.918 79.124 90.9308C78.8806 91.0203 78.6372 91.1226 78.4322 91.2376C78.2528 91.3399 78.0863 91.455 77.9582 91.5701C77.1126 92.3116 77.151 93.2833 78.0607 94.0121L70.7325 98.2314C70.4122 98.1035 70.0791 98.0012 69.7203 97.9373C69.7203 97.9373 69.7203 97.9373 69.746 97.9373C69.7075 97.9373 69.6691 97.9373 69.6307 97.9373C69.541 97.9245 69.4385 97.899 69.3488 97.8862C69.1823 97.8606 69.0157 97.8606 68.862 97.8478C68.8107 97.8478 68.7595 97.8478 68.7082 97.8478C68.6314 97.8478 68.5545 97.8478 68.4904 97.8478C68.452 97.8478 68.4136 97.8478 68.3623 97.8478C68.1702 97.8478 67.978 97.8606 67.7986 97.8862C67.7474 97.8862 67.7089 97.899 67.6577 97.9117C67.5808 97.9117 67.504 97.9373 67.4271 97.9501C67.2605 97.9885 67.0812 98.0268 66.9146 98.0652C66.8634 98.078 66.7993 98.0907 66.7481 98.1163C66.7096 98.1163 66.6712 98.1419 66.6328 98.1547C66.3893 98.2442 66.1459 98.3465 65.9409 98.4615C65.6078 98.6533 65.3644 98.8707 65.1851 99.1008V99.088ZM57.8825 78.2985C57.8825 78.2985 57.7928 78.3241 57.7544 78.3369C57.7031 78.3497 57.6391 78.3625 57.5878 78.388C57.5494 78.388 57.511 78.4136 57.4725 78.4264C57.2291 78.5159 56.9857 78.6182 56.7807 78.7332C56.6013 78.8355 56.4348 78.9506 56.3067 79.0657C55.4611 79.8072 55.4995 80.779 56.4092 81.5077L49.081 85.727C48.7607 85.5992 48.4276 85.4969 48.0689 85.4329C48.0689 85.4329 48.0689 85.4329 48.0817 85.4329C48.0432 85.4329 48.0048 85.4329 47.9664 85.4329C47.8767 85.4202 47.7742 85.3946 47.6845 85.3818C47.518 85.3562 47.3514 85.3562 47.1849 85.3434C47.1336 85.3434 47.0824 85.3434 47.0311 85.3434C46.9543 85.3434 46.8774 85.3434 46.8133 85.3434C46.7749 85.3434 46.7236 85.3434 46.6852 85.3434C46.493 85.3434 46.3009 85.3562 46.1215 85.3818C46.0703 85.3818 46.0318 85.3946 45.9806 85.4074C45.9037 85.4074 45.8268 85.4329 45.75 85.4457C45.5706 85.4841 45.4041 85.5224 45.2375 85.5608C45.1863 85.5736 45.1222 85.5864 45.071 85.6119C45.0325 85.6247 44.9941 85.6375 44.9557 85.6503C44.7122 85.7398 44.4688 85.8421 44.2638 85.9572C43.9307 86.1489 43.6873 86.3663 43.508 86.5964L33.4893 85.0494C33.5918 84.4229 33.2587 83.7836 32.426 83.3105C31.9904 83.0676 31.4907 82.9014 30.9398 82.7991C30.9398 82.7991 30.9398 82.7991 30.9527 82.7991C30.9142 82.7991 30.8758 82.7991 30.8374 82.7991C30.7349 82.7863 30.6452 82.7607 30.5555 82.7479C30.3889 82.7224 30.2224 82.7224 30.0558 82.7096C30.0046 82.7096 29.9534 82.7096 29.9021 82.7096C29.8252 82.7096 29.7484 82.7096 29.6843 82.7096C29.6459 82.7096 29.6074 82.7096 29.5562 82.7096C29.505 82.7096 29.4537 82.7096 29.4025 82.7096L26.7249 76.9433C27.122 76.841 27.5064 76.7003 27.8395 76.5085C29.159 75.7542 29.2743 74.5779 28.2238 73.7341L35.552 69.5148C35.552 69.5148 35.6289 69.5531 35.6673 69.5659C35.7057 69.5787 35.7442 69.5915 35.7826 69.6043C35.8595 69.6299 35.9363 69.6554 36.0004 69.6682C36.1798 69.7194 36.3719 69.7705 36.5641 69.8089C36.641 69.8216 36.7307 69.8344 36.8075 69.8472C37.0253 69.8728 37.2431 69.8984 37.4609 69.9111C37.5122 69.9111 37.5762 69.9111 37.6275 69.9111C37.9093 69.9111 38.204 69.9111 38.473 69.8728C38.473 69.8728 38.473 69.8728 38.4858 69.8728C39.1648 69.7833 39.8182 69.6043 40.3435 69.2974C40.6766 69.1056 40.92 68.8883 41.0994 68.6581L51.118 70.2052C51.0155 70.8189 51.3486 71.471 52.1814 71.9441C52.2967 72.008 52.4248 72.0591 52.5401 72.1103C52.617 72.1486 52.681 72.187 52.7579 72.2126C52.7963 72.2253 52.8347 72.2381 52.8732 72.2509C52.9501 72.2765 53.0269 72.3021 53.091 72.3148C53.2703 72.366 53.4625 72.4171 53.6547 72.4555C53.7316 72.4683 53.8212 72.4811 53.8981 72.4938C54.1159 72.5194 54.3337 72.545 54.5515 72.5578C54.6027 72.5578 54.6668 72.5578 54.718 72.5578C54.8718 72.5578 55.0255 72.5578 55.1793 72.545L57.8697 78.3113L57.8825 78.2985ZM70.489 64.4133C70.6556 64.311 70.8093 64.2087 70.9374 64.0937L81.2507 65.6791C81.3148 66.1777 81.6607 66.6636 82.3141 67.0471C82.4934 67.1494 82.6856 67.2389 82.8906 67.3157C82.929 67.3284 82.9675 67.3412 83.0059 67.354C83.0828 67.3796 83.1596 67.4051 83.2365 67.4179C83.4159 67.4691 83.608 67.5202 83.8002 67.5586C83.8771 67.5714 83.9668 67.5841 84.0564 67.5969C84.2614 67.6225 84.4792 67.6481 84.697 67.6481L87.4515 73.5934C87.2593 73.6701 87.0672 73.7596 86.9006 73.8491C85.8116 74.4756 85.5298 75.3962 86.0807 76.1761C86.196 76.3295 86.3497 76.483 86.5163 76.6236L78.6756 81.137C78.3553 81.0091 78.0222 80.9068 77.6635 80.8429C77.6635 80.8429 77.6635 80.8429 77.6763 80.8429C77.6379 80.8429 77.5994 80.8429 77.561 80.8429C77.4585 80.8301 77.3688 80.8045 77.2791 80.7917C77.1126 80.7662 76.946 80.7662 76.7795 80.7534C76.7282 80.7534 76.677 80.7534 76.6258 80.7534C76.5489 80.7534 76.472 80.7534 76.408 80.7534C76.3695 80.7534 76.3311 80.7534 76.2798 80.7534C76.0877 80.7534 75.8955 80.7662 75.7033 80.7917C75.6521 80.7917 75.6136 80.8045 75.5752 80.8173C75.4983 80.8173 75.4215 80.8429 75.3446 80.8557C75.1781 80.894 74.9987 80.9324 74.8321 80.9707C74.7809 80.9835 74.7168 80.9963 74.6656 81.0219C74.6272 81.0219 74.5887 81.0475 74.5503 81.0602C74.3069 81.1497 74.0635 81.252 73.8585 81.3671C73.6791 81.4694 73.5126 81.5845 73.3716 81.6995C73.2563 81.8018 73.1795 81.9041 73.1026 82.0064L63.084 80.4593C63.1865 79.8456 62.8534 79.1935 62.0206 78.7205C61.5978 78.4775 61.0854 78.3113 60.5345 78.209C60.5345 78.209 60.5345 78.209 60.5473 78.209C60.5089 78.209 60.4704 78.209 60.432 78.209C60.3423 78.1962 60.2398 78.1707 60.1501 78.1579C59.9836 78.1323 59.817 78.1323 59.6505 78.1195C59.5992 78.1195 59.548 78.1195 59.4967 78.1195C59.4199 78.1195 59.343 78.1195 59.2789 78.1195C59.2405 78.1195 59.2021 78.1195 59.1508 78.1195C59.0996 78.1195 59.0483 78.1195 58.9971 78.1195L56.3067 72.3532C56.7038 72.2509 57.0882 72.1103 57.4213 71.9185C58.7281 71.1641 58.8562 69.9879 57.8056 69.144L65.6463 64.6307C65.6463 64.6307 65.7232 64.669 65.7616 64.6818C65.8 64.6946 65.8384 64.7074 65.8769 64.7202C65.9538 64.7457 66.0306 64.7713 66.1075 64.7841C66.2868 64.8352 66.479 64.8864 66.6712 64.9247C66.7609 64.9375 66.8378 64.9503 66.9274 64.9631C67.1452 64.9887 67.363 65.0142 67.5808 65.027C67.6321 65.027 67.6961 65.027 67.7474 65.027C68.0292 65.027 68.3111 65.027 68.5929 64.9887C68.5929 64.9887 68.5929 64.9887 68.6057 64.9887C69.2848 64.8992 69.9381 64.7074 70.4634 64.4133H70.489ZM47.2105 114.61C47.313 113.996 46.9671 113.357 46.1471 112.884C45.7115 112.641 45.1991 112.475 44.661 112.372C44.661 112.372 44.661 112.372 44.6738 112.372C44.6354 112.372 44.5969 112.372 44.5585 112.372C44.4688 112.36 44.3663 112.334 44.2766 112.321C44.1101 112.296 43.9435 112.296 43.777 112.283C43.7257 112.283 43.6745 112.283 43.6233 112.283C43.5464 112.283 43.4695 112.283 43.4055 112.283C43.367 112.283 43.3158 112.283 43.2773 112.283C43.2389 112.283 43.1877 112.283 43.1492 112.283L40.4588 106.504C40.856 106.401 41.2275 106.261 41.5478 106.069C42.8546 105.315 42.9827 104.138 41.9321 103.295L49.2731 99.0625C49.2731 99.0625 49.35 99.1008 49.3884 99.1136C49.4269 99.1264 49.4653 99.1392 49.5037 99.152C49.5806 99.1775 49.6575 99.2031 49.7344 99.2159C49.9137 99.267 50.1059 99.3182 50.2981 99.3565C50.3749 99.3693 50.4646 99.3821 50.5543 99.3949C50.7721 99.4205 50.9899 99.446 51.2077 99.4588C51.2589 99.4588 51.323 99.4588 51.3742 99.4588C51.6561 99.4588 51.9508 99.4588 52.2198 99.4205C52.2198 99.4205 52.2198 99.4205 52.2326 99.4205C52.9116 99.331 53.565 99.152 54.0903 98.8451C54.4234 98.6533 54.6668 98.436 54.8462 98.2058L64.8648 99.7529C64.7623 100.379 65.0954 101.019 65.9153 101.492C66.0947 101.594 66.2869 101.684 66.5047 101.76C66.5431 101.773 66.5815 101.786 66.62 101.799C66.6968 101.824 66.7737 101.85 66.8506 101.863C67.0299 101.914 67.2221 101.965 67.4143 102.003C67.504 102.016 67.5808 102.029 67.6705 102.042C67.8883 102.067 68.1061 102.093 68.3239 102.105C68.3751 102.105 68.4392 102.105 68.4904 102.105C68.6442 102.105 68.7979 102.105 68.9517 102.093L71.6293 107.859C71.6293 107.859 71.5396 107.885 71.5012 107.897C71.4499 107.91 71.3858 107.923 71.3346 107.948C71.2962 107.961 71.2577 107.974 71.2193 107.987C70.9759 108.076 70.7325 108.179 70.5275 108.294C69.2079 109.048 69.0926 110.224 70.1431 111.068L62.8021 115.3C62.4818 115.172 62.1487 115.07 61.79 115.006C61.79 115.006 61.79 115.006 61.8028 115.006C61.7644 115.006 61.726 115.006 61.6875 115.006C61.5978 114.993 61.4953 114.968 61.4057 114.955C61.2391 114.929 61.0726 114.929 60.9188 114.917C60.8676 114.917 60.8163 114.917 60.7651 114.917C60.6882 114.917 60.6113 114.917 60.5473 114.917C60.5089 114.917 60.4704 114.917 60.4192 114.917C60.227 114.917 60.0348 114.929 59.8555 114.955C59.8042 114.955 59.7658 114.968 59.7273 114.981C59.6505 114.981 59.5736 115.006 59.4967 115.019C59.3302 115.057 59.1508 115.096 58.9843 115.134C58.933 115.147 58.869 115.16 58.8177 115.185C58.7793 115.185 58.7409 115.211 58.7024 115.224C58.459 115.313 58.2156 115.415 58.0106 115.53C57.6903 115.722 57.4469 115.94 57.2675 116.157L47.2489 114.61H47.2105Z" fill="#FFF7F0"/>
<path d="M109.026 91.9653L108.988 89.8045C108.988 90.7507 108.373 91.6968 107.117 92.4128L107.156 94.5736C108.398 93.8576 109.026 92.9114 109.026 91.9653Z" fill="url(#paint1_linear_0_2500)"/>
<path d="M20.8047 92.4252L59.3546 114.787L59.393 116.948L20.8431 94.586C19.626 93.8828 19.0111 92.9494 19.0111 92.0161L18.9727 89.8553C18.9727 90.7886 19.5876 91.722 20.8047 92.438V92.4252Z" fill="url(#paint2_linear_0_2500)"/>
<path d="M107.13 92.4265C108.373 91.7105 109.001 90.7643 109.001 89.8182L109.039 91.979C109.039 92.9251 108.424 93.8712 107.169 94.5872L68.3627 116.949L68.3242 114.789L107.13 92.4265Z" fill="url(#paint3_linear_0_2500)"/>
<path d="M59.3555 114.775L59.394 116.936C61.8538 118.368 65.8894 118.368 68.362 116.936L68.3236 114.775C65.851 116.194 61.8153 116.194 59.3555 114.775Z" fill="url(#paint4_linear_0_2500)"/>
<mask id="mask0_0_2500" style="mask-type:luminance" maskUnits="userSpaceOnUse" x="59" y="114" width="10" height="5">
<path d="M59.3555 114.775L59.394 116.936C61.8538 118.368 65.8894 118.368 68.362 116.936L68.3236 114.775C65.851 116.194 61.8153 116.194 59.3555 114.775Z" fill="white"/>
</mask>
<g mask="url(#mask0_0_2500)">
<path d="M59.3555 114.775L59.394 116.936C61.8538 118.368 65.8894 118.368 68.362 116.936L68.3236 114.775C65.851 116.194 61.8153 116.194 59.3555 114.775Z" fill="url(#paint5_linear_0_2500)"/>
</g>
<path d="M20.8313 87.2348C18.3586 88.654 18.3458 90.9938 20.8056 92.4258L59.3555 114.788C61.8153 116.22 65.851 116.22 68.3236 114.788L107.13 92.4258C109.602 90.9938 109.615 88.6668 107.155 87.2348L68.6054 64.8726C66.1456 63.4407 62.11 63.4407 59.6246 64.8726L20.8184 87.2348H20.8313Z" fill="url(#paint6_linear_0_2500)"/>
<path d="M22.7786 86.5211L59.5605 107.86L59.599 112.923L22.8171 91.5842C21.6512 90.9066 21.0619 90.0116 21.0619 89.1294L21.0234 84.0662C21.0234 84.9612 21.6128 85.8434 22.7786 86.5211Z" fill="url(#paint7_linear_0_2500)"/>
<path d="M105.158 86.5204C106.35 85.8299 106.939 84.935 106.939 84.0272L106.977 89.0903C106.977 89.9981 106.388 90.8931 105.197 91.5835L68.1712 112.923L68.1328 107.86L105.158 86.5204Z" fill="#FFAF69"/>
<path d="M59.5742 107.859L59.6127 112.922C61.9572 114.278 65.8134 114.278 68.1708 112.922L68.1323 107.859C65.775 109.214 61.9187 109.214 59.5742 107.859Z" fill="url(#paint8_linear_0_2500)"/>
<mask id="mask1_0_2500" style="mask-type:luminance" maskUnits="userSpaceOnUse" x="59" y="107" width="10" height="7">
<path d="M59.5742 107.859L59.6127 112.922C61.9572 114.278 65.8134 114.278 68.1708 112.922L68.1323 107.859C65.775 109.214 61.9187 109.214 59.5742 107.859Z" fill="white"/>
</mask>
<g mask="url(#mask1_0_2500)">
<path d="M59.5742 107.859L59.6127 112.922C61.9572 114.278 65.8134 114.278 68.1708 112.922L68.1323 107.859C65.775 109.214 61.9187 109.214 59.5742 107.859Z" fill="url(#paint9_linear_0_2500)"/>
</g>
<path d="M22.8034 81.5724C20.446 82.9276 20.4332 85.1651 22.7777 86.5204L59.5597 107.86C61.9042 109.215 65.7604 109.215 68.1177 107.86L105.143 86.5204C107.513 85.1651 107.526 82.9276 105.169 81.5724L68.3868 60.2331C66.0423 58.8778 62.186 58.8778 59.8159 60.2331L22.7906 81.5724H22.8034Z" fill="url(#paint10_linear_0_2500)"/>
<path d="M109.026 83.1313L108.988 80.9705C108.988 81.9167 108.373 82.8628 107.117 83.5788L107.156 85.7396C108.398 85.0236 109.026 84.0774 109.026 83.1313Z" fill="url(#paint11_linear_0_2500)"/>
<path d="M20.8047 83.5795L59.3546 105.942L59.393 108.102L20.8431 85.7403C19.626 85.0371 19.0111 84.1037 19.0111 83.1704L18.9727 81.0096C18.9727 81.9429 19.5876 82.8763 20.8047 83.5923V83.5795Z" fill="url(#paint12_linear_0_2500)"/>
<path d="M107.13 83.5788C108.373 82.8628 109.001 81.9167 109.001 80.9705L109.039 83.1313C109.039 84.0774 108.424 85.0236 107.169 85.7396L68.3627 108.102L68.3242 105.941L107.13 83.5788Z" fill="url(#paint13_linear_0_2500)"/>
<path d="M59.3555 105.941L59.394 108.102C61.8538 109.534 65.8894 109.534 68.362 108.102L68.3236 105.941C65.851 107.36 61.8153 107.36 59.3555 105.941Z" fill="url(#paint14_linear_0_2500)"/>
<mask id="mask2_0_2500" style="mask-type:luminance" maskUnits="userSpaceOnUse" x="59" y="105" width="10" height="5">
<path d="M59.3555 105.941L59.394 108.102C61.8538 109.534 65.8894 109.534 68.362 108.102L68.3236 105.941C65.851 107.36 61.8153 107.36 59.3555 105.941Z" fill="white"/>
</mask>
<g mask="url(#mask2_0_2500)">
<path d="M59.3555 105.941L59.394 108.102C61.8538 109.534 65.8894 109.534 68.362 108.102L68.3236 105.941C65.851 107.36 61.8153 107.36 59.3555 105.941Z" fill="url(#paint15_linear_0_2500)"/>
</g>
<path d="M20.8313 78.4008C18.3586 79.8328 18.3458 82.1598 20.8056 83.5918L59.3555 105.954C61.8153 107.386 65.851 107.386 68.3236 105.954L107.13 83.5918C109.602 82.1598 109.615 79.8328 107.155 78.4008L68.6054 56.0387C66.1456 54.6067 62.11 54.6067 59.6246 56.0387L20.8184 78.4008H20.8313Z" fill="url(#paint16_linear_0_2500)"/>
<path d="M37.9453 73.1596V85.6001L53.2038 94.3966H74.7913L90.0498 85.6001V73.1596L74.7913 64.3631H53.2038L37.9453 73.1596Z" fill="#FFC592"/>
<path d="M37.9453 75.307V85.5995L53.2038 94.396H74.7913L90.0498 85.5995V75.307L74.7913 66.5233H53.2038L37.9453 75.307Z" fill="#FF800F"/>
<path d="M48.6313 73.8868L43.7373 73.1324L43.622 73.3753L48.516 74.1297C48.4775 74.347 48.5928 74.59 48.9003 74.7562C48.9644 74.7945 49.0412 74.8201 49.1053 74.8585C49.1053 74.8585 49.1309 74.8585 49.1437 74.8585C49.1694 74.8585 49.195 74.8713 49.2206 74.884C49.2847 74.9096 49.3487 74.9224 49.4256 74.9352C49.4512 74.9352 49.4896 74.9352 49.5153 74.948C49.5921 74.948 49.669 74.9607 49.7459 74.9735C49.7715 74.9735 49.7843 74.9735 49.8099 74.9735C49.8612 74.9735 49.9252 74.9735 49.9765 74.9735L50.9502 77.0576C50.9502 77.0576 50.9117 77.0576 50.8989 77.0704C50.8733 77.0704 50.8605 77.0704 50.8349 77.0832C50.8349 77.0832 50.8092 77.0832 50.7964 77.096C50.7067 77.1215 50.6171 77.1599 50.5402 77.211C50.0662 77.4795 50.0277 77.9142 50.3993 78.2083L47.7473 79.7426C47.632 79.6914 47.5039 79.6659 47.3757 79.6403C47.3757 79.6403 47.3501 79.6403 47.3373 79.6403C47.2989 79.6403 47.2733 79.6275 47.2348 79.6275C47.2348 79.6275 47.1195 79.6275 47.0555 79.6275C47.0426 79.6275 47.017 79.6275 47.0042 79.6275H46.9273C46.9273 79.6275 46.9017 79.6275 46.8761 79.6275C46.812 79.6275 46.7352 79.6275 46.6711 79.6403C46.6583 79.6403 46.6327 79.6403 46.6199 79.6403C46.5942 79.6403 46.5686 79.6403 46.543 79.6531C46.4789 79.6531 46.4149 79.6787 46.3636 79.6914C46.338 79.6914 46.3252 79.6914 46.2996 79.7042C46.2996 79.7042 46.274 79.7042 46.2611 79.717C46.1715 79.7426 46.0818 79.7809 46.0049 79.8321C45.8896 79.896 45.7999 79.9727 45.7359 80.0622L40.8419 79.3079L40.7266 79.5508L45.6206 80.3052C45.5821 80.5353 45.6974 80.7654 46.0049 80.9317C46.069 80.97 46.1458 81.0084 46.2099 81.0339C46.2099 81.0339 46.2355 81.0339 46.2483 81.0339C46.274 81.0339 46.2996 81.0467 46.3252 81.0595C46.3893 81.0851 46.4533 81.0979 46.5302 81.1107C46.5558 81.1107 46.5942 81.1107 46.6199 81.1234C46.6967 81.1234 46.7736 81.1362 46.8633 81.149C46.8889 81.149 46.9017 81.149 46.9273 81.149C46.9786 81.149 47.0426 81.149 47.0939 81.149L48.0676 83.2331C48.0676 83.2331 48.0291 83.2331 48.0163 83.2459C47.9907 83.2459 47.9779 83.2459 47.9523 83.2586C47.9395 83.2586 47.9266 83.2586 47.9138 83.2714C47.8242 83.297 47.7473 83.3354 47.6576 83.3865C47.1836 83.655 47.1451 84.0897 47.5167 84.3838L43.9294 86.4551L44.2369 86.6341L47.8242 84.5628C47.8242 84.5628 47.8498 84.5756 47.8626 84.5756C47.8626 84.5756 47.8882 84.5756 47.901 84.5756C47.9266 84.5756 47.9523 84.5884 47.9779 84.6011C48.0419 84.6267 48.1188 84.6395 48.1829 84.6523C48.2085 84.6523 48.2341 84.6523 48.2726 84.6651C48.3494 84.6651 48.4263 84.6779 48.5032 84.6906C48.5288 84.6906 48.5416 84.6906 48.5672 84.6906C48.6697 84.6906 48.7722 84.6906 48.8747 84.6779C49.1181 84.6523 49.3615 84.5756 49.5537 84.4733C49.669 84.4094 49.7587 84.3199 49.8227 84.2431L53.4356 84.8057C53.3972 85.0359 53.5125 85.266 53.8199 85.4322C53.884 85.4706 53.9609 85.4961 54.0249 85.5345C54.0249 85.5345 54.0506 85.5345 54.0634 85.5345C54.089 85.5345 54.1146 85.5473 54.1402 85.5601C54.2043 85.5856 54.2683 85.5984 54.3452 85.6112C54.3708 85.6112 54.4093 85.6112 54.4349 85.624C54.5118 85.624 54.5886 85.6368 54.6655 85.6496C54.6911 85.6496 54.7039 85.6496 54.7296 85.6496C54.7808 85.6496 54.8449 85.6496 54.8961 85.6496L55.8698 87.7336C55.8698 87.7336 55.8314 87.7336 55.8185 87.7464C55.7929 87.7464 55.7801 87.7464 55.7545 87.7592C55.7545 87.7592 55.7289 87.7592 55.7161 87.772C55.6264 87.7976 55.5367 87.8359 55.4598 87.8871C54.9858 88.1556 54.9474 88.5903 55.3189 88.8843L51.7317 90.9556L52.0391 91.1346L55.6264 89.0633C55.6264 89.0633 55.652 89.0761 55.6648 89.0761C55.6648 89.0761 55.6904 89.0761 55.7032 89.0761C55.7289 89.0761 55.7545 89.0889 55.7801 89.1017C55.8442 89.1273 55.9082 89.1401 55.9851 89.1528C56.0107 89.1528 56.0492 89.1528 56.0748 89.1656C56.1516 89.1656 56.2285 89.1784 56.3182 89.1912C56.3438 89.1912 56.3566 89.1912 56.3822 89.1912C56.4847 89.1912 56.5872 89.1912 56.6897 89.1784C56.9331 89.1528 57.1766 89.0761 57.3559 88.9738C57.484 88.9099 57.5609 88.8204 57.625 88.7437L61.2378 89.3063C61.1994 89.5364 61.3147 89.7665 61.6222 89.9328C61.6862 89.9711 61.7631 89.9967 61.8271 90.035C61.8271 90.035 61.8528 90.035 61.8656 90.035C61.8912 90.035 61.9168 90.0478 61.9425 90.0606C62.0065 90.0862 62.0834 90.099 62.1474 90.1118C62.1731 90.1118 62.1987 90.1118 62.2371 90.1245C62.314 90.1245 62.3909 90.1373 62.4677 90.1501C62.4933 90.1501 62.5062 90.1501 62.5318 90.1501C62.5958 90.1501 62.6471 90.1501 62.6983 90.1501L64.0051 92.963L64.4279 92.899L63.1211 90.0734C63.262 90.035 63.403 89.9839 63.5183 89.92C63.9923 89.6515 64.0307 89.2168 63.6592 88.9227L66.3112 87.3884C66.3112 87.3884 66.3368 87.4012 66.3496 87.414C66.3496 87.414 66.3752 87.414 66.3881 87.414C66.4137 87.414 66.4393 87.4268 66.4649 87.4396C66.529 87.4651 66.593 87.4779 66.6699 87.4907C66.6955 87.4907 66.734 87.4907 66.7596 87.5035C66.8365 87.5035 66.9133 87.5163 66.9902 87.5291C67.0158 87.5291 67.0286 87.5291 67.0543 87.5291C67.1567 87.5291 67.2592 87.5291 67.3617 87.5163C67.6052 87.4907 67.8486 87.414 68.0407 87.3117C68.156 87.2478 68.2457 87.1583 68.3098 87.0816L71.9226 87.6441C71.8842 87.8615 72.0123 88.1044 72.307 88.2706C72.371 88.309 72.4479 88.3346 72.512 88.3729C72.512 88.3729 72.5376 88.3729 72.5504 88.3729C72.576 88.3729 72.6016 88.3857 72.6273 88.3985C72.6913 88.4241 72.7554 88.4368 72.8323 88.4496C72.8579 88.4496 72.8963 88.4496 72.9219 88.4624C72.9988 88.4624 73.0757 88.4752 73.1525 88.488C73.1782 88.488 73.191 88.488 73.2166 88.488C73.2678 88.488 73.3319 88.488 73.3831 88.488L74.6899 91.3136L75.1127 91.2497L73.8059 88.4241C73.9469 88.3857 74.0878 88.3346 74.2031 88.2706C74.6771 88.0021 74.7155 87.5674 74.344 87.2733L76.996 85.7519C76.996 85.7519 77.0216 85.7646 77.0344 85.7646C77.0344 85.7646 77.0601 85.7646 77.0729 85.7646C77.0985 85.7646 77.1241 85.7774 77.1497 85.7902C77.2138 85.8158 77.2779 85.8286 77.3547 85.8413C77.3803 85.8413 77.4188 85.8414 77.4444 85.8541C77.5213 85.8541 77.5981 85.8669 77.6878 85.8797C77.7134 85.8797 77.7263 85.8797 77.7519 85.8797C77.8544 85.8797 77.9569 85.8797 78.0594 85.8669C78.3028 85.8414 78.5462 85.7646 78.7256 85.6623C78.8409 85.5984 78.9305 85.5089 78.9946 85.4322L83.8886 86.1866L84.0039 85.9436L79.1099 85.1893C79.1483 84.9719 79.0202 84.729 78.7256 84.5628C78.5718 84.4733 78.3796 84.4094 78.1875 84.371C78.1747 84.371 78.1618 84.371 78.149 84.371C78.1106 84.371 78.085 84.371 78.0465 84.3582C78.0465 84.3582 77.9312 84.3582 77.8672 84.3582C77.8416 84.3582 77.8288 84.3582 77.8159 84.3582H77.7391C77.7391 84.3582 77.7134 84.3582 77.6878 84.3582C77.675 84.3582 77.6494 84.3582 77.6366 84.3582L76.6629 82.2741C76.8038 82.2358 76.9448 82.1847 77.0601 82.1207C77.5341 81.8522 77.5725 81.4175 77.201 81.1234L80.0323 79.4997C80.0323 79.4997 80.058 79.5124 80.0708 79.5124C80.0708 79.5124 80.0964 79.5124 80.1092 79.5124C80.1348 79.5124 80.1604 79.5252 80.1861 79.538C80.2501 79.5636 80.327 79.5764 80.3911 79.5892C80.4167 79.5892 80.4551 79.5892 80.4807 79.6019C80.5576 79.6019 80.6345 79.6147 80.7242 79.6275C80.7498 79.6275 80.7626 79.6275 80.7882 79.6275C80.8907 79.6275 80.9932 79.6275 81.0957 79.6147C81.3391 79.5892 81.5825 79.5124 81.7619 79.4102C81.8259 79.3718 81.8772 79.3334 81.9284 79.2951L86.7584 80.0367L86.8737 79.7937L82.1206 79.0649C82.2487 78.8092 82.1206 78.5152 81.7747 78.3106C81.621 78.2211 81.4416 78.1572 81.2366 78.1188C81.2366 78.1188 81.211 78.1188 81.1982 78.1188C81.1598 78.1188 81.1341 78.1188 81.0957 78.106C81.0957 78.106 80.9804 78.106 80.9163 78.106C80.9035 78.106 80.8779 78.106 80.8651 78.106C80.8395 78.106 80.8138 78.106 80.7882 78.106C80.7754 78.106 80.7626 78.106 80.7498 78.106C80.6857 78.106 80.6089 78.106 80.5448 78.1188C80.532 78.1188 80.5192 78.1188 80.4936 78.1188C80.4936 78.1188 80.4807 78.1188 80.4679 78.1188L79.5071 76.0603C79.7377 76.022 79.9427 75.958 80.122 75.8557C80.596 75.5872 80.6345 75.1525 80.2629 74.8585L83.6708 72.8895L83.3633 72.7105L79.9555 74.6795C79.8402 74.6283 79.712 74.6028 79.5839 74.5772C79.5711 74.5772 79.5583 74.5772 79.5455 74.5772C79.5071 74.5772 79.4814 74.5644 79.443 74.5644C79.443 74.5644 79.3277 74.5644 79.2636 74.5644C79.238 74.5644 79.2252 74.5644 79.1996 74.5644H79.1227C79.1227 74.5644 79.0971 74.5644 79.0715 74.5644C79.0074 74.5644 78.9305 74.5644 78.8665 74.5772C78.8537 74.5772 78.8281 74.5772 78.8152 74.5772C78.7896 74.5772 78.764 74.5772 78.7384 74.59C78.6743 74.59 78.6103 74.6155 78.559 74.6283C78.5334 74.6283 78.5206 74.6283 78.495 74.6411C78.4821 74.6411 78.4693 74.6411 78.4565 74.6539C78.3668 74.6795 78.29 74.7178 78.2003 74.769C78.0337 74.8713 77.9184 74.9863 77.8544 75.1142L74.2671 74.5644C74.3825 74.3087 74.2671 74.0146 73.9212 73.81C73.7675 73.7205 73.5753 73.6566 73.3831 73.6183C73.3831 73.6183 73.3575 73.6183 73.3447 73.6183C73.3063 73.6183 73.2807 73.6183 73.2422 73.6055C73.2422 73.6055 73.1269 73.6055 73.0629 73.6055C73.0372 73.6055 73.0244 73.6055 72.9988 73.6055C72.9732 73.6055 72.9476 73.6055 72.9219 73.6055C72.9091 73.6055 72.8963 73.6055 72.8707 73.6055C72.8066 73.6055 72.7298 73.6055 72.6657 73.6183C72.6529 73.6183 72.6273 73.6183 72.6145 73.6183C72.6145 73.6183 72.6145 73.6183 72.6016 73.6183L71.6408 71.5598C71.8586 71.5214 72.0764 71.4575 72.2429 71.3552C72.7169 71.0867 72.7554 70.652 72.3839 70.3579L75.7917 68.3889L75.4842 68.2099L72.0764 70.1789C71.9611 70.1278 71.833 70.1022 71.7048 70.0766C71.7048 70.0766 71.6792 70.0766 71.6664 70.0766C71.628 70.0766 71.6023 70.0766 71.5639 70.0638C71.5639 70.0638 71.4486 70.0638 71.3846 70.0638C71.3717 70.0638 71.3461 70.0638 71.3333 70.0638H71.2564C71.2564 70.0638 71.2308 70.0638 71.2052 70.0638C71.1411 70.0638 71.0643 70.0638 71.0002 70.0766C70.9874 70.0766 70.9618 70.0766 70.949 70.0766C70.9233 70.0766 70.8977 70.0766 70.8721 70.0894C70.808 70.0894 70.744 70.115 70.6927 70.1278C70.6671 70.1278 70.6543 70.1278 70.6287 70.1406C70.6287 70.1406 70.603 70.1406 70.5902 70.1533C70.5006 70.1789 70.4109 70.2173 70.334 70.2684C70.1546 70.3707 70.0522 70.4858 69.9881 70.6264L66.4009 70.0766C66.529 69.8209 66.4137 69.5268 66.055 69.3223C65.9012 69.2328 65.709 69.1688 65.5169 69.1305C65.5169 69.1305 65.4912 69.1305 65.4784 69.1305C65.44 69.1305 65.4144 69.1305 65.3759 69.1177C65.3759 69.1177 65.2606 69.1177 65.1966 69.1177C65.171 69.1177 65.1581 69.1177 65.1453 69.1177C65.1197 69.1177 65.0941 69.1177 65.0685 69.1177C65.0557 69.1177 65.0428 69.1177 65.0172 69.1177C64.9532 69.1177 64.8763 69.1177 64.8122 69.1305C64.7994 69.1305 64.7738 69.1305 64.761 69.1305C64.761 69.1305 64.7482 69.1305 64.7354 69.1305L63.467 66.3944L63.0571 66.4583L64.351 69.2328C64.287 69.2583 64.2101 69.2839 64.146 69.3223C63.7489 69.5524 63.6592 69.8848 63.8514 70.1661C63.8898 70.2173 63.9411 70.2684 64.0051 70.3196L61.1738 71.9433C61.0585 71.8922 60.9303 71.8666 60.8022 71.841C60.8022 71.841 60.7766 71.841 60.7638 71.841C60.7254 71.841 60.6997 71.8283 60.6613 71.8283C60.6613 71.8283 60.546 71.8283 60.4819 71.8283C60.4563 71.8283 60.4435 71.8283 60.4307 71.8283H60.3538C60.3538 71.8283 60.3282 71.8283 60.3026 71.8283C60.2385 71.8283 60.1617 71.8283 60.0976 71.841C60.0848 71.841 60.0592 71.841 60.0463 71.841C60.0207 71.841 59.9951 71.841 59.9695 71.8538C59.9054 71.8538 59.8414 71.8794 59.7901 71.8922C59.7645 71.8922 59.7517 71.8922 59.7261 71.905C59.7261 71.905 59.7004 71.905 59.6876 71.9178C59.5979 71.9433 59.5083 71.9817 59.4314 72.0328C59.3673 72.0712 59.3033 72.1095 59.2648 72.1607C59.2264 72.199 59.188 72.2374 59.1624 72.263L55.5495 71.7004C55.5879 71.4831 55.4598 71.2401 55.1652 71.0739C55.0114 70.9844 54.8192 70.9205 54.6271 70.8821C54.6143 70.8821 54.6014 70.8821 54.5886 70.8821C54.5502 70.8821 54.5246 70.8821 54.4861 70.8693C54.4861 70.8693 54.3708 70.8693 54.3068 70.8693C54.2812 70.8693 54.2683 70.8693 54.2555 70.8693C54.2299 70.8693 54.2043 70.8693 54.1787 70.8693C54.1659 70.8693 54.153 70.8693 54.1274 70.8693C54.1146 70.8693 54.089 70.8693 54.0762 70.8693L52.7566 68.0437L52.3338 68.1076L53.6406 70.9333C53.6406 70.9333 53.615 70.9333 53.5893 70.9461C53.5637 70.9461 53.5509 70.9461 53.5253 70.9588C53.5125 70.9588 53.4997 70.9588 53.4868 70.9716C53.3972 70.9972 53.3203 71.0355 53.2306 71.0867C53.1666 71.125 53.1025 71.1634 53.0641 71.2018C52.7566 71.4703 52.7694 71.8155 53.1025 72.084L50.4633 73.6055C50.348 73.5543 50.2199 73.5288 50.0918 73.5032C50.079 73.5032 50.0662 73.5032 50.0534 73.5032C50.0149 73.5032 49.9893 73.4904 49.9509 73.4904C49.9509 73.4904 49.8356 73.4904 49.7715 73.4904C49.7459 73.4904 49.7331 73.4904 49.7203 73.4904C49.6946 73.4904 49.669 73.4904 49.6434 73.4904C49.6306 73.4904 49.6178 73.4904 49.5921 73.4904C49.5281 73.4904 49.4512 73.4904 49.3872 73.5032C49.3743 73.5032 49.3487 73.5032 49.3359 73.5032C49.3103 73.5032 49.2847 73.5032 49.259 73.516C49.195 73.516 49.1309 73.5415 49.0797 73.5543C49.0541 73.5543 49.0412 73.5543 49.0156 73.5671C49.0028 73.5671 48.99 73.5671 48.9772 73.5799C48.8875 73.6055 48.8106 73.6438 48.721 73.695C48.6057 73.7589 48.516 73.8484 48.4519 73.9251L48.6313 73.8868ZM48.0804 79.9216L50.7324 78.3873C50.7324 78.3873 50.758 78.4001 50.7708 78.4129C50.7708 78.4129 50.7964 78.4129 50.8092 78.4129C50.8349 78.4129 50.8605 78.4257 50.8861 78.4384C50.9502 78.464 51.027 78.4768 51.0911 78.4896C51.1167 78.4896 51.1551 78.4896 51.1808 78.5024C51.2576 78.5024 51.3345 78.5152 51.4242 78.5279C51.4498 78.5279 51.4626 78.5279 51.4882 78.5279C51.5907 78.5279 51.6932 78.528 51.7957 78.5152C52.0391 78.4896 52.2826 78.4129 52.4619 78.3106C52.5772 78.2467 52.6669 78.1572 52.731 78.0805L56.3438 78.643C56.3054 78.8604 56.4335 79.1033 56.7282 79.2695C56.7922 79.3079 56.8691 79.3334 56.9331 79.3718C56.9331 79.3718 56.9588 79.3718 56.9716 79.3718C56.9972 79.3718 57.0228 79.3846 57.0484 79.3974C57.1125 79.4229 57.1894 79.4357 57.2534 79.4485C57.2791 79.4485 57.3047 79.4485 57.3431 79.4613C57.42 79.4613 57.4969 79.4741 57.5737 79.4869C57.5993 79.4869 57.6122 79.4869 57.6378 79.4869C57.689 79.4869 57.7531 79.4869 57.8043 79.4869L58.778 81.5709C58.778 81.5709 58.7396 81.5709 58.7268 81.5837C58.7011 81.5837 58.6883 81.5837 58.6627 81.5965C58.6499 81.5965 58.6371 81.5965 58.6243 81.6093C58.5346 81.6349 58.4449 81.6732 58.368 81.7244C57.894 81.9929 57.8556 82.4276 58.2271 82.7216L55.5751 84.2559C55.4598 84.2048 55.3317 84.1792 55.2036 84.1536C55.1908 84.1536 55.178 84.1536 55.1652 84.1536C55.1267 84.1536 55.1011 84.1409 55.0627 84.1409C55.0627 84.1409 54.9474 84.1409 54.8833 84.1409C54.8577 84.1409 54.8449 84.1409 54.8321 84.1409H54.7552C54.7552 84.1409 54.7296 84.1409 54.7039 84.1409C54.6399 84.1409 54.563 84.1409 54.499 84.1536C54.4861 84.1536 54.4605 84.1536 54.4477 84.1536C54.4221 84.1536 54.3965 84.1536 54.3708 84.1664C54.3068 84.1664 54.2427 84.192 54.1915 84.2048C54.1659 84.2048 54.153 84.2048 54.1274 84.2176C54.1146 84.2176 54.1018 84.2176 54.089 84.2304C53.9993 84.2559 53.9224 84.2943 53.8328 84.3454C53.7175 84.4094 53.6278 84.4861 53.5637 84.5756L49.9381 84.013C49.9765 83.7956 49.8484 83.5655 49.5537 83.3865C49.4 83.297 49.2078 83.2331 49.0156 83.1947C49.0156 83.1947 48.99 83.1947 48.9772 83.1947C48.9388 83.1947 48.9131 83.1947 48.8747 83.1819C48.8747 83.1819 48.7594 83.1819 48.6953 83.1819C48.6697 83.1819 48.6569 83.1819 48.6441 83.1819C48.6185 83.1819 48.5928 83.1819 48.5672 83.1819C48.5544 83.1819 48.5416 83.1819 48.516 83.1819C48.5032 83.1819 48.4904 83.1819 48.4647 83.1819L47.491 81.0979C47.632 81.0595 47.7729 81.0084 47.8882 80.9444C48.3622 80.6759 48.4007 80.2412 48.0291 79.9472L48.0804 79.9216ZM79.8402 79.3207L77.0088 80.9444C76.8935 80.8933 76.7654 80.8677 76.6373 80.8422C76.6373 80.8422 76.6117 80.8422 76.5988 80.8422C76.5604 80.8422 76.5348 80.8294 76.4963 80.8294C76.4963 80.8294 76.381 80.8294 76.317 80.8294C76.2914 80.8294 76.2786 80.8294 76.2529 80.8294C76.2273 80.8294 76.2017 80.8294 76.1761 80.8294C76.1632 80.8294 76.1504 80.8294 76.1248 80.8294C76.0608 80.8294 75.9839 80.8294 75.9198 80.8422C75.907 80.8422 75.8814 80.8422 75.8686 80.8422C75.843 80.8422 75.8173 80.8422 75.7917 80.8549C75.7277 80.8549 75.6636 80.8805 75.6124 80.8933C75.5867 80.8933 75.5739 80.8933 75.5483 80.9061C75.5355 80.9061 75.5227 80.9061 75.5099 80.9189C75.4202 80.9444 75.3433 80.9828 75.2536 81.0339C75.1896 81.0723 75.1255 81.1107 75.0871 81.1618C75.0486 81.2002 75.023 81.2385 74.9846 81.2641L71.3717 80.7015C71.4102 80.4842 71.2821 80.2412 70.9874 80.075C70.8337 79.9855 70.6415 79.9216 70.4493 79.8832C70.4493 79.8832 70.4237 79.8832 70.4109 79.8832C70.3724 79.8832 70.3468 79.8832 70.3084 79.8704C70.3084 79.8704 70.1931 79.8704 70.129 79.8704C70.1162 79.8704 70.0906 79.8704 70.0778 79.8704C70.0522 79.8704 70.0265 79.8704 70.0009 79.8704C69.9881 79.8704 69.9753 79.8704 69.9497 79.8704C69.9368 79.8704 69.9112 79.8704 69.8984 79.8704L68.9247 77.7864C69.0657 77.748 69.2066 77.6969 69.3219 77.633C69.7959 77.3645 69.8344 76.9297 69.4628 76.6357L72.2942 75.0119C72.2942 75.0119 72.3198 75.0247 72.3326 75.0247C72.3326 75.0247 72.3582 75.0247 72.371 75.0247C72.3967 75.0247 72.4223 75.0375 72.4479 75.0503C72.512 75.0758 72.576 75.0886 72.6529 75.1014C72.6785 75.1014 72.7169 75.1014 72.7426 75.1142C72.8194 75.1142 72.8963 75.127 72.9732 75.1397C72.9988 75.1397 73.0116 75.1397 73.0372 75.1397C73.1397 75.1397 73.2422 75.1397 73.3447 75.127C73.5881 75.1014 73.8316 75.0247 74.0237 74.9224C74.0878 74.884 74.139 74.8457 74.1903 74.8073L77.9056 75.3827C77.9312 75.5617 78.0594 75.7407 78.29 75.8813C78.354 75.9197 78.4309 75.958 78.495 75.9836C78.495 75.9836 78.5206 75.9836 78.5334 75.9836C78.559 75.9836 78.5846 75.9964 78.6103 76.0092C78.6743 76.0347 78.7384 76.0475 78.8152 76.0603C78.8409 76.0603 78.8793 76.0603 78.9049 76.0731C78.9818 76.0731 79.0587 76.0859 79.1355 76.0987L80.1348 78.2467C80.0708 78.2722 79.9939 78.2978 79.9427 78.3362C79.5455 78.5663 79.4558 78.8987 79.648 79.18C79.6864 79.2312 79.7377 79.2951 79.8017 79.3462L79.8402 79.3207ZM67.0543 86.0203L66.0806 83.9363C66.2215 83.8979 66.3624 83.8468 66.4777 83.7829C66.9518 83.5144 66.9902 83.0796 66.6187 82.7856L69.2706 81.2641C69.2706 81.2641 69.2963 81.2769 69.3091 81.2769C69.3219 81.2769 69.3347 81.2769 69.3475 81.2769C69.3731 81.2769 69.3988 81.2897 69.4244 81.3024C69.4884 81.328 69.5525 81.3408 69.6294 81.3536C69.655 81.3536 69.6806 81.3536 69.7191 81.3664C69.7959 81.3664 69.8728 81.3792 69.9625 81.3919C69.9881 81.3919 70.0009 81.3919 70.0265 81.3919C70.129 81.3919 70.2315 81.3919 70.334 81.3792C70.5774 81.3536 70.8208 81.2769 71.0002 81.1746C71.1155 81.1107 71.2052 81.0212 71.2692 80.9444L74.8821 81.507C74.8437 81.7244 74.9718 81.9673 75.2664 82.1335C75.3049 82.1591 75.3561 82.1719 75.3946 82.1974C75.4202 82.1974 75.4458 82.223 75.4714 82.2358C75.4714 82.2358 75.4971 82.2358 75.5099 82.2358C75.5355 82.2358 75.5611 82.2486 75.5867 82.2614C75.6508 82.2869 75.7277 82.2997 75.7917 82.3125C75.8173 82.3125 75.843 82.3125 75.8814 82.3253C75.9583 82.3253 76.0351 82.3381 76.112 82.3509C76.1376 82.3509 76.1504 82.3509 76.1761 82.3509C76.2273 82.3509 76.2786 82.3509 76.3426 82.3509L77.3163 84.4349C77.3163 84.4349 77.2779 84.4349 77.265 84.4477C77.2394 84.4477 77.2266 84.4477 77.201 84.4605C77.1882 84.4605 77.1754 84.4605 77.1626 84.4733C77.0729 84.5116 76.996 84.5372 76.9063 84.5884C76.8423 84.6267 76.7782 84.6651 76.7398 84.7034C76.4323 84.9719 76.4451 85.3171 76.7782 85.5856L74.139 87.1071C74.0237 87.056 73.8956 87.0304 73.7675 87.0048C73.7675 87.0048 73.7419 87.0048 73.7291 87.0048C73.6906 87.0048 73.665 86.9921 73.6266 86.9921C73.6266 86.9921 73.5113 86.9921 73.4472 86.9921C73.4216 86.9921 73.4088 86.9921 73.396 86.9921C73.3703 86.9921 73.3447 86.9921 73.3191 86.9921C73.3063 86.9921 73.2935 86.9921 73.2678 86.9921C73.2038 86.9921 73.1269 86.9921 73.0629 87.0048C73.05 87.0048 73.0244 87.0048 73.0116 87.0048C72.986 87.0048 72.9604 87.0048 72.9347 87.0176C72.8707 87.0176 72.8066 87.0432 72.7554 87.056C72.7298 87.056 72.717 87.056 72.6913 87.0688C72.6785 87.0688 72.6657 87.0688 72.6529 87.0816C72.5632 87.1071 72.4863 87.1455 72.3967 87.1966C72.2814 87.2606 72.1917 87.3501 72.1276 87.4268L68.5148 86.8642C68.5532 86.6469 68.4379 86.4039 68.1304 86.2377C67.9767 86.1482 67.7845 86.0843 67.5923 86.0459C67.5923 86.0459 67.5667 86.0459 67.5539 86.0459C67.5155 86.0459 67.4898 86.0331 67.4514 86.0331C67.4514 86.0331 67.3361 86.0331 67.272 86.0331C67.2464 86.0331 67.2336 86.0331 67.208 86.0331H67.1311C67.1311 86.0331 67.1055 86.0331 67.0799 86.0331C67.0671 86.0331 67.0414 86.0331 67.0286 86.0331L67.0543 86.0203ZM64.3126 82.9134L60.6997 82.3509C60.7382 82.1335 60.6101 81.8906 60.3154 81.7244C60.1617 81.6349 59.9695 81.5709 59.7773 81.5454C59.7773 81.5454 59.7517 81.5454 59.7389 81.5454C59.7004 81.5454 59.6748 81.5326 59.6364 81.5326C59.6364 81.5326 59.5211 81.5326 59.457 81.5326C59.4314 81.5326 59.4186 81.5326 59.4058 81.5326H59.3289C59.3289 81.5326 59.3033 81.5326 59.2777 81.5326C59.2648 81.5326 59.2392 81.5326 59.2264 81.5326L58.2527 79.4485C58.3937 79.4102 58.5346 79.359 58.6499 79.2951C59.1239 79.0266 59.1624 78.5919 58.7908 78.2978L61.43 76.7763C61.43 76.7763 61.4556 76.7891 61.4684 76.7891C61.4684 76.7891 61.494 76.7891 61.5069 76.7891C61.5325 76.7891 61.5581 76.8019 61.5837 76.8147C61.6478 76.8402 61.7247 76.853 61.7887 76.8658C61.8143 76.8658 61.84 76.8658 61.8784 76.8786C61.9553 76.8786 62.0321 76.8914 62.1218 76.9042C62.1474 76.9042 62.1603 76.9042 62.1859 76.9042C62.2884 76.9042 62.3909 76.9042 62.4933 76.8914C62.7368 76.8658 62.9802 76.7891 63.1724 76.6868C63.2877 76.6229 63.3773 76.5334 63.4414 76.4567L67.0543 77.0192C67.0158 77.2494 67.1311 77.4795 67.4386 77.6457C67.477 77.6713 67.5283 77.6841 67.5667 77.7097C67.5923 77.7097 67.618 77.7352 67.6436 77.748C67.6436 77.748 67.6692 77.748 67.682 77.748C67.7076 77.748 67.7333 77.7608 67.7589 77.7736C67.8229 77.7992 67.887 77.812 67.9639 77.8247C67.9895 77.8247 68.0279 77.8247 68.0536 77.8375C68.1304 77.8375 68.2073 77.8503 68.297 77.8631C68.3226 77.8631 68.3354 77.8631 68.361 77.8631C68.4123 77.8631 68.4763 77.8631 68.5276 77.8631L69.5013 79.9472C69.5013 79.9472 69.4628 79.9472 69.45 79.9599C69.4244 79.9599 69.4116 79.9599 69.386 79.9727C69.386 79.9727 69.3603 79.9727 69.3475 79.9855C69.2578 80.0239 69.1682 80.0494 69.0913 80.1006C69.0272 80.1389 68.9632 80.1773 68.9247 80.2157C68.6173 80.4842 68.6301 80.8294 68.9632 81.0979L66.3112 82.6194C66.1959 82.5682 66.0678 82.5427 65.9397 82.5171C65.9397 82.5171 65.914 82.5171 65.9012 82.5171C65.8628 82.5171 65.8372 82.5043 65.7987 82.5043C65.7987 82.5043 65.6834 82.5043 65.6194 82.5043C65.6066 82.5043 65.5809 82.5043 65.5681 82.5043C65.5425 82.5043 65.5169 82.5043 65.4912 82.5043C65.4784 82.5043 65.4656 82.5043 65.44 82.5043C65.3759 82.5043 65.2991 82.5043 65.235 82.5171C65.2222 82.5171 65.1966 82.5171 65.1838 82.5171C65.1581 82.5171 65.1325 82.5171 65.1069 82.5299C65.0428 82.5299 64.9788 82.5554 64.9275 82.5682C64.9019 82.5682 64.8891 82.5682 64.8635 82.581C64.8635 82.581 64.8379 82.581 64.825 82.5938C64.7354 82.6194 64.6457 82.6577 64.5688 82.7089C64.4535 82.7728 64.3638 82.8623 64.2998 82.939L64.3126 82.9134ZM61.6734 75.4082C61.6734 75.4082 61.6478 75.4083 61.6222 75.421C61.5965 75.421 61.5837 75.421 61.5581 75.4338C61.5453 75.4338 61.5325 75.4338 61.5197 75.4466C61.43 75.485 61.3531 75.5105 61.2634 75.5617C61.1994 75.6 61.1353 75.6384 61.0969 75.6767C60.7894 75.9452 60.8022 76.2905 61.1353 76.559L58.4833 78.0805C58.368 78.0293 58.2399 78.0037 58.1118 77.9782C58.1118 77.9782 58.0862 77.9782 58.0734 77.9782C58.0349 77.9782 58.0093 77.9654 57.9709 77.9654C57.9709 77.9654 57.8556 77.9654 57.7915 77.9654C57.7659 77.9654 57.7531 77.9654 57.7275 77.9654C57.7018 77.9654 57.6762 77.9654 57.6506 77.9654C57.6378 77.9654 57.625 77.9654 57.5993 77.9654C57.5353 77.9654 57.4584 77.9654 57.3944 77.9782C57.3815 77.9782 57.3559 77.9782 57.3431 77.9782C57.3175 77.9782 57.2919 77.9782 57.2662 77.991C57.2022 77.991 57.1381 78.0165 57.0869 78.0293C57.0613 78.0293 57.0484 78.0293 57.0228 78.0421C57.01 78.0421 56.9972 78.0421 56.9844 78.0549C56.8947 78.0805 56.8178 78.1188 56.7282 78.17C56.6129 78.2339 56.5232 78.3234 56.4591 78.4001L52.8463 77.8375C52.8847 77.6202 52.7566 77.3772 52.4619 77.211C52.3082 77.1215 52.1288 77.0576 51.9238 77.032C51.9238 77.032 51.8982 77.032 51.8854 77.032C51.847 77.032 51.8213 77.0192 51.7829 77.0192C51.7829 77.0192 51.6676 77.0192 51.6035 77.0192C51.5907 77.0192 51.5651 77.0192 51.5523 77.0192H51.4754C51.4754 77.0192 51.4498 77.0192 51.4242 77.0192C51.4114 77.0192 51.3858 77.0192 51.3729 77.0192L50.3993 74.9352C50.5402 74.8968 50.6811 74.8457 50.7964 74.7818C51.2705 74.5133 51.3089 74.0785 50.9373 73.7845L53.5765 72.263C53.5765 72.263 53.6021 72.2758 53.615 72.2758C53.615 72.2758 53.6406 72.2758 53.6534 72.2758C53.679 72.2758 53.7046 72.2885 53.7303 72.3013C53.7943 72.3269 53.8712 72.3397 53.9352 72.3525C53.9609 72.3525 53.9993 72.3525 54.0249 72.3653C54.1018 72.3653 54.1787 72.378 54.2683 72.3908C54.294 72.3908 54.3068 72.3908 54.3324 72.3908C54.4349 72.3908 54.5374 72.3908 54.6399 72.378C54.8833 72.3525 55.1267 72.2758 55.3189 72.1735C55.4342 72.1095 55.5239 72.02 55.5879 71.9433L59.2008 72.5059C59.1624 72.736 59.2905 72.9662 59.5851 73.1324C59.6236 73.158 59.6748 73.1708 59.7132 73.1963C59.7389 73.1963 59.7645 73.2219 59.7901 73.2347C59.8029 73.2347 59.8157 73.2347 59.8286 73.2347C59.8542 73.2347 59.8798 73.2475 59.9054 73.2603C59.9695 73.2858 60.0335 73.2986 60.1104 73.3114C60.136 73.3114 60.1617 73.3114 60.2001 73.3242C60.277 73.3242 60.3538 73.337 60.4435 73.3498C60.4691 73.3498 60.4819 73.3498 60.5076 73.3498C60.5588 73.3498 60.6229 73.3498 60.6741 73.3498L61.6478 75.4338L61.6734 75.4082ZM66.2215 70.3963C66.2215 70.3963 66.3368 70.3196 66.3881 70.2812L70.1162 70.8565C70.1418 71.0355 70.2571 71.2146 70.5006 71.3552C70.5646 71.3936 70.6415 71.4319 70.7055 71.4575C70.7184 71.4575 70.7312 71.4575 70.744 71.4575C70.7696 71.4575 70.7952 71.4703 70.8208 71.483C70.8849 71.5086 70.949 71.5214 71.0258 71.5342C71.0515 71.5342 71.0899 71.5342 71.1155 71.547C71.1924 71.547 71.2692 71.5598 71.3461 71.5725L72.3454 73.7205C72.2814 73.7461 72.2045 73.7717 72.1404 73.81C71.7433 74.0402 71.6536 74.3726 71.8458 74.6539C71.8842 74.705 71.9354 74.7562 71.9995 74.8073L69.1682 76.4311C69.0529 76.38 68.9247 76.3544 68.7966 76.3288C68.7838 76.3288 68.771 76.3288 68.7582 76.3288C68.7198 76.3288 68.6941 76.316 68.6557 76.316C68.6557 76.316 68.5404 76.316 68.4763 76.316C68.4507 76.316 68.4379 76.316 68.4251 76.316H68.3482C68.3482 76.316 68.3226 76.316 68.297 76.316C68.2329 76.316 68.156 76.316 68.092 76.3288C68.0792 76.3288 68.0536 76.3288 68.0407 76.3288C68.0151 76.3288 67.9895 76.3288 67.9639 76.3416C67.8998 76.3416 67.8358 76.3672 67.7845 76.38C67.7589 76.38 67.7461 76.38 67.7205 76.3927C67.7076 76.3927 67.6948 76.3927 67.682 76.4055C67.5923 76.4311 67.5155 76.4695 67.4258 76.5206C67.3617 76.559 67.2977 76.5973 67.2592 76.6485C67.2208 76.6868 67.1952 76.7252 67.1567 76.7507L63.5439 76.1882C63.5823 75.9708 63.4542 75.7279 63.1595 75.5617C63.0058 75.4722 62.8136 75.4082 62.6215 75.3699C62.6215 75.3699 62.5958 75.3699 62.583 75.3699C62.5446 75.3699 62.519 75.3699 62.4805 75.3571C62.4805 75.3571 62.3652 75.3571 62.3012 75.3571C62.2756 75.3571 62.2627 75.3571 62.2371 75.3571C62.2115 75.3571 62.1859 75.3571 62.1603 75.3571C62.1474 75.3571 62.1346 75.3571 62.109 75.3571C62.0834 75.3571 62.0706 75.3571 62.0578 75.3571L61.0841 73.273C61.225 73.2347 61.3659 73.1835 61.4812 73.1196C61.9553 72.8511 61.9937 72.4164 61.6222 72.1223L64.4535 70.4986C64.4535 70.4986 64.4791 70.5113 64.4919 70.5113C64.4919 70.5113 64.5176 70.5113 64.5304 70.5113C64.556 70.5113 64.5816 70.5241 64.6073 70.5369C64.6713 70.5625 64.7354 70.5753 64.8122 70.5881C64.8379 70.5881 64.8763 70.5881 64.9019 70.6008C64.9788 70.6008 65.0557 70.6136 65.1453 70.6264C65.171 70.6264 65.1838 70.6264 65.2094 70.6264C65.3119 70.6264 65.4144 70.6264 65.5169 70.6136C65.7603 70.5881 66.0037 70.5113 66.1831 70.4091L66.2215 70.3963ZM57.8171 88.5263C57.8556 88.309 57.7275 88.0788 57.4328 87.8998C57.2791 87.8103 57.0869 87.7464 56.8947 87.7081C56.8947 87.7081 56.8691 87.7081 56.8563 87.7081C56.8178 87.7081 56.7922 87.7081 56.7538 87.6953C56.7538 87.6953 56.6385 87.6953 56.5744 87.6953C56.5616 87.6953 56.536 87.6953 56.5232 87.6953C56.4976 87.6953 56.4719 87.6953 56.4463 87.6953C56.4335 87.6953 56.4207 87.6953 56.3951 87.6953C56.3823 87.6953 56.3694 87.6953 56.3438 87.6953L55.3701 85.6112C55.5111 85.5728 55.652 85.5217 55.7673 85.4578C56.2413 85.1893 56.2798 84.7546 55.9082 84.4605L58.5602 82.9262C58.5602 82.9262 58.5858 82.939 58.5986 82.9518C58.5986 82.9518 58.6243 82.9518 58.6371 82.9518C58.6627 82.9518 58.6883 82.9646 58.714 82.9774C58.778 83.0029 58.8421 83.0157 58.9189 83.0285C58.9446 83.0285 58.983 83.0285 59.0086 83.0413C59.0855 83.0413 59.1624 83.0541 59.252 83.0669C59.2777 83.0669 59.2905 83.0669 59.3161 83.0669C59.4186 83.0669 59.5211 83.0669 59.6236 83.0541C59.867 83.0285 60.1104 82.9518 60.2898 82.8495C60.4051 82.7856 60.4948 82.6961 60.5588 82.6194L64.1717 83.1819C64.1332 83.3993 64.2613 83.6422 64.556 83.8084C64.6201 83.8468 64.6969 83.8724 64.761 83.9107C64.761 83.9107 64.7866 83.9107 64.7994 83.9107C64.8251 83.9107 64.8507 83.9235 64.8763 83.9363C64.9404 83.9619 65.0044 83.9746 65.0813 83.9874C65.1069 83.9874 65.1453 83.9874 65.171 84.0002C65.2478 84.0002 65.3247 84.013 65.4144 84.0258C65.44 84.0258 65.4528 84.0258 65.4784 84.0258C65.5297 84.0258 65.5937 84.0258 65.645 84.0258L66.6187 86.1098C66.6187 86.1098 66.593 86.1098 66.5674 86.1226C66.5418 86.1226 66.529 86.1226 66.5034 86.1354C66.4905 86.1354 66.4777 86.1354 66.4649 86.1482C66.3752 86.1738 66.2984 86.2121 66.2087 86.2633C65.7347 86.5318 65.6962 86.9665 66.0678 87.2606L63.4158 88.7948C63.3005 88.7437 63.1724 88.7181 63.0442 88.6926C63.0442 88.6926 63.0186 88.6926 63.0058 88.6926C62.9674 88.6926 62.9418 88.6798 62.9033 88.6798C62.9033 88.6798 62.788 88.6798 62.724 88.6798C62.6983 88.6798 62.6855 88.6798 62.6599 88.6798H62.583C62.583 88.6798 62.5574 88.6798 62.5318 88.6798C62.4677 88.6798 62.3909 88.6798 62.3268 88.6926C62.314 88.6926 62.2884 88.6926 62.2756 88.6926C62.2499 88.6926 62.2243 88.6925 62.1987 88.7053C62.1346 88.7053 62.0706 88.7309 62.0193 88.7437C61.9937 88.7437 61.9809 88.7437 61.9553 88.7565C61.9425 88.7565 61.9296 88.7565 61.9168 88.7693C61.8272 88.7948 61.7503 88.8332 61.6606 88.8843C61.5453 88.9483 61.4556 89.025 61.3916 89.1145L57.7787 88.5519L57.8171 88.5263Z" fill="#FFF7F0"/>
<mask id="mask3_0_2500" style="mask-type:luminance" maskUnits="userSpaceOnUse" x="60" y="61" width="6" height="3">
<path d="M63.0179 62.7014L65.7211 61.1287C64.8372 61.6402 63.9147 61.6529 63.0051 61.1287L60.2891 62.7014C61.1987 63.2256 62.1211 63.2128 63.0051 62.7014H63.0179Z" fill="white"/>
</mask>
<g mask="url(#mask3_0_2500)">
<path d="M63.0187 62.7014L65.722 61.1287C65.722 61.1287 65.6451 61.1799 65.6067 61.1927L62.8906 62.7653C62.8906 62.7653 62.9675 62.7269 63.0187 62.7014Z" fill="#FFDCC1"/>
<path d="M62.8908 62.7658L65.6068 61.1932C65.0303 61.5 64.441 61.5895 63.8517 61.4617L61.1484 63.0343C61.7378 63.1622 62.3271 63.0727 62.9036 62.7658H62.8908Z" fill="#FFE8D5"/>
<path d="M61.1346 63.0475L63.8379 61.4748C63.556 61.4109 63.2741 61.3086 63.0051 61.1424L60.2891 62.715C60.5709 62.8813 60.8528 62.9835 61.1346 63.0475Z" fill="#FFF3EB"/>
</g>
<mask id="mask4_0_2500" style="mask-type:luminance" maskUnits="userSpaceOnUse" x="51" y="2" width="13" height="61">
<path d="M60.466 2.58186L57.7628 4.15449C54.5087 6.03398 51.7029 14.6387 51.6645 28.4089C51.6133 45.9253 56.0973 60.2836 60.3123 62.7128L63.0283 61.1402C58.8133 58.7109 54.3293 44.3526 54.3805 26.8363C54.419 13.0789 57.2375 4.47413 60.4788 2.58186H60.466Z" fill="white"/>
</mask>
<g mask="url(#mask4_0_2500)">
<path d="M60.2986 62.7127L63.0146 61.1401C62.515 60.8588 62.0153 60.4113 61.5285 59.8104L58.8124 61.383C59.3121 61.9839 59.8117 62.4314 60.2986 62.7127Z" fill="#FFF3EB"/>
<path d="M58.8145 61.3703L61.5305 59.7977C60.7618 58.8644 59.9931 57.5474 59.2629 55.9237L56.5468 57.4963C57.2771 59.1201 58.033 60.4242 58.8145 61.3703Z" fill="#FFE8D5"/>
<path d="M56.5457 57.5091L59.2617 55.9364C56.5073 49.7737 54.3293 39.0721 54.3677 26.8363C54.4062 13.0789 57.2247 4.47413 60.466 2.58186L57.7628 4.15449C54.5087 6.03398 51.7029 14.6387 51.6645 28.4089C51.6261 40.6448 53.804 51.3464 56.5585 57.5091H56.5457Z" fill="#FFDCC1"/>
</g>
<mask id="mask5_0_2500" style="mask-type:luminance" maskUnits="userSpaceOnUse" x="56" y="-1" width="18" height="66">
<path d="M64.2093 64.785L66.9125 63.2123C68.309 62.4068 69.5645 60.6296 70.6022 57.9574C72.4727 53.2012 73.4976 46.0667 73.5232 37.8839C73.5489 29.6883 72.5496 21.3776 70.7175 14.4989C68.7958 7.24947 66.1182 2.31421 63.1587 0.613712C61.7879 -0.178999 60.4683 -0.204571 59.2512 0.498641L56.5352 2.07128C57.7523 1.36807 59.0718 1.39364 60.4427 2.18635C63.3893 3.88684 66.0797 8.80932 68.0015 16.0716C69.8335 22.9503 70.82 31.261 70.8072 39.4566C70.7816 47.6394 69.7438 54.7866 67.8862 59.5301C66.8484 62.2023 65.5929 63.9795 64.1965 64.785H64.2093Z" fill="white"/>
</mask>
<g mask="url(#mask5_0_2500)">
<path d="M64.2109 64.7847L66.9142 63.2121C68.3106 62.4066 69.5662 60.6294 70.6039 57.9572C72.4744 53.2009 73.4993 46.0665 73.5249 37.8837C73.5505 29.6881 72.5512 21.3774 70.7192 14.4987C70.0146 11.8265 69.1946 9.46118 68.3106 7.46662L65.6074 9.03926C66.5042 11.0338 67.3113 13.3992 68.016 16.0714C69.848 22.9501 70.8345 31.2607 70.8217 39.4564C70.7961 47.6392 69.7583 54.7864 67.9007 59.5298C66.8629 62.202 65.6074 63.9793 64.2109 64.7847Z" fill="#FFDCC1"/>
<path d="M65.6204 9.03896L68.3236 7.46632C67.4525 5.51012 66.5044 3.89912 65.4923 2.6717L62.7891 4.24434C63.7884 5.45897 64.7492 7.06997 65.6204 9.03896Z" fill="#FFE8D5"/>
<path d="M62.7913 4.24608L65.4945 2.67344C64.7514 1.76566 63.9828 1.07523 63.1884 0.614947C62.7272 0.346448 62.266 0.167449 61.8176 0.0779495L59.1016 1.65059C59.55 1.74009 60.0112 1.91909 60.4724 2.18758C61.2667 2.64787 62.0354 3.33829 62.7785 4.24608H62.7913Z" fill="#FFF3EB"/>
<path d="M59.1095 1.6498L61.8127 0.0771623C60.9928 -0.101837 60.1857 0.0260197 59.4298 0.422375L56.7266 1.99501C57.4824 1.59866 58.2896 1.48359 59.1095 1.6498Z" fill="#FFE8D5"/>
<path d="M56.729 1.99434L59.4323 0.4217C59.4323 0.4217 59.3298 0.472842 59.2785 0.511199L56.5625 2.08384C56.5625 2.08384 56.665 2.01991 56.7162 1.99434H56.729Z" fill="#FFDCC1"/>
</g>
<path d="M60.468 2.18573C63.4146 3.88622 66.105 8.8087 68.0268 16.071C69.8588 22.9496 70.8453 31.2603 70.8325 39.4559C70.8069 47.6388 69.7691 54.7859 67.9115 59.5294C65.9513 64.5414 63.2609 66.3698 60.3014 64.6693C57.3548 62.9688 54.6771 58.0463 52.7426 50.784C50.9234 43.9053 49.9241 35.6075 49.9497 27.4118C49.9753 19.2162 51.0131 12.0818 52.8707 7.32556C54.8309 2.31358 57.5341 0.485234 60.4808 2.18573H60.468ZM60.3014 62.7003C64.5292 65.1296 69.0645 55.9622 69.1157 38.4587C69.167 20.9423 64.6958 6.57121 60.468 4.14193C56.253 1.71266 51.7049 10.88 51.6536 28.3963C51.6024 45.9127 56.0864 60.271 60.3014 62.7003Z" fill="#FFEADA"/>
<mask id="mask6_0_2500" style="mask-type:luminance" maskUnits="userSpaceOnUse" x="37" y="24" width="10" height="12">
<path d="M46.1482 24.2303L43.4321 25.8029C38.8712 28.4496 36.9751 32.0935 38.2306 35.3282L40.9339 33.7556C39.6783 30.5208 41.5744 26.8769 46.1353 24.2303H46.1482Z" fill="white"/>
</mask>
<g mask="url(#mask6_0_2500)">
<path d="M38.2278 35.3282L40.931 33.7556C39.6755 30.5208 41.5716 26.8769 46.1325 24.2303L43.4165 25.8029C38.8556 28.4496 36.9595 32.0935 38.215 35.3282H38.2278Z" fill="#FFDCC1"/>
</g>
<mask id="mask7_0_2500" style="mask-type:luminance" maskUnits="userSpaceOnUse" x="38" y="33" width="43" height="12">
<path d="M77.3402 41.0554L80.0434 39.4828C76.9943 41.2472 72.7408 42.5769 67.424 43.0244C59.6218 43.702 51.7043 42.2061 46.221 39.0481C44.3249 37.9485 41.865 36.1457 40.9298 33.742L38.2266 35.3147C39.1618 37.7184 41.6216 39.5211 43.5177 40.6207C49.0011 43.7788 56.9186 45.2747 64.7208 44.597C70.0376 44.1495 74.291 42.8198 77.3402 41.0554Z" fill="white"/>
</mask>
<g mask="url(#mask7_0_2500)">
<path d="M77.3418 41.0568L80.0451 39.4842C79.8016 39.6248 79.5582 39.7655 79.302 39.8933L76.5859 41.466C76.8422 41.3253 77.0856 41.1975 77.329 41.0568H77.3418Z" fill="#FFDCC1"/>
<path d="M76.5979 41.4787L79.3139 39.9061C76.3288 41.4659 72.3316 42.6294 67.4376 43.0386C63.2482 43.3966 59.0333 43.1408 55.177 42.3354L52.4609 43.908C56.3172 44.7135 60.5322 44.982 64.7216 44.6112C69.6156 44.1893 73.6128 43.0386 76.5979 41.4787Z" fill="#FFE8D5"/>
<path d="M52.4764 43.9078L55.1924 42.3351C51.8614 41.6319 48.7866 40.5324 46.25 39.062C44.9304 38.3077 43.3417 37.1953 42.1759 35.7889L39.4727 37.3615C40.6385 38.7679 42.2271 39.8803 43.5467 40.6347C46.0834 42.105 49.1582 43.2046 52.4892 43.9078H52.4764Z" fill="#FFF3EB"/>
<path d="M39.4455 37.3621L42.1488 35.7895C41.7132 35.2525 41.3288 34.6771 41.047 34.0506L38.3438 35.6232C38.6256 36.2497 38.9971 36.8251 39.4455 37.3621Z" fill="#FFE8D5"/>
<path d="M38.3575 35.6096L41.0607 34.037C41.0223 33.9475 40.9839 33.8452 40.9454 33.7557L38.2422 35.3283C38.2806 35.4306 38.3191 35.5201 38.3575 35.6096Z" fill="#FFDCC1"/>
</g>
<mask id="mask8_0_2500" style="mask-type:luminance" maskUnits="userSpaceOnUse" x="42" y="18" width="46" height="26">
<path d="M78.5344 43.1268L81.2505 41.5542C81.9935 41.1195 82.6854 40.6592 83.3131 40.1606C86.99 37.271 88.2071 33.6015 86.7466 29.8297C85.6833 27.0936 83.3388 24.626 79.9693 22.6826C74.2041 19.3583 65.9535 17.7856 57.9079 18.4761C52.8217 18.9108 48.312 20.2149 44.9298 22.1711L42.2266 23.7438C45.6088 21.7876 50.1185 20.4962 55.2046 20.0487C63.2503 19.3583 71.5009 20.9309 77.2661 24.2552C80.6355 26.1986 82.9672 28.6662 84.0434 31.4024C85.5039 35.1742 84.2996 38.8436 80.6099 41.7332C79.9821 42.2318 79.2903 42.6921 78.5473 43.1268H78.5344Z" fill="white"/>
</mask>
<g mask="url(#mask8_0_2500)">
<path d="M78.5312 43.1283L81.2473 41.5557C81.9904 41.1209 82.6822 40.6607 83.31 40.162C86.9869 37.2725 88.204 33.603 86.7434 29.8312C86.6794 29.6778 86.6153 29.5243 86.5513 29.3709L83.8352 30.9436C83.8993 31.097 83.9633 31.2504 84.0274 31.4038C85.4879 35.1756 84.2836 38.8451 80.5939 41.7347C79.9661 42.2333 79.2743 42.6936 78.5312 43.1283Z" fill="#FFDCC1"/>
<path d="M83.8363 30.9428L86.5523 29.3702C86.1424 28.4496 85.5787 27.5546 84.8868 26.7108L82.1836 28.2834C82.8754 29.1273 83.4391 30.0223 83.8491 30.9428H83.8363Z" fill="#FFE8D5"/>
<path d="M82.1686 28.2836L84.8718 26.711C83.6419 25.2151 81.9892 23.8598 79.965 22.6835C77.2618 21.1236 74.0077 19.9474 70.4973 19.2186L67.7812 20.7912C71.3044 21.5328 74.5457 22.6963 77.249 24.2561C79.2732 25.4196 80.9387 26.7877 82.1558 28.2836H82.1686Z" fill="#FFF3EB"/>
<path d="M67.7853 20.791L70.5014 19.2184C66.517 18.3873 62.1867 18.106 57.9076 18.4768C53.2058 18.8859 48.9908 20.0239 45.711 21.7371L43.0078 23.3098C46.2876 21.5837 50.5026 20.4586 55.2044 20.0494C59.4834 19.6786 63.8009 19.9599 67.7853 20.791Z" fill="#FFE8D5"/>
<path d="M42.9924 23.3226L45.6957 21.7499C45.4266 21.8906 45.1704 22.0312 44.9142 22.1846L42.2109 23.7573C42.4672 23.6038 42.7234 23.4632 42.9924 23.3226Z" fill="#FFDCC1"/>
</g>
<path d="M55.1915 20.0483C63.2371 19.3579 71.4877 20.9305 77.2529 24.2548C80.6224 26.1982 82.9541 28.6659 84.0302 31.402C85.4907 35.1738 84.2865 38.8433 80.5967 41.7328C77.112 44.469 71.7824 46.2717 65.5688 46.7959C57.5232 47.4864 49.2854 45.9137 43.5202 42.5895C40.1507 40.646 37.8062 38.1784 36.7429 35.4423C35.2824 31.6705 36.4995 28.001 40.1635 25.1115C43.6483 22.3753 48.9907 20.5726 55.1915 20.0483ZM38.229 35.3272C39.1642 37.7309 41.6241 39.5337 43.5202 40.6333C49.0035 43.7913 56.921 45.2872 64.7233 44.6096C77.9704 43.4845 84.6324 36.9382 82.5441 31.5427C81.6089 29.1389 79.149 27.3234 77.2529 26.2238C71.7696 23.0658 63.8521 21.5826 56.0498 22.2603C42.8027 23.3854 36.1407 29.9444 38.229 35.3272Z" fill="#FFEADA"/>
<mask id="mask9_0_2500" style="mask-type:luminance" maskUnits="userSpaceOnUse" x="37" y="4" width="22" height="36">
<path d="M41.4699 4.07795L38.7538 5.65059C38.5873 5.75287 38.4336 5.88073 38.3182 6.04694C36.2043 9.01322 42.8023 23.2053 55.9982 39.571L58.7142 37.9983C45.5183 21.6199 38.9204 7.44058 41.0343 4.47431C41.1624 4.30809 41.3033 4.16745 41.4699 4.07795Z" fill="white"/>
</mask>
<g mask="url(#mask9_0_2500)">
<path d="M55.9968 39.5856L58.7128 38.013C51.0515 28.5132 45.6194 19.755 42.8137 13.4901L40.0977 15.0627C42.9034 21.3277 48.3355 30.0858 55.9968 39.5856Z" fill="#FFE8D5"/>
<path d="M40.0984 15.0617L42.8145 13.4891C40.7902 8.95017 40.1369 5.72819 41.0337 4.48798C41.1618 4.32176 41.3027 4.18112 41.4693 4.09162L38.7532 5.66426C38.5867 5.76654 38.4329 5.8944 38.3176 6.06061C37.4336 7.31361 38.0742 10.5356 40.0984 15.0617Z" fill="#FFDCC1"/>
</g>
<mask id="mask10_0_2500" style="mask-type:luminance" maskUnits="userSpaceOnUse" x="56" y="37" width="29" height="25">
<path d="M82.033 61.2038L84.7363 59.6312C83.6088 60.2833 81.5206 59.3755 79.8679 58.4294C74.3845 55.2713 66.4798 47.6383 58.716 37.9979L56 39.5705C63.7638 49.2109 71.6685 56.8439 77.1518 60.002C78.8045 60.9609 80.8928 61.8559 82.0202 61.2038H82.033Z" fill="white"/>
</mask>
<g mask="url(#mask10_0_2500)">
<path d="M82.0328 61.2053L84.736 59.6326C84.736 59.6326 84.6976 59.6582 84.6848 59.6582L81.9688 61.2308C81.9688 61.2308 82.0072 61.2181 82.02 61.2053H82.0328Z" fill="#FFDCC1"/>
<path d="M81.9663 61.2424L84.6823 59.6697C84.2339 59.8999 83.6446 59.9127 83.004 59.772L80.3008 61.3447C80.9414 61.4853 81.5307 61.4725 81.9791 61.2424H81.9663Z" fill="#FFE8D5"/>
<path d="M80.2881 61.3461L82.9913 59.7735C81.992 59.5561 80.839 59.0063 79.8525 58.4438C74.6126 55.4263 67.1691 48.3303 59.7384 39.2908L57.0352 40.8635C64.453 49.9029 71.9093 56.999 77.1493 60.0164C78.1357 60.5918 79.2888 61.1415 80.2881 61.3589V61.3461Z" fill="#FFF3EB"/>
<path d="M57.0349 40.8627L59.7382 39.2901C59.3922 38.8682 59.0463 38.4463 58.7004 38.0115L55.9844 39.5842C56.3303 40.0189 56.6762 40.4408 57.0221 40.8627H57.0349Z" fill="#FFE8D5"/>
</g>
<mask id="mask11_0_2500" style="mask-type:luminance" maskUnits="userSpaceOnUse" x="37" y="1" width="51" height="63">
<path d="M83.2349 63.2882L85.9381 61.7156C86.2072 61.5621 86.4378 61.3448 86.63 61.0763C88.1161 58.9922 86.9246 53.9419 83.2733 46.8331C79.8142 40.095 74.5103 32.1551 68.3223 24.4965C60.3151 14.5492 52.0901 6.63492 46.3249 3.31065C43.5576 1.71244 41.4821 1.27773 40.2266 1.99373L37.5234 3.56637C38.7661 2.83758 40.8544 3.28508 43.6089 4.88329C49.374 8.20756 57.599 16.1219 65.6191 26.0691C71.7942 33.7405 77.111 41.6676 80.5701 48.4057C84.2214 55.5145 85.4129 60.5776 83.9267 62.6489C83.7346 62.9174 83.504 63.1348 83.2349 63.2882Z" fill="white"/>
</mask>
<g mask="url(#mask11_0_2500)">
<path d="M83.2322 63.2872L85.9354 61.7145C86.2045 61.5611 86.4351 61.3437 86.6273 61.0752C87.8828 59.3236 87.2166 55.4368 84.7824 49.9901L82.0663 51.5627C84.5005 57.0094 85.1539 60.8962 83.9112 62.6479C83.719 62.9164 83.4884 63.1337 83.2194 63.2872H83.2322Z" fill="#FFDCC1"/>
<path d="M82.0914 51.5633L84.8075 49.9907C84.3591 48.9934 83.8594 47.9322 83.2829 46.8326C79.8238 40.0946 74.5198 32.1547 68.3318 24.4961C67.9859 24.0741 67.64 23.6394 67.2941 23.2303L64.5781 24.8029C64.924 25.2249 65.2699 25.6468 65.6158 26.0687C71.791 33.7401 77.1077 41.6672 80.5669 48.4053C81.1306 49.5048 81.643 50.566 82.0914 51.5633Z" fill="#FFE8D5"/>
<path d="M64.5914 24.7894L67.3074 23.2168C59.6333 13.8705 51.8567 6.49312 46.3349 3.30949C44.9385 2.504 43.7214 1.99257 42.6836 1.77522L39.9804 3.34785C41.0053 3.56521 42.2352 4.07663 43.6317 4.88213C49.1535 8.06576 56.9301 15.4431 64.6042 24.7894H64.5914Z" fill="#FFF3EB"/>
<path d="M39.9823 3.34828L42.6855 1.77564C41.7246 1.57107 40.9303 1.635 40.3282 1.95464L37.6249 3.52728C38.2271 3.20764 39.0214 3.15649 39.9823 3.34828Z" fill="#FFE8D5"/>
<path d="M37.6237 3.52754L40.3269 1.9549C40.3269 1.9549 40.2757 1.98047 40.25 2.00605L37.5468 3.57868C37.5468 3.57868 37.5981 3.55311 37.6237 3.52754Z" fill="#FFDCC1"/>
</g>
<path d="M43.6217 4.8838C49.3869 8.20807 57.6119 16.1224 65.6319 26.0696C71.807 33.741 77.1238 41.6682 80.5829 48.4062C84.2342 55.515 85.4257 60.5781 83.9395 62.6494C82.8634 64.1453 80.5189 63.9152 77.1366 61.9718C71.3714 58.6475 63.1464 50.7332 55.1264 40.7859C48.9513 33.1273 43.6473 25.1874 40.1754 18.4494C36.5369 11.3406 35.3454 6.29022 36.8187 4.20616C37.8821 2.69745 40.2394 2.94038 43.6089 4.87101L43.6217 4.8838ZM55.9976 39.5841C63.7614 49.2245 71.6661 56.8575 77.1494 60.0156C79.0455 61.1151 81.5054 62.138 82.4534 60.8211C84.5673 57.842 77.9694 43.6627 64.7735 27.2971C56.9969 17.6567 49.105 10.0108 43.6217 6.85279C41.7256 5.76601 39.2657 4.73037 38.3177 6.06008C36.2038 9.02635 42.8017 23.2184 55.9976 39.5841Z" fill="#FFEADA"/>
</g>
<defs>
<linearGradient id="paint0_linear_0_2500" x1="63.8183" y1="1.34654" x2="63.8183" y2="107.736" gradientUnits="userSpaceOnUse">
<stop stop-color="#FFDBBA" stop-opacity="0"/>
<stop offset="1" stop-color="#FF7D0A"/>
</linearGradient>
<linearGradient id="paint1_linear_0_2500" x1="109.026" y1="92.1954" x2="107.13" y2="92.1954" gradientUnits="userSpaceOnUse">
<stop stop-color="#FFF0E3"/>
<stop offset="1" stop-color="#FFD5B1"/>
</linearGradient>
<linearGradient id="paint2_linear_0_2500" x1="61.8913" y1="91.1722" x2="28.0997" y2="109.423" gradientUnits="userSpaceOnUse">
<stop stop-color="#FFF0E3"/>
<stop offset="1" stop-color="#FFD5B1"/>
</linearGradient>
<linearGradient id="paint3_linear_0_2500" x1="109.026" y1="103.371" x2="68.3242" y2="103.371" gradientUnits="userSpaceOnUse">
<stop stop-color="#FFD0A7"/>
<stop offset="1" stop-color="#FFC592"/>
</linearGradient>
<linearGradient id="paint4_linear_0_2500" x1="68.362" y1="116.386" x2="59.3555" y2="116.386" gradientUnits="userSpaceOnUse">
<stop stop-color="#FFF0E3"/>
<stop offset="1" stop-color="#FFD5B1"/>
</linearGradient>
<linearGradient id="paint5_linear_0_2500" x1="68.5798" y1="109.354" x2="61.0155" y2="119.814" gradientUnits="userSpaceOnUse">
<stop stop-color="#FFF0E3"/>
<stop offset="1" stop-color="#FFD5B1"/>
</linearGradient>
<linearGradient id="paint6_linear_0_2500" x1="93.7545" y1="79.8958" x2="-109.892" y2="148.086" gradientUnits="userSpaceOnUse">
<stop stop-color="#FEFEFE"/>
<stop offset="1" stop-color="#FFE5CF"/>
</linearGradient>
<linearGradient id="paint7_linear_0_2500" x1="43.008" y1="97.2482" x2="-29.7482" y2="130.884" gradientUnits="userSpaceOnUse">
<stop stop-color="#FFC593"/>
<stop offset="0.29" stop-color="#FFBF87"/>
<stop offset="1" stop-color="#FFAF69"/>
</linearGradient>
<linearGradient id="paint8_linear_0_2500" x1="68.1708" y1="110.902" x2="59.5614" y2="110.902" gradientUnits="userSpaceOnUse">
<stop stop-color="#FFC593"/>
<stop offset="1" stop-color="#FFAF69"/>
</linearGradient>
<linearGradient id="paint9_linear_0_2500" x1="66.4668" y1="107.578" x2="57.6845" y2="117.121" gradientUnits="userSpaceOnUse">
<stop stop-color="#FFC593"/>
<stop offset="1" stop-color="#FFAF69"/>
</linearGradient>
<linearGradient id="paint10_linear_0_2500" x1="106.937" y1="84.04" x2="21.0226" y2="84.04" gradientUnits="userSpaceOnUse">
<stop stop-color="#FFC593"/>
<stop offset="1" stop-color="#FFAF69"/>
</linearGradient>
<linearGradient id="paint11_linear_0_2500" x1="1823.33" y1="83.3614" x2="1822.05" y2="83.3614" gradientUnits="userSpaceOnUse">
<stop stop-color="#FFF0E3"/>
<stop offset="1" stop-color="#FFD5B1"/>
</linearGradient>
<linearGradient id="paint12_linear_0_2500" x1="61.8913" y1="82.3265" x2="28.0997" y2="100.578" gradientUnits="userSpaceOnUse">
<stop stop-color="#FFF0E3"/>
<stop offset="1" stop-color="#FFD5B1"/>
</linearGradient>
<linearGradient id="paint13_linear_0_2500" x1="1823.34" y1="94.5361" x2="1822.06" y2="94.5361" gradientUnits="userSpaceOnUse">
<stop stop-color="#FFD0A7"/>
<stop offset="1" stop-color="#FFC592"/>
</linearGradient>
<linearGradient id="paint14_linear_0_2500" x1="68.362" y1="107.552" x2="59.3555" y2="107.552" gradientUnits="userSpaceOnUse">
<stop stop-color="#FFF0E3"/>
<stop offset="1" stop-color="#FFD5B1"/>
</linearGradient>
<linearGradient id="paint15_linear_0_2500" x1="68.5798" y1="100.507" x2="61.0155" y2="110.98" gradientUnits="userSpaceOnUse">
<stop stop-color="#FFF0E3"/>
<stop offset="1" stop-color="#FFD5B1"/>
</linearGradient>
<linearGradient id="paint16_linear_0_2500" x1="93.7545" y1="71.0618" x2="-109.892" y2="139.252" gradientUnits="userSpaceOnUse">
<stop stop-color="#FEFEFE"/>
<stop offset="1" stop-color="#FFE5CF"/>
</linearGradient>
<clipPath id="clip0_0_2500">
<rect width="128" height="127" fill="white"/>
</clipPath>
</defs>
</svg>
