<svg width="128" height="128" viewBox="0 0 128 128" fill="none" xmlns="http://www.w3.org/2000/svg">
<g clip-path="url(#clip0_0_243)">
<path d="M9.57063 72.9209L55.8608 102L128 64.6847L81.7098 35.5917L9.57063 72.9209Z" fill="url(#paint0_linear_0_243)"/>
<path d="M6.59568 75.1473L62.1384 98.3944L119.77 53.6075L64.2406 30.374L6.59568 75.1473Z" fill="url(#paint1_linear_0_243)"/>
<path d="M-0.00212097 71.3506L49.068 98.9275L117.445 59.3719L68.3752 31.7949L-0.00212097 71.3506Z" fill="url(#paint2_linear_0_243)"/>
<path d="M6.11349 71.1184L54.824 98.8866L123.699 59.6178L74.9887 31.8359L6.11349 71.1184Z" fill="#FFFCF8"/>
<g style="mix-blend-mode:multiply" opacity="0.3">
<g opacity="0.5">
<path d="M80.6324 62.4848L71.8501 57.4721L71.4076 57.7316L71.1448 57.1716L70.882 56.6252L71.8501 56.7755L72.8182 56.9257L72.3342 57.1989L81.1165 62.2117L87.3125 58.6741L102.996 67.6205L101.088 68.7132L95.6107 71.8274L79.9271 62.8809L80.6324 62.4848Z" fill="#748BFF"/>
<path d="M69.1807 56.7622L61.5187 52.3914L60.1495 53.17L60.6474 53.4431L59.6793 53.5934L58.7112 53.7436L58.9739 53.1836L59.2367 52.6373L59.6793 52.8968L61.0485 52.1183L53.4971 47.8158L60.8825 43.5952L76.5662 52.5417L69.1807 56.7622Z" fill="#748BFF"/>
<path d="M76.6757 64.7385L84.3931 69.1503L85.7761 68.3581L85.3336 68.0986L86.3017 67.9483L87.2698 67.7981L87.007 68.3581L86.7442 68.9044L86.2602 68.6313L84.8771 69.4098L92.3594 73.685L90.437 74.7777L84.974 77.8919L69.2903 68.9454L76.6757 64.7385Z" fill="#748BFF"/>
<path d="M65.1958 59.0293L74.0334 64.0557L74.5174 63.7825L74.7802 64.3289L75.043 64.8889L74.0748 64.7387L73.1067 64.5884L73.5493 64.3289L64.7255 59.3025L64.0063 59.6986L58.5433 62.8264L42.8597 53.88L50.2451 49.6731L65.9288 58.6059L65.1958 59.0293Z" fill="#748BFF"/>
<path d="M74.0469 84.0929L72.2213 85.1446L71.9447 84.9943L73.7841 83.9426L74.0469 84.0929Z" fill="#748BFF"/>
<path d="M71.7266 85.4181L69.8871 86.4698L69.6243 86.3195L71.4638 85.2678L71.7266 85.4181Z" fill="#748BFF"/>
<path d="M69.4023 86.7433L67.5629 87.795L67.3001 87.6447L69.1396 86.593L69.4023 86.7433Z" fill="#748BFF"/>
<path d="M67.0781 88.0675L65.2387 89.1192L64.9759 88.969L66.8153 87.9172L67.0781 88.0675Z" fill="#748BFF"/>
<path d="M64.7539 89.3927L62.9145 90.4444L62.6517 90.2942L64.4911 89.2424L64.7539 89.3927Z" fill="#748BFF"/>
<path d="M62.4297 90.7179L60.5902 91.7696L60.3275 91.6193L62.1669 90.5676L62.4297 90.7179Z" fill="#748BFF"/>
<path d="M71.6275 84.5026L54.0768 74.5044L55.4045 73.7532L72.9414 83.7514L71.6275 84.5026Z" fill="#748BFF"/>
<path d="M53.6473 76.9087L54.9612 76.1575L70.6172 85.0766L69.2895 85.8278L53.6473 76.9087Z" fill="#748BFF"/>
<path d="M59.8465 83.0962L61.1604 82.345L68.2969 86.4016L66.9692 87.1528L59.8465 83.0962Z" fill="#748BFF"/>
<path d="M52.1423 81.3618L53.47 80.5969L65.9727 87.7268L64.6449 88.478L52.1423 81.3618Z" fill="#748BFF"/>
<path d="M50.6085 83.1372L51.9362 82.386L63.6367 89.0514L62.3228 89.8163L50.6085 83.1372Z" fill="#748BFF"/>
<path d="M51.977 85.0491L61.3125 90.376L59.9986 91.1409L50.6493 85.8003L51.977 85.0491Z" fill="#748BFF"/>
<path d="M59.6504 81.7575C59.8717 81.8804 59.8717 82.0989 59.6504 82.2219C59.4292 82.3448 59.0557 82.3448 58.8206 82.2219C58.5993 82.0989 58.5993 81.8804 58.8206 81.7575C59.0419 81.6346 59.4153 81.6346 59.6504 81.7575Z" fill="#748BFF"/>
<path d="M51.9043 79.9958C52.1256 80.1187 52.1256 80.3372 51.9043 80.4602C51.6831 80.5831 51.3096 80.5831 51.0745 80.4602C50.8394 80.3372 50.8532 80.1187 51.0745 79.9958C51.2958 79.8728 51.6692 79.8728 51.9043 79.9958Z" fill="#748BFF"/>
<path d="M49.5278 81.7986C49.7491 81.6757 50.1225 81.6757 50.3576 81.7986C50.5789 81.9215 50.5789 82.1401 50.3576 82.263C50.1363 82.3859 49.7629 82.3859 49.5278 82.263C49.3065 82.1401 49.3065 81.9215 49.5278 81.7986Z" fill="#748BFF"/>
<path d="M53.9668 73.6994C53.7456 73.8223 53.3721 73.8223 53.137 73.6994C52.9157 73.5765 52.9157 73.3579 53.137 73.235C53.3583 73.1121 53.7317 73.1121 53.9668 73.235C54.1881 73.3579 54.1881 73.5765 53.9668 73.6994Z" fill="#748BFF"/>
<path d="M50.4395 84.967C50.2182 85.0899 49.8448 85.0899 49.6235 84.967C49.4022 84.8441 49.4022 84.6255 49.6235 84.5026C49.8448 84.3797 50.2182 84.3797 50.4395 84.5026C50.6608 84.6255 50.6608 84.8441 50.4395 84.967Z" fill="#748BFF"/>
<path d="M53.4551 76.0344C53.2338 76.1573 52.8604 76.1573 52.6253 76.0344C52.404 75.9114 52.404 75.6929 52.6253 75.57C52.8466 75.4471 53.22 75.4471 53.4551 75.57C53.6764 75.6929 53.6764 75.9114 53.4551 76.0344Z" fill="#748BFF"/>
<path d="M89.2348 52.4593L89.7327 52.7325L95.4308 49.4954L95.9148 49.7685L95.2372 50.151L95.6659 50.4105L90.6593 53.2652L91.5445 53.7705L97.6298 50.2876L98.1139 50.5607L98.999 50.0554L99.4554 50.3149L92.4711 54.2896L93.3562 54.7949L100.105 50.9432L100.576 51.2164L101.53 50.67L101.986 50.9295L94.269 55.3276L95.1542 55.833L99.3171 53.4564L99.7873 53.7296L100.631 53.2515L101.087 53.511L96.0808 56.352L96.966 56.8574L100.852 54.6447L101.323 54.9179L103.632 53.6066L104.089 53.8525L97.8926 57.3901L98.7777 57.8955L100.327 57.0077L100.811 57.2808L101.406 56.9394L101.862 57.1989L99.7044 58.4282L100.59 58.9199L104.393 56.7618L104.877 57.035L103.231 57.9774L103.66 58.2233L101.516 59.4526L102.387 59.9579L107.961 56.7891L108.431 57.0486L108.943 56.7618L109.399 57.0213L103.314 60.477L104.199 60.9823L107.56 59.0701L108.03 59.3433L111.28 57.4857L111.723 57.7452L105.126 61.515L106.011 62.0204L111.681 58.7833L112.166 59.0565L111.723 59.316L112.166 59.5618L106.938 62.5394L107.809 63.0448L112.746 60.2311L113.217 60.5043L113.798 60.1765L114.254 60.436L108.736 63.5775L109.358 63.919L108.943 64.1512L88.8199 52.6915L89.2348 52.4593Z" fill="#748BFF"/>
<path d="M87.1326 51.2577L86.7177 51.4899L66.6083 40.0166L67.0094 39.7844L67.5073 40.0712L69.5127 38.9239L69.9829 39.1971L70.2595 39.0332L70.7021 39.2927L68.4339 40.5903L69.3191 41.0956L73.0394 38.9785L73.5097 39.2517L74.3948 38.7463L74.8512 38.9922L70.2457 41.6283L71.1308 42.1337L76.3311 39.1561L76.8151 39.4293L77.562 38.9922L78.0184 39.2517L72.0575 42.6527L72.9288 43.1581L80.6876 38.7327L81.1579 39.0058L81.5451 38.7873L82.0015 39.0468L73.8554 43.6908L74.7406 44.1962L80.5355 40.8907L81.0057 41.1639L81.6143 40.8088L82.0707 41.0683L75.6672 44.7152L76.5524 45.2206L79.6089 43.4859L80.0929 43.7454L80.6876 43.4039L81.144 43.6635L77.479 45.7532L78.3641 46.2586L82.776 43.7318L83.2601 44.0186L82.6515 44.3601L83.0941 44.6196L79.2908 46.7776L80.1759 47.283L82.126 46.163L82.6101 46.4362L81.8355 46.8869L82.2781 47.1328L81.1025 47.8157L81.9739 48.3074L83.6612 47.3513L84.1314 47.6245L85.9432 46.6001L86.3857 46.8459L82.9005 48.8401L83.7856 49.3455L85.3623 48.444L85.8464 48.7308L85.39 48.9904L85.8325 49.2362L84.7123 49.8782L85.5974 50.3699L88.0316 48.9904L88.5018 49.2635L89.0827 48.9221L89.5391 49.1816L86.524 50.9026L87.1326 51.2577Z" fill="#748BFF"/>
<path d="M77.6609 50.8893L76.3332 50.1244L62.7795 42.3936L64.8955 41.1917L79.8323 49.701L93.4552 57.4728L107.078 65.231L104.948 66.4466L91.3253 58.6748L77.6609 50.8893Z" fill="#748BFF"/>
<path d="M56.4832 93.3405C56.746 93.1902 57.1747 93.1902 57.4514 93.3405C57.7141 93.4907 57.7141 93.7366 57.4514 93.8868C57.1886 94.0371 56.7598 94.0371 56.4832 93.8868C56.2205 93.7366 56.2205 93.4907 56.4832 93.3405Z" fill="#748BFF"/>
<path d="M54.6309 95.3345C54.2566 95.3345 53.9532 95.1632 53.9532 94.952C53.9532 94.7408 54.2566 94.5696 54.6309 94.5696C55.0052 94.5696 55.3086 94.7408 55.3086 94.952C55.3086 95.1632 55.0052 95.3345 54.6309 95.3345Z" fill="#748BFF"/>
<path d="M33.7911 80.7739C33.4168 80.7739 33.1134 80.6027 33.1134 80.3915C33.1134 80.1803 33.4168 80.009 33.7911 80.009C34.1653 80.009 34.4688 80.1803 34.4688 80.3915C34.4688 80.6027 34.1653 80.7739 33.7911 80.7739Z" fill="#748BFF"/>
<path d="M30.952 81.4567C31.2148 81.3064 31.6435 81.3064 31.9201 81.4567C32.1829 81.6069 32.1829 81.8528 31.9201 82.003C31.6573 82.1533 31.2286 82.1533 30.952 82.003C30.6892 81.8528 30.6892 81.6069 30.952 81.4567Z" fill="#748BFF"/>
<path d="M43.9843 86.7836L42.5874 85.9913L42.7672 85.8821L44.1641 86.6743L43.9843 86.7836Z" fill="#748BFF"/>
<path d="M42.793 85.0764L42.6132 85.1857L40.8705 84.1886L41.0503 84.093L42.793 85.0764Z" fill="#748BFF"/>
<path d="M47.0813 88.5461L47.2611 88.4504L50.3867 90.2261L50.2069 90.3353L47.0813 88.5461Z" fill="#748BFF"/>
<path d="M42.5312 85.7462L42.3376 85.8418L40.3599 84.7218L40.5397 84.6125L42.5312 85.7462Z" fill="#748BFF"/>
<path d="M47.8281 87.9448L47.6483 88.0541L46.2515 87.2619L46.4313 87.1526L47.8281 87.9448Z" fill="#748BFF"/>
<path d="M46.8319 88.4099L44.2318 86.9211L44.4116 86.8254L47.0117 88.3006L46.8319 88.4099Z" fill="#748BFF"/>
<path d="M50.0382 89.2151L54.0352 91.4961L53.8554 91.5917L49.8584 89.3244L50.0382 89.2151Z" fill="#748BFF"/>
<path d="M49.6249 89.174L47.8823 88.1906L48.0621 88.0813L49.8047 89.0784L49.6249 89.174Z" fill="#748BFF"/>
<path d="M54.8788 92.9987L50.4393 90.4718L50.6329 90.3625L55.0586 92.8894L54.8788 92.9987Z" fill="#748BFF"/>
<path d="M46.1797 87.0161L45.9999 87.1117L42.8604 85.3224L43.0402 85.2268L46.1797 87.0161Z" fill="#748BFF"/>
<path d="M54.284 91.6331L55.75 92.4662L55.5702 92.5755L54.1042 91.7423L54.284 91.6331Z" fill="#748BFF"/>
<path d="M52.8477 94.1459L52.6679 94.2551L49.3209 92.3429L49.5007 92.2336L52.8477 94.1459Z" fill="#748BFF"/>
<path d="M49.1148 91.2092L53.582 93.7498L53.3884 93.8454L48.935 91.3048L49.1148 91.2092Z" fill="#748BFF"/>
<path d="M49.25 92.0977L49.0702 92.2069L45.0732 89.9259L45.253 89.8167L49.25 92.0977Z" fill="#748BFF"/>
<path d="M45.5717 89.3927L45.7515 89.2834L48.8633 91.0591L48.6835 91.1684L45.5717 89.3927Z" fill="#748BFF"/>
<path d="M43.0273 88.56L42.8475 88.6556L41.4507 87.8634L41.6443 87.7542L43.0273 88.56Z" fill="#748BFF"/>
<path d="M45.3241 89.2429L42.7102 87.7677L42.9038 87.6584L45.5039 89.1472L45.3241 89.2429Z" fill="#748BFF"/>
<path d="M45.0195 89.68L44.8259 89.7892L43.0971 88.7921L43.2769 88.6965L45.0195 89.68Z" fill="#748BFF"/>
<path d="M39.543 85.7464L39.3632 85.842L37.6897 84.8996L37.8695 84.7903L39.543 85.7464Z" fill="#748BFF"/>
<path d="M41.3945 87.6177L41.2147 87.7269L38.0614 85.924L38.255 85.8284L41.3945 87.6177Z" fill="#748BFF"/>
<path d="M42.4765 87.6167L39.6136 85.9913L39.7934 85.8821L42.6562 87.5211L42.4765 87.6167Z" fill="#748BFF"/>
<path d="M31.1629 78.384L32.6289 79.2172L32.4353 79.3265L30.9831 78.4933L31.1629 78.384Z" fill="#748BFF"/>
<path d="M17.7455 70.9533L17.9254 70.844L19.668 71.8274L19.4882 71.9367L17.7455 70.9533Z" fill="#748BFF"/>
<path d="M23.9563 75.297L24.1361 75.2014L27.2617 76.977L27.0819 77.0863L23.9563 75.297Z" fill="#748BFF"/>
<path d="M31.742 79.7498L27.3162 77.2229L27.496 77.1136L31.9218 79.6405L31.742 79.7498Z" fill="#748BFF"/>
<path d="M24.9371 74.8459L26.6797 75.8294L26.4999 75.9386L24.7573 74.9416L24.9371 74.8459Z" fill="#748BFF"/>
<path d="M21.2866 73.5764L23.8867 75.0652L23.7069 75.1608L21.1068 73.672L21.2866 73.5764Z" fill="#748BFF"/>
<path d="M24.6875 74.6958L24.5077 74.805L23.1247 74.0128L23.3045 73.9036L24.6875 74.6958Z" fill="#748BFF"/>
<path d="M26.9171 75.9661L30.9141 78.2471L30.7343 78.3563L26.7373 76.0753L26.9171 75.9661Z" fill="#748BFF"/>
<path d="M19.7354 72.0734L19.9152 71.9778L23.0547 73.7671L22.8749 73.8627L19.7354 72.0734Z" fill="#748BFF"/>
<path d="M20.4023 74.9285L20.2226 75.0241L17.6086 73.5353L17.7884 73.4397L20.4023 74.9285Z" fill="#748BFF"/>
<path d="M22.8086 77.1136L22.6288 77.2228L20.8862 76.2257L21.066 76.1301L22.8086 77.1136Z" fill="#748BFF"/>
<path d="M20.4564 75.1604L20.6362 75.0648L23.7618 76.8405L23.582 76.9497L20.4564 75.1604Z" fill="#748BFF"/>
<path d="M20.8281 75.9802L20.6483 76.0895L17.9514 74.5461L18.1312 74.4504L20.8281 75.9802Z" fill="#748BFF"/>
<path d="M24.0119 76.9905L30.3047 80.5691L30.1249 80.6783L23.8321 77.0861L24.0119 76.9905Z" fill="#748BFF"/>
<path d="M17.5391 73.3032L17.3593 73.3988L15.9762 72.6066L16.156 72.4973L17.5391 73.3032Z" fill="#748BFF"/>
<path d="M29.5547 80.9658L29.3611 81.0614L27.1067 79.7775L27.2865 79.6682L29.5547 80.9658Z" fill="#748BFF"/>
<path d="M27.0391 79.5312L26.8593 79.6405L22.8761 77.3595L23.0559 77.2502L27.0391 79.5312Z" fill="#748BFF"/>
<path d="M14.7168 71.6907L15.9062 72.3599L15.7265 72.4692L14.537 71.7863L14.7168 71.6907Z" fill="#748BFF"/>
<path d="M48.0871 63.9192L52.25 66.2821L51.9872 66.4324L47.8381 64.0694L48.0871 63.9192Z" fill="#748BFF"/>
<path d="M52.6523 63.3044L52.4034 63.4546L47.8394 60.8458L48.0883 60.7092L52.6523 63.3044Z" fill="#748BFF"/>
<path d="M47.9518 62.2258L52.1562 64.6298L51.8935 64.7663L47.7029 62.3761L47.9518 62.2258Z" fill="#748BFF"/>
<path d="M61.3369 66.6506L63.8125 68.0575L63.5636 68.2077L61.0879 66.8009L61.3369 66.6506Z" fill="#748BFF"/>
<path d="M47.2315 62.116L37.8269 56.7481L38.0758 56.5979L47.4805 61.9658L47.2315 62.116Z" fill="#748BFF"/>
<path d="M52.9444 68.2903L55.4062 69.6971L55.1573 69.8474L52.6817 68.4269L52.9444 68.2903Z" fill="#748BFF"/>
<path d="M44.5206 62.1706L40.3162 59.7804L40.5789 59.6301L44.7695 62.0204L44.5206 62.1706Z" fill="#748BFF"/>
<path d="M69.4976 73.1935L69.7466 73.0569L75.5 76.335L75.2511 76.4852L69.4976 73.1935Z" fill="#748BFF"/>
<path d="M39.8466 59.508L36.4167 57.5548L36.6794 57.4045L40.1094 59.3714L39.8466 59.508Z" fill="#748BFF"/>
<path d="M78.4766 76.4167L78.2138 76.5669L71.8795 72.9474L72.1284 72.8108L78.4766 76.4167Z" fill="#748BFF"/>
<path d="M64.0771 70.107L59.5407 67.5255L59.8035 67.3752L64.3398 69.9704L64.0771 70.107Z" fill="#748BFF"/>
<path d="M70.5793 71.9231L71.6719 72.5377L71.4091 72.688L70.3303 72.0597L70.5793 71.9231Z" fill="#748BFF"/>
<path d="M56.942 72.5109L57.1909 72.3743L63.0273 75.6933L62.7784 75.8436L56.942 72.5109Z" fill="#748BFF"/>
<path d="M40.4286 56.6254L39.2392 55.9425L39.4882 55.8059L40.6914 56.4752L40.4286 56.6254Z" fill="#748BFF"/>
<path d="M71.13 80.6099L64.7818 76.9903L65.0446 76.8401L71.3789 80.4596L71.13 80.6099Z" fill="#748BFF"/>
<path d="M45.2423 62.2942L47.6211 63.6464L47.3721 63.7966L44.9933 62.4444L45.2423 62.2942Z" fill="#748BFF"/>
<path d="M41.1591 56.7483L42.957 57.7727L42.6943 57.9229L40.8963 56.8985L41.1591 56.7483Z" fill="#748BFF"/>
<path d="M52.7087 66.5559L56.4844 68.7003L56.2216 68.8506L52.4597 66.7062L52.7087 66.5559Z" fill="#748BFF"/>
<path d="M76.9659 79.0669L70.6316 75.4474L70.8805 75.3108L77.2148 78.9167L76.9659 79.0669Z" fill="#748BFF"/>
<path d="M66.65 74.7921L66.8989 74.6418L72.6523 77.9199L72.4034 78.0702L66.65 74.7921Z" fill="#748BFF"/>
<path d="M63.4693 74.587L63.7321 74.4368L70.0664 78.0563L69.8175 78.1929L63.4693 74.587Z" fill="#748BFF"/>
<path d="M70.535 78.3157L77.3672 82.2221L77.1182 82.3587L70.2722 78.4659L70.535 78.3157Z" fill="#748BFF"/>
<path d="M73.1246 78.1926L78.7812 81.4161L78.5185 81.5527L72.8757 78.3429L73.1246 78.1926Z" fill="#748BFF"/>
<path d="M70.1212 71.6501L69.8584 71.8004L64.0359 68.4813L64.2848 68.3311L70.1212 71.6501Z" fill="#748BFF"/>
<path d="M48.4755 59.6032L40.6475 55.1368L40.8965 55.0002L48.7383 59.4666L48.4755 59.6032Z" fill="#748BFF"/>
<path d="M71.8479 80.7336L75.9141 83.042L75.6651 83.1922L71.599 80.8702L71.8479 80.7336Z" fill="#748BFF"/>
<path d="M77.6842 79.1897L80.1875 80.6102L79.9247 80.7605L77.4353 79.3263L77.6842 79.1897Z" fill="#748BFF"/>
<path d="M78.9456 76.6907L83.0117 78.999L82.7489 79.1492L78.6828 76.8273L78.9456 76.6907Z" fill="#748BFF"/>
<path d="M75.9726 76.6086L81.6016 79.8048L81.3388 79.955L75.7237 76.7452L75.9726 76.6086Z" fill="#748BFF"/>
<path d="M43.1677 58.1827L43.4305 58.0461L47.6211 60.4364L47.3721 60.5867L43.1677 58.1827Z" fill="#748BFF"/>
<path d="M62.7779 70.9806L63.0407 70.8303L68.8633 74.1494L68.6143 74.2996L62.7779 70.9806Z" fill="#748BFF"/>
<path d="M70.4141 75.0377L70.1651 75.188L69.0863 74.5733L69.3353 74.4231L70.4141 75.0377Z" fill="#748BFF"/>
<path d="M61.6997 71.964L61.9625 71.8274L66.4297 74.3816L66.1807 74.5182L61.6997 71.964Z" fill="#748BFF"/>
<path d="M61.2294 71.7046L56.6931 69.1095L56.9558 68.9729L61.4922 71.5544L61.2294 71.7046Z" fill="#748BFF"/>
<path d="M64.5476 70.3799L64.8104 70.2296L69.2776 72.7838L69.0286 72.934L64.5476 70.3799Z" fill="#748BFF"/>
<path d="M61.9202 73.6993L62.183 73.5627L63.2617 74.1774L62.9989 74.314L61.9202 73.6993Z" fill="#748BFF"/>
<path d="M64.5742 76.5807L64.3253 76.731L63.2327 76.1027L63.4955 75.9661L64.5742 76.5807Z" fill="#748BFF"/>
<path d="M57.6611 67.7708L59.625 68.8908L59.3761 69.0274L57.3983 67.9073L57.6611 67.7708Z" fill="#748BFF"/>
<path d="M53.3984 62.1298L53.1495 62.2664L48.9451 59.8761L49.2078 59.7258L53.3984 62.1298Z" fill="#748BFF"/>
<path d="M58.4336 64.9987L58.1846 65.1353L53.6206 62.5401L53.8696 62.3899L58.4336 64.9987Z" fill="#748BFF"/>
<path d="M54.8388 64.8477L52.8749 63.714L53.1238 63.5774L55.1016 64.6974L54.8388 64.8477Z" fill="#748BFF"/>
<path d="M59.0732 67.252L55.3113 65.1075L55.5602 64.9709L59.3359 67.1154L59.0732 67.252Z" fill="#748BFF"/>
<path d="M52.6235 64.8889L57.1875 67.4977L56.9247 67.648L52.3607 65.0392L52.6235 64.8889Z" fill="#748BFF"/>
<path d="M55.8745 69.97L61.7109 73.289L61.4482 73.4393L55.6256 70.1066L55.8745 69.97Z" fill="#748BFF"/>
<path d="M60.8672 66.3917L60.6182 66.5283L58.6543 65.4083L58.9033 65.2581L60.8672 66.3917Z" fill="#748BFF"/>
<path d="M62.5703 70.5575L62.3075 70.7077L59.8457 69.3009L60.0947 69.1506L62.5703 70.5575Z" fill="#748BFF"/>
<path d="M33.5677 61.8298C40.0127 61.4064 45.8353 64.0562 46.5683 67.7304C47.3013 71.4046 42.6681 74.7237 36.2232 75.1471C29.7782 75.5705 23.9556 72.9207 23.2226 69.2465C22.4896 65.5723 27.1228 62.2533 33.5677 61.8298ZM28.2984 68.7275C28.7133 70.8036 32.0049 72.2924 35.6423 72.0602C39.2797 71.828 41.9074 69.9431 41.4925 67.867C41.0776 65.7909 37.786 64.3021 34.1486 64.5343C30.5112 64.7665 27.8835 66.6514 28.2984 68.7275Z" fill="#748BFF"/>
</g>
<path d="M80.6324 56.6116L71.8501 51.6125L71.4076 51.8583L71.1448 51.312L70.882 50.7656L71.8501 50.9022L72.8182 51.0525L72.3342 51.3393L81.1165 56.3384L87.3125 52.8008L102.996 61.7472L101.088 62.8399L95.6107 65.9541L79.9271 57.0213L80.6324 56.6116Z" fill="#748BFF"/>
<path d="M69.1807 50.8889L61.5187 46.5181L60.1495 47.2967L60.6474 47.5835L59.6793 47.7201L58.7112 47.8704L58.9739 47.324L59.2367 46.7777L59.6793 47.0235L61.0485 46.245L53.4971 41.9425L60.8825 37.7356L76.5662 46.6821L69.1807 50.8889Z" fill="#748BFF"/>
<path d="M76.6757 58.8789L84.3931 63.277L85.7761 62.4848L85.3336 62.2253L86.3017 62.0887L87.2698 61.9385L87.007 62.4848L86.7442 63.0448L86.2602 62.758L84.8771 63.5502L92.3594 67.8117L90.437 68.9044L84.974 72.0322L69.2903 63.0858L76.6757 58.8789Z" fill="#748BFF"/>
<path d="M65.1958 53.156L74.0334 58.1961L74.5174 57.9093L74.7802 58.4693L75.043 59.0156L74.0748 58.8654L73.1067 58.7151L73.5493 58.4693L64.7255 53.4292L64.0063 53.839L58.5433 56.9531L42.8597 48.0067L50.2451 43.7998L65.9288 52.7463L65.1958 53.156Z" fill="#748BFF"/>
<path d="M74.0469 78.2196L72.2213 79.2713L71.9447 79.1211L73.7841 78.0693L74.0469 78.2196Z" fill="#748BFF"/>
<path d="M71.7266 79.5448L69.8871 80.5965L69.6243 80.4463L71.4638 79.3945L71.7266 79.5448Z" fill="#748BFF"/>
<path d="M69.4023 80.8836L67.5629 81.9217L67.3001 81.7714L69.1396 80.7197L69.4023 80.8836Z" fill="#748BFF"/>
<path d="M67.0781 82.2079L65.2387 83.2459L64.9759 83.0957L66.8153 82.0576L67.0781 82.2079Z" fill="#748BFF"/>
<path d="M64.7539 83.5331L62.9145 84.5711L62.6517 84.4209L64.4911 83.3828L64.7539 83.5331Z" fill="#748BFF"/>
<path d="M62.4297 84.8583L60.5902 85.8963L60.3275 85.7461L62.1669 84.708L62.4297 84.8583Z" fill="#748BFF"/>
<path d="M71.6275 78.643L54.0768 68.6311L55.4045 67.8799L72.9414 77.8917L71.6275 78.643Z" fill="#748BFF"/>
<path d="M53.6473 71.0354L54.9612 70.2842L70.6172 79.217L69.2895 79.9682L53.6473 71.0354Z" fill="#748BFF"/>
<path d="M59.8465 77.2229L61.1604 76.4717L68.2969 80.542L66.9692 81.2932L59.8465 77.2229Z" fill="#748BFF"/>
<path d="M52.1423 75.4885L53.47 74.7373L65.9727 81.8671L64.6449 82.6184L52.1423 75.4885Z" fill="#748BFF"/>
<path d="M50.6085 77.2639L51.9362 76.5127L63.6367 83.1918L62.3228 83.943L50.6085 77.2639Z" fill="#748BFF"/>
<path d="M51.977 79.1895L61.3125 84.5164L59.9986 85.2676L50.6493 79.9407L51.977 79.1895Z" fill="#748BFF"/>
<path d="M59.6504 75.8842C59.8717 76.0071 59.8717 76.2257 59.6504 76.3486C59.4292 76.4715 59.0557 76.4715 58.8206 76.3486C58.5855 76.2257 58.5993 76.0071 58.8206 75.8842C59.0419 75.7613 59.4153 75.7613 59.6504 75.8842Z" fill="#748BFF"/>
<path d="M51.9043 74.1225C52.1256 74.2454 52.1256 74.4639 51.9043 74.5869C51.6831 74.7098 51.3096 74.7098 51.0745 74.5869C50.8532 74.4639 50.8532 74.2454 51.0745 74.1225C51.2958 73.9995 51.6692 73.9995 51.9043 74.1225Z" fill="#748BFF"/>
<path d="M49.5278 75.9253C49.7491 75.8024 50.1225 75.8024 50.3576 75.9253C50.5789 76.0483 50.5789 76.2668 50.3576 76.3897C50.1363 76.5127 49.7629 76.5127 49.5278 76.3897C49.3065 76.2668 49.3065 76.0483 49.5278 75.9253Z" fill="#748BFF"/>
<path d="M53.9668 67.8261C53.7456 67.9491 53.3721 67.9491 53.137 67.8261C52.9157 67.7032 52.9157 67.4847 53.137 67.3617C53.3583 67.2388 53.7317 67.2388 53.9668 67.3617C54.1881 67.4847 54.1881 67.7032 53.9668 67.8261Z" fill="#748BFF"/>
<path d="M50.4395 79.0937C50.2182 79.2166 49.8448 79.2166 49.6235 79.0937C49.4022 78.9708 49.4022 78.7522 49.6235 78.6293C49.8448 78.5064 50.2182 78.5064 50.4395 78.6293C50.6608 78.7522 50.6608 78.9708 50.4395 79.0937Z" fill="#748BFF"/>
<path d="M53.4551 70.1611C53.2338 70.284 52.8604 70.284 52.6253 70.1611C52.404 70.0382 52.404 69.8196 52.6253 69.6967C52.8466 69.5738 53.22 69.5738 53.4551 69.6967C53.6764 69.8196 53.6764 70.0382 53.4551 70.1611Z" fill="#748BFF"/>
<path d="M89.2348 46.586L89.7327 46.8728L95.4308 43.6221L95.9148 43.8952L95.2372 44.2913L95.6659 44.5372L90.6593 47.3919L91.5445 47.8972L97.6298 44.4279L98.1139 44.6874L98.999 44.1821L99.4554 44.4416L92.4711 48.4299L93.3562 48.9353L100.105 45.0836L100.576 45.3431L101.53 44.8104L101.986 45.0562L94.269 49.4543L95.1542 49.9597L99.3171 47.5968L99.7873 47.8563L100.631 47.3782L101.087 47.6377L96.0808 50.4924L96.966 50.9978L100.852 48.7851L101.323 49.0446L103.632 47.7333L104.089 47.9929L97.8926 51.5168L98.7777 52.0222L100.327 51.1344L100.811 51.4075L101.406 51.0661L101.862 51.3256L99.7044 52.5549L100.59 53.0602L104.393 50.8885L104.877 51.1617L103.231 52.1041L103.66 52.35L101.516 53.5793L102.387 54.0846L107.961 50.9158L108.431 51.189L108.943 50.8885L109.399 51.148L103.314 54.6173L104.199 55.1227L107.56 53.1968L108.03 53.47L111.28 51.6261L111.723 51.8856L105.126 55.6417L106.011 56.1471L111.681 52.91L112.166 53.1968L111.723 53.4427L112.166 53.7022L106.938 56.6798L107.809 57.1852L112.746 54.3715L113.217 54.631L113.798 54.3032L114.254 54.5627L108.736 57.7042L109.358 58.0593L108.943 58.2915L88.8199 46.8182L89.2348 46.586Z" fill="#748BFF"/>
<path d="M87.1326 45.3844L86.7177 45.6166L66.6083 34.1433L67.0094 33.9111L67.5073 34.1979L69.5127 33.0506L69.9829 33.3238L70.2595 33.1735L70.7021 33.4331L68.4339 34.7306L69.3191 35.2223L73.0394 33.1052L73.5097 33.3784L74.3948 32.873L74.8512 33.1326L70.2457 35.755L71.1308 36.2604L76.3311 33.2828L76.8151 33.556L77.562 33.1326L78.0184 33.3921L72.0575 36.7931L72.9288 37.2848L80.6876 32.873L81.1579 33.1462L81.5451 32.914L82.0015 33.1735L73.8554 37.8175L74.7406 38.3229L80.5355 35.0175L81.0057 35.2906L81.6143 34.9492L82.0707 35.2087L75.6672 38.8556L76.5524 39.3609L79.6089 37.6126L80.0929 37.8858L80.6876 37.5443L81.144 37.7902L77.479 39.88L78.3641 40.3853L82.776 37.8721L83.2601 38.1453L82.6515 38.5004L83.0941 38.7463L79.2908 40.918L80.1759 41.4097L82.126 40.3034L82.6101 40.5766L81.8355 41.0136L82.2781 41.2732L81.1025 41.9424L81.9739 42.4478L83.6612 41.4917L84.1314 41.7649L85.9432 40.7268L86.3857 40.9863L82.9005 42.9805L83.7856 43.4859L85.3623 42.5844L85.8464 42.8576L85.39 43.1171L85.8325 43.3629L84.7123 44.0049L85.5974 44.5103L88.0316 43.1171L88.5018 43.3903L89.0827 43.0624L89.5391 43.322L86.524 45.0293L87.1326 45.3844Z" fill="#748BFF"/>
<path d="M33.5677 55.9566C40.0127 55.5331 45.8353 58.1829 46.5683 61.8571C47.3013 65.5313 42.6681 68.8504 36.2232 69.2738C29.7782 69.6972 23.9556 67.0474 23.2226 63.3732C22.4896 59.699 27.1228 56.38 33.5677 55.9566ZM28.2984 63.0318C28.7133 65.1079 32.0049 66.5967 35.6423 66.3645C39.2797 66.1323 41.9074 64.2474 41.4925 62.1713C41.0776 60.0951 37.786 58.6063 34.1486 58.8385C30.5112 59.0707 27.8835 60.9556 28.2984 63.0318Z" fill="#748BFF"/>
<path d="M77.6609 45.016L76.3332 44.2648L62.7795 36.534L64.8955 35.3184L79.8323 43.8277L93.4552 51.5995L107.078 59.3714L104.948 60.5733L91.3253 52.8152L77.6609 45.016Z" fill="#748BFF"/>
<path d="M56.4858 87.4672C56.7486 87.3169 57.1773 87.3169 57.4539 87.4672C57.7306 87.6174 57.7167 87.8633 57.4539 88.0135C57.1912 88.1638 56.7624 88.1638 56.4858 88.0135C56.223 87.8633 56.223 87.6174 56.4858 87.4672Z" fill="#748BFF"/>
<path d="M54.6309 89.4612C54.2566 89.4612 53.9532 89.29 53.9532 89.0787C53.9532 88.8675 54.2566 88.6963 54.6309 88.6963C55.0052 88.6963 55.3086 88.8675 55.3086 89.0787C55.3086 89.29 55.0052 89.4612 54.6309 89.4612Z" fill="#748BFF"/>
<path d="M33.7911 74.9143C33.4168 74.9143 33.1134 74.7431 33.1134 74.5319C33.1134 74.3206 33.4168 74.1494 33.7911 74.1494C34.1653 74.1494 34.4688 74.3206 34.4688 74.5319C34.4688 74.7431 34.1653 74.9143 33.7911 74.9143Z" fill="#748BFF"/>
<path d="M30.952 75.5971C31.2148 75.4468 31.6435 75.4468 31.9201 75.5971C32.1829 75.7473 32.1829 75.9932 31.9201 76.1434C31.6573 76.2937 31.2286 76.2937 30.952 76.1434C30.6892 75.9932 30.6892 75.7473 30.952 75.5971Z" fill="#748BFF"/>
<path d="M43.9843 80.9103L42.5874 80.1181L42.7672 80.0225L44.1641 80.8147L43.9843 80.9103Z" fill="#748BFF"/>
<path d="M42.793 79.2168L42.6132 79.3124L40.8705 78.329L41.0503 78.2197L42.793 79.2168Z" fill="#748BFF"/>
<path d="M47.0813 82.6864L47.2611 82.5771L50.3867 84.3528L50.2069 84.4621L47.0813 82.6864Z" fill="#748BFF"/>
<path d="M42.5312 79.8729L42.3376 79.9822L40.3599 78.8485L40.5397 78.7529L42.5312 79.8729Z" fill="#748BFF"/>
<path d="M47.8281 82.0852L47.6483 82.1808L46.2515 81.3886L46.4313 81.2793L47.8281 82.0852Z" fill="#748BFF"/>
<path d="M46.8319 82.5366L44.2318 81.0614L44.4116 80.9521L47.0117 82.4409L46.8319 82.5366Z" fill="#748BFF"/>
<path d="M50.0382 83.3555L54.0352 85.6228L53.8554 85.7321L49.8584 83.4511L50.0382 83.3555Z" fill="#748BFF"/>
<path d="M49.6249 83.3144L47.8823 82.3173L48.0621 82.2217L49.8047 83.2051L49.6249 83.3144Z" fill="#748BFF"/>
<path d="M54.8788 87.1254L50.4393 84.5985L50.6329 84.5029L55.0586 87.0161L54.8788 87.1254Z" fill="#748BFF"/>
<path d="M46.1797 81.1428L45.9999 81.2521L42.8604 79.4628L43.0402 79.3535L46.1797 81.1428Z" fill="#748BFF"/>
<path d="M54.284 85.7734L55.75 86.6066L55.5702 86.7022L54.1042 85.869L54.284 85.7734Z" fill="#748BFF"/>
<path d="M52.8477 88.2862L52.6679 88.3819L49.3209 86.4696L49.5007 86.374L52.8477 88.2862Z" fill="#748BFF"/>
<path d="M49.1148 85.3359L53.582 87.8765L53.3884 87.9857L48.935 85.4452L49.1148 85.3359Z" fill="#748BFF"/>
<path d="M49.25 86.238L49.0702 86.3336L45.0732 84.0526L45.253 83.957L49.25 86.238Z" fill="#748BFF"/>
<path d="M45.5717 83.5194L45.7515 83.4102L48.8633 85.1994L48.6835 85.2951L45.5717 83.5194Z" fill="#748BFF"/>
<path d="M43.0273 82.6867L42.8475 82.7823L41.4507 81.9901L41.6443 81.8945L43.0273 82.6867Z" fill="#748BFF"/>
<path d="M45.3241 83.3832L42.7102 81.8944L42.9038 81.7852L45.5039 83.274L45.3241 83.3832Z" fill="#748BFF"/>
<path d="M45.0195 83.8203L44.8259 83.9159L43.0971 82.9325L43.2769 82.8232L45.0195 83.8203Z" fill="#748BFF"/>
<path d="M39.543 79.8731L39.3632 79.9824L37.6897 79.0263L37.8695 78.9307L39.543 79.8731Z" fill="#748BFF"/>
<path d="M41.3945 81.7444L41.2147 81.8536L38.0614 80.0643L38.255 79.9551L41.3945 81.7444Z" fill="#748BFF"/>
<path d="M42.4765 81.7571L39.6136 80.1181L39.7934 80.0225L42.6562 81.6478L42.4765 81.7571Z" fill="#748BFF"/>
<path d="M31.1629 72.5244L32.6289 73.3576L32.4353 73.4532L30.9831 72.62L31.1629 72.5244Z" fill="#748BFF"/>
<path d="M17.7455 65.08L17.9254 64.9707L19.668 65.9678L19.4882 66.0634L17.7455 65.08Z" fill="#748BFF"/>
<path d="M23.9563 69.4374L24.1361 69.3281L27.2617 71.1174L27.0819 71.213L23.9563 69.4374Z" fill="#748BFF"/>
<path d="M31.742 73.8765L27.3162 71.3496L27.496 71.254L31.9218 73.7809L31.742 73.8765Z" fill="#748BFF"/>
<path d="M24.9371 68.9727L26.6797 69.9561L26.4999 70.0654L24.7573 69.0819L24.9371 68.9727Z" fill="#748BFF"/>
<path d="M21.2866 67.7031L23.8867 69.1919L23.7069 69.3012L21.1068 67.8124L21.2866 67.7031Z" fill="#748BFF"/>
<path d="M24.6875 68.8362L24.5077 68.9318L23.1247 68.1396L23.3045 68.0439L24.6875 68.8362Z" fill="#748BFF"/>
<path d="M26.9171 70.1064L30.9141 72.3738L30.7343 72.4831L26.7373 70.2021L26.9171 70.1064Z" fill="#748BFF"/>
<path d="M19.7354 66.2138L19.9152 66.1045L23.0547 67.8938L22.8749 68.0031L19.7354 66.2138Z" fill="#748BFF"/>
<path d="M20.4023 69.0552L20.2226 69.1645L17.6086 67.6757L17.7884 67.5664L20.4023 69.0552Z" fill="#748BFF"/>
<path d="M22.8086 71.2403L22.6288 71.3495L20.8862 70.3661L21.066 70.2568L22.8086 71.2403Z" fill="#748BFF"/>
<path d="M20.4564 69.3008L20.6362 69.1915L23.7618 70.9808L23.582 71.0764L20.4564 69.3008Z" fill="#748BFF"/>
<path d="M20.8281 70.1206L20.6483 70.2162L17.9514 68.6864L18.1312 68.5771L20.8281 70.1206Z" fill="#748BFF"/>
<path d="M24.0119 71.1172L30.3047 74.7094L30.1249 74.805L23.8321 71.2265L24.0119 71.1172Z" fill="#748BFF"/>
<path d="M17.5391 67.4299L17.3593 67.5392L15.9762 66.7333L16.156 66.6377L17.5391 67.4299Z" fill="#748BFF"/>
<path d="M29.5547 75.0925L29.3611 75.2018L27.1067 73.9042L27.2865 73.8086L29.5547 75.0925Z" fill="#748BFF"/>
<path d="M27.0391 73.658L26.8593 73.7672L22.8761 71.4862L23.0559 71.3906L27.0391 73.658Z" fill="#748BFF"/>
<path d="M14.7168 65.8174L15.9062 66.5003L15.7265 66.5959L14.537 65.9267L14.7168 65.8174Z" fill="#748BFF"/>
<path d="M48.0871 58.0459L52.25 60.4225L51.9872 60.5591L47.8381 58.1961L48.0871 58.0459Z" fill="#748BFF"/>
<path d="M52.6523 57.4448L52.4034 57.5813L47.8394 54.9862L48.0883 54.8359L52.6523 57.4448Z" fill="#748BFF"/>
<path d="M47.9518 56.3662L52.1562 58.7565L51.8935 58.9067L47.7029 56.5028L47.9518 56.3662Z" fill="#748BFF"/>
<path d="M61.3369 60.791L63.8125 62.1979L63.5636 62.3345L61.0879 60.9276L61.3369 60.791Z" fill="#748BFF"/>
<path d="M47.2315 56.2427L37.8269 50.8749L38.0758 50.7383L47.4805 56.0925L47.2315 56.2427Z" fill="#748BFF"/>
<path d="M52.9444 62.417L55.4062 63.8238L55.1573 63.9741L52.6817 62.5672L52.9444 62.417Z" fill="#748BFF"/>
<path d="M44.5206 56.311L40.3162 53.9071L40.5789 53.7705L44.7695 56.1608L44.5206 56.311Z" fill="#748BFF"/>
<path d="M69.4976 67.3338L69.7466 67.1836L75.5 70.4617L75.2511 70.6119L69.4976 67.3338Z" fill="#748BFF"/>
<path d="M39.8466 53.6484L36.4167 51.6815L36.6794 51.5449L40.1094 53.4981L39.8466 53.6484Z" fill="#748BFF"/>
<path d="M78.4766 70.5571L78.2138 70.6936L71.8795 67.0877L72.1284 66.9375L78.4766 70.5571Z" fill="#748BFF"/>
<path d="M64.0771 64.2474L59.5407 61.6522L59.8035 61.5156L64.3398 64.0971L64.0771 64.2474Z" fill="#748BFF"/>
<path d="M70.5793 66.0498L71.6719 66.6644L71.4091 66.8147L70.3303 66.2001L70.5793 66.0498Z" fill="#748BFF"/>
<path d="M56.942 66.6512L57.1909 66.501L63.0273 69.8337L62.7784 69.9703L56.942 66.6512Z" fill="#748BFF"/>
<path d="M40.4286 50.7521L39.2392 50.0829L39.4882 49.9326L40.6914 50.6156L40.4286 50.7521Z" fill="#748BFF"/>
<path d="M71.13 74.7366L64.7818 71.1307L65.0446 70.9805L71.3789 74.5864L71.13 74.7366Z" fill="#748BFF"/>
<path d="M45.2423 56.4209L47.6211 57.7868L47.3721 57.937L44.9933 56.5711L45.2423 56.4209Z" fill="#748BFF"/>
<path d="M41.1591 50.875L42.957 51.9131L42.6943 52.0497L40.8963 51.0252L41.1591 50.875Z" fill="#748BFF"/>
<path d="M52.7087 60.6826L56.4844 62.8407L56.2216 62.9773L52.4597 60.8329L52.7087 60.6826Z" fill="#748BFF"/>
<path d="M76.9659 73.1936L70.6316 69.5877L70.8805 69.4375L77.2148 73.0571L76.9659 73.1936Z" fill="#748BFF"/>
<path d="M66.65 68.9188L66.8989 68.7822L72.6523 72.0603L72.4034 72.1969L66.65 68.9188Z" fill="#748BFF"/>
<path d="M63.4693 68.7137L63.7321 68.5771L70.0664 72.1831L69.8175 72.3333L63.4693 68.7137Z" fill="#748BFF"/>
<path d="M70.535 72.4561L77.3672 76.3488L77.1182 76.499L70.2722 72.5926L70.535 72.4561Z" fill="#748BFF"/>
<path d="M73.1246 72.3193L78.7812 75.5428L78.5185 75.693L72.8757 72.4696L73.1246 72.3193Z" fill="#748BFF"/>
<path d="M70.1212 65.7905L69.8584 65.9271L64.0359 62.608L64.2848 62.4578L70.1212 65.7905Z" fill="#748BFF"/>
<path d="M48.4755 53.7436L40.6475 49.2772L40.8965 49.127L48.7383 53.5934L48.4755 53.7436Z" fill="#748BFF"/>
<path d="M71.8479 74.8604L75.9141 77.1823L75.6651 77.3189L71.599 75.0106L71.8479 74.8604Z" fill="#748BFF"/>
<path d="M77.6842 73.3164L80.1875 74.7369L79.9247 74.8872L77.4353 73.4667L77.6842 73.3164Z" fill="#748BFF"/>
<path d="M78.9456 70.8174L83.0117 73.1394L82.7489 73.276L78.6828 70.9676L78.9456 70.8174Z" fill="#748BFF"/>
<path d="M75.9726 70.7354L81.6016 73.9451L81.3388 74.0817L75.7237 70.8856L75.9726 70.7354Z" fill="#748BFF"/>
<path d="M43.1677 52.3231L43.4305 52.1729L47.6211 54.5768L47.3721 54.7134L43.1677 52.3231Z" fill="#748BFF"/>
<path d="M62.7779 65.1073L63.0407 64.957L68.8633 68.2898L68.6143 68.4263L62.7779 65.1073Z" fill="#748BFF"/>
<path d="M70.4141 69.1781L70.1651 69.3147L69.0863 68.7001L69.3353 68.5498L70.4141 69.1781Z" fill="#748BFF"/>
<path d="M61.6997 66.1043L61.9625 65.9541L66.4297 68.5083L66.1807 68.6585L61.6997 66.1043Z" fill="#748BFF"/>
<path d="M61.2294 65.8314L56.6931 63.2499L56.9558 63.0996L61.4922 65.6948L61.2294 65.8314Z" fill="#748BFF"/>
<path d="M64.5476 64.5066L64.8104 64.37L69.2776 66.9242L69.0286 67.0608L64.5476 64.5066Z" fill="#748BFF"/>
<path d="M61.9202 67.8397L62.183 67.6895L63.2617 68.3041L62.9989 68.4543L61.9202 67.8397Z" fill="#748BFF"/>
<path d="M64.5742 70.7074L64.3253 70.8577L63.2327 70.243L63.4955 70.0928L64.5742 70.7074Z" fill="#748BFF"/>
<path d="M57.6611 61.8975L59.625 63.0175L59.3761 63.1677L57.3983 62.0477L57.6611 61.8975Z" fill="#748BFF"/>
<path d="M53.3984 56.2565L53.1495 56.4067L48.9451 54.0028L49.2078 53.8662L53.3984 56.2565Z" fill="#748BFF"/>
<path d="M58.4336 59.1254L58.1846 59.2757L53.6206 56.6669L53.8696 56.5303L58.4336 59.1254Z" fill="#748BFF"/>
<path d="M54.8388 58.9753L52.8749 57.8553L53.1238 57.7051L55.1016 58.8251L54.8388 58.9753Z" fill="#748BFF"/>
<path d="M59.0732 61.3923L55.3113 59.2479L55.5602 59.0977L59.3359 61.2421L59.0732 61.3923Z" fill="#748BFF"/>
<path d="M52.6235 59.0293L57.1875 61.6245L56.9247 61.7747L52.3607 59.1659L52.6235 59.0293Z" fill="#748BFF"/>
<path d="M55.8745 64.0967L61.7109 67.4157L61.4482 67.566L55.6256 64.2469L55.8745 64.0967Z" fill="#748BFF"/>
<path d="M60.8672 60.5185L60.6182 60.6687L58.6543 59.535L58.9033 59.3984L60.8672 60.5185Z" fill="#748BFF"/>
<path d="M62.5703 64.6979L62.3075 64.8481L59.8457 63.4276L60.0947 63.291L62.5703 64.6979Z" fill="#748BFF"/>
</g>
<path d="M71.8476 45.0294L72.8157 45.1797L72.3316 45.4665L81.3905 50.6295L80.9065 50.9027L71.8476 45.7397L71.405 45.9855L71.1422 45.4392L70.8795 44.8928L71.8476 45.0294Z" fill="#94A7FF"/>
<path d="M74.7801 52.5966L74.5173 52.0366L74.0333 52.3234L64.9605 47.1604L64.4903 47.4199L73.5492 52.5966L73.1066 52.8424L74.0748 52.9927L75.0429 53.1429L74.7801 52.5966Z" fill="#FF7800"/>
<path d="M87.0067 56.6123L86.7439 57.1723L86.2598 56.8854L79.0542 60.9967L78.584 60.7235L85.7758 56.6123L85.3332 56.3664L86.3013 56.2162L87.2694 56.0659L87.0067 56.6123Z" fill="#3255FF"/>
<path d="M59.6756 41.8608L60.6437 41.7106L60.1458 41.4238L67.3515 37.3262L66.8812 37.053L59.6756 41.1506L59.233 40.9047L58.9703 41.4511L58.7075 41.9974L59.6756 41.8608Z" fill="#94A7FF"/>
<path d="M79.927 51.1486L95.6106 60.0814L102.996 55.8746L87.3124 46.9281L79.927 51.1486Z" fill="#94A7FF"/>
<path d="M53.4971 36.0694L69.1808 45.0159L76.5662 40.809L60.8826 31.8625L53.4971 36.0694Z" fill="#94A7FF"/>
<path d="M85.4038 48.0208L87.3124 46.9281L102.996 55.8746L101.087 56.9673L85.4038 48.0208Z" fill="#FF7800"/>
<path d="M58.974 32.9552L60.8826 31.8625L76.5662 40.809L74.6576 41.9017L58.974 32.9552Z" fill="#FF7800"/>
<path d="M69.2902 57.2131L84.9739 66.1596L92.3593 61.939L76.6757 53.0062L69.2902 57.2131Z" fill="#94A7FF"/>
<path d="M42.8604 42.1475L58.5441 51.0803L65.9295 46.8735L50.2458 37.927L42.8604 42.1475Z" fill="#94A7FF"/>
<path d="M74.7532 54.0989L76.6757 53.0062L92.3593 61.939L90.4369 63.0317L74.7532 54.0989Z" fill="#FF7800"/>
<path d="M48.3234 39.0197L50.2458 37.927L65.9295 46.8735L64.0071 47.9662L48.3234 39.0197Z" fill="#FF7800"/>
<path d="M71.9447 73.2489L72.2213 73.3991L74.0469 72.361L73.7841 72.1971L71.9447 73.2489Z" fill="#7E94FF"/>
<path d="M69.6204 74.5741L69.8832 74.7243L71.7227 73.6863L71.4599 73.536L69.6204 74.5741Z" fill="#7E94FF"/>
<path d="M67.2962 75.8983L67.559 76.0485L69.3984 75.0105L69.1357 74.8602L67.2962 75.8983Z" fill="#7E94FF"/>
<path d="M64.9759 77.2235L65.2387 77.3737L67.0781 76.3357L66.8153 76.1854L64.9759 77.2235Z" fill="#7E94FF"/>
<path d="M62.6517 78.5487L62.9145 78.7126L64.7539 77.6609L64.4911 77.5106L62.6517 78.5487Z" fill="#7E94FF"/>
<path d="M60.3275 79.8866L60.5902 80.0368L62.4297 78.9851L62.1669 78.8348L60.3275 79.8866Z" fill="#7E94FF"/>
<path d="M54.0768 62.7726L71.6275 72.7708L72.9414 72.0195L55.4045 62.0214L54.0768 62.7726Z" fill="#8A9EFF"/>
<path d="M53.6473 65.1632L69.2895 74.096L70.6172 73.3448L54.9612 64.412L53.6473 65.1632Z" fill="#94A7FF"/>
<path d="M59.8426 71.3507L66.9652 75.421L68.293 74.6698L61.1565 70.5995L59.8426 71.3507Z" fill="#94A7FF"/>
<path d="M52.1423 69.6154L64.6449 76.7452L65.9727 75.994L53.47 68.8641L52.1423 69.6154Z" fill="#A1B1FF"/>
<path d="M50.6046 71.3908L62.3189 78.0699L63.6328 77.3186L51.9323 70.6395L50.6046 71.3908Z" fill="#7088FF"/>
<path d="M50.6493 74.0685L59.9986 79.3954L61.3125 78.6442L51.977 73.3173L50.6493 74.0685Z" fill="#94A7FF"/>
<path d="M58.8206 70.0121C58.5993 70.135 58.5993 70.3536 58.8206 70.4765C59.0419 70.5994 59.4153 70.5994 59.6504 70.4765C59.8717 70.3536 59.8717 70.135 59.6504 70.0121C59.4292 69.8892 59.0557 69.8892 58.8206 70.0121Z" fill="#94A7FF"/>
<path d="M51.0901 68.2631C50.8689 68.386 50.8689 68.6046 51.0901 68.7275C51.3114 68.8504 51.6849 68.8504 51.92 68.7275C52.1413 68.6046 52.1413 68.386 51.92 68.2631C51.6987 68.1402 51.3253 68.1402 51.0901 68.2631Z" fill="#A1B1FF"/>
<path d="M49.5263 70.0531C49.305 70.1761 49.305 70.3946 49.5263 70.5175C49.7476 70.6405 50.121 70.6405 50.3562 70.5175C50.5913 70.3946 50.5774 70.1761 50.3562 70.0531C50.1349 69.9302 49.7614 69.9302 49.5263 70.0531Z" fill="#7088FF"/>
<path d="M53.1509 61.4887C52.9296 61.6116 52.9296 61.8301 53.1509 61.9531C53.3721 62.076 53.7456 62.076 53.9668 61.9531C54.1881 61.8301 54.1881 61.6116 53.9668 61.4887C53.7456 61.3658 53.3721 61.3658 53.1509 61.4887Z" fill="#8A9EFF"/>
<path d="M49.6235 72.7572C49.4022 72.8802 49.4022 73.0987 49.6235 73.2216C49.8448 73.3446 50.2182 73.3446 50.4395 73.2216C50.6608 73.0987 50.6608 72.8802 50.4395 72.7572C50.2182 72.6343 49.8448 72.6343 49.6235 72.7572Z" fill="#94A7FF"/>
<path d="M52.637 63.8246C52.4157 63.9475 52.4157 64.1661 52.637 64.289C52.8583 64.4119 53.2317 64.4119 53.4668 64.289C53.6881 64.1661 53.6881 63.9475 53.4668 63.8246C53.2456 63.7017 52.8721 63.7017 52.637 63.8246Z" fill="#94A7FF"/>
<path d="M108.265 51.5985L108.708 51.858L114.254 48.6892L113.798 48.4297L108.265 51.5985Z" fill="#7E94FF"/>
<path d="M107.781 51.3253L108.265 51.5985L113.23 48.7711L112.746 48.4979L107.781 51.3253Z" fill="#FF7800"/>
<path d="M106.452 50.5606L106.909 50.8201L112.164 47.8289L111.708 47.5693L106.452 50.5606Z" fill="#7E94FF"/>
<path d="M105.982 50.3015L106.466 50.5747L112.164 47.3239L111.68 47.0371L105.982 50.3015Z" fill="#FF7800"/>
<path d="M104.642 49.5364L105.098 49.7959L111.723 46.0124L111.28 45.7529L104.642 49.5364Z" fill="#7E94FF"/>
<path d="M104.17 49.2628L104.655 49.536L108.043 47.6101L107.559 47.3232L104.17 49.2628Z" fill="#FF7800"/>
<path d="M102.829 48.4986L103.285 48.7581L109.398 45.2751L108.942 45.0156L102.829 48.4986Z" fill="#7E94FF"/>
<path d="M102.36 48.2391L102.844 48.5123L108.445 45.3161L107.961 45.043L102.36 48.2391Z" fill="#FF7800"/>
<path d="M97.4098 45.4116L97.8662 45.6711L104.09 42.1199L103.633 41.8604L97.4098 45.4116Z" fill="#7E94FF"/>
<path d="M96.9379 45.1385L97.4219 45.4117L101.336 43.1853L100.852 42.9121L96.9379 45.1385Z" fill="#FF7800"/>
<path d="M95.5953 44.3732L96.0517 44.6327L101.086 41.7644L100.63 41.5049L95.5953 44.3732Z" fill="#7E94FF"/>
<path d="M95.1261 44.1139L95.6102 44.3871L99.8008 41.9968L99.3167 41.7236L95.1261 44.1139Z" fill="#FF7800"/>
<path d="M93.8007 43.3493L94.2433 43.6088L101.988 39.197L101.532 38.9375L93.8007 43.3493Z" fill="#7E94FF"/>
<path d="M93.319 43.0764L93.803 43.3495L100.594 39.4841L100.11 39.2109L93.319 43.0764Z" fill="#FF7800"/>
<path d="M91.9847 42.3106L92.4411 42.5701L99.4531 38.5681L98.9967 38.3223L91.9847 42.3106Z" fill="#7E94FF"/>
<path d="M91.5141 42.0513L91.9981 42.3245L98.125 38.8279L97.6271 38.5547L91.5141 42.0513Z" fill="#FF7800"/>
<path d="M90.1734 41.2863L90.6298 41.5458L95.6641 38.6638L95.2215 38.4043L90.1734 41.2863Z" fill="#7E94FF"/>
<path d="M89.7042 41.0135L90.1883 41.2866L95.9141 38.0222L95.43 37.749L89.7042 41.0135Z" fill="#FF7800"/>
<path d="M101.028 47.4744L101.471 47.7339L103.656 46.491L103.214 46.2314L101.028 47.4744Z" fill="#7E94FF"/>
<path d="M100.56 47.201L101.044 47.4742L104.875 45.2888L104.391 45.0156L100.56 47.201Z" fill="#FF7800"/>
<path d="M99.2217 46.4363L99.6781 46.6958L101.863 45.4529L101.407 45.1934L99.2217 46.4363Z" fill="#7E94FF"/>
<path d="M98.7518 46.1769L99.2358 46.45L100.812 45.5486L100.328 45.2754L98.7518 46.1769Z" fill="#FF7800"/>
<path d="M88.8213 40.9451L108.944 52.4184L109.359 52.1862L89.2362 40.7129L88.8213 40.9451Z" fill="#7E94FF"/>
<path d="M86.04 38.9241L86.4826 39.1836L89.5391 37.449L89.0827 37.1895L86.04 38.9241Z" fill="#7E94FF"/>
<path d="M85.5559 38.651L86.04 38.9242L88.5156 37.531L88.0316 37.2441L85.5559 38.651Z" fill="#FF7800"/>
<path d="M84.2316 37.8988L84.688 38.1583L85.8359 37.5027L85.3795 37.2432L84.2316 37.8988Z" fill="#7E94FF"/>
<path d="M83.7593 37.6261L84.2433 37.8992L85.8477 36.9841L85.3636 36.7109L83.7593 37.6261Z" fill="#FF7800"/>
<path d="M82.4174 36.8613L82.8738 37.1209L86.3867 35.113L85.9441 34.8535L82.4174 36.8613Z" fill="#7E94FF"/>
<path d="M81.9494 36.5879L82.4335 36.8611L84.1484 35.8913L83.6644 35.6182L81.9494 36.5879Z" fill="#FF7800"/>
<path d="M80.6177 35.8372L81.0603 36.0967L82.2773 35.4001L81.8209 35.1406L80.6177 35.8372Z" fill="#7E94FF"/>
<path d="M80.1337 35.5643L80.6178 35.8375L82.6094 34.7038L82.1253 34.4307L80.1337 35.5643Z" fill="#FF7800"/>
<path d="M75.1828 32.7367L75.6392 32.9962L82.0703 29.3357L81.6139 29.0762L75.1828 32.7367Z" fill="#7E94FF"/>
<path d="M74.7129 32.4636L75.197 32.7504L81.0195 29.4314L80.5355 29.1445L74.7129 32.4636Z" fill="#FF7800"/>
<path d="M73.3837 31.7123L73.8263 31.9582L82 27.3005L81.5436 27.0547L73.3837 31.7123Z" fill="#7E94FF"/>
<path d="M72.9013 31.4391L73.3854 31.7123L81.1719 27.2732L80.6878 27L72.9013 31.4391Z" fill="#FF7800"/>
<path d="M71.5746 30.6744L72.0172 30.934L78.0195 27.5193L77.5631 27.2598L71.5746 30.6744Z" fill="#7E94FF"/>
<path d="M71.1043 30.4013L71.5884 30.6881L76.8163 27.6969L76.3322 27.4237L71.1043 30.4013Z" fill="#FF7800"/>
<path d="M69.762 29.6498L70.2184 29.8956L74.8516 27.2595L74.3952 27L69.762 29.6498Z" fill="#7E94FF"/>
<path d="M69.2913 29.3768L69.7754 29.65L73.5234 27.5193L73.0394 27.2324L69.2913 29.3768Z" fill="#FF7800"/>
<path d="M67.9509 28.6119L68.4073 28.8714L70.7031 27.5602L70.2606 27.3007L67.9509 28.6119Z" fill="#7E94FF"/>
<path d="M67.4829 28.3387L67.9669 28.6256L70 27.4646L69.5159 27.1777L67.4829 28.3387Z" fill="#FF7800"/>
<path d="M78.8063 34.7987L79.2627 35.0582L83.0938 32.8728L82.6374 32.6133L78.8063 34.7987Z" fill="#7E94FF"/>
<path d="M78.3342 34.5259L78.8183 34.8127L83.2578 32.2722L82.7737 31.999L78.3342 34.5259Z" fill="#FF7800"/>
<path d="M76.9954 33.7743L77.4518 34.0339L81.1445 31.9304L80.6881 31.6709L76.9954 33.7743Z" fill="#7E94FF"/>
<path d="M76.5255 33.5012L77.0096 33.7744L80.0938 32.0124L79.6097 31.7393L76.5255 33.5012Z" fill="#FF7800"/>
<path d="M66.6083 28.2703L86.7177 39.7436L87.1326 39.5114L67.0094 28.0381L66.6083 28.2703Z" fill="#7E94FF"/>
<path d="M33.5677 50.0835C40.0127 49.6601 45.8353 52.3099 46.5683 55.9841C47.3013 59.6583 42.6681 62.9773 36.2232 63.4008C29.7782 63.8242 23.9556 61.1744 23.2226 57.5002C22.4896 53.826 27.1228 50.5069 33.5677 50.0835ZM28.3537 57.1587C28.7686 59.2212 32.0326 60.6963 35.6423 60.4641C39.252 60.2319 41.8521 58.3743 41.4372 56.3119C41.0223 54.2494 37.7583 52.7743 34.1486 53.0065C30.5389 53.2387 27.9388 55.0963 28.3537 57.1587Z" fill="#FF7800"/>
<path d="M24.0526 57.4458C23.375 54.0312 27.6762 50.958 33.6509 50.5619C39.6395 50.1794 45.0333 52.6243 45.711 56.039C46.3887 59.4537 42.0874 62.5269 36.1127 62.923C30.1242 63.3054 24.7303 60.8605 24.0526 57.4458ZM43.5396 56.1756C43.0002 53.4438 38.6852 51.4906 33.8999 51.8048C29.1146 52.1189 25.6846 54.5775 26.224 57.2956C26.7634 60.0273 31.0785 61.9805 35.8638 61.6664C40.6491 61.3522 44.079 58.8937 43.5396 56.1756Z" fill="#3255FF"/>
<path d="M34.3725 51.8044C34.3725 51.8044 32.8927 51.9 32.4086 51.9819L31.7448 50.7936C32.3671 50.6844 34.1512 50.4931 34.4278 50.4658C35.8939 50.4658 37.7471 50.6297 39.0195 50.9849L38.162 52.1322C37.1524 51.9 35.5066 51.8044 34.3587 51.8044H34.3725Z" fill="#94A7FF"/>
<path d="M43.1381 55.2869L43.069 55.1503C42.253 53.8664 40.5657 52.7328 38.4358 52.2001L39.2933 51.0527C41.9764 51.7357 44.0648 52.842 45.2818 54.6313C45.2818 54.6313 45.8627 55.683 45.6967 55.9426L43.5115 56.0791C43.4424 55.7786 43.2903 55.5601 43.1243 55.2733L43.1381 55.2869Z" fill="#7088FF"/>
<path d="M26.2513 56.2028L24.0523 56.0663C24.3289 54.6594 25.4353 53.3618 27.1226 52.3921L27.5375 52.1599C28.644 51.5862 29.9717 51.1355 31.4377 50.8486L32.1016 52.0369C30.9536 52.2555 29.9164 52.6106 29.0312 53.0613L28.395 53.4711C28.395 53.4711 26.6801 54.4955 26.2375 56.2028H26.2513Z" fill="#A1B1FF"/>
<path d="M32.9471 62.8539L33.3482 61.6109C34.1503 61.6929 35.0078 61.7202 35.8653 61.6656C38.7144 61.4743 41.0793 60.5319 42.4209 59.2206L42.8773 58.7016C43.4443 57.9504 43.7071 57.1172 43.555 56.2567L45.7402 56.1201C45.9338 57.2538 45.588 58.3465 44.8135 59.3163L44.7444 59.6167L44.3571 59.8216C42.6837 61.4743 39.7101 62.6763 36.1281 62.9085C35.0355 62.9768 33.9705 62.9495 32.9471 62.8539Z" fill="#8A9EFF"/>
<path d="M23.7916 57.4591C23.1001 53.9761 27.512 50.8073 33.625 50.4112C39.738 50.0151 45.284 52.5283 45.9755 56.0113C46.667 59.4942 42.2551 62.6631 36.1421 63.0592C30.0291 63.4553 24.4831 60.9421 23.7916 57.4591ZM45.7266 56.0386C45.0489 52.6239 39.6412 50.179 33.6665 50.5614C27.6779 50.9439 23.3767 54.0308 24.0682 57.4454C24.7459 60.8601 30.1536 63.305 36.1283 62.9226C42.1168 62.5401 46.4181 59.4533 45.7266 56.0386Z" fill="#3255FF"/>
<path d="M26.2379 57.3089C25.6986 54.5772 29.1285 52.1186 33.9138 51.8181C38.6991 51.504 43.0142 53.4708 43.5536 56.1889C44.0929 58.9207 40.663 61.3792 35.8777 61.6797C31.0924 61.9939 26.7773 60.027 26.2379 57.3089ZM43.2908 56.2026C42.7652 53.5664 38.5746 51.6542 33.9415 51.9547C29.3083 52.2552 25.9752 54.6455 26.5007 57.2816C27.0263 59.9177 31.2169 61.83 35.85 61.5295C40.4832 61.229 43.8163 58.8387 43.2908 56.2026Z" fill="#3255FF"/>
<path d="M24.0791 57.4451C23.9961 57.049 23.9961 56.6393 24.0376 56.2432L26.1951 56.3661C26.1537 56.6802 26.1537 57.0081 26.2228 57.3085C26.6377 59.412 29.4176 61.1466 33.0273 61.611L32.6539 62.8267C28.1176 62.2803 24.6047 60.0949 24.0791 57.4588V57.4451Z" fill="#94A7FF"/>
<path d="M90.0115 46.1912L104.948 54.7143L107.078 53.4986L92.1413 44.9756L90.0115 46.1912Z" fill="#FF7800"/>
<path d="M103.565 53.9217L104.948 54.7139L107.078 53.4983L105.695 52.7061L103.565 53.9217Z" fill="#7088FF"/>
<path d="M76.3865 38.4188L91.3232 46.9418L93.4531 45.7262L78.5163 37.2168L76.3865 38.4188Z" fill="#FF7800"/>
<path d="M89.9402 46.1492L91.3232 46.9414L93.4531 45.7258L92.0701 44.9473L89.9402 46.1492Z" fill="#A1B1FF"/>
<path d="M62.7792 30.6609L77.716 39.1703L79.832 37.9683L64.8952 29.4453L62.7792 30.6609Z" fill="#FF7800"/>
<path d="M76.333 38.3914L77.716 39.17L79.832 37.968L78.449 37.1758L76.333 38.3914Z" fill="#8A9EFF"/>
<path d="M56.9707 82.2491C56.5965 82.2491 56.2931 82.0779 56.2931 81.8667C56.2931 81.6555 56.5965 81.4843 56.9707 81.4843C57.345 81.4843 57.6484 81.6555 57.6484 81.8667C57.6484 82.0779 57.345 82.2491 56.9707 82.2491Z" fill="#7E94FF"/>
<path d="M54.6348 83.5881C54.2605 83.5881 53.9571 83.4169 53.9571 83.2057C53.9571 82.9945 54.2605 82.8232 54.6348 82.8232C55.0091 82.8232 55.3125 82.9945 55.3125 83.2057C55.3125 83.4169 55.0091 83.5881 54.6348 83.5881Z" fill="#7E94FF"/>
<path d="M33.7911 69.0413C33.4168 69.0413 33.1134 68.87 33.1134 68.6588C33.1134 68.4476 33.4168 68.2764 33.7911 68.2764C34.1653 68.2764 34.4688 68.4476 34.4688 68.6588C34.4688 68.87 34.1653 69.0413 33.7911 69.0413Z" fill="#7E94FF"/>
<path d="M31.4395 70.3801C31.0652 70.3801 30.7618 70.2089 30.7618 69.9977C30.7618 69.7865 31.0652 69.6152 31.4395 69.6152C31.8138 69.6152 32.1172 69.7865 32.1172 69.9977C32.1172 70.2089 31.8138 70.3801 31.4395 70.3801Z" fill="#7E94FF"/>
<path d="M43.9864 75.0375L42.5895 74.2453L42.7693 74.136L44.1662 74.9282L43.9864 75.0375ZM50.21 78.5887L47.0844 76.8131L47.2642 76.7038L50.3898 78.4795L50.21 78.5887ZM46.8354 76.6628L44.2353 75.174L44.4151 75.0648L47.0152 76.5536L46.8354 76.6628ZM50.4452 78.7253L50.625 78.616L55.0507 81.1429L54.8709 81.2522L50.4452 78.7253ZM42.3406 74.1087L40.3628 72.975L40.5426 72.8657L42.5204 73.9994L42.3406 74.1087ZM55.5624 80.8288L54.0964 79.9956L54.2762 79.8863L55.7422 80.7195L55.5624 80.8288ZM42.7831 73.3438L42.6033 73.453L40.8607 72.4696L41.0405 72.3604L42.7831 73.3438ZM45.9918 75.3789L42.8523 73.5896L43.0321 73.4804L46.1716 75.2697L45.9918 75.3789ZM47.6376 76.3077L46.2407 75.5155L46.4205 75.4062L47.8174 76.1985L47.6376 76.3077ZM49.6153 77.4414L47.8865 76.458L48.0663 76.3487L49.7951 77.3321L49.6153 77.4414ZM53.8613 79.859L49.8643 77.578L50.0441 77.4687L54.0411 79.7497L53.8613 79.859Z" fill="#7E94FF"/>
<path d="M45.5051 77.4001L45.3253 77.5094L42.7252 76.0206L42.905 75.9113L45.5051 77.4001ZM45.5743 77.646L45.754 77.5367L48.8797 79.3123L48.6999 79.4216L45.5743 77.646ZM45.021 77.9464L44.8412 78.0557L43.1124 77.0723L43.2922 76.963L45.021 77.9464ZM43.0433 76.8128L42.8635 76.922L41.4666 76.1298L41.6464 76.0206L43.0433 76.8128ZM38.258 74.081L41.3975 75.8703L41.2177 75.9796L38.0782 74.1903L38.258 74.081ZM49.3223 80.5962L49.5021 80.487L52.849 82.3992L52.6692 82.5085L49.3223 80.5962ZM39.7932 74.1357L42.656 75.7747L42.4763 75.884L39.6134 74.2449L39.7932 74.1357ZM48.9489 79.5582L49.1287 79.4489L53.582 81.9894L53.4022 82.0987L48.9489 79.5582ZM39.558 73.9991L39.3782 74.1084L37.7048 73.1522L37.8846 73.043L39.558 73.9991ZM45.0902 78.1786L45.27 78.0694L49.267 80.3504L49.0872 80.4597L45.0902 78.1786Z" fill="#7E94FF"/>
<path d="M27.085 65.3397L23.9594 63.5641L24.1392 63.4548L27.2648 65.2304L27.085 65.3397ZM23.7104 63.4138L21.1103 61.925L21.2901 61.8158L23.8902 63.3046L23.7104 63.4138ZM27.3202 65.4763L27.5 65.367L31.9257 67.8939L31.7459 68.0032L27.3202 65.4763ZM32.4374 67.5797L30.9714 66.7466L31.1512 66.6373L32.6172 67.4705L32.4374 67.5797ZM19.6581 60.0948L19.4783 60.204L17.7357 59.2206L17.9155 59.1113L19.6581 60.0948ZM22.8668 62.1299L19.7273 60.3406L19.9071 60.2313L23.0466 62.0206L22.8668 62.1299ZM24.5126 63.0587L23.1157 62.2665L23.2955 62.1572L24.6924 62.9494L24.5126 63.0587ZM26.4903 64.1924L24.7615 63.2089L24.9413 63.0997L26.6701 64.0831L26.4903 64.1924ZM30.7363 66.61L26.7393 64.329L26.9191 64.2197L30.9161 66.5007L30.7363 66.61Z" fill="#7E94FF"/>
<path d="M20.4023 63.1812L20.2226 63.2905L17.6086 61.8017L17.7884 61.6924L20.4023 63.1812Z" fill="#7E94FF"/>
<path d="M22.8086 65.3809L22.6288 65.4765L20.8862 64.4931L21.066 64.3838L22.8086 65.3809Z" fill="#7E94FF"/>
<path d="M20.64 63.3184L23.7656 65.1077L23.5858 65.2033L20.4602 63.4276L20.64 63.3184Z" fill="#7E94FF"/>
<path d="M18.1351 62.7031L20.832 64.2466L20.6522 64.3558L17.9553 62.8124L18.1351 62.7031Z" fill="#7E94FF"/>
<path d="M23.8321 65.3534L24.0119 65.2441L30.3047 68.8364L30.1249 68.9457L23.8321 65.3534Z" fill="#7E94FF"/>
<path d="M17.5391 61.5559L17.3593 61.6651L15.9762 60.8729L16.156 60.7637L17.5391 61.5559Z" fill="#7E94FF"/>
<path d="M27.1106 68.0302L27.2904 67.9346L29.5586 69.2185L29.365 69.3278L27.1106 68.0302Z" fill="#7E94FF"/>
<path d="M23.0598 65.5176L27.043 67.7986L26.8632 67.8942L22.88 65.6132L23.0598 65.5176Z" fill="#7E94FF"/>
<path d="M15.9102 60.6273L15.7304 60.7229L14.541 60.0536L14.7207 59.9443L15.9102 60.6273Z" fill="#7E94FF"/>
<path d="M62.7761 64.0971L63.0251 63.9469L57.1886 60.6278L56.9397 60.778L62.7761 64.0971ZM64.3251 64.9849L64.5741 64.8347L63.4953 64.22L63.2463 64.3703L64.3251 64.9849ZM71.1296 68.864L71.3786 68.7138L65.0443 65.0942L64.7953 65.2444L71.1296 68.864ZM75.666 71.4455L75.915 71.2953L71.8488 68.9733L71.5999 69.1235L75.666 71.4455ZM61.7112 61.5429L55.8748 58.2239L55.6258 58.3741L61.4622 61.6932L61.7112 61.5429ZM55.4184 57.9507L52.9427 56.5438L52.6938 56.6941L55.1694 58.1009L55.4184 57.9507ZM63.0112 62.5673L63.2602 62.4171L62.1814 61.8025L61.9325 61.9527L63.0112 62.5673ZM69.8158 66.4464L70.0647 66.2962L63.7304 62.6766L63.4815 62.8269L69.8158 66.4464ZM77.1182 70.6123L77.3671 70.4621L70.5349 66.5693L70.286 66.7196L77.1182 70.6123ZM39.8454 47.775L40.0943 47.6247L36.6644 45.6715L36.4154 45.8218L39.8454 47.775ZM44.52 50.4384L44.769 50.2882L40.5645 47.8979L40.3156 48.0481L44.52 50.4384ZM47.3691 52.0638L47.618 51.9135L45.2392 50.5613L44.9903 50.7116L47.3691 52.0638ZM51.9884 54.6999L52.2374 54.5497L48.0883 52.1867L47.8393 52.337L51.9884 54.6999ZM56.2205 57.1175L56.4695 56.9673L52.7076 54.8229L52.4587 54.9731L56.2205 57.1175ZM61.2271 59.9722L61.4761 59.8219L56.9397 57.2404L56.6907 57.3907L61.2271 59.9722ZM66.1784 62.7859L66.4273 62.6356L61.9463 60.0815L61.6973 60.2317L66.1784 62.7859ZM72.402 66.3371L72.651 66.1869L66.8976 62.9088L66.6486 63.0591L72.402 66.3371ZM78.5289 69.8338L78.7778 69.6835L73.1212 66.4601L72.8723 66.6103L78.5289 69.8338ZM47.2308 50.3838L47.4797 50.2335L38.0751 44.8793L37.8261 45.0296L47.2308 50.3838ZM51.9054 53.0472L52.1544 52.897L47.95 50.5067L47.701 50.6569L51.9054 53.0472ZM56.9397 55.9155L57.1886 55.7653L52.6246 53.1565L52.3757 53.3067L56.9397 55.9155ZM59.3738 57.3087L59.6228 57.1585L57.6589 56.0385L57.4099 56.1887L59.3738 57.3087ZM62.3197 58.9888L62.5686 58.8385L60.093 57.4317L59.8441 57.5819L62.3197 58.9888ZM68.6125 62.581L68.8615 62.4308L63.0251 59.1117L62.7761 59.2619L68.6125 62.581ZM70.1615 63.4688L70.4105 63.3186L69.3317 62.7039L69.0828 62.8542L70.1615 63.4688ZM76.9661 67.3479L77.215 67.1976L70.8807 63.5781L70.6318 63.7283L76.9661 67.3479ZM79.9258 69.0416L80.1747 68.8913L77.6852 67.4708L77.4363 67.6211L79.9396 69.0416H79.9258ZM40.4262 44.893L40.6752 44.7427L39.4858 44.0598L39.2368 44.21L40.4262 44.893ZM42.6944 46.1905L42.9434 46.0403L41.1454 45.0159L40.8965 45.1661L42.6944 46.1905ZM47.3691 48.854L47.618 48.7037L43.4136 46.3135L43.1647 46.4637L47.3691 48.854ZM52.4033 51.7223L52.6523 51.5721L48.0883 48.9633L47.8393 49.1135L52.4033 51.7223ZM54.8375 53.1155L55.0864 52.9653L53.1225 51.8453L52.8736 51.9955L54.8375 53.1155ZM59.0696 55.5331L59.3185 55.3829L55.5567 53.2384L55.3077 53.3887L59.0696 55.5331ZM64.0762 58.3878L64.3251 58.2375L59.7887 55.656L59.5398 55.8063L64.0762 58.3878ZM69.0274 61.2015L69.2764 61.0512L64.7953 58.497L64.5464 58.6473L69.0274 61.2015ZM75.2511 64.7527L75.5 64.6025L69.7466 61.3244L69.4977 61.4746L75.2511 64.7527ZM81.3364 68.222L81.5854 68.0718L75.9703 64.862L75.7213 65.0123L81.3364 68.222ZM48.4755 47.8842L48.7245 47.734L40.8965 43.2676L40.6475 43.4178L48.4755 47.8842ZM53.1502 50.5477L53.3991 50.3974L49.1947 48.0072L48.9457 48.1574L53.1502 50.5477ZM58.1844 53.416L58.4334 53.2658L53.8694 50.6569L53.6204 50.8072L58.1844 53.416ZM60.6186 54.8092L60.8675 54.6589L58.9036 53.5389L58.6547 53.6892L60.6186 54.8092ZM63.5644 56.4892L63.8134 56.339L61.3377 54.9321L61.0888 55.0824L63.5644 56.4892ZM69.8573 60.0815L70.1062 59.9312L64.2698 56.6121L64.0208 56.7624L69.8573 60.0815ZM71.4063 60.9693L71.6552 60.819L70.5764 60.2044L70.3275 60.3546L71.4063 60.9693ZM78.2108 64.8483L78.4597 64.6981L72.1254 61.0785L71.8765 61.2288L78.2108 64.8483ZM82.7471 67.4298L82.9961 67.2796L78.93 64.9576L78.681 65.1079L82.7471 67.4298Z" fill="#7E94FF"/>
<path d="M74.8504 35.8915L77.0909 37.1754L77.3398 37.0388L75.0855 35.7549L74.8504 35.8915Z" fill="#E6EBFF"/>
<path d="M73.5354 35.1542L74.4758 35.6869L74.7109 35.5503L73.7843 35.0176L73.5354 35.1542Z" fill="#E6EBFF"/>
<path d="M74.8366 37.0664L76.0675 37.763L76.3164 37.6264L75.0855 36.9298L74.8366 37.0664Z" fill="#E6EBFF"/>
<path d="M71.7097 35.2772L74.4758 36.848L74.7109 36.7114L71.9449 35.1406L71.7097 35.2772Z" fill="#E6EBFF"/>
<path d="M69.8157 34.1981L71.337 35.0586L71.5859 34.922L70.0508 34.0615L69.8157 34.1981Z" fill="#E6EBFF"/>
<path d="M88.3348 43.5946L90.5891 44.8785L90.8242 44.7419L88.5837 43.458L88.3348 43.5946Z" fill="#E6EBFF"/>
<path d="M87.0354 42.8436L87.9758 43.3763L88.2109 43.2397L87.2705 42.707L87.0354 42.8436Z" fill="#E6EBFF"/>
<path d="M88.3348 44.7559L89.5657 45.4524L89.8008 45.3159L88.5837 44.6193L88.3348 44.7559Z" fill="#E6EBFF"/>
<path d="M85.2097 42.9667L87.962 44.5511L88.2109 44.4145L85.4449 42.8301L85.2097 42.9667Z" fill="#E6EBFF"/>
<path d="M83.3139 41.8876L84.8352 42.7617L85.0703 42.6251L83.549 41.751L83.3139 41.8876Z" fill="#E6EBFF"/>
<path d="M101.835 51.285L104.075 52.5689L104.324 52.4324L102.07 51.1484L101.835 51.285Z" fill="#E6EBFF"/>
<path d="M100.535 50.5477L101.462 51.0804L101.711 50.9438L100.77 50.4111L100.535 50.5477Z" fill="#E6EBFF"/>
<path d="M101.835 52.4463L103.066 53.1565L103.301 53.0199L102.07 52.3097L101.835 52.4463Z" fill="#E6EBFF"/>
<path d="M98.6959 50.6708L101.462 52.2415L101.711 52.1049L98.9449 50.5342L98.6959 50.6708Z" fill="#E6EBFF"/>
<path d="M96.8 49.5917L98.3352 50.4522L98.5703 50.3156L97.049 49.4414L96.8 49.5917Z" fill="#E6EBFF"/>
<path d="M58.794 35.414L57.978 34.9496L58.1855 34.8267L59.0015 35.2911L58.794 35.414ZM65.8613 39.4433L62.3069 37.4218L62.5144 37.2989L66.0688 39.3204L65.8613 39.4433ZM62.0303 37.2579L59.0706 35.5643L59.2781 35.4413L62.2378 37.135L62.0303 37.2579ZM66.1379 39.5936L66.3454 39.4707L71.3796 42.339L71.1722 42.4619L66.1379 39.5936ZM71.9605 41.9839L70.3009 41.0414L70.5083 40.9185L72.168 41.8609L71.9605 41.9839ZM61.0898 35.7828L58.794 34.4716L59.0015 34.3486L61.2973 35.6599L61.0898 35.7828ZM62.9569 36.8482L61.3665 35.9467L61.5739 35.8238L63.1644 36.7252L62.9569 36.8482ZM65.2113 38.1321L63.2336 37.0121L63.441 36.8892L65.4188 38.0092L65.2113 38.1321ZM70.0243 40.8775L65.4879 38.2823L65.6954 38.1594L70.2317 40.7409L70.0243 40.8638V40.8775Z" fill="#E6EBFF"/>
<path d="M57.396 35.3047L57.1885 35.4276L59.0971 36.5203L59.3046 36.3974L57.396 35.3047ZM62.043 38.8833L61.8355 39.0062L59.8578 37.8862L60.0653 37.7633L62.043 38.8833ZM59.5812 36.5476L63.1356 38.5691L62.9281 38.692L59.3737 36.6706L59.5812 36.5476ZM57.963 36.5476L59.7886 37.5857L59.5812 37.7086L57.7556 36.6706L57.963 36.5476ZM63.2047 38.8423L63.4122 38.7194L70.5625 42.8033L70.355 42.9262L63.2047 38.8423ZM66.9389 41.9018L67.1464 41.7789L69.7188 43.2404L69.5114 43.3633L66.9389 41.9018ZM62.3196 39.0335L66.856 41.6287L66.6485 41.7516L62.1121 39.1564L62.3196 39.0335Z" fill="#E6EBFF"/>
<path d="M81.3105 60.6274L75.5571 57.3493L75.7646 57.2264L81.518 60.5045L81.3105 60.6274ZM81.5871 60.7913L81.7946 60.6684L86.8289 63.5367L86.6214 63.6596L81.5871 60.7913ZM87.4097 63.1816L85.7501 62.2391L85.9575 62.1162L87.6172 63.0586L87.4097 63.1816ZM78.4062 58.0459L76.8157 57.1444L77.0231 57.0215L78.6136 57.923L78.4062 58.0459ZM80.6605 59.3298L78.6828 58.2098L78.8902 58.0869L80.868 59.2069L80.6605 59.3298ZM85.4735 62.0752L80.9371 59.4801L81.1446 59.3571L85.6809 61.9386L85.4735 62.0616V62.0752Z" fill="#E6EBFF"/>
<path d="M78.9877 60.9146L78.7802 61.0376L76.3737 59.6717L76.5812 59.5488L78.9877 60.9146ZM76.3461 58.4697L78.5866 59.7536L78.3792 59.8766L76.1386 58.5927L76.3461 58.4697ZM78.6696 60.0268L78.877 59.9039L86.0273 63.9878L85.8199 64.1108L78.6696 60.0268ZM82.4038 63.0864L82.6112 62.9634L85.1837 64.4249L84.9762 64.5479L82.4038 63.0864ZM79.2781 61.0785L82.3208 62.8132L82.1134 62.9361L79.0707 61.2015L79.2781 61.0785Z" fill="#E6EBFF"/>
<path d="M52.0161 42.7625L51.8086 42.8855L49.0425 41.3011L49.25 41.1781L52.0161 42.7625ZM52.0852 43.0357L52.2927 42.9128L56.0269 45.0435L55.8194 45.1665L52.0852 43.0357ZM54.0076 44.825L53.8002 44.9479L51.8363 43.8279L52.0437 43.705L54.0215 44.825H54.0076ZM51.7533 43.5411L51.5458 43.664L47.5904 41.4103L47.7978 41.2874L51.7533 43.5411ZM56.5248 46.4914L56.7322 46.3684L60.5494 48.5402L60.3419 48.6631L56.5248 46.4914ZM48.1851 40.5771L48.9457 41.0142L48.7383 41.1372L47.9776 40.7001L48.1851 40.5771ZM56.0822 45.3167L56.2897 45.1938L61.3516 48.0758L61.1441 48.1987L56.0822 45.3167ZM54.063 45.0982L54.2704 44.9753L56.4418 46.2182L56.2343 46.3411L54.063 45.0982Z" fill="#E6EBFF"/>
<path d="M53.4394 46.5595L49.885 44.5381L50.0925 44.4151L53.6469 46.4366L53.4394 46.5595ZM49.6084 44.3742L46.9115 42.8444L47.119 42.7214L49.8159 44.2512L49.6084 44.3742ZM53.7161 46.7098L53.9235 46.5869L58.9578 49.4552L58.7503 49.5781L53.7161 46.7098ZM59.5386 49.1001L57.879 48.1576L58.0864 48.0347L59.7461 48.9771L59.5386 49.1001ZM48.668 42.899L46.386 41.5878L46.5934 41.4648L48.8754 42.7761L48.668 42.899ZM50.5351 43.9644L48.9446 43.0629L49.152 42.94L50.7425 43.8415L50.5351 43.9644ZM52.7894 45.2483L50.8117 44.1283L51.0191 44.0054L52.9969 45.1254L52.7894 45.2483ZM57.6024 47.9937L53.066 45.3986L53.2735 45.2756L57.8098 47.8571L57.6024 47.9801V47.9937Z" fill="#E6EBFF"/>
<path d="M89.2739 51.6405L89.0664 51.7634L86.3004 50.179L86.5078 50.0561L89.2739 51.6405ZM89.343 51.9136L89.5505 51.7907L93.2847 53.9215L93.0772 54.0444L89.343 51.9136ZM91.2655 53.7029L91.058 53.8259L89.0941 52.7059L89.3015 52.5829L91.2793 53.7029H91.2655ZM89.0111 52.419L88.8036 52.5419L84.8482 50.2883L85.0556 50.1653L89.0111 52.419ZM93.7826 55.3693L93.99 55.2464L97.8072 57.4181L97.5998 57.541L93.7826 55.3693ZM85.4429 49.4551L86.2035 49.8922L85.9961 50.0151L85.2354 49.578L85.4429 49.4551ZM93.34 54.1947L93.5475 54.0717L98.6094 56.9537L98.4019 57.0766L93.34 54.1947ZM91.3208 53.9761L91.5282 53.8532L93.6996 55.0961L93.4921 55.2191L91.3208 53.9761Z" fill="#E6EBFF"/>
<path d="M90.6973 55.4375L87.1429 53.416L87.3503 53.2931L90.9047 55.3145L90.6973 55.4375ZM86.8663 53.2521L84.1693 51.7223L84.3768 51.5994L87.0737 53.1292L86.8663 53.2521ZM90.9739 55.5877L91.1813 55.4648L96.2156 58.3331L96.0081 58.4561L90.9739 55.5877ZM96.7965 57.978L95.1368 57.0355L95.3443 56.9126L97.0039 57.8551L96.7965 57.978ZM85.9258 51.7769L83.6438 50.4657L83.8512 50.3428L86.1332 51.654L85.9258 51.7769ZM87.7929 52.8423L86.2024 51.9408L86.4099 51.8179L88.0003 52.7194L87.7929 52.8423ZM90.0472 54.1262L88.0695 53.0062L88.2769 52.8833L90.2547 54.0033L90.0472 54.1262ZM94.8602 56.8716L90.3238 54.2901L90.5313 54.1672L95.0677 56.7624L94.8602 56.8853V56.8716Z" fill="#E6EBFF"/>
</g>
<defs>
<linearGradient id="paint0_linear_0_243" x1="55.7917" y1="46.5596" x2="81.2951" y2="91.3082" gradientUnits="userSpaceOnUse">
<stop offset="0.82" stop-color="#E8ECFF"/>
<stop offset="1" stop-color="#FFFCF8"/>
</linearGradient>
<linearGradient id="paint1_linear_0_243" x1="51.572" y1="91.6743" x2="67.1828" y2="54.0556" gradientUnits="userSpaceOnUse">
<stop offset="0.82" stop-color="#E8ECFF"/>
<stop offset="1" stop-color="#FFFCF8"/>
</linearGradient>
<linearGradient id="paint2_linear_0_243" x1="117.445" y1="65.368" x2="-0.00212097" y2="65.368" gradientUnits="userSpaceOnUse">
<stop offset="0.82" stop-color="#E8ECFF"/>
<stop offset="1" stop-color="#FFFCF8"/>
</linearGradient>
<clipPath id="clip0_0_243">
<rect width="128" height="75" fill="white" transform="matrix(-1 0 0 1 128 27)"/>
</clipPath>
</defs>
</svg>
