<svg width="128" height="128" viewBox="0 0 128 128" fill="none" xmlns="http://www.w3.org/2000/svg">
<g clip-path="url(#clip0_0_2650)">
<g style="mix-blend-mode:multiply" opacity="0.5">
<path d="M126.47 96.6028L47.3021 50.1503C45.6777 49.1941 43.2333 49.0029 41.2619 49.5766C39.2906 49.0189 36.862 49.1941 35.2218 50.1503L2.56108 69.1934C0.495146 70.4046 0.479376 72.3646 2.54531 73.5598L81.7133 120.028C82.8488 120.698 84.3943 120.984 85.8767 120.905C87.1226 120.841 88.3685 120.841 89.6144 120.905C91.1126 120.984 92.6423 120.698 93.7935 120.028L126.454 100.985C128.52 99.774 128.536 97.8139 126.486 96.6188L126.47 96.6028Z" fill="#FFB370"/>
</g>
<path d="M128 94.4185V98.8327C128 99.6295 127.48 100.426 126.439 101.032L93.7783 120.091C91.7123 121.302 88.369 121.302 86.3188 120.091L7.13503 73.6225C6.10994 73.0169 5.60529 72.2361 5.60529 71.4552V67.041L128 94.4185Z" fill="url(#paint0_linear_0_2650)"/>
<path d="M80.7516 116.824L79.7108 116.218V108.426L80.7516 109.031V116.824Z" fill="#FFF7EF"/>
<path d="M13.9158 77.5907L12.8592 76.9852V69.4316L13.9158 70.0372V77.5907Z" fill="#FFF7EF"/>
<path d="M7.16655 64.8421C5.10062 66.0532 5.08484 68.0133 7.15078 69.2085L86.3188 115.677C88.369 116.888 91.7123 116.888 93.7783 115.677L126.439 96.6338C128.505 95.4227 128.521 93.4626 126.471 92.2674L47.3025 45.799C45.2524 44.5878 41.909 44.5878 39.8273 45.799L7.16655 64.8421Z" fill="#FFDCC1"/>
<path d="M90.0568 116.219C91.3973 116.219 92.6747 115.917 93.6052 115.359L126.266 96.3158C127.149 95.8058 127.638 95.1365 127.638 94.4354C127.638 93.7501 127.165 93.0968 126.282 92.5709L47.1137 46.1183C46.1675 45.5606 44.9216 45.2578 43.5653 45.2578C42.2091 45.2578 40.9632 45.5606 40.017 46.1183L7.35623 65.1615C6.47308 65.6714 5.98419 66.3407 5.98419 67.0419C5.98419 67.7271 6.45731 68.3805 7.34046 68.9064L86.5085 115.375C87.4547 115.933 88.7006 116.235 90.0568 116.235V116.219Z" fill="#FF800F"/>
<path d="M60.6126 103.948L70.2168 109.558C70.8792 109.956 71.4312 109.717 71.4312 109.032C71.4312 108.347 70.895 107.486 70.2168 107.104L60.6126 101.494C59.9502 101.096 59.3983 101.335 59.3983 102.004C59.3983 102.674 59.9345 103.55 60.6126 103.933V103.948Z" fill="#FFE7D3"/>
<path d="M98.4302 114.865C98.6194 114.865 98.6825 115.072 98.5721 115.327C98.4617 115.582 98.2252 115.79 98.0359 115.79C97.8467 115.79 97.7836 115.582 97.894 115.327C98.0044 115.072 98.2409 114.865 98.4302 114.865ZM99.6445 114.292C99.5341 114.547 99.5972 114.754 99.7864 114.754C99.9757 114.754 100.212 114.547 100.323 114.292C100.433 114.037 100.37 113.829 100.181 113.829C99.9915 113.829 99.7549 114.037 99.6445 114.292ZM101.411 113.256C101.3 113.511 101.363 113.718 101.553 113.718C101.742 113.718 101.979 113.511 102.089 113.256C102.199 113.001 102.136 112.794 101.947 112.794C101.758 112.794 101.521 113.001 101.411 113.256ZM103.177 112.22C103.067 112.475 103.13 112.682 103.319 112.682C103.508 112.682 103.745 112.475 103.855 112.22C103.966 111.965 103.903 111.758 103.713 111.758C103.524 111.758 103.288 111.965 103.177 112.22Z" fill="#FFD4AF"/>
<path d="M116.125 104.539C116.315 104.539 116.378 104.746 116.267 105.001C116.157 105.256 115.92 105.463 115.731 105.463C115.542 105.463 115.479 105.256 115.589 105.001C115.7 104.746 115.936 104.539 116.125 104.539ZM117.34 103.965C117.229 104.22 117.293 104.428 117.482 104.428C117.671 104.428 117.908 104.22 118.018 103.965C118.128 103.71 118.065 103.503 117.876 103.503C117.687 103.503 117.45 103.71 117.34 103.965ZM119.106 102.93C118.996 103.185 119.059 103.392 119.248 103.392C119.437 103.392 119.674 103.185 119.784 102.93C119.895 102.675 119.832 102.467 119.642 102.467C119.453 102.467 119.217 102.675 119.106 102.93ZM120.872 101.894C120.762 102.149 120.825 102.356 121.014 102.356C121.204 102.356 121.44 102.149 121.551 101.894C121.661 101.639 121.598 101.432 121.409 101.432C121.219 101.432 120.983 101.639 120.872 101.894Z" fill="#FFD4AF"/>
<path d="M107.925 110.338L111.189 108.442C111.599 108.203 111.93 107.677 111.93 107.263C111.93 106.848 111.599 106.705 111.189 106.944L107.925 108.84C107.515 109.079 107.183 109.605 107.183 110.019C107.183 110.434 107.515 110.577 107.925 110.338Z" fill="#FFD4AF"/>
<path d="M24.7795 80.8425L25.0949 80.6513C24.8268 80.4919 24.5903 80.476 24.4168 80.5875L24.1014 80.7788C24.2749 80.6832 24.5114 80.6991 24.7795 80.8425Z" fill="#FFF1E5"/>
<path d="M35.2527 86.945L35.5681 86.7538L25.0965 80.6504L24.7811 80.8416L35.2527 86.945Z" fill="#FFEEE0"/>
<path d="M35.9162 89.208L36.2316 89.0168C36.4051 88.9212 36.4997 88.6981 36.4997 88.4112C36.4997 87.8057 36.0739 87.0567 35.5535 86.7539L35.2381 86.9451C35.7585 87.2479 36.1843 87.9969 36.1843 88.6025C36.1843 88.9052 36.0739 89.1124 35.9005 89.208H35.9162Z" fill="#FFF1E5"/>
<path d="M24.782 80.8419C24.2616 80.5392 23.8358 80.7782 23.8358 81.3838C23.8358 81.9893 24.2616 82.7383 24.782 83.0411L35.2536 89.1444C35.774 89.4472 36.1998 89.2082 36.1998 88.6026C36.1998 87.9971 35.774 87.2481 35.2536 86.9453L24.782 80.8419Z" fill="#FFDFC3"/>
<path d="M21.0311 61.9582L36.1866 53.1138C37.669 52.2533 37.669 50.851 36.1866 49.9905L34.783 49.1777L14.2498 61.1614L15.6534 61.9741C17.1358 62.8346 19.5329 62.8346 21.0154 61.9741L21.0311 61.9582Z" fill="#FFDCBD"/>
<path d="M22.9703 58.1505C23.2226 58.2939 23.6169 58.2939 23.8692 58.1505L29.657 54.7721C29.9093 54.6287 29.9093 54.3897 29.657 54.2462C29.4047 54.1028 29.0104 54.1028 28.7581 54.2462L22.9703 57.6246C22.718 57.768 22.718 58.0071 22.9703 58.1505Z" fill="#FFDAB9"/>
<path d="M19.1042 59.744C18.9622 60.0468 19.2777 60.3655 19.7981 60.4452C20.3185 60.5248 20.8705 60.3496 21.0124 60.0308C21.1543 59.7281 20.8389 59.4093 20.3185 59.3297C19.7981 59.25 19.2461 59.4253 19.1042 59.744Z" fill="#FFDAB9"/>
<path d="M90.0588 110.881C88.6868 110.881 87.3936 110.562 86.4316 110.004L7.24778 63.5356C6.31732 62.9938 5.79689 62.2767 5.81267 61.5277C5.81267 60.7788 6.33309 60.0457 7.27932 59.5039L39.9401 40.4448C40.9178 39.8711 42.211 39.5684 43.5831 39.5684C44.9551 39.5684 46.2483 39.8871 47.2103 40.4448L126.378 86.9133C127.309 87.4551 127.813 88.1722 127.813 88.9212C127.813 89.6861 127.293 90.4032 126.347 90.945L93.686 109.988C92.7082 110.562 91.4151 110.865 90.043 110.865L90.0588 110.881ZM43.5673 39.9189C42.2583 39.9189 41.0125 40.2217 40.0978 40.7476L7.43703 59.8067C6.60119 60.2848 6.14385 60.9063 6.14385 61.5277C6.14385 62.1492 6.58542 62.7548 7.40549 63.2329L86.5735 109.701C87.4882 110.243 88.7183 110.53 90.0273 110.53C91.3362 110.53 92.5821 110.227 93.4968 109.701L126.158 90.6423C126.993 90.1642 127.451 89.5427 127.451 88.9212C127.451 88.2997 126.993 87.6942 126.189 87.2161L47.021 40.7635C46.1063 40.2217 44.8762 39.9349 43.5673 39.9349V39.9189Z" fill="#FFF4EB"/>
<path d="M90.0568 104.905C91.3973 104.905 92.6747 104.602 93.6052 104.044L126.266 85.0013C127.149 84.4914 127.638 83.8221 127.638 83.1209C127.638 82.4357 127.165 81.7823 126.282 81.2564L47.1137 34.8039C46.1675 34.2461 44.9216 33.9434 43.5653 33.9434C42.2091 33.9434 40.9632 34.2461 40.017 34.8039L7.35623 53.847C6.47308 54.357 5.98419 55.0263 5.98419 55.7275C5.98419 56.4127 6.45731 57.066 7.34046 57.5919L86.5085 104.06C87.4547 104.618 88.7006 104.921 90.0568 104.921V104.905Z" fill="#FFC898"/>
<path d="M56.1358 40.3015L63.3272 36.1104C64.368 35.5049 66.0397 35.5049 67.0806 36.1104L74.2246 40.3015C75.2497 40.9071 75.2497 41.8951 74.2246 42.5006L67.0332 46.6917C65.9924 47.2973 64.3207 47.2973 63.2799 46.6917L56.1358 42.5006C55.1107 41.8951 55.1107 40.9071 56.1358 40.3015Z" fill="#FFC897"/>
<g style="mix-blend-mode:screen">
<path d="M40.4718 31.155L47.6631 26.9639C48.704 26.3584 50.3756 26.3584 51.4165 26.9639L58.5605 31.155C59.5856 31.7606 59.5856 32.7486 58.5605 33.3541L51.3692 37.5452C50.3283 38.1508 48.6567 38.1508 47.6158 37.5452L40.4718 33.3541C39.4467 32.7486 39.4467 31.7606 40.4718 31.155Z" fill="#FFDAB9"/>
</g>
<g style="mix-blend-mode:color-dodge">
<path d="M40.6319 49.3523L47.8233 45.1612C48.8641 44.5556 50.5358 44.5556 51.5767 45.1612L58.7207 49.3523C59.7458 49.9578 59.7458 50.9459 58.7207 51.5514L51.5293 55.7425C50.4885 56.3481 48.8168 56.3481 47.776 55.7425L40.6319 51.5514C39.6068 50.9459 39.6068 49.9578 40.6319 49.3523Z" fill="#FFC897"/>
</g>
<g style="mix-blend-mode:screen">
<path d="M24.9719 40.206L32.1632 36.015C33.2041 35.4094 34.8758 35.4094 35.9166 36.015L43.0607 40.206C44.0857 40.8116 44.0857 41.7996 43.0607 42.4052L35.8693 46.5963C34.8285 47.2018 33.1568 47.2018 32.1159 46.5963L24.9719 42.4052C23.9468 41.7996 23.9468 40.8116 24.9719 40.206Z" fill="#FFDAB9"/>
</g>
<g style="mix-blend-mode:color-dodge">
<path d="M25.128 58.3894L32.3194 54.1983C33.3602 53.5928 35.0319 53.5928 36.0727 54.1983L43.2168 58.3894C44.2419 58.995 44.2419 59.983 43.2168 60.5885L36.0254 64.7796C34.9846 65.3852 33.3129 65.3852 32.2721 64.7796L25.128 60.5885C24.1029 59.983 24.1029 58.995 25.128 58.3894Z" fill="#FFC897"/>
</g>
<g style="mix-blend-mode:screen">
<path d="M9.47175 49.2566L16.6631 45.0655C17.704 44.4599 19.3756 44.4599 20.4165 45.0655L27.5605 49.2566C28.5856 49.8621 28.5856 50.8502 27.5605 51.4557L20.3692 55.6468C19.3283 56.2524 17.6567 56.2524 16.6158 55.6468L9.47175 51.4557C8.44667 50.8502 8.44667 49.8621 9.47175 49.2566Z" fill="#FFDAB9"/>
</g>
<path d="M56.1318 40.3496L63.2759 44.5406C64.3009 45.1462 65.9884 45.1462 67.0292 44.5406L74.2206 40.3496C74.741 40.0468 75.0091 39.6484 75.0091 39.25V40.7639C75.0091 41.1623 74.7568 41.5607 74.2364 41.8635L67.045 46.0545C66.0041 46.6601 64.3325 46.6601 63.2916 46.0545L56.1476 41.8635C55.6271 41.5607 55.3748 41.1623 55.3748 40.7798V39.2659C55.3748 39.6643 55.6271 40.0468 56.1476 40.3496H56.1318Z" fill="#FFF4EB"/>
<path d="M65.2157 33.8643C65.8623 33.8643 66.4616 34.0077 66.9031 34.2786L74.0472 38.4697C74.4257 38.6928 74.6465 38.9796 74.6465 39.2505C74.6465 39.5374 74.4257 39.8242 74.0472 40.0473L66.8558 44.2384C66.4142 44.4934 65.7992 44.6527 65.1526 44.6527C64.506 44.6527 63.9067 44.5093 63.4494 44.2384L56.3053 40.0473C55.9269 39.8242 55.7061 39.5374 55.7061 39.2665C55.7061 38.9796 55.9269 38.6928 56.3053 38.4697L63.4967 34.2786C63.9541 34.0236 64.5533 33.8643 65.1999 33.8643H65.2157ZM65.2157 33.5137C64.5376 33.5137 63.8594 33.673 63.339 33.9758L56.1476 38.1669C55.1068 38.7725 55.1068 39.7605 56.1476 40.366L63.2917 44.5571C63.8121 44.8599 64.4902 45.0192 65.1684 45.0192C65.8465 45.0192 66.5246 44.8599 67.0451 44.573L74.2364 40.382C75.2773 39.7764 75.2773 38.7884 74.2364 38.1828L67.0924 33.9917C66.572 33.689 65.8938 33.5296 65.2157 33.5296V33.5137Z" fill="#FFF4EB"/>
<path d="M40.4599 19.0117L47.604 23.2028C48.6291 23.8083 50.3165 23.8083 51.3574 23.2028L58.5487 19.0117C59.0691 18.7089 59.3372 18.3105 59.3372 17.9121V19.426C59.3372 19.8244 59.0849 20.2228 58.5645 20.5256L51.3731 24.7167C50.3323 25.3222 48.6606 25.3222 47.6197 24.7167L40.4757 20.5256C39.9553 20.2228 39.7029 19.8244 39.7029 19.4419V17.928C39.7029 18.3264 39.9553 18.7089 40.4757 19.0117H40.4599Z" fill="#FFF4EB"/>
<path d="M40.4755 16.8288L47.6669 12.6378C48.7078 12.0322 50.3794 12.0322 51.4203 12.6378L58.5643 16.8288C59.5894 17.4344 59.5894 18.4224 58.5643 19.028L51.373 23.2191C50.3321 23.8246 48.6604 23.8246 47.6196 23.2191L40.4755 19.028C39.4505 18.4224 39.4505 17.4344 40.4755 16.8288Z" fill="#FFC897"/>
<path d="M40.6318 49.3847L47.7758 53.5758C48.8009 54.1814 50.4884 54.1814 51.5292 53.5758L58.7206 49.3847C59.241 49.0819 59.5091 48.6835 59.5091 48.2852V49.799C59.5091 50.1974 59.2568 50.5958 58.7364 50.8986L51.545 55.0897C50.5041 55.6953 48.8325 55.6953 47.7916 55.0897L40.6476 50.8986C40.1271 50.5958 39.8748 50.1974 39.8748 49.815V48.3011C39.8748 48.6995 40.1271 49.0819 40.6476 49.3847H40.6318Z" fill="#FFF4EB"/>
<path d="M49.7157 42.8994C50.3623 42.8994 50.9616 43.0428 51.4031 43.3137L58.5472 47.5048C58.9257 47.7279 59.1465 48.0148 59.1465 48.2857C59.1465 48.5725 58.9257 48.8594 58.5472 49.0825L51.3558 53.2735C50.9143 53.5285 50.2992 53.6879 49.6526 53.6879C49.006 53.6879 48.4067 53.5445 47.9494 53.2735L40.8054 49.0825C40.4269 48.8594 40.2061 48.5725 40.2061 48.3016C40.2061 48.0148 40.4269 47.7279 40.8054 47.5048L47.9967 43.3137C48.4541 43.0588 49.0533 42.8994 49.6999 42.8994H49.7157ZM49.7157 42.5488C49.0376 42.5488 48.3594 42.7082 47.839 43.011L40.6476 47.2021C39.6068 47.8076 39.6068 48.7956 40.6476 49.4012L47.7917 53.5923C48.3121 53.895 48.9903 54.0544 49.6684 54.0544C50.3465 54.0544 51.0246 53.895 51.5451 53.6082L58.7364 49.4171C59.7773 48.8116 59.7773 47.8235 58.7364 47.218L51.5924 43.0269C51.072 42.7241 50.3938 42.5648 49.7157 42.5648V42.5488Z" fill="#FFF4EB"/>
<path d="M24.956 33.5917L32.1001 37.7828C33.1251 38.3884 34.8126 38.3884 35.8535 37.7828L43.0448 33.5917C43.5652 33.289 43.8333 32.8906 43.8333 32.4922V34.0061C43.8333 34.4045 43.581 34.8029 43.0606 35.1056L35.8692 39.2967C34.8284 39.9023 33.1567 39.9023 32.1158 39.2967L24.9718 35.1056C24.4514 34.8029 24.199 34.4045 24.199 34.022V32.5081C24.199 32.9065 24.4514 33.289 24.9718 33.5917H24.956Z" fill="#FFF4EB"/>
<path d="M24.9716 31.3933L32.163 27.2022C33.2038 26.5967 34.8755 26.5967 35.9164 27.2022L43.0604 31.3933C44.0855 31.9989 44.0855 32.9869 43.0604 33.5924L35.8691 37.7835C34.8282 38.3891 33.1565 38.3891 32.1157 37.7835L24.9716 33.5924C23.9465 32.9869 23.9465 31.9989 24.9716 31.3933Z" fill="#FFC897"/>
<path d="M25.1318 58.4355L32.2758 62.6266C33.3009 63.2321 34.9884 63.2321 36.0292 62.6266L43.2206 58.4355C43.741 58.1327 44.0091 57.7343 44.0091 57.3359V58.8498C44.0091 59.2482 43.7568 59.6466 43.2364 59.9494L36.045 64.1405C35.0041 64.746 33.3325 64.746 32.2916 64.1405L25.1476 59.9494C24.6271 59.6466 24.3748 59.2482 24.3748 58.8658V57.3519C24.3748 57.7503 24.6271 58.1327 25.1476 58.4355H25.1318Z" fill="#FFF4EB"/>
<path d="M34.2157 51.9502C34.8623 51.9502 35.4616 52.0936 35.9031 52.3645L43.0472 56.5556C43.4257 56.7787 43.6465 57.0655 43.6465 57.3365C43.6465 57.6233 43.4257 57.9101 43.0472 58.1332L35.8558 62.3243C35.4143 62.5793 34.7992 62.7227 34.1526 62.7227C33.506 62.7227 32.9067 62.5793 32.4494 62.3084L25.3053 58.1173C24.9269 57.8942 24.7061 57.6074 24.7061 57.3365C24.7061 57.0496 24.9269 56.7628 25.3053 56.5397L32.4967 52.3486C32.9541 52.0936 33.5533 51.9343 34.1999 51.9343L34.2157 51.9502ZM34.2157 51.5996C33.5376 51.5996 32.8594 51.759 32.339 52.0617L25.1476 56.2528C24.1068 56.8584 24.1068 57.8464 25.1476 58.452L32.2917 62.643C32.8121 62.9458 33.4903 63.1052 34.1684 63.1052C34.8465 63.1052 35.5246 62.9458 36.0451 62.659L43.2364 58.4679C44.2773 57.8623 44.2773 56.8743 43.2364 56.2688L36.0924 52.0777C35.572 51.7749 34.8938 51.6155 34.2157 51.6155V51.5996Z" fill="#FFF4EB"/>
<path d="M9.45211 48.205L16.5962 52.3961C17.6212 53.0017 19.3087 53.0017 20.3495 52.3961L27.5409 48.205C28.0613 47.9023 28.3294 47.5039 28.3294 47.1055V48.6194C28.3294 49.0177 28.0771 49.4161 27.5567 49.7189L20.3653 53.91C19.3245 54.5156 17.6528 54.5156 16.6119 53.91L9.46788 49.7189C8.94746 49.4161 8.69513 49.0178 8.69513 48.6353V47.1214C8.69513 47.5198 8.94746 47.9023 9.46788 48.205H9.45211Z" fill="#FFF4EB"/>
<path d="M9.46773 46.0222L16.6591 41.8311C17.6999 41.2256 19.3716 41.2256 20.4125 41.8311L27.5565 46.0222C28.5816 46.6278 28.5816 47.6158 27.5565 48.2213L20.3652 52.4124C19.3243 53.018 17.6526 53.018 16.6118 52.4124L9.46773 48.2213C8.44264 47.6158 8.44264 46.6278 9.46773 46.0222Z" fill="#FFC897"/>
<path d="M72.6007 49.9109L79.792 45.7198C80.8329 45.1142 82.5045 45.1142 83.5454 45.7198L90.6894 49.9109C91.7145 50.5164 91.7145 51.5044 90.6894 52.11L83.4981 56.3011C82.4572 56.9066 80.7856 56.9066 79.7447 56.3011L72.6007 52.11C71.5756 51.5044 71.5756 50.5164 72.6007 49.9109Z" fill="#FFC897"/>
<g style="mix-blend-mode:color-dodge">
<path d="M57.0968 58.946L64.2881 54.7549C65.329 54.1494 67.0006 54.1494 68.0415 54.7549L75.1855 58.946C76.2106 59.5516 76.2106 60.5396 75.1855 61.1452L67.9942 65.3362C66.9533 65.9418 65.2817 65.9418 64.2408 65.3362L57.0968 61.1452C56.0717 60.5396 56.0717 59.5516 57.0968 58.946Z" fill="#FFC897"/>
</g>
<g style="mix-blend-mode:color-dodge">
<path d="M41.5968 67.9988L48.7881 63.8077C49.829 63.2021 51.5006 63.2021 52.5415 63.8077L59.6855 67.9988C60.7106 68.6043 60.7106 69.5923 59.6855 70.1979L52.4942 74.389C51.4533 74.9945 49.7817 74.9945 48.7408 74.389L41.5968 70.1979C40.5717 69.5923 40.5717 68.6043 41.5968 67.9988Z" fill="#FFC897"/>
</g>
<path d="M88.7296 59.3132L95.9209 55.1221C96.9618 54.5166 98.6335 54.5166 99.6743 55.1221L106.818 59.3132C107.843 59.9188 107.843 60.9068 106.818 61.5124L99.627 65.7034C98.5861 66.309 96.9145 66.309 95.8736 65.7034L88.7296 61.5124C87.7045 60.9068 87.7045 59.9188 88.7296 59.3132Z" fill="#FFC897"/>
<g style="mix-blend-mode:color-dodge">
<path d="M73.2296 68.364L80.4209 64.1729C81.4618 63.5674 83.1335 63.5674 84.1743 64.1729L91.3184 68.364C92.3434 68.9696 92.3434 69.9576 91.3184 70.5631L84.127 74.7542C83.0861 75.3598 81.4145 75.3598 80.3736 74.7542L73.2296 70.5631C72.2045 69.9576 72.2045 68.9696 73.2296 68.364Z" fill="#FFC897"/>
</g>
<g style="mix-blend-mode:color-dodge">
<path d="M57.7296 77.3992L64.9209 73.2081C65.9618 72.6025 67.6335 72.6025 68.6743 73.2081L75.8184 77.3992C76.8434 78.0047 76.8434 78.9927 75.8184 79.5983L68.627 83.7894C67.5861 84.3949 65.9145 84.3949 64.8736 83.7894L57.7296 79.5983C56.7045 78.9927 56.7045 78.0047 57.7296 77.3992Z" fill="#FFC897"/>
</g>
<path d="M105.261 68.9539L112.452 64.7628C113.493 64.1572 115.165 64.1572 116.206 64.7628L123.35 68.9539C124.375 69.5594 124.375 70.5474 123.35 71.153L116.158 75.3441C115.117 75.9496 113.446 75.9496 112.405 75.3441L105.261 71.153C104.236 70.5474 104.236 69.5594 105.261 68.9539Z" fill="#FFC897"/>
<g style="mix-blend-mode:color-dodge">
<path d="M89.7569 78.0046L96.9483 73.8135C97.9891 73.208 99.6608 73.208 100.702 73.8135L107.846 78.0046C108.871 78.6102 108.871 79.5982 107.846 80.2038L100.654 84.3948C99.6135 85.0004 97.9418 85.0004 96.901 84.3948L89.7569 80.2038C88.7318 79.5982 88.7318 78.6102 89.7569 78.0046Z" fill="#FFC897"/>
</g>
<g style="mix-blend-mode:color-dodge">
<path d="M74.253 87.0417L81.4444 82.8507C82.4852 82.2451 84.1569 82.2451 85.1977 82.8507L92.3418 87.0417C93.3669 87.6473 93.3669 88.6353 92.3418 89.2409L85.1504 93.432C84.1096 94.0375 82.4379 94.0375 81.397 93.432L74.253 89.2409C73.2279 88.6353 73.2279 87.6473 74.253 87.0417Z" fill="#FFC897"/>
</g>
<path d="M72.5849 49.9414L79.729 54.1324C80.7541 54.738 82.4415 54.738 83.4824 54.1324L90.6737 49.9414C91.1941 49.6386 91.4622 49.2402 91.4622 48.8418V50.3557C91.4622 50.7541 91.2099 51.1525 90.6895 51.4553L83.4981 55.6463C82.4573 56.2519 80.7856 56.2519 79.7447 55.6463L72.6007 51.4553C72.0803 51.1525 71.8279 50.7541 71.8279 50.3716V48.8577C71.8279 49.2561 72.0803 49.6386 72.6007 49.9414H72.5849Z" fill="#FFF4EB"/>
<path d="M81.6688 43.4561C82.3154 43.4561 82.9147 43.5995 83.3563 43.8704L90.5003 48.0615C90.8788 48.2846 91.0996 48.5714 91.0996 48.8423C91.0996 49.1292 90.8788 49.416 90.5003 49.6391L83.3089 53.8302C82.8674 54.0852 82.2523 54.2445 81.6057 54.2445C80.9591 54.2445 80.3599 54.1011 79.9025 53.8302L72.7585 49.6391C72.38 49.416 72.1592 49.1292 72.1592 48.8583C72.1592 48.5714 72.38 48.2846 72.7585 48.0615L79.9498 43.8704C80.4072 43.6154 81.0065 43.4561 81.653 43.4561H81.6688ZM81.6688 43.1055C80.9907 43.1055 80.3126 43.2648 79.7921 43.5676L72.6008 47.7587C71.5599 48.3642 71.5599 49.3523 72.6008 49.9578L79.7448 54.1489C80.2652 54.4517 80.9434 54.611 81.6215 54.611C82.2996 54.611 82.9778 54.4676 83.4982 54.1648L90.6896 49.9738C91.7304 49.3682 91.7304 48.3802 90.6896 47.7746L83.5455 43.5835C83.0251 43.2808 82.347 43.1214 81.6688 43.1214V43.1055Z" fill="#FFF4EB"/>
<path d="M57.081 58.9941L64.2251 63.1852C65.2501 63.7907 66.9376 63.7907 67.9784 63.1852L75.1698 58.9941C75.6902 58.6913 75.9583 58.2929 75.9583 57.8945V59.4084C75.9583 59.8068 75.706 60.2052 75.1856 60.508L67.9942 64.6991C66.9534 65.3046 65.2817 65.3046 64.2408 64.6991L57.0968 60.508C56.5764 60.2052 56.324 59.8068 56.324 59.4244V57.9105C56.324 58.3089 56.5764 58.6913 57.0968 58.9941H57.081Z" fill="#FFF4EB"/>
<path d="M66.1649 52.5088C66.8115 52.5088 67.4108 52.6522 67.8524 52.9072L74.9964 57.0983C75.3749 57.3214 75.5957 57.6082 75.5957 57.8791C75.5957 58.166 75.3749 58.4528 74.9964 58.6759L67.805 62.867C67.3635 63.122 66.7484 63.2813 66.1018 63.2813C65.4552 63.2813 64.856 63.1379 64.3986 62.867L57.2546 58.6759C56.8761 58.4528 56.6553 58.166 56.6553 57.8951C56.6553 57.6082 56.8761 57.3214 57.2546 57.0983L64.4459 52.9072C64.9033 52.6522 65.5026 52.4929 66.1491 52.4929L66.1649 52.5088ZM66.1649 52.1582C65.4868 52.1582 64.8087 52.3176 64.2882 52.6203L57.0969 56.8114C56.056 57.417 56.056 58.405 57.0969 59.0105L64.2409 63.2016C64.7613 63.5044 65.4395 63.6638 66.1176 63.6638C66.7957 63.6638 67.4739 63.5044 67.9943 63.2176L75.1857 59.0265C76.2265 58.4209 76.2265 57.4329 75.1857 56.8274L68.0416 52.6363C67.5212 52.3335 66.843 52.1741 66.1649 52.1741V52.1582Z" fill="#FFF4EB"/>
<path d="M41.5771 68.0449L48.7212 72.236C49.7462 72.8415 51.4337 72.8415 52.4745 72.236L59.6659 68.0449C60.1863 67.7421 60.4544 67.3437 60.4544 66.9453V68.4592C60.4544 68.8576 60.2021 69.256 59.6817 69.5588L52.4903 73.7498C51.4495 74.3554 49.7778 74.3554 48.7369 73.7498L41.5929 69.5588C41.0725 69.256 40.8201 68.8576 40.8201 68.4751V66.9612C40.8201 67.3596 41.0725 67.7421 41.5929 68.0449H41.5771Z" fill="#FFF4EB"/>
<path d="M50.661 61.5439C51.3076 61.5439 51.9069 61.6874 52.3485 61.9583L59.4925 66.1494C59.871 66.3725 60.0918 66.6593 60.0918 66.9302C60.0918 67.217 59.871 67.5039 59.4925 67.727L52.3011 71.9181C51.8596 72.1731 51.2445 72.3324 50.5979 72.3324C49.9513 72.3324 49.3521 72.189 48.8947 71.9181L41.7507 67.727C41.3722 67.5039 41.1514 67.2171 41.1514 66.9461C41.1514 66.6593 41.3722 66.3725 41.7507 66.1494L48.942 61.9583C49.3994 61.7033 49.9986 61.5439 50.6452 61.5439H50.661ZM50.661 61.1934C49.9829 61.1934 49.3047 61.3527 48.7843 61.6555L41.593 65.8466C40.5521 66.4521 40.5521 67.4401 41.593 68.0457L48.737 72.2368C49.2574 72.5396 49.9356 72.6989 50.6137 72.6989C51.2918 72.6989 51.97 72.5555 52.4904 72.2527L59.6817 68.0616C60.7226 67.4561 60.7226 66.4681 59.6817 65.8625L52.5377 61.6714C52.0173 61.3687 51.3391 61.2093 50.661 61.2093V61.1934Z" fill="#FFF4EB"/>
<path d="M49.4784 19.8402C48.7687 19.8402 48.059 19.6809 47.5228 19.3621L40.3788 15.1711C39.8268 14.8523 39.5272 14.4061 39.5272 13.9281C39.5272 13.45 39.8426 13.0038 40.3945 12.6692L47.5701 8.47807C48.6583 7.84064 50.4246 7.84064 51.497 8.47807L58.641 12.6692C59.193 12.9879 59.4926 13.4341 59.4926 13.9121C59.4926 14.3902 59.1772 14.8364 58.6253 15.1711L51.4339 19.3621C50.8977 19.6809 50.188 19.8402 49.4626 19.8402H49.4784ZM49.5414 8.35059C48.8949 8.35059 48.2483 8.49401 47.7594 8.78085L40.568 12.9719C40.1264 13.2269 39.8741 13.5616 39.8741 13.9121C39.8741 14.2627 40.1107 14.5974 40.5522 14.8523L47.6963 19.0434C48.6741 19.6171 50.2827 19.6171 51.2762 19.0434L58.4676 14.8523C58.9091 14.5974 59.1615 14.2627 59.1615 13.9121C59.1615 13.5616 58.9249 13.2269 58.4833 12.9719L51.3235 8.78085C50.8346 8.49401 50.188 8.35059 49.5414 8.35059Z" fill="#FFF4EB"/>
<path d="M33.9745 34.4223C33.2648 34.4223 32.5551 34.2629 32.0189 33.9442L24.8749 29.7531C24.3229 29.4344 24.0233 28.9882 24.0233 28.5101C24.0233 28.032 24.3387 27.5858 24.8906 27.2512L32.082 23.0601C33.1702 22.4227 34.9365 22.4227 36.0089 23.0601L43.1529 27.2512C43.7049 27.5699 44.0045 28.0161 44.0045 28.4942C44.0045 28.9722 43.6891 29.4184 43.1371 29.7531L35.9458 33.9442C35.4096 34.2629 34.6999 34.4223 33.9745 34.4223ZM25.0483 27.554C24.6068 27.8089 24.3544 28.1436 24.3544 28.4942C24.3544 28.8448 24.591 29.1794 25.0326 29.4344L32.1766 33.6255C33.1544 34.1992 34.763 34.1992 35.7565 33.6255L42.9479 29.4344C43.3895 29.1794 43.6418 28.8448 43.6418 28.4942C43.6418 28.1436 43.4052 27.8089 42.9636 27.554L35.8196 23.3629C34.8418 22.7892 33.2332 22.7892 32.2397 23.3629L25.0483 27.554Z" fill="#FFF4EB"/>
<path d="M18.4745 49.0336C17.7648 49.0336 17.0551 48.8742 16.5189 48.5555L9.37486 44.3644C8.82289 44.0457 8.52325 43.5995 8.52325 43.1214C8.52325 42.6434 8.83867 42.1972 9.39063 41.8625L16.582 37.6714C17.6702 37.034 19.4365 37.034 20.5088 37.6714L27.6529 41.8625C28.2049 42.1812 28.5045 42.6274 28.5045 43.1055C28.5045 43.5836 28.1891 44.0298 27.6371 44.3644L20.4458 48.5555C19.9096 48.8742 19.1999 49.0336 18.4902 49.0336H18.4745ZM18.5375 37.5439C17.8909 37.5439 17.2444 37.6874 16.7555 37.9742L9.56411 42.1653C9.12253 42.4203 8.87021 42.7549 8.87021 43.1055C8.87021 43.4561 9.10676 43.7907 9.54834 44.0457L16.6924 48.2368C17.6702 48.8105 19.2787 48.8105 20.2565 48.2368L27.4479 44.0457C27.8895 43.7907 28.1418 43.4561 28.1418 43.1055C28.1418 42.7549 27.9052 42.4203 27.4636 42.1653L20.3196 37.9742C19.8307 37.6874 19.1841 37.5439 18.5375 37.5439Z" fill="#FFF4EB"/>
</g>
<defs>
<linearGradient id="paint0_linear_0_2650" x1="54.1312" y1="94.0201" x2="129.404" y2="94.0201" gradientUnits="userSpaceOnUse">
<stop offset="0.4" stop-color="#FFDFC3"/>
<stop offset="0.58" stop-color="#FFE8D4"/>
</linearGradient>
<clipPath id="clip0_0_2650">
<rect width="127" height="113" fill="white" transform="translate(1 8)"/>
</clipPath>
</defs>
</svg>
