<svg width="128" height="128" viewBox="0 0 128 128" fill="none" xmlns="http://www.w3.org/2000/svg">
<g clip-path="url(#clip0_0_1932)">
<g style="mix-blend-mode:multiply" opacity="0.4">
<path d="M78.8566 74.0938L61.9272 64.3703C58.3699 62.327 52.9576 62.1156 49.8699 63.9006L31.3438 74.5988L18.0891 82.2437C15.0014 84.0287 15.3888 87.1407 18.9461 89.184L33.1401 97.3339L32.8818 97.4865C27.3169 100.692 28.0096 106.282 34.4315 109.97C38.0945 112.072 42.814 113.093 47.2401 112.999C49.7525 113.046 52.8167 112.377 56.7028 110.486L69.4292 103.135C74.9941 99.9174 74.3014 94.3393 67.8795 90.6519C67.0576 90.1822 66.1654 89.7594 65.2497 89.3954L71.6363 85.708L80.6176 80.4C82.6957 78.5798 82.0499 75.914 78.8683 74.0938H78.8566Z" fill="#FFB26E"/>
</g>
<path d="M106.057 16.4225C104.929 15.7649 103.368 15.8588 101.642 16.857L66.445 37.1847C63.0168 39.1576 60.2461 43.9606 60.2578 47.8947L60.3166 66.5783C60.3166 68.5277 61.0092 69.9017 62.1245 70.5476L66.2102 72.9197L110.13 18.7947L106.045 16.4225H106.057Z" fill="url(#paint0_linear_0_1932)"/>
<path d="M111.997 41.4475L111.939 22.7638C111.939 18.8298 109.145 17.2445 105.716 19.2173L85.1945 31.0664L70.5192 39.5451C67.091 41.5179 64.3203 46.321 64.3321 50.255L64.3908 68.9386C64.3908 72.8727 67.185 74.458 70.6131 72.4851L96.8408 57.3362C99.2945 58.8041 104.625 61.3172 110.765 60.0724C110.612 59.908 107.806 56.8078 106.902 51.4058C109.79 49.1394 111.997 44.9587 111.986 41.4592L111.997 41.4475Z" fill="url(#paint1_linear_0_1932)"/>
<g style="mix-blend-mode:multiply" opacity="0.6">
<path d="M68.9263 54.8939L64.3594 57.5244L64.3946 68.9389C64.3946 72.8729 67.1888 74.4583 70.6169 72.4854L78.9408 67.6706C79.6921 65.5099 80.1148 63.3256 80.103 61.2588C80.0796 54.1893 75.0782 51.3357 68.9146 54.8939H68.9263Z" fill="#FFE3C9"/>
</g>
<path d="M53.0839 90.5352C53.1895 96.1837 50.1019 103.206 49.9375 103.582L54.0231 105.954C54.1875 105.59 57.2752 98.5559 57.1695 92.9073L53.0839 90.5352Z" fill="url(#paint2_linear_0_1932)"/>
<path d="M82.6947 54.4124C80.6637 53.2381 77.8577 53.4025 74.7583 55.1875L60.0126 63.7014C53.8489 67.2596 48.8828 75.8793 48.8946 82.9487C48.8946 86.46 50.1508 88.9379 52.1466 90.1004L56.2322 92.4726L86.7803 56.7728L82.6947 54.4007V54.4124Z" fill="url(#paint3_linear_0_1932)"/>
<path d="M78.8443 57.5599L71.5066 61.7992L64.0985 66.0738C57.9349 69.6321 52.9687 78.2517 52.9805 85.3212C52.9805 89.3609 54.6241 92.0149 57.1718 92.8956C57.2774 98.5442 54.1897 105.567 54.0254 105.942C58.8037 101.386 62.9245 94.6571 64.8147 91.322L78.9147 83.1839C85.0783 79.6256 90.0444 71.006 90.0327 63.9248C90.0092 56.8553 85.0079 54.0017 78.8443 57.5599Z" fill="url(#paint4_linear_0_1932)"/>
<path d="M67.9828 77.0537C67.9828 78.0049 67.2197 79.2144 66.2688 79.7664C65.3178 80.3183 64.5547 79.9895 64.5547 79.0383C64.5547 78.0871 65.3178 76.8775 66.2688 76.3256C67.2197 75.7736 67.9828 76.1025 67.9828 77.0537Z" fill="#FFD9B8"/>
<path d="M73.6782 73.7656C73.6782 74.7168 72.915 75.9264 71.9641 76.4783C71.0131 77.0302 70.25 76.7014 70.25 75.7502C70.25 74.799 71.0131 73.5894 71.9641 73.0375C72.915 72.4856 73.6782 72.8144 73.6782 73.7656Z" fill="#FFD9B8"/>
<path d="M79.3578 70.4775C79.3578 71.4287 78.5947 72.6383 77.6438 73.1902C76.6928 73.7421 75.9297 73.4133 75.9297 72.4621C75.9297 71.5109 76.6928 70.3013 77.6438 69.7494C78.5947 69.1975 79.3578 69.5263 79.3578 70.4775Z" fill="#FFD9B8"/>
<path d="M84.2339 48.423C84.2339 49.5269 83.3417 50.9479 82.2263 51.582C81.1227 52.2161 80.2188 51.8404 80.2188 50.7365C80.2188 49.6326 81.111 48.2117 82.2263 47.5775C83.3299 46.9434 84.2339 47.3192 84.2339 48.423Z" fill="#FFD9B8"/>
<path d="M90.8902 44.5949C90.8902 45.6988 89.9979 47.1197 88.8826 47.7539C87.779 48.388 86.875 48.0122 86.875 46.9084C86.875 45.8045 87.7673 44.3835 88.8826 43.7494C89.9862 43.1153 90.8902 43.491 90.8902 44.5949Z" fill="#FFD9B8"/>
<path d="M97.5347 40.7551C97.5347 41.8589 96.6424 43.2799 95.5271 43.914C94.4235 44.5482 93.5195 44.1724 93.5195 43.0685C93.5195 41.9646 94.4118 40.5437 95.5271 39.9095C96.6307 39.2754 97.5347 39.6512 97.5347 40.7551Z" fill="#FFD9B8"/>
<path style="mix-blend-mode:screen" d="M105.721 19.2178C91.2802 27.99 82.2167 33.1336 70.5234 39.5455C81.935 32.6052 90.9397 27.3207 105.721 19.2178Z" fill="url(#paint5_radial_0_1932)"/>
<path style="mix-blend-mode:screen" d="M78.8473 57.5596C72.6719 61.3057 66.9544 64.7113 64.1016 66.0735C66.6844 64.3002 74.2921 59.7438 78.8473 57.5596Z" fill="url(#paint6_radial_0_1932)"/>
</g>
<defs>
<linearGradient id="paint0_linear_0_1932" x1="97.0987" y1="11.2437" x2="62.6627" y2="70.8685" gradientUnits="userSpaceOnUse">
<stop offset="0.54" stop-color="#FFC28C"/>
<stop offset="1" stop-color="#FFB97B"/>
</linearGradient>
<linearGradient id="paint1_linear_0_1932" x1="64.3438" y1="45.8512" x2="111.997" y2="45.8512" gradientUnits="userSpaceOnUse">
<stop stop-color="#FFF3E8"/>
<stop offset="1" stop-color="#FFF8F2"/>
</linearGradient>
<linearGradient id="paint2_linear_0_1932" x1="56.7703" y1="92.6607" x2="50.3341" y2="103.827" gradientUnits="userSpaceOnUse">
<stop stop-color="#FFB97B"/>
<stop offset="0.46" stop-color="#FFC28C"/>
</linearGradient>
<linearGradient id="paint3_linear_0_1932" x1="77.0946" y1="51.1713" x2="53.9807" y2="91.1756" gradientUnits="userSpaceOnUse">
<stop offset="0.54" stop-color="#FFC28C"/>
<stop offset="1" stop-color="#FFB97B"/>
</linearGradient>
<linearGradient id="paint4_linear_0_1932" x1="52.9805" y1="80.9879" x2="90.0327" y2="80.9879" gradientUnits="userSpaceOnUse">
<stop stop-color="#FFF3E8"/>
<stop offset="1" stop-color="#FFF8F2"/>
</linearGradient>
<radialGradient id="paint5_radial_0_1932" cx="0" cy="0" r="1" gradientUnits="userSpaceOnUse" gradientTransform="translate(87.6994 29.5284) scale(46.8671 46.8794)">
<stop stop-color="#FFF3E9"/>
<stop offset="0.22" stop-color="#FFD3AC"/>
<stop offset="0.28" stop-color="#DBBDBA"/>
<stop offset="0.37" stop-color="#AEA1CC"/>
<stop offset="0.46" stop-color="#888ADC"/>
<stop offset="0.55" stop-color="#6876E8"/>
<stop offset="0.65" stop-color="#5067F2"/>
<stop offset="0.75" stop-color="#3F5DF9"/>
<stop offset="0.86" stop-color="#3557FD"/>
<stop offset="1" stop-color="#3255FF"/>
</radialGradient>
<radialGradient id="paint6_radial_0_1932" cx="0" cy="0" r="1" gradientUnits="userSpaceOnUse" gradientTransform="translate(71.4744 61.8224) scale(19.3714 19.3765)">
<stop stop-color="#FFF3E9"/>
<stop offset="0.22" stop-color="#FFD3AC"/>
<stop offset="0.28" stop-color="#DBBDBA"/>
<stop offset="0.37" stop-color="#AEA1CC"/>
<stop offset="0.46" stop-color="#888ADC"/>
<stop offset="0.55" stop-color="#6876E8"/>
<stop offset="0.65" stop-color="#5067F2"/>
<stop offset="0.75" stop-color="#3F5DF9"/>
<stop offset="0.86" stop-color="#3557FD"/>
<stop offset="1" stop-color="#3255FF"/>
</radialGradient>
<clipPath id="clip0_0_1932">
<rect width="96" height="97" fill="white" transform="translate(16 16)"/>
</clipPath>
</defs>
</svg>
