<svg width="128" height="128" viewBox="0 0 128 128" fill="none" xmlns="http://www.w3.org/2000/svg">
<g clip-path="url(#clip0_0_675)">
<path d="M50.6521 58.2869C50.3313 58.1114 49.8356 58.1114 49.5294 58.2869L40.3147 63.6557C40.1689 63.5679 40.0231 63.4801 39.8627 63.3924C31.8144 58.7258 18.7505 58.7258 10.7459 63.3924C10.6293 63.4509 10.5272 63.524 10.4252 63.5825L1.35625 58.2869C1.05007 58.1114 0.554341 58.1114 0.233576 58.2869C-0.0726095 58.4625 -0.0726095 58.755 0.233576 58.9306L9.38997 64.2701C6.25522 66.4936 4.54933 69.2877 4.54933 72.272C4.54933 75.5927 6.67805 78.694 10.5418 81.02L0.758465 86.7252C0.452279 86.9007 0.452279 87.1933 0.758465 87.3688C1.06465 87.5444 1.57496 87.5444 1.88114 87.3688L11.6937 81.649C15.6012 83.6824 20.5147 84.7064 25.4282 84.7064C30.3418 84.7064 35.2845 83.6678 39.1774 81.6197L49.0191 87.3542C49.3253 87.5297 49.8356 87.5297 50.1418 87.3542C50.448 87.1786 50.448 86.8861 50.1418 86.7105L40.3293 80.9907C44.1201 78.6794 46.2051 75.6073 46.1905 72.3159C46.1905 69.3462 44.4846 66.5668 41.379 64.3432L50.6667 58.9306C50.9728 58.755 50.9728 58.4625 50.6667 58.2869H50.6521ZM44.6013 72.3305C44.6013 75.1392 42.6767 77.8016 39.1774 79.8497C31.6103 84.2529 19.2608 84.2675 11.6499 79.8497C8.09233 77.787 6.13858 75.0953 6.13858 72.272C6.13858 69.4633 8.06317 66.8008 11.5624 64.7528C15.3387 62.5439 20.3252 61.4467 25.3116 61.4467C30.298 61.4467 35.2845 62.5439 39.0899 64.7528C42.6475 66.8155 44.6013 69.4925 44.6013 72.3159V72.3305Z" fill="#FFE9D6"/>
<g style="mix-blend-mode:multiply">
<path d="M38.9828 70.4336C38.9828 70.555 38.9828 70.6764 38.9483 70.7978C38.931 70.9365 38.8793 71.0753 38.8448 71.214C38.8103 71.3354 38.793 71.4568 38.7585 71.5609C38.7067 71.6996 38.6377 71.8384 38.586 71.9771C38.5342 72.0985 38.4997 72.2026 38.448 72.324C38.379 72.4628 38.2927 72.6015 38.2064 72.7402C38.1374 72.8443 38.0857 72.9657 37.9994 73.0698C37.8959 73.2085 37.7924 73.3473 37.6716 73.486C37.5854 73.5901 37.5164 73.6941 37.4301 73.7982C37.3093 73.9369 37.1541 74.0757 37.0161 74.2144C36.9298 74.3011 36.8435 74.4052 36.74 74.4919C36.5675 74.648 36.3777 74.7868 36.188 74.9255C36.1017 74.9949 36.0154 75.0816 35.9119 75.151C35.6186 75.3591 35.3081 75.5672 34.9631 75.758C29.5287 78.9318 20.7129 78.9318 15.244 75.758C14.899 75.5499 14.5712 75.3591 14.2779 75.1336C14.1744 75.0643 14.1054 74.9949 14.0019 74.9255C13.8121 74.7694 13.6051 74.6307 13.4326 74.4746C13.3291 74.3879 13.2428 74.2838 13.1393 74.1797C13.0013 74.041 12.846 73.9196 12.7252 73.7808C12.639 73.6768 12.5527 73.5727 12.4665 73.4687C12.3629 73.3299 12.2422 73.2085 12.1387 73.0698C12.0697 72.9657 12.0006 72.8443 11.9316 72.7402C11.8454 72.6015 11.7591 72.4628 11.6901 72.324C11.6384 72.2026 11.5866 72.0985 11.5348 71.9771C11.4831 71.8384 11.4141 71.6996 11.3623 71.5609C11.3278 71.4395 11.3106 71.3181 11.2761 71.1967C11.2416 71.0579 11.1898 70.9192 11.1726 70.7805C11.1553 70.659 11.1553 70.5376 11.138 70.4162C11.138 70.2775 11.1035 70.1387 11.1035 70L11 72.8443C11 74.9429 12.3629 77.024 15.1233 78.6196C20.5749 81.7935 29.4079 81.7935 34.8423 78.6196C37.5336 77.0414 38.8793 74.9775 38.8965 72.9137L39 70.052C39 70.1908 38.9828 70.3122 38.9655 70.4509L38.9828 70.4336Z" fill="#324BC5"/>
</g>
<path d="M13.5761 70.0965C13.5761 70.1989 13.5761 70.3013 13.6052 70.4037C13.6198 70.5207 13.6635 70.6378 13.6927 70.7548C13.7219 70.8572 13.7364 70.9596 13.7656 71.062C13.8093 71.179 13.8677 71.296 13.9114 71.4131C13.9552 71.5155 13.9843 71.6179 14.0426 71.7057C14.101 71.8227 14.1739 71.9397 14.2468 72.0567C14.3051 72.1445 14.3488 72.2469 14.4217 72.3347C14.4946 72.4517 14.5967 72.5541 14.6842 72.6711C14.7571 72.7589 14.8154 72.8467 14.9029 72.9345C15.0049 73.0515 15.1362 73.1685 15.2528 73.2709C15.3403 73.3587 15.4132 73.4318 15.5007 73.5196C15.6465 73.6513 15.8068 73.7683 15.9818 73.9C16.0693 73.9585 16.1276 74.017 16.2151 74.0755C16.463 74.251 16.74 74.4266 17.0316 74.6021C21.6389 77.2792 29.104 77.2792 33.6968 74.6021C33.9884 74.4412 34.2509 74.2657 34.4987 74.0901C34.5862 74.0316 34.6591 73.9585 34.732 73.9C34.8924 73.7829 35.0528 73.6659 35.1986 73.5342C35.2861 73.4611 35.359 73.3733 35.4319 73.3002C35.5485 73.1831 35.6797 73.0661 35.7818 72.9491C35.8547 72.8613 35.913 72.7735 35.9859 72.6858C36.0734 72.5687 36.1755 72.4517 36.2629 72.3347C36.3213 72.2469 36.365 72.1445 36.4233 72.0567C36.4962 71.9397 36.5691 71.8227 36.6274 71.7057C36.6712 71.6033 36.7003 71.5155 36.7441 71.4131C36.7878 71.296 36.8461 71.179 36.8899 71.062C36.919 70.9596 36.9336 70.8572 36.9628 70.7694C36.9919 70.6524 37.0357 70.5354 37.0503 70.4183C37.0503 70.3159 37.0648 70.2135 37.0794 70.1111C37.2398 68.2386 36.1025 66.3369 33.6385 64.9033C29.0165 62.2262 21.566 62.2262 16.9733 64.9033C14.6842 66.2345 13.5469 67.9753 13.5469 69.7308C13.5469 69.8478 13.5615 69.9648 13.5761 70.0819V70.0965Z" fill="#FFB16B"/>
<path d="M27.7624 65.1332L27.777 62.5293L18.5039 63.9775V66.5668L27.7624 65.1332Z" fill="#FFC087"/>
<path d="M33.6522 68.5271L34.5853 66.479L27.7763 62.5293L27.7617 65.1332L33.6522 68.5271Z" fill="#FFC087"/>
<path d="M18.5042 66.5668V63.9775L16.0547 69.3755L16.9879 69.9022L18.5042 66.5668Z" fill="#FFC087"/>
<path d="M36.6719 74.4957V77.085L40.7544 68.103L40.769 65.5137L36.6719 74.4957Z" fill="#FFD9B8"/>
<path d="M9.87112 70.3262V72.9301L21.2146 79.4984L21.2291 76.9091L9.87112 70.3262Z" fill="#FFD9B8"/>
<path d="M21.2295 76.9098L21.2149 79.4991L36.6699 77.0854V74.4961L21.2295 76.9098Z" fill="#FFE9D6"/>
<path d="M36.6696 74.4956L40.7521 65.5136L29.4087 58.9453L13.9682 61.3591L9.87112 70.3411L21.2146 76.9094L36.6696 74.5103V74.4956ZM18.5026 63.9776L27.7757 62.5293L34.5846 66.4791L33.6515 68.5417L32.1352 71.8771L22.8621 73.3253L16.9863 69.9169L16.0531 69.3756L18.5026 63.9922V63.9776Z" fill="#FFF7F0"/>
<path d="M37.0757 62.8657C37.0757 62.9681 37.0757 63.0705 37.0465 63.1729C37.0319 63.2899 36.9882 63.4069 36.959 63.524C36.9299 63.6264 36.9153 63.7288 36.8861 63.8165C36.8424 63.9336 36.7841 64.0506 36.7403 64.1676C36.6966 64.27 36.6674 64.3578 36.6237 64.4602C36.5653 64.5772 36.4924 64.6943 36.4195 64.8113C36.3612 64.8991 36.3175 65.0015 36.2592 65.0892C36.1717 65.2063 36.0842 65.3233 35.9821 65.4403C35.9092 65.5281 35.8509 65.6159 35.778 65.7037C35.676 65.8207 35.5447 65.9377 35.4281 66.0547C35.3552 66.1279 35.2823 66.2157 35.1948 66.2888C35.049 66.4205 34.8886 66.5375 34.7282 66.6545C34.6553 66.713 34.5824 66.7862 34.495 66.8447C34.2471 67.0202 33.9846 67.1958 33.693 67.3567C29.1003 70.0338 21.6498 70.0338 17.0278 67.3567C16.7362 67.1958 16.4738 67.0202 16.2113 66.8301C16.1238 66.7715 16.0655 66.713 15.978 66.6545C15.8177 66.5375 15.6427 66.4058 15.4969 66.2742C15.4094 66.201 15.3365 66.1133 15.249 66.0255C15.1324 65.9085 15.0012 65.806 14.8991 65.689C14.8116 65.6012 14.7533 65.5135 14.6804 65.4111C14.5929 65.294 14.4909 65.1916 14.418 65.0746C14.3451 64.9868 14.3013 64.8844 14.243 64.7967C14.1701 64.6796 14.0972 64.5626 14.0389 64.4456C13.9951 64.3432 13.9514 64.2408 13.9076 64.153C13.8639 64.036 13.8056 63.9189 13.7618 63.8019C13.7327 63.6995 13.7035 63.5971 13.6889 63.4947C13.6598 63.3777 13.6306 63.2607 13.6015 63.1436C13.5869 63.0412 13.5869 62.9388 13.5723 62.8364C13.5723 62.7194 13.5431 62.6024 13.5431 62.4853C13.5431 62.4853 13.5431 62.4853 13.5431 62.4707V67.6493C13.5286 69.4193 14.6804 71.1748 17.0132 72.5206C21.6206 75.1977 29.0857 75.1977 33.6785 72.5206C35.953 71.1894 37.0902 69.4486 37.1048 67.7078V62.5292C37.1194 62.6462 37.1048 62.7486 37.1048 62.8657H37.0757Z" fill="#FFCDA1"/>
<path style="mix-blend-mode:overlay" opacity="0.45" d="M37.0763 62.8657C37.0763 62.9681 37.0763 63.0705 37.0471 63.1729C37.0326 63.2899 36.9888 63.407 36.9597 63.524C36.9305 63.6264 36.9159 63.7288 36.8867 63.8166C36.843 63.9336 36.7847 64.0506 36.7409 64.1677C36.6972 64.2701 36.668 64.3578 36.6243 64.4602C36.566 64.5773 36.4931 64.6943 36.4202 64.8113C36.3619 64.8991 36.3181 65.0015 36.2452 65.0893C36.1577 65.2063 36.0703 65.3233 35.9682 65.4404C35.8953 65.5281 35.837 65.6159 35.7641 65.7037C35.662 65.8207 35.5308 65.9377 35.4141 66.0548C35.3412 66.1279 35.2683 66.2157 35.1809 66.2888C35.0351 66.4205 34.8747 66.5375 34.7143 66.6545C34.6414 66.713 34.5685 66.7862 34.481 66.8447C34.2331 67.0203 33.9707 67.1958 33.6791 67.3567C29.0863 70.0338 21.6358 70.0338 17.0139 67.3567C16.7223 67.1958 16.4452 67.0203 16.1974 66.8301C16.1099 66.7716 16.0516 66.713 15.9641 66.6545C15.8037 66.5375 15.6287 66.4058 15.4829 66.2742C15.3955 66.201 15.3226 66.1133 15.2351 66.0255C15.1184 65.9085 14.9872 65.8061 14.8852 65.689C14.8123 65.6013 14.7394 65.5135 14.6665 65.4111C14.579 65.2941 14.4769 65.1917 14.3894 65.0746C14.3311 64.9869 14.2728 64.8845 14.2145 64.7967C14.1416 64.6797 14.0687 64.5626 14.0103 64.4456C13.9666 64.3432 13.9229 64.2408 13.8791 64.153C13.8354 64.036 13.7771 63.919 13.7333 63.8019C13.7042 63.6995 13.6896 63.5971 13.6604 63.4947C13.6313 63.3777 13.5875 63.2607 13.5729 63.1436C13.5584 63.0412 13.5584 62.9388 13.5438 62.8364C13.5438 62.7194 13.5146 62.6024 13.5146 62.4854L13.5 67.6493C13.5 69.4194 14.6519 71.1748 16.9847 72.5207C21.5921 75.1977 29.0572 75.1977 33.6499 72.5207C35.9245 71.1894 37.0617 69.4486 37.0763 67.7078V62.5292C37.0909 62.6463 37.0763 62.7487 37.0763 62.8657Z" fill="url(#paint0_linear_0_675)"/>
<path d="M13.5722 62.8221C13.5722 62.9245 13.5722 63.0269 13.6013 63.1293C13.6159 63.2463 13.6596 63.3634 13.6888 63.4804C13.718 63.5828 13.7325 63.6852 13.7617 63.7876C13.8054 63.9046 13.8638 64.0217 13.9075 64.1387C13.9512 64.2411 13.9804 64.3435 14.0387 64.4313C14.097 64.5483 14.17 64.6653 14.2429 64.7823C14.3012 64.8701 14.3449 64.9725 14.4178 65.0603C14.4907 65.1773 14.5928 65.2797 14.6803 65.3968C14.7532 65.4845 14.8115 65.5723 14.899 65.6747C15.001 65.7917 15.1322 65.9088 15.2489 66.0112C15.3364 66.0989 15.4093 66.1721 15.4968 66.2598C15.6426 66.3915 15.8029 66.5085 15.9779 66.6402C16.0654 66.6987 16.1237 66.7572 16.2112 66.8157C16.459 66.9913 16.7361 67.1668 17.0277 67.3424C21.635 70.0194 29.1001 70.0194 33.6929 67.3424C33.9845 67.1815 34.247 67.0059 34.4948 66.8304C34.5823 66.7719 34.6552 66.6987 34.7281 66.6402C34.8885 66.5232 35.0489 66.4061 35.1947 66.2745C35.2821 66.2013 35.355 66.1136 35.4279 66.0404C35.5446 65.9234 35.6758 65.8064 35.7779 65.6893C35.8508 65.6016 35.9091 65.5138 35.982 65.426C36.0695 65.309 36.1715 65.192 36.259 65.0749C36.3173 64.9871 36.3611 64.8847 36.4194 64.797C36.4923 64.6799 36.5652 64.5629 36.6235 64.4459C36.6673 64.3435 36.6964 64.2557 36.7402 64.1533C36.7839 64.0363 36.8422 63.9193 36.886 63.8022C36.9151 63.6998 36.9297 63.5974 36.9589 63.5096C36.988 63.3926 37.0318 63.2756 37.0464 63.1586C37.0464 63.0562 37.0609 62.9538 37.0755 62.8514C37.2359 60.9789 36.0986 59.0771 33.6346 57.6435C29.0126 54.9665 21.5621 54.9665 16.9694 57.6435C14.6803 58.9747 13.543 60.7302 13.543 62.471C13.543 62.588 13.5576 62.7051 13.5722 62.8221Z" fill="#FF8314"/>
<path d="M27.7624 55.8884L27.777 53.2991L18.5039 54.7327V57.322L27.7624 55.8884Z" fill="#FFC087"/>
<path d="M33.6522 59.2968L34.5853 57.2342L27.7763 53.2991L27.7617 55.8884L33.6522 59.2968Z" fill="#FFC087"/>
<path d="M18.5042 57.3219V54.7327L16.0547 60.1307L16.9879 60.6573L18.5042 57.3219Z" fill="#FFC087"/>
<path d="M36.6719 65.2508V67.8547L40.7544 58.8581L40.769 56.2688L36.6719 65.2508Z" fill="#FFD9B8"/>
<path d="M9.87112 61.0959V63.6852L21.2146 70.2535L21.2291 67.6642L9.87112 61.0959Z" fill="#FFD9B8"/>
<path d="M21.2295 67.665L21.2149 70.2542L36.6699 67.8551V65.2512L21.2295 67.665Z" fill="#FFE9D6"/>
<path d="M36.6696 65.2508L40.7521 56.2687L29.4087 49.7004L13.9682 52.1142L9.87112 61.0962L21.2146 67.6645L36.6696 65.2508ZM18.5026 54.7327L27.7757 53.2845L34.5846 57.2342L33.6515 59.2822L32.1352 62.6176L22.8621 64.0658L16.9863 60.6573L16.0531 60.1161L18.5026 54.7327Z" fill="#FFF7F0"/>
<path d="M37.0757 53.8549C37.0757 53.9573 37.0757 54.0597 37.0465 54.1621C37.0319 54.2792 36.9882 54.3962 36.959 54.5132C36.9299 54.6156 36.9153 54.718 36.8861 54.8058C36.8424 54.9228 36.7841 55.0399 36.7403 55.1569C36.6966 55.2447 36.6674 55.3471 36.6237 55.4495C36.5653 55.5665 36.4924 55.6835 36.4195 55.8006C36.3612 55.8883 36.3175 55.9907 36.2592 56.0785C36.1717 56.1955 36.0842 56.3126 35.9821 56.415C35.9092 56.5027 35.8509 56.5905 35.778 56.6783C35.676 56.7953 35.5447 56.9123 35.4281 57.0294C35.3552 57.1025 35.2823 57.1903 35.1948 57.2634C35.049 57.3951 34.8886 57.5121 34.7282 57.6291C34.6553 57.6877 34.5824 57.7608 34.495 57.8193C34.2471 57.9949 33.9846 58.1704 33.693 58.3313C29.1003 61.0084 21.6498 61.0084 17.0278 58.3313C16.7362 58.1558 16.4738 57.9949 16.2113 57.8047C16.1238 57.7462 16.0655 57.6877 15.978 57.6291C15.8177 57.4975 15.6427 57.3805 15.4969 57.2488C15.4094 57.1757 15.3365 57.0879 15.249 57.0001C15.1324 56.8831 15.0012 56.7807 14.8991 56.6637C14.8116 56.5759 14.7533 56.4881 14.6804 56.4003C14.5929 56.2833 14.4909 56.1809 14.418 56.0639C14.3451 55.9761 14.3013 55.8737 14.243 55.7859C14.1701 55.6689 14.0972 55.5519 14.0389 55.4348C13.9951 55.3324 13.9514 55.23 13.9076 55.1423C13.8639 55.0252 13.8056 54.9082 13.7618 54.7912C13.7327 54.6888 13.7035 54.5864 13.6889 54.484C13.6598 54.3669 13.6306 54.2499 13.6015 54.1329C13.5869 54.0305 13.5869 53.9281 13.5723 53.8257C13.5723 53.7086 13.5431 53.5916 13.5431 53.4746C13.5431 53.4746 13.5431 53.4746 13.5431 53.46V58.6385C13.5286 60.4086 14.6804 62.164 17.0132 63.5099C21.6206 66.1869 29.0857 66.1869 33.6785 63.5099C35.953 62.1787 37.0902 60.4379 37.1048 58.697V53.5185C37.1194 53.6355 37.1048 53.7379 37.1048 53.8549H37.0757Z" fill="#FFBE85"/>
<path style="mix-blend-mode:overlay" opacity="0.45" d="M37.0763 53.855C37.0763 53.9574 37.0763 54.0598 37.0471 54.1622C37.0326 54.2792 36.9888 54.3962 36.9597 54.5132C36.9305 54.6156 36.9159 54.7181 36.8867 54.8058C36.843 54.9229 36.7847 55.0399 36.7409 55.1569C36.6972 55.2447 36.668 55.3471 36.6243 55.4495C36.566 55.5665 36.4931 55.6835 36.4202 55.8006C36.3619 55.8883 36.3181 55.9907 36.2452 56.0785C36.1577 56.1956 36.0703 56.3126 35.9682 56.415C35.8953 56.5028 35.837 56.5905 35.7641 56.6783C35.662 56.7953 35.5308 56.9124 35.4141 57.0294C35.3412 57.1025 35.2683 57.1903 35.1809 57.2634C35.0351 57.3951 34.8747 57.5121 34.7143 57.6292C34.6414 57.6877 34.5685 57.7608 34.481 57.8193C34.2331 57.9949 33.9707 58.1704 33.6791 58.3313C29.0863 61.0084 21.6358 61.0084 17.0139 58.3313C16.7223 58.1558 16.4452 57.9949 16.1974 57.8047C16.1099 57.7462 16.0516 57.6877 15.9641 57.6292C15.8037 57.4975 15.6287 57.3805 15.4829 57.2488C15.3955 57.1757 15.3226 57.0879 15.2351 57.0001C15.1184 56.8831 14.9872 56.7807 14.8852 56.6637C14.8123 56.5759 14.7394 56.4881 14.6665 56.4004C14.579 56.2833 14.4769 56.1809 14.3894 56.0639C14.3311 55.9761 14.2728 55.8737 14.2145 55.7859C14.1416 55.6689 14.0687 55.5519 14.0103 55.4349C13.9666 55.3325 13.9229 55.2301 13.8791 55.1423C13.8354 55.0253 13.7771 54.9082 13.7333 54.7912C13.7042 54.6888 13.6896 54.5864 13.6604 54.484C13.6313 54.367 13.5875 54.2499 13.5729 54.1329C13.5584 54.0305 13.5584 53.9281 13.5438 53.8257C13.5438 53.7087 13.5146 53.5916 13.5146 53.4746L13.5 58.6385C13.5 60.4086 14.6519 62.1641 16.9847 63.5099C21.5921 66.187 29.0572 66.187 33.6499 63.5099C35.9245 62.1787 37.0617 60.4379 37.0763 58.6971V53.5185C37.0909 53.6355 37.0763 53.7379 37.0763 53.855Z" fill="url(#paint1_linear_0_675)"/>
<path d="M13.5722 53.8114C13.5722 53.9138 13.5722 54.0162 13.6013 54.1186C13.6159 54.2356 13.6596 54.3526 13.6888 54.4696C13.718 54.5721 13.7325 54.6744 13.7617 54.7769C13.8054 54.8939 13.8638 55.0109 13.9075 55.1279C13.9512 55.2303 13.9804 55.3327 14.0387 55.4205C14.097 55.5375 14.17 55.6546 14.2429 55.7716C14.3012 55.8594 14.3449 55.9618 14.4178 56.0496C14.4907 56.1666 14.5928 56.269 14.6803 56.386C14.7532 56.4738 14.8115 56.5616 14.899 56.6493C15.001 56.7664 15.1322 56.8834 15.2489 56.9858C15.3364 57.0589 15.4093 57.1467 15.4968 57.2345C15.6426 57.3661 15.8029 57.4832 15.9779 57.6148C16.0654 57.6733 16.1237 57.7319 16.2112 57.7904C16.459 57.9659 16.7361 58.1415 17.0277 58.317C21.635 60.9941 29.1001 60.9941 33.6929 58.317C33.9845 58.1561 34.247 57.9805 34.4948 57.805C34.5823 57.7465 34.6552 57.6733 34.7281 57.6148C34.8885 57.4978 35.0489 57.3661 35.1947 57.2491C35.2821 57.176 35.355 57.0882 35.4279 57.015C35.5446 56.898 35.6758 56.781 35.7779 56.664C35.8508 56.5762 35.9091 56.4884 35.982 56.4006C36.0695 56.2836 36.1715 56.1666 36.259 56.0642C36.3173 55.9764 36.3611 55.874 36.4194 55.7862C36.4923 55.6692 36.5652 55.5522 36.6235 55.4351C36.6673 55.3327 36.6964 55.245 36.7402 55.1426C36.7839 55.0255 36.8422 54.9085 36.886 54.7915C36.9151 54.6891 36.9297 54.5867 36.9589 54.4989C36.988 54.3819 37.0318 54.2648 37.0464 54.1478C37.0464 54.0454 37.0609 53.943 37.0755 53.8406C37.2359 51.9681 36.0986 50.0664 33.6346 48.6328C29.0126 45.9557 21.5621 45.9557 16.9694 48.6328C14.6803 49.964 13.543 51.7194 13.543 53.4603C13.543 53.5773 13.5576 53.6943 13.5722 53.8114Z" fill="#FF8314"/>
<path d="M27.7624 46.8774L27.777 44.2881L18.5039 45.7217V48.3256L27.7624 46.8774Z" fill="#FFC087"/>
<path d="M33.6522 50.2859L34.5853 48.2232L27.7763 44.2881L27.7617 46.8774L33.6522 50.2859Z" fill="#FFC087"/>
<path d="M18.5042 48.3256V45.7217L16.0547 51.1197L16.9879 51.6463L18.5042 48.3256Z" fill="#FFC087"/>
<path d="M36.6719 56.2545V58.8438L40.7544 49.8471L40.769 47.2578L36.6719 56.2545Z" fill="#FFD9B8"/>
<path d="M9.87112 52.085V54.6742L21.2146 61.2425L21.2291 58.6533L9.87112 52.085Z" fill="#FFD9B8"/>
<path d="M21.2295 58.654L21.2149 61.2433L36.6699 58.8442V56.2549L21.2295 58.654Z" fill="#FFE9D6"/>
<path d="M36.6696 56.2544L40.7521 47.2724L29.4087 40.7041L13.9682 43.1178L9.87112 52.0999L21.2146 58.6682L36.6696 56.2691V56.2544ZM18.5026 45.7364L27.7757 44.2881L34.5846 48.2379L33.6515 50.2859L32.1352 53.6213L22.8621 55.0695L16.9863 51.661L16.0531 51.1197L18.5026 45.7364Z" fill="#FFF7F0"/>
<path d="M37.081 47.769C37.081 47.8714 37.081 47.9738 37.0518 48.0762C37.0372 48.1932 36.9935 48.3102 36.9643 48.4273C36.9352 48.5297 36.9206 48.6321 36.8914 48.7198C36.8477 48.8369 36.7894 48.9539 36.7456 49.0709C36.7019 49.1733 36.6727 49.2611 36.629 49.3635C36.5707 49.4805 36.4978 49.5976 36.4249 49.7146C36.3665 49.8024 36.3228 49.9048 36.2645 49.9925C36.177 50.1096 36.0895 50.2266 35.9875 50.329C35.9146 50.4168 35.8562 50.5046 35.7833 50.5923C35.6813 50.7094 35.55 50.8264 35.4334 50.9434C35.3605 51.0166 35.2876 51.1043 35.2001 51.1775C35.0543 51.3091 34.8939 51.4262 34.7336 51.5432C34.6607 51.6017 34.5877 51.6748 34.5003 51.7334C34.2524 51.9089 33.99 52.0845 33.6984 52.2454C29.1056 54.9224 21.6551 54.9224 17.0331 52.2454C16.7415 52.0845 16.4791 51.9089 16.2166 51.7187C16.1292 51.6602 16.0708 51.6017 15.9834 51.5432C15.823 51.4262 15.648 51.2945 15.5022 51.1628C15.4147 51.0897 15.3418 51.0019 15.2543 50.9142C15.1377 50.7971 15.0065 50.6947 14.9044 50.5777C14.8169 50.4899 14.7586 50.4021 14.6857 50.2997C14.5982 50.1827 14.4962 50.0803 14.4233 49.9633C14.3504 49.8755 14.3066 49.7731 14.2483 49.6853C14.1754 49.5683 14.1025 49.4513 14.0442 49.3343C14.0004 49.2319 13.9567 49.1441 13.913 49.0417C13.8692 48.9246 13.8109 48.8076 13.7672 48.6906C13.738 48.5882 13.7088 48.4858 13.6943 48.3834C13.6651 48.2664 13.6359 48.1493 13.6068 48.0323C13.5922 47.9299 13.5922 47.8275 13.5776 47.7251C13.5776 47.6081 13.5485 47.491 13.5485 47.374C13.5485 47.374 13.5485 47.374 13.5485 47.3594L13.461 49.7731C13.461 51.5432 14.6128 53.2986 16.9456 54.6445C21.553 57.3215 29.0181 57.3215 33.6109 54.6445C35.8854 53.3133 37.0226 51.5724 37.0372 49.8463L37.1247 47.4325C37.1247 47.5495 37.1101 47.652 37.0956 47.769H37.081Z" fill="#FFB16B"/>
<path style="mix-blend-mode:multiply" opacity="0.45" d="M37.0789 47.769C37.0789 47.8714 37.0789 47.9738 37.0497 48.0762C37.0351 48.1932 36.9914 48.3103 36.9622 48.4273C36.9331 48.5297 36.9185 48.6321 36.8893 48.7199C36.8456 48.8369 36.7873 48.9539 36.7435 49.071C36.6998 49.1734 36.6706 49.2611 36.6269 49.3635C36.5686 49.4806 36.4957 49.5976 36.4228 49.7146C36.3644 49.8024 36.3207 49.9048 36.2478 49.9926C36.1603 50.1096 36.0728 50.2266 35.9708 50.329C35.8979 50.4168 35.8396 50.5046 35.7667 50.5923C35.6646 50.7094 35.5334 50.8264 35.4167 50.9434C35.3438 51.0166 35.2709 51.1043 35.1834 51.1775C35.0376 51.3091 34.8773 51.4262 34.7169 51.5432C34.644 51.6017 34.5711 51.6749 34.4836 51.7334C34.2357 51.9089 33.9733 52.0845 33.6817 52.2454C29.0889 54.9224 21.6384 54.9224 17.0165 52.2454C16.7249 52.0845 16.4478 51.9089 16.2 51.7188C16.1125 51.6602 16.0542 51.6017 15.9667 51.5432C15.8063 51.4262 15.6313 51.2945 15.4855 51.1629C15.3981 51.0897 15.3252 51.0019 15.2377 50.9142C15.121 50.7971 14.9898 50.6947 14.8877 50.5777C14.8148 50.4899 14.7419 50.4022 14.669 50.2998C14.5816 50.1827 14.4795 50.0803 14.392 49.9633C14.3337 49.8755 14.2754 49.7731 14.2171 49.6854C14.1442 49.5683 14.0712 49.4513 14.0129 49.3343C13.9692 49.2319 13.9254 49.1441 13.8817 49.0417C13.838 48.9247 13.7796 48.8076 13.7359 48.6906C13.7067 48.5882 13.6922 48.4858 13.663 48.3834C13.6338 48.2664 13.5901 48.1493 13.5755 48.0323C13.5609 47.9299 13.5609 47.8275 13.5464 47.7251C13.5464 47.6081 13.5172 47.4911 13.5172 47.374L13.4297 49.7585C13.4297 51.5286 14.5816 53.284 16.9144 54.6299C21.5218 57.3069 28.9868 57.3069 33.5796 54.6299C35.8541 53.2987 36.9914 51.5578 37.006 49.8316L37.0935 47.4179C37.0935 47.5349 37.0789 47.6373 37.0643 47.7544L37.0789 47.769Z" fill="url(#paint2_linear_0_675)"/>
<path d="M13.5761 47.7401C13.5761 47.8425 13.5761 47.9449 13.6052 48.0473C13.6198 48.1643 13.6635 48.2814 13.6927 48.3984C13.7219 48.5008 13.7364 48.6032 13.7656 48.7056C13.8093 48.8226 13.8677 48.9396 13.9114 49.0567C13.9552 49.1591 13.9843 49.2468 14.0426 49.3492C14.101 49.4663 14.1739 49.5833 14.2468 49.7003C14.3051 49.7881 14.3488 49.8905 14.4217 49.9783C14.4946 50.0953 14.5967 50.2123 14.6842 50.3147C14.7571 50.4025 14.8154 50.5049 14.9029 50.5927C15.0049 50.7097 15.1362 50.8267 15.2528 50.9291C15.3403 51.0169 15.4132 51.0901 15.5007 51.1778C15.6465 51.3095 15.8068 51.4265 15.9818 51.5582C16.0693 51.6167 16.1276 51.6752 16.2151 51.7337C16.463 51.9093 16.74 52.0848 17.0316 52.2604C21.6389 54.9374 29.104 54.9374 33.6968 52.2604C33.9884 52.0994 34.2509 51.9239 34.4987 51.7484C34.5862 51.6898 34.6591 51.6167 34.732 51.5582C34.8924 51.4412 35.0528 51.3241 35.1986 51.1925C35.2861 51.1193 35.359 51.0316 35.4319 50.9584C35.5485 50.8414 35.6797 50.7243 35.7818 50.6073C35.8547 50.5195 35.913 50.4318 35.9859 50.344C36.0734 50.227 36.1755 50.1099 36.2629 50.0075C36.3213 49.9198 36.365 49.8174 36.4233 49.7296C36.4962 49.6126 36.5691 49.4955 36.6274 49.3785C36.6712 49.2761 36.7003 49.1883 36.7441 49.0859C36.7878 48.9689 36.8461 48.8519 36.8899 48.7348C36.919 48.6324 36.9336 48.53 36.9628 48.4423C36.9919 48.3252 37.0357 48.2082 37.0503 48.0912C37.0503 47.9888 37.0648 47.8864 37.0794 47.784C37.2398 45.9115 36.1025 44.0098 33.6385 42.5762C29.0165 39.8991 21.566 39.8991 16.9733 42.5762C14.6842 43.9074 13.5469 45.6628 13.5469 47.4036C13.5469 47.5207 13.5615 47.6377 13.5761 47.7547V47.7401Z" fill="#FFB16B"/>
<path d="M89.2018 80.7713C88.8956 80.5958 88.3853 80.5958 88.0791 80.7713L78.8644 86.14C78.7186 86.0523 78.5728 85.9645 78.4124 85.8767C70.3641 81.2102 57.3002 81.2102 49.2956 85.8767C49.179 85.9352 49.0769 86.0084 48.9749 86.0669L39.8914 80.7713C39.5852 80.5958 39.0895 80.5958 38.7687 80.7713C38.4625 80.9469 38.4625 81.2394 38.7687 81.415L47.9251 86.7545C44.7903 88.978 43.0845 91.7721 43.0845 94.7564C43.0845 98.0771 45.2132 101.178 49.0624 103.504L39.279 109.21C38.9728 109.385 38.9728 109.678 39.279 109.853C39.5852 110.029 40.0955 110.029 40.4017 109.853L50.2142 104.133C54.1217 106.167 59.0352 107.191 63.9488 107.191C68.8623 107.191 73.805 106.152 77.698 104.119L87.5396 109.853C87.8458 110.029 88.3561 110.029 88.6623 109.853C88.9685 109.678 88.9685 109.385 88.6623 109.21L78.8352 103.49C82.6261 101.178 84.7111 98.1063 84.6965 94.8149C84.6965 91.8452 82.9906 89.0658 79.885 86.8422L89.1726 81.4296C89.4788 81.2541 89.4788 80.9615 89.1726 80.7859L89.2018 80.7713ZM83.151 94.8149C83.151 97.6236 81.2264 100.286 77.7271 102.334C70.16 106.752 57.8105 106.752 50.1996 102.334C46.642 100.271 44.6883 97.5943 44.6883 94.771C44.6883 91.9623 46.6129 89.2999 50.1121 87.2518C53.8884 85.0429 58.8749 83.9457 63.8613 83.9457C68.8478 83.9457 73.8342 85.0429 77.6396 87.2518C81.1972 89.3145 83.151 91.9915 83.151 94.8149Z" fill="#FFE9D6"/>
<path d="M75.614 94.6245C75.614 94.7269 75.614 94.8293 75.5848 94.9317C75.5703 95.0487 75.5265 95.1657 75.4974 95.2828C75.4682 95.3852 75.4536 95.4876 75.4245 95.5753C75.3807 95.6924 75.3224 95.8094 75.2787 95.9264C75.2349 96.0288 75.2058 96.1166 75.162 96.219C75.1037 96.336 75.0308 96.4531 74.9579 96.5701C74.8996 96.6579 74.8558 96.7603 74.7829 96.848C74.6955 96.9651 74.608 97.0821 74.5059 97.1845C74.433 97.2723 74.3747 97.36 74.3018 97.4478C74.1997 97.5648 74.0685 97.6819 73.9519 97.7989C73.8644 97.872 73.8061 97.9598 73.7186 98.033C73.5728 98.1646 73.4124 98.2816 73.252 98.3987C73.1645 98.4572 73.1062 98.5303 73.0187 98.5888C72.7709 98.7644 72.4938 98.9399 72.2168 99.1009C67.624 101.778 60.1735 101.778 55.5516 99.1009C55.26 98.9399 54.9975 98.7644 54.7351 98.5742C54.6476 98.5157 54.5893 98.4572 54.5018 98.3987C54.3414 98.2816 54.1665 98.15 54.0207 98.0183C53.9332 97.9452 53.8603 97.8574 53.7728 97.7696C53.6562 97.6526 53.5249 97.5502 53.4229 97.4332C53.3354 97.3454 53.2771 97.2576 53.2042 97.1699C53.1167 97.0528 53.0146 96.9504 52.9271 96.8334C52.8688 96.7456 52.8105 96.6432 52.7522 96.5555C52.6793 96.4384 52.6064 96.3214 52.5481 96.2044C52.5043 96.102 52.4606 95.9996 52.4168 95.9118C52.3731 95.7948 52.3148 95.6777 52.271 95.5607C52.2419 95.4583 52.2273 95.3559 52.1981 95.2535C52.169 95.1365 52.1398 95.0194 52.1106 94.9024C52.0961 94.8 52.0961 94.6976 52.0815 94.5952C52.0815 94.4782 52.0523 94.3611 52.0523 94.2441C52.0523 94.2441 52.0523 94.2441 52.0523 94.2295L51.9648 96.6432C51.9648 98.4133 53.1167 100.169 55.4495 101.515C60.0569 104.192 67.522 104.192 72.1147 101.515C74.3893 100.183 75.5265 98.4572 75.5411 96.7017L75.6286 94.288C75.6286 94.405 75.614 94.5074 75.5994 94.6245H75.614Z" fill="#0A19C5"/>
<path d="M52.1094 94.5955C52.1094 94.6979 52.1094 94.8003 52.1385 94.9027C52.1531 95.0198 52.1969 95.1368 52.226 95.2538C52.2552 95.3562 52.2698 95.4586 52.2989 95.561C52.3427 95.6781 52.401 95.7951 52.4447 95.9121C52.4885 96.0145 52.5176 96.1169 52.5759 96.2047C52.6343 96.3217 52.7217 96.4388 52.7801 96.5558C52.8384 96.6436 52.8821 96.746 52.955 96.8337C53.0425 96.9508 53.13 97.0532 53.232 97.1702C53.305 97.258 53.3633 97.3457 53.4508 97.4335C53.5528 97.5505 53.684 97.6676 53.8007 97.77C53.8882 97.8431 53.9611 97.9309 54.0485 98.0187C54.1943 98.1503 54.3693 98.2673 54.5297 98.399C54.6026 98.4575 54.6755 98.516 54.763 98.5746C55.0108 98.7501 55.2879 98.9256 55.5795 99.1012C60.1868 101.778 67.6519 101.778 72.2447 99.1012C72.5363 98.9403 72.7987 98.7647 73.0466 98.5892C73.1341 98.5307 73.207 98.4575 73.2799 98.399C73.4403 98.282 73.6007 98.1503 73.7465 98.0333C73.8339 97.9601 73.8923 97.8724 73.9797 97.7992C74.0964 97.6822 74.2276 97.5652 74.3297 97.4481C74.4026 97.3604 74.4755 97.2726 74.5338 97.1848C74.6213 97.0678 74.7233 96.9654 74.8108 96.8484C74.8691 96.7606 74.9275 96.6582 74.9858 96.5704C75.0587 96.4534 75.1316 96.3364 75.1899 96.2193C75.2336 96.1169 75.2774 96.0292 75.3066 95.9268C75.3503 95.8097 75.4086 95.6927 75.4524 95.5757C75.4815 95.4733 75.4961 95.3709 75.5253 95.2831C75.5544 95.1661 75.5982 95.049 75.6127 94.932C75.6273 94.8296 75.6273 94.7272 75.6419 94.6248C75.8023 92.7523 74.665 90.8506 72.201 89.417C67.579 86.7399 60.1139 86.7399 55.5357 89.417C53.2466 90.7482 52.1094 92.489 52.1094 94.2444C52.1094 94.3615 52.124 94.4785 52.1385 94.5955H52.1094Z" fill="#FFB16B"/>
<path d="M66.3121 87.6176V85.0283L57.0536 86.4766L57.0391 89.0658L66.3121 87.6176Z" fill="#FFC087"/>
<path d="M72.1883 91.0261L73.1215 88.9634L66.3125 85.0283V87.6176L72.1883 91.0261Z" fill="#FFC087"/>
<path d="M57.0354 89.0658L57.05 86.4766L54.5859 91.8599L55.5191 92.4012L57.0354 89.0658Z" fill="#FFC087"/>
<path d="M75.2177 96.9947L75.2031 99.584L79.3002 90.602V87.998L75.2177 96.9947Z" fill="#FFD9B8"/>
<path d="M48.4208 92.8252L48.4062 95.4145L59.7643 101.983V99.3935L48.4208 92.8252Z" fill="#FFD9B8"/>
<path d="M59.7656 99.3942V101.984L75.2061 99.5844L75.2207 96.9951L59.7656 99.3942Z" fill="#FFE9D6"/>
<path d="M75.2204 96.9947L79.3028 88.0126L67.9594 81.4443L52.5189 83.8581L48.4219 92.8401L59.7653 99.4084L75.2058 97.0093L75.2204 96.9947ZM57.0534 86.4766L66.3118 85.0284L73.1208 88.9781L72.1877 91.0261L70.6713 94.3615L61.3983 95.8097L55.5225 92.4012L54.5893 91.86L57.0534 86.4766Z" fill="#FFF7F0"/>
<path d="M75.6126 85.35C75.6126 85.4524 75.6126 85.5548 75.5834 85.6572C75.5689 85.7743 75.5251 85.8913 75.496 86.0083C75.4668 86.1107 75.4522 86.2131 75.4231 86.3009C75.3793 86.4179 75.321 86.535 75.2773 86.652C75.2335 86.7544 75.2043 86.8422 75.1606 86.9446C75.1023 87.0616 75.0294 87.1786 74.9565 87.2957C74.8982 87.3834 74.8544 87.4858 74.7815 87.5736C74.694 87.6906 74.6066 87.8077 74.5045 87.9101C74.4316 87.9978 74.3733 88.0856 74.3004 88.1734C74.1983 88.2904 74.0671 88.4074 73.9504 88.5245C73.863 88.5976 73.8046 88.6854 73.7172 88.7585C73.5714 88.8902 73.411 89.0072 73.2506 89.1242C73.1631 89.1828 73.1048 89.2559 73.0173 89.3144C72.7695 89.49 72.4924 89.6655 72.2154 89.8264C67.6226 92.5035 60.1721 92.5035 55.5502 89.8264C55.2586 89.6655 54.9961 89.49 54.7337 89.2998C54.6462 89.2413 54.5879 89.1828 54.5004 89.1242C54.34 89.0072 54.1651 88.8756 54.0192 88.7439C53.9318 88.6708 53.8589 88.583 53.7714 88.4952C53.6547 88.3782 53.5235 88.2758 53.4215 88.1587C53.334 88.071 53.2757 87.9832 53.2028 87.8808C53.1153 87.7638 53.0132 87.6614 52.9257 87.5443C52.8674 87.4566 52.8091 87.3542 52.7508 87.2664C52.6779 87.1494 52.605 87.0323 52.5466 86.9153C52.5029 86.8129 52.4592 86.7251 52.4154 86.6227C52.3717 86.5057 52.3134 86.3887 52.2696 86.2716C52.2405 86.1692 52.2259 86.0668 52.1967 85.9644C52.1676 85.8474 52.1384 85.7304 52.1092 85.6134C52.0947 85.511 52.0947 85.4085 52.0801 85.3061C52.0801 85.1891 52.0509 85.0721 52.0509 84.9551C52.0509 84.9551 52.0509 84.9551 52.0509 84.9404V90.119C52.0363 91.8891 53.1882 93.6445 55.521 94.9904C60.143 97.6674 67.5935 97.6674 72.1862 94.9904C74.4608 93.6591 75.598 91.9183 75.6126 90.1775V84.9989C75.6272 85.116 75.6126 85.2184 75.6126 85.3354V85.35Z" fill="#FFCDA1"/>
<path style="mix-blend-mode:overlay" opacity="0.45" d="M75.6254 85.35C75.6254 85.4524 75.6254 85.5548 75.5962 85.6572C75.5816 85.7743 75.5379 85.8913 75.5087 86.0083C75.4796 86.1107 75.465 86.2131 75.4358 86.3009C75.3921 86.4179 75.3483 86.535 75.29 86.652C75.2463 86.7544 75.2171 86.8422 75.1734 86.9446C75.1151 87.0616 75.0421 87.1786 74.9692 87.2957C74.9109 87.3834 74.8672 87.4858 74.7943 87.5736C74.7068 87.6906 74.6193 87.8077 74.5173 87.9101C74.4444 87.9978 74.386 88.0856 74.3131 88.1734C74.2111 88.2904 74.0799 88.4074 73.9632 88.5245C73.8903 88.5976 73.8174 88.6854 73.7299 88.7585C73.5841 88.8902 73.4237 89.0072 73.2779 89.1242C73.1905 89.1828 73.1176 89.2559 73.0447 89.3144C72.7968 89.49 72.5198 89.6655 72.2427 89.8264C67.65 92.5035 60.1995 92.5035 55.5775 89.8264C55.2859 89.6655 55.0235 89.49 54.761 89.2998C54.6735 89.2413 54.6152 89.1828 54.5277 89.1242C54.3674 89.0072 54.1924 88.8756 54.0466 88.7439C53.9591 88.6708 53.8862 88.583 53.7987 88.4952C53.6821 88.3782 53.5509 88.2758 53.4488 88.1587C53.3613 88.071 53.303 87.9832 53.2301 87.8808C53.1426 87.7638 53.0406 87.6614 52.9531 87.5443C52.8948 87.4566 52.8364 87.3542 52.7781 87.2664C52.7052 87.1494 52.6323 87.0323 52.574 86.9153C52.5302 86.8129 52.4865 86.7251 52.4428 86.6227C52.399 86.5057 52.3407 86.3887 52.297 86.2716C52.2678 86.1692 52.2386 86.0668 52.2241 85.9644C52.1949 85.8474 52.1512 85.7304 52.1366 85.6134C52.122 85.511 52.122 85.4085 52.1074 85.3061C52.1074 85.1891 52.0783 85.0721 52.0783 84.9551C52.0783 84.9551 52.0783 84.9551 52.0783 84.9404V90.119C52.0637 91.8891 53.2155 93.6445 55.5484 94.9904C60.1557 97.6674 67.6208 97.6674 72.2136 94.9904C74.4881 93.6591 75.6254 91.9183 75.6399 90.1775V84.9989C75.6399 85.116 75.6399 85.2184 75.6399 85.3354L75.6254 85.35Z" fill="url(#paint3_linear_0_675)"/>
<path d="M52.1093 85.3211C52.1093 85.4235 52.1092 85.5259 52.1384 85.6283C52.153 85.7454 52.1967 85.8624 52.2259 85.9794C52.2551 86.0818 52.2696 86.1842 52.2988 86.2866C52.3425 86.4037 52.4009 86.5207 52.4446 86.6377C52.4883 86.7401 52.5175 86.8425 52.5758 86.9303C52.6341 87.0473 52.7216 87.1644 52.7799 87.2814C52.8383 87.3692 52.882 87.4716 52.9549 87.5593C53.0424 87.6764 53.1299 87.7788 53.2319 87.8958C53.3048 87.9836 53.3632 88.0713 53.4506 88.1737C53.5527 88.2908 53.6839 88.4078 53.8006 88.5102C53.888 88.5833 53.9609 88.6711 54.0484 88.7589C54.1942 88.8905 54.3692 89.0076 54.5296 89.1392C54.6025 89.1978 54.6754 89.2563 54.7629 89.3148C55.0107 89.4903 55.2877 89.6659 55.5793 89.8414C60.1867 92.5185 67.6518 92.5185 72.2446 89.8414C72.5362 89.6805 72.7986 89.505 73.0465 89.3294C73.134 89.2709 73.2069 89.1978 73.2798 89.1392C73.4402 89.0222 73.6005 88.9052 73.7463 88.7735C73.8338 88.7004 73.8921 88.6272 73.9796 88.5395C74.0963 88.4224 74.2275 88.3054 74.3295 88.1884C74.4025 88.1006 74.4753 88.0128 74.5337 87.9251C74.6212 87.808 74.7232 87.691 74.8107 87.5886C74.869 87.5008 74.9273 87.3984 74.9857 87.3106C75.0586 87.1936 75.1315 87.0766 75.1898 86.9596C75.2335 86.8572 75.2773 86.7694 75.3064 86.667C75.3502 86.5499 75.4085 86.4329 75.4522 86.3159C75.4814 86.2135 75.496 86.1111 75.5251 86.0233C75.5543 85.9063 75.598 85.7893 75.6126 85.6722C75.6272 85.5698 75.6272 85.4674 75.6418 85.365C75.8022 83.4925 74.6649 81.5908 72.2008 80.1572C67.5789 77.4802 60.1138 77.4802 55.5356 80.1572C53.2465 81.4884 52.1093 83.2439 52.1093 84.9847C52.1093 85.1017 52.1238 85.2187 52.1384 85.3358L52.1093 85.3211Z" fill="#FF8314"/>
<path d="M66.3121 78.3725V75.7832L57.0536 77.2314L57.0391 79.8207L66.3121 78.3725Z" fill="#FFC087"/>
<path d="M72.1883 81.781L73.1215 79.733L66.3125 75.7832V78.3725L72.1883 81.781Z" fill="#FFC087"/>
<path d="M57.0354 79.8207L57.05 77.2314L54.5859 82.6148L55.5191 83.1561L57.0354 79.8207Z" fill="#FFC087"/>
<path d="M75.2177 87.7496L75.2031 90.3389L79.3002 81.3569V78.7676L75.2177 87.7496Z" fill="#FFD9B8"/>
<path d="M48.4208 83.5801L48.4062 86.1694L59.7643 92.7523V90.1484L48.4208 83.5801Z" fill="#FFD9B8"/>
<path d="M59.7656 90.1491V92.753L75.2061 90.3393L75.2207 87.75L59.7656 90.1491Z" fill="#FFE9D6"/>
<path d="M75.2204 87.7495L79.3028 78.7675L67.9594 72.1992L52.5189 74.613L48.4219 83.595L59.7653 90.1633L75.2058 87.7642L75.2204 87.7495ZM57.0534 77.2315L66.3118 75.7833L73.1208 79.7184L72.1877 81.781L70.6713 85.1164L61.3983 86.5646L55.5225 83.1561L54.5893 82.6149L57.0534 77.2315Z" fill="#FFF7F0"/>
<path d="M75.6126 76.3393C75.6126 76.4417 75.6126 76.5441 75.5834 76.6465C75.5689 76.7636 75.5251 76.8806 75.496 76.9976C75.4668 77.1 75.4522 77.2024 75.4231 77.2902C75.3793 77.4072 75.321 77.5243 75.2773 77.6413C75.2335 77.7437 75.2043 77.8315 75.1606 77.9339C75.1023 78.0509 75.0294 78.1679 74.9565 78.285C74.8982 78.3727 74.8544 78.4751 74.7815 78.5629C74.694 78.6799 74.6066 78.797 74.5045 78.914C74.4316 79.0018 74.3733 79.0895 74.3004 79.1773C74.1983 79.2943 74.0671 79.4114 73.9504 79.5284C73.863 79.6015 73.8046 79.6893 73.7172 79.7625C73.5714 79.8941 73.411 80.0111 73.2506 80.1282C73.1631 80.1867 73.1048 80.2598 73.0173 80.3183C72.7695 80.4939 72.4924 80.6694 72.2154 80.8303C67.6226 83.5074 60.1721 83.5074 55.5502 80.8303C55.2586 80.6694 54.9961 80.4939 54.7337 80.3037C54.6462 80.2452 54.5879 80.1867 54.5004 80.1282C54.34 80.0111 54.1651 79.8795 54.0192 79.7478C53.9318 79.6747 53.8589 79.5869 53.7714 79.4991C53.6547 79.3821 53.5235 79.2797 53.4215 79.1627C53.334 79.0749 53.2757 78.9871 53.2028 78.8994C53.1153 78.7823 53.0132 78.6799 52.9257 78.5629C52.8674 78.4751 52.8091 78.3727 52.7508 78.285C52.6779 78.1679 52.605 78.0509 52.5466 77.9339C52.5029 77.8315 52.4592 77.7437 52.4154 77.6413C52.3717 77.5243 52.3134 77.4072 52.2696 77.2902C52.2405 77.1878 52.2259 77.0854 52.1967 76.983C52.1676 76.866 52.1384 76.7489 52.1092 76.6319C52.0947 76.5295 52.0947 76.4271 52.0801 76.3247C52.0801 76.2077 52.0509 76.0906 52.0509 75.9736C52.0509 75.9736 52.0509 75.9736 52.0509 75.959V81.1376C52.0363 82.9076 53.1882 84.6631 55.521 86.0089C60.143 88.686 67.5935 88.686 72.1862 86.0089C74.4608 84.6777 75.598 82.9369 75.6126 81.1961V76.0175C75.6272 76.1345 75.6126 76.2369 75.6126 76.354V76.3393Z" fill="#FFBE85"/>
<path style="mix-blend-mode:overlay" opacity="0.45" d="M75.6254 76.3393C75.6254 76.4417 75.6254 76.5441 75.5962 76.6465C75.5816 76.7636 75.5379 76.8806 75.5087 76.9976C75.4796 77.1 75.465 77.2024 75.4358 77.2902C75.3921 77.4072 75.3483 77.5243 75.29 77.6413C75.2463 77.7437 75.2171 77.8315 75.1734 77.9339C75.1151 78.0509 75.0421 78.1679 74.9692 78.285C74.9109 78.3727 74.8672 78.4751 74.7943 78.5629C74.7068 78.6799 74.6193 78.797 74.5173 78.914C74.4444 79.0018 74.386 79.0895 74.3131 79.1773C74.2111 79.2943 74.0799 79.4114 73.9632 79.5284C73.8903 79.6015 73.8174 79.6893 73.7299 79.7625C73.5841 79.8941 73.4237 80.0111 73.2779 80.1282C73.1905 80.1867 73.1176 80.2598 73.0447 80.3183C72.7968 80.4939 72.5198 80.6694 72.2427 80.8303C67.65 83.5074 60.1995 83.5074 55.5775 80.8303C55.2859 80.6694 55.0235 80.4939 54.761 80.3037C54.6735 80.2452 54.6152 80.1867 54.5277 80.1282C54.3674 80.0111 54.1924 79.8795 54.0466 79.7478C53.9591 79.6747 53.8862 79.5869 53.7987 79.4991C53.6821 79.3821 53.5509 79.2797 53.4488 79.1627C53.3613 79.0749 53.303 78.9871 53.2301 78.8994C53.1426 78.7823 53.0406 78.6799 52.9531 78.5629C52.8948 78.4751 52.8364 78.3727 52.7781 78.285C52.7052 78.1679 52.6323 78.0509 52.574 77.9339C52.5302 77.8315 52.4865 77.7437 52.4428 77.6413C52.399 77.5243 52.3407 77.4072 52.297 77.2902C52.2678 77.1878 52.2386 77.0854 52.2241 76.983C52.1949 76.866 52.1512 76.7489 52.1366 76.6319C52.122 76.5295 52.122 76.4271 52.1074 76.3247C52.1074 76.2077 52.0783 76.0906 52.0783 75.9736C52.0783 75.9736 52.0783 75.9736 52.0783 75.959V81.1376C52.0637 82.9076 53.2155 84.6631 55.5484 86.0089C60.1557 88.686 67.6208 88.686 72.2136 86.0089C74.4881 84.6777 75.6254 82.9369 75.6399 81.1961V76.0175C75.6399 76.1345 75.6399 76.2369 75.6399 76.354L75.6254 76.3393Z" fill="url(#paint4_linear_0_675)"/>
<path d="M52.1093 76.3104C52.1093 76.4128 52.1092 76.5152 52.1384 76.6176C52.153 76.7346 52.1967 76.8516 52.2259 76.9687C52.2551 77.0711 52.2696 77.1735 52.2988 77.2759C52.3425 77.3929 52.4009 77.5099 52.4446 77.6269C52.4883 77.7293 52.5175 77.8171 52.5758 77.9195C52.6341 78.0365 52.7216 78.1536 52.7799 78.2706C52.8383 78.3584 52.882 78.4608 52.9549 78.5486C53.0424 78.6656 53.1299 78.768 53.2319 78.885C53.3048 78.9728 53.3632 79.0752 53.4506 79.1483C53.5527 79.2654 53.6839 79.3824 53.8006 79.4848C53.888 79.5726 53.9609 79.6457 54.0484 79.7335C54.1942 79.8651 54.3692 79.9822 54.5296 80.1138C54.6025 80.1723 54.6754 80.2309 54.7629 80.2894C55.0107 80.4649 55.2877 80.6405 55.5793 80.816C60.1867 83.4931 67.6518 83.4931 72.2446 80.816C72.5362 80.6551 72.7986 80.4795 73.0465 80.304C73.134 80.2455 73.2069 80.1723 73.2798 80.1138C73.4402 79.9968 73.6005 79.8798 73.7463 79.7481C73.8338 79.675 73.8921 79.5872 73.9796 79.514C74.0963 79.397 74.2275 79.28 74.3295 79.163C74.4025 79.0752 74.4753 78.9874 74.5337 78.8996C74.6212 78.7826 74.7232 78.6656 74.8107 78.5486C74.869 78.4608 74.9273 78.3584 74.9857 78.2706C75.0586 78.1536 75.1315 78.0365 75.1898 77.9195C75.2335 77.8171 75.2773 77.7293 75.3064 77.6269C75.3502 77.5099 75.4085 77.3929 75.4522 77.2759C75.4814 77.1735 75.496 77.0711 75.5251 76.9833C75.5543 76.8663 75.598 76.7492 75.6126 76.6322C75.6272 76.5298 75.6272 76.4274 75.6418 76.325C75.8022 74.4525 74.6649 72.5508 72.2008 71.1172C67.5789 68.4401 60.1138 68.4401 55.5356 71.1172C53.2465 72.4484 52.1093 74.2038 52.1093 75.9446C52.1093 76.0617 52.1238 76.1787 52.1384 76.2957L52.1093 76.3104Z" fill="#FF8314"/>
<path d="M66.3121 69.3617V66.7725L57.0536 68.2207L57.0391 70.81L66.3121 69.3617Z" fill="#FFC087"/>
<path d="M72.1883 72.7702L73.1215 70.7222L66.3125 66.7725V69.3617L72.1883 72.7702Z" fill="#FFC087"/>
<path d="M57.0354 70.81L57.05 68.2207L54.5859 73.6041L55.5191 74.1453L57.0354 70.81Z" fill="#FFC087"/>
<path d="M75.2177 78.7389L75.2031 81.3282L79.3002 72.3461V69.7568L75.2177 78.7389Z" fill="#FFD9B8"/>
<path d="M48.4208 74.5693L48.4062 77.1586L59.7643 83.7415V81.1376L48.4208 74.5693Z" fill="#FFD9B8"/>
<path d="M59.7656 81.1384V83.7423L75.2061 81.3285L75.2207 78.7393L59.7656 81.1384Z" fill="#FFE9D6"/>
<path d="M75.2204 78.7388L79.3028 69.7568L67.9594 63.1885L52.5189 65.6022L48.4219 74.5842L59.7653 81.1525L75.2058 78.7534L75.2204 78.7388ZM57.0534 68.2208L66.3118 66.7725L73.1208 70.7223L72.1877 72.7849L70.6713 76.1203L61.3983 77.5539L55.5225 74.1454L54.5893 73.6041L57.0534 68.2208Z" fill="#FFF7F0"/>
<path d="M75.614 70.268C75.614 70.3704 75.614 70.4728 75.5848 70.5752C75.5703 70.6923 75.5265 70.8093 75.4974 70.9263C75.4682 71.0287 75.4536 71.1311 75.4245 71.2189C75.3807 71.3359 75.3224 71.4529 75.2787 71.57C75.2349 71.6724 75.2058 71.7602 75.162 71.8626C75.1037 71.9796 75.0308 72.0966 74.9579 72.2136C74.8996 72.3014 74.8558 72.4038 74.7829 72.4916C74.6955 72.6086 74.608 72.7257 74.5059 72.8427C74.433 72.9305 74.3747 73.0182 74.3018 73.106C74.1997 73.223 74.0685 73.3401 73.9519 73.4571C73.8644 73.5302 73.8061 73.618 73.7186 73.6911C73.5728 73.8228 73.4124 73.9398 73.252 74.0569C73.1645 74.1154 73.1062 74.1885 73.0187 74.247C72.7709 74.4226 72.4938 74.5981 72.2168 74.759C67.624 77.4361 60.1735 77.4361 55.5516 74.759C55.26 74.5835 54.9975 74.4226 54.7351 74.2324C54.6476 74.1739 54.5893 74.1154 54.5018 74.0569C54.3414 73.9398 54.1665 73.8082 54.0207 73.6765C53.9332 73.6034 53.8603 73.5156 53.7728 73.4278C53.6562 73.3108 53.5249 73.2084 53.4229 73.0914C53.3354 73.0036 53.2771 72.9158 53.2042 72.8134C53.1167 72.6964 53.0146 72.594 52.9271 72.477C52.8688 72.3892 52.8105 72.2868 52.7522 72.199C52.6793 72.082 52.6064 71.965 52.5481 71.8479C52.5043 71.7455 52.4606 71.6578 52.4168 71.5554C52.3731 71.4383 52.3148 71.3213 52.271 71.2043C52.2419 71.1019 52.2273 70.9995 52.1981 70.8971C52.169 70.78 52.1398 70.663 52.1106 70.546C52.0961 70.4436 52.0961 70.3412 52.0815 70.2388C52.0815 70.1217 52.0523 70.0047 52.0523 69.8877C52.0523 69.8877 52.0523 69.8877 52.0523 69.873L51.9648 72.2868C51.9648 74.0569 53.1167 75.8123 55.4495 77.1581C60.0569 79.8352 67.522 79.8352 72.1147 77.1581C74.3893 75.8269 75.5265 74.0861 75.5411 72.3453L75.6286 69.9316C75.6286 70.0486 75.614 70.151 75.5994 70.268H75.614Z" fill="#FFB16B"/>
<path style="mix-blend-mode:multiply" opacity="0.45" d="M75.6268 70.268C75.6268 70.3704 75.6268 70.4728 75.5976 70.5752C75.583 70.6923 75.5393 70.8093 75.5101 70.9263C75.481 71.0287 75.4664 71.1311 75.4372 71.2189C75.3935 71.3359 75.3497 71.4529 75.2914 71.57C75.2477 71.6724 75.2185 71.7602 75.1748 71.8626C75.1165 71.9796 75.0436 72.0966 74.9707 72.2136C74.9123 72.3014 74.8686 72.4038 74.7957 72.4916C74.7082 72.6086 74.6207 72.7257 74.5187 72.8427C74.4458 72.9305 74.3875 73.0182 74.3146 73.106C74.2125 73.223 74.0813 73.3401 73.9646 73.4571C73.8917 73.5302 73.8188 73.618 73.7313 73.6911C73.5855 73.8228 73.4251 73.9398 73.2793 74.0569C73.1919 74.1154 73.119 74.1885 73.0461 74.247C72.7982 74.4226 72.5212 74.5981 72.2442 74.759C67.6514 77.4361 60.2009 77.4361 55.5789 74.759C55.2873 74.5835 55.0249 74.4226 54.7624 74.2324C54.675 74.1739 54.6166 74.1154 54.5292 74.0569C54.3688 73.9398 54.1938 73.8082 54.048 73.6765C53.9605 73.6034 53.8876 73.5156 53.8001 73.4278C53.6835 73.3108 53.5523 73.2084 53.4502 73.0914C53.3627 73.0036 53.3044 72.9158 53.2315 72.8134C53.144 72.6964 53.042 72.594 52.9545 72.477C52.8962 72.3892 52.8378 72.2868 52.7795 72.199C52.7066 72.082 52.6337 71.965 52.5754 71.8479C52.5317 71.7455 52.4879 71.6578 52.4442 71.5554C52.4004 71.4383 52.3421 71.3213 52.2984 71.2043C52.2692 71.1019 52.2401 70.9995 52.2255 70.8971C52.1963 70.78 52.1526 70.663 52.138 70.546C52.1234 70.4436 52.1234 70.3412 52.1088 70.2388C52.1088 70.1217 52.0797 70.0047 52.0797 69.8877C52.0797 69.8877 52.0797 69.8877 52.0797 69.873L51.9922 72.2868C51.9922 74.0569 53.144 75.8123 55.4769 77.1581C60.0842 79.8352 67.5493 79.8352 72.1421 77.1581C74.4166 75.8269 75.5539 74.0861 75.5685 72.3453L75.6559 69.9316C75.6559 70.0486 75.6413 70.151 75.6268 70.268Z" fill="url(#paint5_linear_0_675)"/>
<path d="M52.1094 70.2244C52.1094 70.3268 52.1094 70.4292 52.1385 70.5316C52.1531 70.6487 52.1969 70.7657 52.226 70.8827C52.2552 70.9851 52.2698 71.0875 52.2989 71.1899C52.3427 71.307 52.401 71.424 52.4447 71.541C52.4885 71.6434 52.5176 71.7312 52.5759 71.8336C52.6343 71.9506 52.7217 72.0677 52.7801 72.1847C52.8384 72.2725 52.8821 72.3749 52.955 72.4626C53.0425 72.5797 53.13 72.6821 53.232 72.7991C53.305 72.8869 53.3633 72.9746 53.4508 73.077C53.5528 73.1941 53.684 73.3111 53.8007 73.4135C53.8882 73.5013 53.9611 73.5744 54.0485 73.6622C54.1943 73.7938 54.3693 73.9109 54.5297 74.0425C54.6026 74.1011 54.6755 74.1596 54.763 74.2181C55.0108 74.3936 55.2879 74.5692 55.5795 74.7447C60.1868 77.4218 67.6519 77.4218 72.2447 74.7447C72.5363 74.5838 72.7987 74.4083 73.0466 74.2327C73.1341 74.1742 73.207 74.1011 73.2799 74.0425C73.4403 73.9255 73.6007 73.8085 73.7465 73.6768C73.8339 73.6037 73.8923 73.5305 73.9797 73.4428C74.0964 73.3257 74.2276 73.2087 74.3297 73.0917C74.4026 73.0039 74.4755 72.9161 74.5338 72.8284C74.6213 72.7113 74.7233 72.5943 74.8108 72.4773C74.8691 72.3895 74.9275 72.2871 74.9858 72.1993C75.0587 72.0823 75.1316 71.9653 75.1899 71.8482C75.2336 71.7458 75.2774 71.6581 75.3066 71.5557C75.3503 71.4386 75.4086 71.3216 75.4524 71.2046C75.4815 71.1022 75.4961 71.0144 75.5253 70.912C75.5544 70.795 75.5982 70.6779 75.6127 70.5609C75.6273 70.4585 75.6273 70.3561 75.6419 70.2537C75.8023 68.3812 74.665 66.4795 72.201 65.0459C67.579 62.3688 60.1139 62.3688 55.5357 65.0459C53.2466 66.3771 52.1094 68.1325 52.1094 69.8734C52.1094 69.9904 52.124 70.1074 52.1385 70.2244H52.1094Z" fill="#FFB16B"/>
<path d="M89.2018 35.7293C88.8956 35.5538 88.3853 35.5538 88.0791 35.7293L78.8644 41.0981C78.7186 41.0103 78.5728 40.9225 78.4124 40.8347C70.3641 36.1682 57.3002 36.1682 49.2956 40.8347C49.179 40.8933 49.0769 40.9664 48.9749 41.0249L39.8914 35.7293C39.5852 35.5538 39.0895 35.5538 38.7687 35.7293C38.4625 35.9049 38.4625 36.1974 38.7687 36.3876L47.9251 41.7271C44.7903 43.9507 43.0845 46.7447 43.0845 49.729C43.0845 53.0497 45.2132 56.151 49.0624 58.477L39.279 64.1822C38.9728 64.3577 38.9728 64.6503 39.279 64.8258C39.5852 65.0014 40.0955 65.0014 40.4017 64.8258L50.2142 59.106C54.1217 61.1394 59.0352 62.1634 63.9488 62.1634C68.8623 62.1634 73.805 61.1248 77.698 59.0767L87.5396 64.8112C87.8458 64.9867 88.3561 64.9867 88.6623 64.8112C88.9685 64.6357 88.9685 64.3431 88.6623 64.1675L78.8352 58.4477C82.6261 56.1364 84.7111 53.0643 84.6965 49.7729C84.6965 46.8033 82.9906 44.0238 79.885 41.8002L89.1726 36.3876C89.4788 36.2121 89.4788 35.9195 89.1726 35.7293H89.2018ZM83.151 49.7729C83.151 52.5816 81.2264 55.244 77.7271 57.292C70.16 61.7099 57.8105 61.7099 50.1996 57.292C46.642 55.2294 44.6883 52.5523 44.6883 49.7144C44.6883 46.9057 46.6129 44.2432 50.1121 42.1952C53.8884 39.9863 58.8749 38.8891 63.8613 38.8891C68.8477 38.8891 73.8342 39.9863 77.6396 42.1952C81.1972 44.2579 83.151 46.9349 83.151 49.7583V49.7729Z" fill="#FFE9D6"/>
<path d="M75.614 49.5825C75.614 49.6849 75.614 49.7873 75.5848 49.8897C75.5703 50.0067 75.5265 50.1237 75.4974 50.2408C75.4682 50.3432 75.4536 50.4456 75.4245 50.5333C75.3807 50.6504 75.3224 50.7674 75.2787 50.8844C75.2349 50.9868 75.2058 51.0746 75.162 51.177C75.1037 51.294 75.0308 51.4111 74.9579 51.5281C74.8996 51.6159 74.8558 51.7183 74.7829 51.806C74.6955 51.9231 74.608 52.0401 74.5059 52.1571C74.433 52.2449 74.3747 52.3327 74.3018 52.4204C74.1997 52.5375 74.0685 52.6545 73.9519 52.7715C73.8644 52.8447 73.8061 52.9325 73.7186 53.0056C73.5728 53.1373 73.4124 53.2543 73.252 53.3713C73.1645 53.4298 73.1062 53.503 73.0187 53.5615C72.7709 53.737 72.4938 53.9126 72.2168 54.0735C67.624 56.7505 60.1735 56.7505 55.5516 54.0735C55.26 53.8979 54.9975 53.737 54.7351 53.5469C54.6476 53.4883 54.5893 53.4298 54.5018 53.3713C54.3414 53.2543 54.1665 53.1226 54.0207 52.991C53.9332 52.9032 53.8603 52.8301 53.7728 52.7423C53.6562 52.6252 53.5249 52.5228 53.4229 52.4058C53.3354 52.318 53.2771 52.2303 53.2042 52.1279C53.1167 52.0108 53.0146 51.9084 52.9271 51.7914C52.8688 51.7036 52.8105 51.6012 52.7522 51.5135C52.6793 51.3964 52.6064 51.2794 52.5481 51.1624C52.5043 51.06 52.4606 50.9722 52.4168 50.8698C52.3731 50.7528 52.3148 50.6357 52.271 50.5187C52.2419 50.4163 52.2273 50.3139 52.1981 50.2115C52.169 50.0945 52.1398 49.9775 52.1106 49.8604C52.0961 49.758 52.0961 49.6556 52.0815 49.5532C52.0815 49.4362 52.0523 49.3192 52.0523 49.2021C52.0523 49.2021 52.0523 49.2021 52.0523 49.1875L51.9648 51.6012C51.9648 53.3713 53.1167 55.1268 55.4495 56.4726C60.0569 59.1497 67.522 59.1497 72.1147 56.4726C74.3893 55.1414 75.5265 53.4006 75.5411 51.6598L75.6286 49.246C75.6286 49.363 75.614 49.4654 75.5994 49.5825H75.614Z" fill="#0A19C5"/>
<path d="M52.1094 49.5389C52.1094 49.6413 52.1094 49.7437 52.1385 49.8461C52.1531 49.9631 52.1969 50.0802 52.226 50.1972C52.2552 50.2996 52.2698 50.402 52.2989 50.5044C52.3427 50.6214 52.401 50.7384 52.4447 50.8555C52.4885 50.9579 52.5176 51.0457 52.5759 51.1481C52.6343 51.2651 52.7217 51.3821 52.7801 51.4991C52.8384 51.5869 52.8821 51.6893 52.955 51.7771C53.0425 51.8941 53.13 51.9965 53.232 52.1135C53.305 52.2013 53.3633 52.2891 53.4508 52.3915C53.5528 52.5085 53.684 52.6109 53.8007 52.728C53.8882 52.8157 53.9611 52.8889 54.0485 52.9766C54.1943 53.1083 54.3693 53.2253 54.5297 53.357C54.6026 53.4155 54.6755 53.474 54.763 53.5325C55.0108 53.7081 55.2879 53.8836 55.5795 54.0592C60.1868 56.7362 67.6519 56.7362 72.2447 54.0592C72.5363 53.8983 72.7987 53.7227 73.0466 53.5472C73.1341 53.4886 73.207 53.4155 73.2799 53.357C73.4403 53.24 73.6007 53.1229 73.7465 52.9913C73.8339 52.9181 73.8923 52.8304 73.9797 52.7572C74.0964 52.6402 74.2276 52.5232 74.3297 52.4061C74.4026 52.3184 74.4755 52.2306 74.5338 52.1428C74.6213 52.0258 74.7233 51.9087 74.8108 51.7917C74.8691 51.7039 74.9275 51.6015 74.9858 51.5138C75.0587 51.3967 75.1316 51.2797 75.1899 51.1627C75.2336 51.0603 75.2774 50.9725 75.3066 50.8701C75.3503 50.7531 75.4086 50.636 75.4524 50.519C75.4815 50.4166 75.4961 50.3142 75.5253 50.2264C75.5544 50.1094 75.5982 49.9924 75.6127 49.8754C75.6273 49.773 75.6273 49.6706 75.6419 49.5682C75.8023 47.6957 74.665 45.7939 72.201 44.3603C67.579 41.6833 60.1139 41.6833 55.5357 44.3603C53.2466 45.6915 52.1094 47.447 52.1094 49.1878C52.1094 49.3048 52.124 49.4219 52.1385 49.5389H52.1094Z" fill="#FFB16B"/>
<path d="M66.3121 42.561V39.9717L57.0536 41.4199L57.0391 44.0092L66.3121 42.561Z" fill="#FFC087"/>
<path d="M72.1883 45.9695L73.1215 43.9214L66.3125 39.9717V42.561L72.1883 45.9695Z" fill="#FFC087"/>
<path d="M57.0354 44.0092L57.05 41.4199L54.5859 46.8033L55.5191 47.3446L57.0354 44.0092Z" fill="#FFC087"/>
<path d="M75.2177 51.9381L75.2031 54.5274L79.3002 45.5453V42.9561L75.2177 51.9381Z" fill="#FFD9B8"/>
<path d="M48.4208 47.7686L48.4062 50.3578L59.7643 56.9408V54.3515L48.4208 47.7686Z" fill="#FFD9B8"/>
<path d="M59.7656 54.3522V56.9415L75.2061 54.5278L75.2207 51.9385L59.7656 54.3522Z" fill="#FFE9D6"/>
<path d="M75.2204 51.938L79.3028 42.956L67.9594 36.3877L52.5189 38.8014L48.4219 47.7835L59.7653 54.3664L75.2058 51.9673L75.2204 51.938ZM57.0534 41.42L66.3118 39.9717L73.1208 43.9215L72.1877 45.9695L70.6713 49.3049L61.3983 50.7531L55.5225 47.3446L54.5893 46.8033L57.0534 41.42Z" fill="#FFF7F0"/>
<path d="M75.6126 40.2934C75.6126 40.3958 75.6126 40.4982 75.5834 40.6006C75.5689 40.7176 75.5251 40.8347 75.496 40.9517C75.4668 41.0541 75.4522 41.1565 75.4231 41.2443C75.3793 41.3613 75.321 41.4783 75.2773 41.5953C75.2335 41.6977 75.2043 41.7855 75.1606 41.8879C75.1023 42.005 75.0294 42.122 74.9565 42.2244C74.8982 42.3122 74.8544 42.4146 74.7815 42.5023C74.694 42.6194 74.6066 42.7364 74.5045 42.8534C74.4316 42.9412 74.3733 43.029 74.3004 43.1167C74.1983 43.2338 74.0671 43.3508 73.9504 43.4678C73.863 43.541 73.8046 43.6287 73.7172 43.7019C73.5714 43.8189 73.411 43.9506 73.2506 44.0676C73.1631 44.1261 73.1048 44.1993 73.0173 44.2578C72.7695 44.4333 72.4924 44.6089 72.2154 44.7698C67.6226 47.4468 60.1721 47.4468 55.5502 44.7698C55.2586 44.6089 54.9961 44.4333 54.7337 44.2431C54.6462 44.1846 54.5879 44.1261 54.5004 44.0676C54.34 43.9506 54.1651 43.8189 54.0192 43.6873C53.9318 43.6141 53.8589 43.5263 53.7714 43.4386C53.6547 43.3215 53.5235 43.2191 53.4215 43.1021C53.334 43.0143 53.2757 42.9266 53.2028 42.8242C53.1153 42.7071 53.0132 42.6047 52.9257 42.4877C52.8674 42.3999 52.8091 42.2975 52.7508 42.2098C52.6779 42.0927 52.605 41.9757 52.5466 41.8587C52.5029 41.7563 52.4592 41.6685 52.4154 41.5661C52.3717 41.4491 52.3134 41.332 52.2696 41.215C52.2405 41.1126 52.2259 41.0102 52.1967 40.9078C52.1676 40.7908 52.1384 40.6737 52.1092 40.5567C52.0947 40.4543 52.0947 40.3519 52.0801 40.2495C52.0801 40.1325 52.0509 40.0154 52.0509 39.8984C52.0509 39.8984 52.0509 39.8984 52.0509 39.8838V45.0624C52.0363 46.8324 53.1882 48.5879 55.521 49.9337C60.143 52.6108 67.5935 52.6108 72.1862 49.9337C74.4608 48.6025 75.598 46.8617 75.6126 45.1209V39.9423C75.6272 40.0593 75.6126 40.1617 75.6126 40.2788V40.2934Z" fill="#FFCDA1"/>
<path style="mix-blend-mode:overlay" opacity="0.45" d="M75.6254 40.2934C75.6254 40.3958 75.6254 40.4982 75.5962 40.6006C75.5816 40.7176 75.5379 40.8347 75.5087 40.9517C75.4796 41.0541 75.465 41.1565 75.4358 41.2443C75.3921 41.3613 75.3483 41.4783 75.29 41.5953C75.2463 41.6977 75.2171 41.7855 75.1734 41.8879C75.1151 42.005 75.0421 42.122 74.9692 42.2244C74.9109 42.3122 74.8672 42.4146 74.7943 42.5023C74.7068 42.6194 74.6193 42.7364 74.5173 42.8534C74.4444 42.9412 74.386 43.029 74.3131 43.1167C74.2111 43.2338 74.0799 43.3508 73.9632 43.4678C73.8903 43.541 73.8174 43.6287 73.7299 43.7019C73.5841 43.8189 73.4237 43.9506 73.2779 44.0676C73.1905 44.1261 73.1176 44.1993 73.0447 44.2578C72.7968 44.4333 72.5198 44.6089 72.2427 44.7698C67.65 47.4468 60.1995 47.4468 55.5775 44.7698C55.2859 44.6089 55.0235 44.4333 54.761 44.2431C54.6735 44.1846 54.6152 44.1261 54.5277 44.0676C54.3674 43.9506 54.1924 43.8189 54.0466 43.6873C53.9591 43.6141 53.8862 43.5263 53.7987 43.4386C53.6821 43.3215 53.5509 43.2191 53.4488 43.1021C53.3613 43.0143 53.303 42.9266 53.2301 42.8242C53.1426 42.7071 53.0406 42.6047 52.9531 42.4877C52.8948 42.3999 52.8364 42.2975 52.7781 42.2098C52.7052 42.0927 52.6323 41.9757 52.574 41.8587C52.5302 41.7563 52.4865 41.6685 52.4428 41.5661C52.399 41.4491 52.3407 41.332 52.297 41.215C52.2678 41.1126 52.2386 41.0102 52.2241 40.9078C52.1949 40.7908 52.1512 40.6737 52.1366 40.5567C52.122 40.4543 52.122 40.3519 52.1074 40.2495C52.1074 40.1325 52.0783 40.0154 52.0783 39.8984C52.0783 39.8984 52.0783 39.8984 52.0783 39.8838V45.0624C52.0637 46.8324 53.2155 48.5879 55.5484 49.9337C60.1557 52.6108 67.6208 52.6108 72.2136 49.9337C74.4881 48.6025 75.6254 46.8617 75.6399 45.1209V39.9423C75.6399 40.0593 75.6399 40.1617 75.6399 40.2788L75.6254 40.2934Z" fill="url(#paint6_linear_0_675)"/>
<path d="M52.1093 40.2645C52.1093 40.3669 52.1092 40.4693 52.1384 40.5717C52.153 40.6887 52.1967 40.8058 52.2259 40.9228C52.2551 41.0252 52.2696 41.1276 52.2988 41.23C52.3425 41.347 52.4009 41.4641 52.4446 41.5811C52.4883 41.6835 52.5175 41.7713 52.5758 41.8737C52.6341 41.9907 52.7216 42.1077 52.7799 42.2247C52.8383 42.3125 52.882 42.4149 52.9549 42.5027C53.0424 42.6197 53.1299 42.7221 53.2319 42.8392C53.3048 42.9269 53.3632 43.0147 53.4506 43.1171C53.5527 43.2341 53.6839 43.3512 53.8006 43.4536C53.888 43.5413 53.9609 43.6145 54.0484 43.7023C54.1942 43.8339 54.3692 43.9509 54.5296 44.0826C54.6025 44.1411 54.6754 44.1996 54.7629 44.2581C55.0107 44.4337 55.2877 44.6092 55.5793 44.7848C60.1867 47.4618 67.6518 47.4618 72.2446 44.7848C72.5362 44.6239 72.7986 44.4483 73.0465 44.2728C73.134 44.2143 73.2069 44.1411 73.2798 44.0826C73.4402 43.9656 73.6005 43.8485 73.7463 43.7169C73.8338 43.6437 73.8921 43.556 73.9796 43.4828C74.0963 43.3658 74.2275 43.2488 74.3295 43.1317C74.4025 43.044 74.4753 42.9562 74.5337 42.8684C74.6212 42.7514 74.7232 42.6344 74.8107 42.5173C74.869 42.4296 74.9273 42.3272 74.9857 42.2394C75.0586 42.1223 75.1315 42.0053 75.1898 41.9029C75.2335 41.8005 75.2773 41.7127 75.3064 41.6103C75.3502 41.4933 75.4085 41.3763 75.4522 41.2593C75.4814 41.1569 75.496 41.0545 75.5251 40.9667C75.5543 40.8497 75.598 40.7326 75.6126 40.6156C75.6272 40.5132 75.6272 40.4108 75.6418 40.3084C75.8022 38.4359 74.6649 36.5342 72.2008 35.1006C67.5789 32.4235 60.1138 32.4235 55.5356 35.1006C53.2465 36.4318 52.1093 38.1872 52.1093 39.928C52.1093 40.0451 52.1238 40.1621 52.1384 40.2791L52.1093 40.2645Z" fill="#FF8314"/>
<path d="M66.3121 33.3161V30.7268L57.0536 32.175L57.0391 34.7643L66.3121 33.3161Z" fill="#FFC087"/>
<path d="M72.1883 36.7246L73.1215 34.6766L66.3125 30.7268V33.3161L72.1883 36.7246Z" fill="#FFC087"/>
<path d="M57.0354 34.7643L57.05 32.175L54.5859 37.5584L55.5191 38.0997L57.0354 34.7643Z" fill="#FFC087"/>
<path d="M75.2177 42.6932L75.2031 45.2825L79.3002 36.3005V33.7112L75.2177 42.6932Z" fill="#FFD9B8"/>
<path d="M48.4208 38.5237L48.4062 41.113L59.7643 47.6959V45.1066L48.4208 38.5237Z" fill="#FFD9B8"/>
<path d="M59.7656 45.1073V47.6966L75.2061 45.2829L75.2207 42.6936L59.7656 45.1073Z" fill="#FFE9D6"/>
<path d="M75.2204 42.6931L79.3028 33.7111L67.9594 27.1428L52.5189 29.5566L48.4219 38.5386L59.7653 45.1215L75.2058 42.7078L75.2204 42.6931ZM57.0534 32.1751L66.3118 30.7269L73.1208 34.6766L72.1877 36.7393L70.6713 40.0746L61.3983 41.5229L55.5225 38.1144L54.5893 37.5731L57.0534 32.1897V32.1751Z" fill="#FFF7F0"/>
<path d="M75.6126 31.2827C75.6126 31.3851 75.6126 31.4875 75.5834 31.5899C75.5689 31.7069 75.5251 31.8239 75.496 31.941C75.4668 32.0434 75.4522 32.1458 75.4231 32.2335C75.3793 32.3506 75.321 32.4676 75.2773 32.5846C75.2335 32.687 75.2043 32.7748 75.1606 32.8772C75.1023 32.9942 75.0294 33.1113 74.9565 33.2283C74.8982 33.3161 74.8544 33.4185 74.7815 33.5062C74.694 33.6233 74.6066 33.7403 74.5045 33.8573C74.4316 33.9451 74.3733 34.0329 74.3004 34.1206C74.1983 34.2377 74.0671 34.3547 73.9504 34.4717C73.863 34.5449 73.8046 34.6326 73.7172 34.7058C73.5714 34.8228 73.411 34.9545 73.2506 35.0715C73.1631 35.13 73.1048 35.2032 73.0173 35.2617C72.7695 35.4372 72.4924 35.6128 72.2154 35.7737C67.6226 38.4507 60.1721 38.4507 55.5502 35.7737C55.2586 35.6128 54.9961 35.4372 54.7337 35.2471C54.6462 35.1885 54.5879 35.13 54.5004 35.0715C54.34 34.9545 54.1651 34.8228 54.0192 34.6912C53.9318 34.618 53.8589 34.5302 53.7714 34.4425C53.6547 34.3254 53.5235 34.223 53.4215 34.106C53.334 34.0182 53.2757 33.9305 53.2028 33.8281C53.1153 33.711 53.0132 33.6086 52.9257 33.4916C52.8674 33.4038 52.8091 33.3014 52.7508 33.2137C52.6779 33.0966 52.605 32.9796 52.5466 32.8626C52.5029 32.7602 52.4592 32.6724 52.4154 32.57C52.3717 32.453 52.3134 32.3359 52.2696 32.2189C52.2405 32.1165 52.2259 32.0141 52.1967 31.9117C52.1676 31.7947 52.1384 31.6776 52.1092 31.5606C52.0947 31.4582 52.0947 31.3558 52.0801 31.2534C52.0801 31.1364 52.0509 31.0194 52.0509 30.9023C52.0509 30.9023 52.0509 30.9023 52.0509 30.8877V36.0663C52.0363 37.8363 53.1882 39.5918 55.521 40.9376C60.143 43.6147 67.5935 43.6147 72.1862 40.9376C74.4608 39.6064 75.598 37.8656 75.6126 36.1248V30.9462C75.6272 31.0632 75.6126 31.1656 75.6126 31.2827Z" fill="#FFBE85"/>
<path style="mix-blend-mode:overlay" opacity="0.45" d="M75.6254 31.2827C75.6254 31.3851 75.6254 31.4875 75.5962 31.5899C75.5816 31.7069 75.5379 31.8239 75.5087 31.941C75.4796 32.0434 75.465 32.1458 75.4358 32.2335C75.3921 32.3506 75.3483 32.4676 75.29 32.5846C75.2463 32.687 75.2171 32.7748 75.1734 32.8772C75.1151 32.9942 75.0421 33.1113 74.9692 33.2283C74.9109 33.3161 74.8672 33.4185 74.7943 33.5062C74.7068 33.6233 74.6193 33.7403 74.5173 33.8573C74.4444 33.9451 74.386 34.0329 74.3131 34.1206C74.2111 34.2377 74.0799 34.3547 73.9632 34.4717C73.8903 34.5449 73.8174 34.6326 73.7299 34.7058C73.5841 34.8228 73.4237 34.9545 73.2779 35.0715C73.1905 35.13 73.1176 35.2032 73.0447 35.2617C72.7968 35.4372 72.5198 35.6128 72.2427 35.7737C67.65 38.4507 60.1995 38.4507 55.5775 35.7737C55.2859 35.6128 55.0235 35.4372 54.761 35.2471C54.6735 35.1885 54.6152 35.13 54.5277 35.0715C54.3674 34.9545 54.1924 34.8228 54.0466 34.6912C53.9591 34.618 53.8862 34.5302 53.7987 34.4425C53.6821 34.3254 53.5509 34.223 53.4488 34.106C53.3613 34.0182 53.303 33.9305 53.2301 33.8281C53.1426 33.711 53.0406 33.6086 52.9531 33.4916C52.8948 33.4038 52.8364 33.3014 52.7781 33.2137C52.7052 33.0966 52.6323 32.9796 52.574 32.8626C52.5302 32.7602 52.4865 32.6724 52.4428 32.57C52.399 32.453 52.3407 32.3359 52.297 32.2189C52.2678 32.1165 52.2386 32.0141 52.2241 31.9117C52.1949 31.7947 52.1512 31.6776 52.1366 31.5606C52.122 31.4582 52.122 31.3558 52.1074 31.2534C52.1074 31.1364 52.0783 31.0194 52.0783 30.9023C52.0783 30.9023 52.0783 30.9023 52.0783 30.8877V36.0663C52.0637 37.8363 53.2155 39.5918 55.5484 40.9376C60.1557 43.6147 67.6208 43.6147 72.2136 40.9376C74.4881 39.6064 75.6254 37.8656 75.6399 36.1248V30.9462C75.6399 31.0632 75.6399 31.1656 75.6399 31.2827H75.6254Z" fill="url(#paint7_linear_0_675)"/>
<path d="M52.1093 31.2537C52.1093 31.3561 52.1092 31.4585 52.1384 31.5609C52.153 31.678 52.1967 31.795 52.2259 31.912C52.2551 32.0144 52.2696 32.1168 52.2988 32.2192C52.3425 32.3363 52.4009 32.4533 52.4446 32.5703C52.4883 32.6727 52.5175 32.7605 52.5758 32.8629C52.6341 32.9799 52.7216 33.097 52.7799 33.214C52.8383 33.3018 52.882 33.4042 52.9549 33.4919C53.0424 33.609 53.1299 33.7114 53.2319 33.8284C53.3048 33.9162 53.3632 34.0039 53.4506 34.1063C53.5527 34.2234 53.6839 34.3404 53.8006 34.4428C53.888 34.5306 53.9609 34.6037 54.0484 34.6915C54.1942 34.8231 54.3692 34.9402 54.5296 35.0718C54.6025 35.1304 54.6754 35.1889 54.7629 35.2474C55.0107 35.4229 55.2877 35.5985 55.5793 35.774C60.1867 38.4511 67.6518 38.4511 72.2446 35.774C72.5362 35.6131 72.7986 35.4376 73.0465 35.262C73.134 35.2035 73.2069 35.1304 73.2798 35.0718C73.4402 34.9548 73.6005 34.8378 73.7463 34.7061C73.8338 34.633 73.8921 34.5598 73.9796 34.4721C74.0963 34.355 74.2275 34.238 74.3295 34.121C74.4025 34.0332 74.4753 33.9454 74.5337 33.8577C74.6212 33.7406 74.7232 33.6382 74.8107 33.5066C74.869 33.4188 74.9273 33.3164 74.9857 33.2286C75.0586 33.1116 75.1315 32.9946 75.1898 32.8775C75.2335 32.7751 75.2773 32.6874 75.3064 32.585C75.3502 32.4679 75.4085 32.3509 75.4522 32.2339C75.4814 32.1315 75.496 32.0437 75.5251 31.9413C75.5543 31.8243 75.598 31.7072 75.6126 31.5902C75.6272 31.4878 75.6272 31.3854 75.6418 31.283C75.8022 29.4105 74.6649 27.5088 72.2008 26.0752C67.5789 23.3981 60.1138 23.3981 55.5356 26.0752C53.2465 27.4064 52.1093 29.1618 52.1093 30.9027C52.1093 31.0197 52.1238 31.1367 52.1384 31.2537H52.1093Z" fill="#FF8314"/>
<path d="M66.3121 24.3197V21.7158L57.0536 23.1641L57.0391 25.7533L66.3121 24.3197Z" fill="#FFC087"/>
<path d="M72.1883 27.7136L73.1215 25.6656L66.3125 21.7158V24.3197L72.1883 27.7136Z" fill="#FFC087"/>
<path d="M57.0354 25.7533L57.05 23.1641L54.5859 28.5474L55.5191 29.0887L57.0354 25.7533Z" fill="#FFC087"/>
<path d="M75.2177 33.6822L75.2031 36.2715L79.3002 27.2895V24.7002L75.2177 33.6822Z" fill="#FFD9B8"/>
<path d="M48.4208 29.5127L48.4062 32.102L59.7643 38.6849V36.0956L48.4208 29.5127Z" fill="#FFD9B8"/>
<path d="M59.7656 36.0964V38.6856L75.2061 36.2719L75.2207 33.6826L59.7656 36.0964Z" fill="#FFE9D6"/>
<path d="M75.2204 33.6822L79.3028 24.7001L67.9594 18.1318L52.5189 20.5456L48.4219 29.5276L59.7653 36.0959L75.2058 33.6968L75.2204 33.6822ZM57.0534 23.1641L66.3118 21.7159L73.1208 25.6656L72.1877 27.7136L70.6713 31.049L61.3983 32.4972L55.5225 29.0887L54.5893 28.5475L57.0534 23.1641Z" fill="#FFF7F0"/>
<path d="M75.614 25.2114C75.614 25.3138 75.614 25.4162 75.5848 25.5186C75.5703 25.6356 75.5265 25.7526 75.4974 25.8697C75.4682 25.9721 75.4536 26.0745 75.4245 26.1622C75.3807 26.2793 75.3224 26.3963 75.2787 26.5133C75.2349 26.6157 75.2058 26.7035 75.162 26.8059C75.1037 26.9229 75.0308 27.04 74.9579 27.157C74.8996 27.2448 74.8558 27.3472 74.7829 27.4349C74.6955 27.552 74.608 27.669 74.5059 27.7714C74.433 27.8592 74.3747 27.9469 74.3018 28.0347C74.1997 28.1517 74.0685 28.2688 73.9519 28.3858C73.8644 28.4589 73.8061 28.5467 73.7186 28.6199C73.5728 28.7515 73.4124 28.8685 73.252 28.9856C73.1645 29.0441 73.1062 29.1172 73.0187 29.1757C72.7709 29.3513 72.4938 29.5268 72.2168 29.6877C67.624 32.3648 60.1735 32.3648 55.5516 29.6877C55.26 29.5268 54.9975 29.3513 54.7351 29.1611C54.6476 29.1026 54.5893 29.0441 54.5018 28.9856C54.3414 28.8539 54.1665 28.7369 54.0207 28.6052C53.9332 28.5321 53.8603 28.4443 53.7728 28.3565C53.6562 28.2395 53.5249 28.1371 53.4229 28.0201C53.3354 27.9323 53.2771 27.8445 53.2042 27.7421C53.1167 27.6251 53.0146 27.5227 52.9271 27.4057C52.8688 27.3179 52.8105 27.2155 52.7522 27.1277C52.6793 27.0107 52.6064 26.8937 52.5481 26.7766C52.5043 26.6742 52.4606 26.5865 52.4168 26.4841C52.3731 26.367 52.3148 26.25 52.271 26.133C52.2419 26.0306 52.2273 25.9282 52.1981 25.8258C52.169 25.7087 52.1398 25.5917 52.1106 25.4747C52.0961 25.3723 52.0961 25.2699 52.0815 25.1675C52.0815 25.0504 52.0523 24.9334 52.0523 24.8164C52.0523 24.8164 52.0523 24.8164 52.0523 24.8018L51.9648 27.2155C51.9648 28.9856 53.1167 30.741 55.4495 32.0869C60.0569 34.7639 67.522 34.7639 72.1147 32.0869C74.3893 30.7556 75.5265 29.0148 75.5411 27.274L75.6286 24.8603C75.6286 24.9773 75.614 25.0797 75.5994 25.1967L75.614 25.2114Z" fill="#FFB16B"/>
<path style="mix-blend-mode:multiply" opacity="0.45" d="M75.6268 25.2114C75.6268 25.3138 75.6268 25.4162 75.5976 25.5186C75.583 25.6356 75.5393 25.7526 75.5101 25.8697C75.481 25.9721 75.4664 26.0745 75.4372 26.1622C75.3935 26.2793 75.3497 26.3963 75.2914 26.5133C75.2477 26.6157 75.2185 26.7035 75.1748 26.8059C75.1165 26.9229 75.0436 27.04 74.9707 27.157C74.9123 27.2448 74.8686 27.3472 74.7957 27.4349C74.7082 27.552 74.6207 27.669 74.5187 27.7714C74.4458 27.8592 74.3875 27.9469 74.3146 28.0347C74.2125 28.1517 74.0813 28.2688 73.9646 28.3858C73.8917 28.4589 73.8188 28.5467 73.7313 28.6199C73.5855 28.7515 73.4251 28.8685 73.2793 28.9856C73.1919 29.0441 73.119 29.1172 73.0461 29.1757C72.7982 29.3513 72.5212 29.5268 72.2442 29.6877C67.6514 32.3648 60.2009 32.3648 55.5789 29.6877C55.2873 29.5268 55.0249 29.3513 54.7624 29.1611C54.675 29.1026 54.6166 29.0441 54.5292 28.9856C54.3688 28.8539 54.1938 28.7369 54.048 28.6052C53.9605 28.5321 53.8876 28.4443 53.8001 28.3565C53.6835 28.2395 53.5523 28.1371 53.4502 28.0201C53.3627 27.9323 53.3044 27.8445 53.2315 27.7421C53.144 27.6251 53.042 27.5227 52.9545 27.4057C52.8962 27.3179 52.8378 27.2155 52.7795 27.1277C52.7066 27.0107 52.6337 26.8937 52.5754 26.7766C52.5317 26.6742 52.4879 26.5865 52.4442 26.4841C52.4004 26.367 52.3421 26.25 52.2984 26.133C52.2692 26.0306 52.2401 25.9282 52.2255 25.8258C52.1963 25.7087 52.1526 25.5917 52.138 25.4747C52.1234 25.3723 52.1234 25.2699 52.1088 25.1675C52.1088 25.0504 52.0797 24.9334 52.0797 24.8164C52.0797 24.8164 52.0797 24.8164 52.0797 24.8018L51.9922 27.2155C51.9922 28.9856 53.144 30.741 55.4769 32.0869C60.0842 34.7639 67.5493 34.7639 72.1421 32.0869C74.4166 30.7556 75.5539 29.0148 75.5685 27.274L75.6559 24.8603C75.6559 24.9773 75.6413 25.0797 75.6268 25.1967V25.2114Z" fill="url(#paint8_linear_0_675)"/>
<path d="M52.1094 25.1825C52.1094 25.2849 52.1094 25.3873 52.1385 25.4897C52.1531 25.6067 52.1969 25.7237 52.226 25.8408C52.2552 25.9432 52.2698 26.0456 52.2989 26.148C52.3427 26.265 52.401 26.382 52.4447 26.4991C52.4885 26.6015 52.5176 26.7039 52.5759 26.7916C52.6343 26.9087 52.7217 27.0257 52.7801 27.1427C52.8384 27.2305 52.8821 27.3329 52.955 27.4207C53.0425 27.5377 53.13 27.6401 53.232 27.7571C53.305 27.8449 53.3633 27.9327 53.4508 28.0351C53.5528 28.1521 53.684 28.2691 53.8007 28.3715C53.8882 28.4593 53.9611 28.5324 54.0485 28.6202C54.1943 28.7519 54.3693 28.8689 54.5297 29.0006C54.6026 29.0591 54.6755 29.1176 54.763 29.1761C55.0108 29.3517 55.2879 29.5272 55.5795 29.7027C60.1868 32.3798 67.6519 32.3798 72.2447 29.7027C72.5363 29.5418 72.7987 29.3663 73.0466 29.1907C73.1341 29.1322 73.207 29.0591 73.2799 29.0006C73.4403 28.8835 73.6007 28.7665 73.7465 28.6348C73.8339 28.5617 73.8923 28.4886 73.9797 28.4008C74.0964 28.2838 74.2276 28.1667 74.3297 28.0497C74.4026 27.9619 74.4755 27.8742 74.5338 27.7864C74.6213 27.6694 74.7233 27.567 74.8108 27.4499C74.8691 27.3621 74.9275 27.2597 74.9858 27.172C75.0587 27.0549 75.1316 26.9379 75.1899 26.8209C75.2336 26.7185 75.2774 26.6307 75.3066 26.5283C75.3503 26.4113 75.4086 26.2943 75.4524 26.1772C75.4815 26.0748 75.4961 25.9724 75.5253 25.8846C75.5544 25.7676 75.5982 25.6506 75.6127 25.5336C75.6273 25.4312 75.6273 25.3288 75.6419 25.2264C75.8023 23.3539 74.665 21.4521 72.201 20.0185C67.579 17.3415 60.1139 17.3415 55.5357 20.0185C53.2466 21.3497 52.1094 23.0906 52.1094 24.846C52.1094 24.963 52.124 25.0801 52.1385 25.1971L52.1094 25.1825Z" fill="#FFB16B"/>
<path d="M127.768 58.2869C127.447 58.1114 126.952 58.1114 126.646 58.2869L117.431 63.6557C117.285 63.5679 117.139 63.4801 116.979 63.3924C108.931 58.7258 95.8666 58.7258 87.862 63.3924C87.7454 63.4509 87.6433 63.524 87.5413 63.5825L78.4578 58.2869C78.1516 58.1114 77.6559 58.1114 77.3351 58.2869C77.0289 58.4625 77.0289 58.755 77.3351 58.9306L86.4915 64.2701C83.3567 66.4936 81.6509 69.2877 81.6509 72.272C81.6509 75.5927 83.7796 78.694 87.6433 81.02L77.86 86.7252C77.5538 86.9007 78.6765 87.559 78.9827 87.3688L88.7952 81.649C92.7027 83.6824 97.6162 84.7064 102.53 84.7064C107.443 84.7064 112.386 83.6678 116.279 81.6197L126.121 87.3542C126.427 87.5297 126.937 87.5297 127.243 87.3542C127.564 87.1786 127.549 86.8861 127.243 86.7105L117.431 80.9907C121.222 78.6794 123.307 75.6073 123.292 72.3159C123.292 69.3462 121.586 66.5668 118.481 64.3432L127.768 58.9306C128.074 58.755 128.074 58.4625 127.768 58.2869ZM121.717 72.3305C121.717 75.1392 119.793 77.8016 116.294 79.8497C108.726 84.2529 96.3769 84.2675 88.766 79.8497C85.2084 77.787 83.2547 75.0953 83.2547 72.272C83.2547 69.4633 85.1793 66.8008 88.6785 64.7528C92.4548 62.5439 97.4413 61.4467 102.428 61.4467C107.414 61.4467 112.401 62.5439 116.206 64.7528C119.764 66.8155 121.717 69.4925 121.717 72.3159V72.3305Z" fill="#FFE9D6"/>
<path d="M114.197 72.1401C114.197 72.2425 114.197 72.3449 114.168 72.4473C114.153 72.5643 114.11 72.6814 114.08 72.7984C114.051 72.9008 114.037 73.0032 114.008 73.091C113.964 73.208 113.92 73.325 113.862 73.4421C113.818 73.5445 113.789 73.6322 113.745 73.7346C113.687 73.8517 113.614 73.9687 113.541 74.0857C113.483 74.1735 113.439 74.2759 113.366 74.3637C113.293 74.4807 113.191 74.5977 113.089 74.7148C113.016 74.8025 112.958 74.8903 112.885 74.9781C112.783 75.0951 112.652 75.2121 112.535 75.3292C112.462 75.4023 112.389 75.4901 112.302 75.5632C112.156 75.6949 111.995 75.8119 111.85 75.9289C111.762 75.9875 111.704 76.0606 111.616 76.1191C111.369 76.2947 111.106 76.4702 110.814 76.6311C106.222 79.3082 98.7712 79.3082 94.1492 76.6311C93.8576 76.4556 93.5952 76.2947 93.3327 76.1045C93.2453 76.046 93.1869 75.9875 93.0995 75.9289C92.9391 75.7973 92.7641 75.6803 92.6183 75.5486C92.5308 75.4755 92.4579 75.3877 92.3704 75.2999C92.2538 75.1829 92.1226 75.0805 92.0205 74.9635C91.9476 74.8757 91.8747 74.7879 91.8018 74.7001C91.7143 74.5831 91.6123 74.4807 91.5394 74.3637C91.4811 74.2759 91.4227 74.1735 91.3644 74.0857C91.2915 73.9687 91.2186 73.8517 91.1603 73.7346C91.102 73.6322 91.0728 73.5445 91.0291 73.4421C90.9853 73.325 90.927 73.208 90.8833 73.091C90.8395 72.9886 90.8249 72.8862 90.7958 72.7838C90.7666 72.6667 90.7229 72.5497 90.7083 72.4327C90.6937 72.3303 90.6937 72.2279 90.6791 72.1255C90.6791 72.0085 90.65 71.8914 90.65 71.7744C90.65 71.7744 90.65 71.7744 90.65 71.7598L90.5625 74.1735C90.5625 75.9436 91.7143 77.699 94.0472 79.0449C98.6545 81.7219 106.12 81.7219 110.712 79.0449C112.987 77.7137 114.124 75.9728 114.139 74.232L114.226 71.8183C114.226 71.9353 114.212 72.0377 114.197 72.1547V72.1401Z" fill="#0A19C5"/>
<path d="M90.6932 72.0965C90.6932 72.1989 90.6932 72.3013 90.7224 72.4037C90.737 72.5207 90.7807 72.6378 90.8099 72.7548C90.839 72.8572 90.8536 72.9596 90.8973 73.062C90.9411 73.179 90.9994 73.296 91.0431 73.4131C91.0869 73.5155 91.116 73.6179 91.1744 73.7057C91.2327 73.8227 91.3056 73.9397 91.3785 74.0567C91.4368 74.1445 91.4806 74.2469 91.5535 74.3347C91.6409 74.4517 91.7284 74.5541 91.8159 74.6711C91.8888 74.7589 91.9617 74.8467 92.0346 74.9345C92.1367 75.0515 92.2679 75.1685 92.3845 75.2709C92.472 75.3587 92.5449 75.4318 92.6324 75.5196C92.7782 75.6513 92.9386 75.7683 93.1135 75.9C93.1864 75.9585 93.2593 76.017 93.3468 76.0755C93.5947 76.251 93.8717 76.4266 94.1633 76.6021C98.7707 79.2792 106.236 79.2792 110.829 76.6021C111.12 76.4412 111.383 76.2657 111.63 76.0901C111.718 76.0316 111.791 75.9585 111.864 75.9C112.024 75.7829 112.185 75.6659 112.316 75.5342C112.403 75.4611 112.476 75.3733 112.549 75.3002C112.666 75.1831 112.797 75.0661 112.899 74.9491C112.972 74.8613 113.03 74.7735 113.103 74.6858C113.191 74.5687 113.293 74.4517 113.38 74.3347C113.453 74.2469 113.497 74.1445 113.555 74.0567C113.628 73.9397 113.701 73.8227 113.759 73.7057C113.803 73.6033 113.847 73.5155 113.876 73.4131C113.92 73.296 113.978 73.179 114.022 73.062C114.051 72.9596 114.065 72.8572 114.095 72.7694C114.124 72.6524 114.167 72.5354 114.182 72.4183C114.197 72.3159 114.197 72.2135 114.211 72.1111C114.372 70.2386 113.234 68.3369 110.756 66.9033C106.134 64.2262 98.6832 64.2262 94.0904 66.9033C91.8013 68.2345 90.6641 69.9753 90.6641 71.7308C90.6641 71.8478 90.6786 71.9648 90.6932 72.0819V72.0965Z" fill="#FFB16B"/>
<path d="M104.88 65.1332L104.894 62.5293L95.6211 63.9775V66.5668L104.88 65.1332Z" fill="#FFC087"/>
<path d="M110.769 68.5271L111.702 66.479L104.893 62.5293L104.879 65.1332L110.769 68.5271Z" fill="#FFC087"/>
<path d="M95.6214 66.5668V63.9775L93.1719 69.3755L94.105 69.9022L95.6214 66.5668Z" fill="#FFC087"/>
<path d="M113.789 74.4957V77.085L117.872 68.103L117.886 65.5137L113.789 74.4957Z" fill="#FFD9B8"/>
<path d="M86.9883 70.3262V72.9301L98.3317 79.4984L98.3463 76.9091L86.9883 70.3262Z" fill="#FFD9B8"/>
<path d="M98.3466 76.9098L98.332 79.4991L113.787 77.0854V74.4961L98.3466 76.9098Z" fill="#FFE9D6"/>
<path d="M113.787 74.4956L117.869 65.5136L106.526 58.9453L91.0853 61.3591L86.9883 70.3411L98.3317 76.9094L113.787 74.5103V74.4956ZM95.6198 63.9776L104.878 62.5293L111.687 66.4791L110.754 68.5417L109.238 71.8771L99.9647 73.3253L94.0889 69.9169L93.1557 69.3756L95.6052 63.9922L95.6198 63.9776Z" fill="#FFF7F0"/>
<path d="M114.196 62.8657C114.196 62.9681 114.196 63.0705 114.167 63.1729C114.152 63.2899 114.108 63.4069 114.079 63.524C114.05 63.6264 114.035 63.7288 114.006 63.8165C113.962 63.9336 113.919 64.0506 113.86 64.1676C113.817 64.27 113.787 64.3578 113.744 64.4602C113.685 64.5772 113.612 64.6943 113.54 64.8113C113.481 64.8991 113.438 65.0015 113.365 65.0892C113.292 65.2063 113.19 65.3233 113.088 65.4403C113.015 65.5281 112.956 65.6159 112.883 65.7037C112.781 65.8207 112.65 65.9377 112.534 66.0547C112.461 66.1279 112.388 66.2157 112.3 66.2888C112.154 66.4205 111.994 66.5375 111.848 66.6545C111.761 66.713 111.702 66.7862 111.615 66.8447C111.367 67.0202 111.105 67.1958 110.813 67.3567C106.22 70.0338 98.7698 70.0338 94.1478 67.3567C93.8562 67.1958 93.5938 67.0202 93.3313 66.8301C93.2439 66.7715 93.1855 66.713 93.0981 66.6545C92.9377 66.5375 92.7627 66.4058 92.6169 66.2742C92.5294 66.201 92.4565 66.1133 92.369 66.0255C92.2524 65.9085 92.1212 65.806 92.0191 65.689C91.9462 65.6012 91.8733 65.5135 91.8004 65.4111C91.7129 65.294 91.6109 65.1916 91.538 65.0746C91.4796 64.9868 91.4213 64.8844 91.363 64.7967C91.2901 64.6796 91.2172 64.5626 91.1589 64.4456C91.1006 64.3432 91.0714 64.2408 91.0277 64.153C90.9839 64.036 90.9256 63.9189 90.8819 63.8019C90.8381 63.6995 90.8235 63.5971 90.7944 63.4947C90.7652 63.3777 90.7215 63.2607 90.7069 63.1436C90.6923 63.0412 90.6923 62.9388 90.6777 62.8364C90.6777 62.7194 90.6486 62.6024 90.6486 62.4853C90.6486 62.4853 90.6486 62.4853 90.6486 62.4707V67.6493C90.634 69.4193 91.7858 71.1748 94.1187 72.5206C98.726 75.1977 106.191 75.1977 110.784 72.5206C113.058 71.1894 114.196 69.4486 114.21 67.7078V62.5292C114.21 62.6462 114.21 62.7486 114.21 62.8657H114.196Z" fill="#FFCDA1"/>
<path style="mix-blend-mode:overlay" opacity="0.45" d="M114.197 62.8657C114.197 62.9681 114.197 63.0705 114.168 63.1729C114.153 63.2899 114.109 63.4069 114.08 63.524C114.051 63.6264 114.036 63.7288 114.007 63.8165C113.964 63.9336 113.92 64.0506 113.861 64.1676C113.818 64.27 113.789 64.3578 113.745 64.4602C113.687 64.5772 113.614 64.6943 113.541 64.8113C113.482 64.8991 113.439 65.0015 113.366 65.0892C113.293 65.2063 113.191 65.3233 113.089 65.4403C113.016 65.5281 112.958 65.6159 112.885 65.7037C112.783 65.8207 112.651 65.9377 112.535 66.0547C112.462 66.1279 112.389 66.2157 112.301 66.2888C112.156 66.4205 111.995 66.5375 111.835 66.6545C111.762 66.713 111.689 66.7862 111.602 66.8447C111.354 67.0202 111.077 67.1958 110.8 67.3567C106.207 70.0338 98.7564 70.0338 94.1344 67.3567C93.8428 67.1958 93.5804 67.0202 93.3179 66.8301C93.2304 66.7715 93.1575 66.713 93.0846 66.6545C92.9243 66.5375 92.7493 66.4058 92.6035 66.2742C92.516 66.201 92.4431 66.1133 92.3556 66.0255C92.239 65.9085 92.1078 65.806 92.0057 65.689C91.9328 65.6012 91.8599 65.5135 91.787 65.4111C91.6995 65.294 91.5975 65.1916 91.51 65.0746C91.4371 64.9868 91.3933 64.8844 91.335 64.7967C91.2621 64.6796 91.1892 64.5626 91.1163 64.4456C91.0726 64.3432 91.0288 64.2408 90.9851 64.153C90.9414 64.036 90.883 63.9189 90.8393 63.8019C90.8101 63.6995 90.781 63.5971 90.7518 63.4947C90.7226 63.3777 90.6789 63.2607 90.6643 63.1436C90.6497 63.0412 90.6497 62.9388 90.6352 62.8364C90.6352 62.7194 90.606 62.6024 90.606 62.4853C90.606 62.4853 90.606 62.4853 90.606 62.4707V67.6493C90.5768 69.4193 91.7433 71.1748 94.0761 72.5206C98.6835 75.1977 106.149 75.1977 110.741 72.5206C113.016 71.1894 114.153 69.4486 114.168 67.7078V62.5292C114.168 62.6462 114.168 62.7486 114.168 62.8657H114.197Z" fill="url(#paint9_linear_0_675)"/>
<path d="M90.6932 62.8221C90.6932 62.9245 90.6932 63.0269 90.7224 63.1293C90.737 63.2463 90.7807 63.3634 90.8099 63.4804C90.839 63.5828 90.8536 63.6852 90.8973 63.7876C90.9411 63.9046 90.9994 64.0217 91.0431 64.1387C91.0869 64.2411 91.116 64.3435 91.1744 64.4313C91.2327 64.5483 91.3056 64.6653 91.3785 64.7823C91.4368 64.8701 91.4806 64.9725 91.5535 65.0603C91.6409 65.1773 91.7284 65.2797 91.8159 65.3968C91.8888 65.4845 91.9617 65.5723 92.0346 65.6747C92.1367 65.7917 92.2679 65.9088 92.3845 66.0112C92.472 66.0989 92.5449 66.1721 92.6324 66.2598C92.7782 66.3915 92.9386 66.5085 93.1135 66.6402C93.1864 66.6987 93.2593 66.7572 93.3468 66.8157C93.5947 66.9913 93.8717 67.1668 94.1633 67.3424C98.7707 70.0194 106.236 70.0194 110.829 67.3424C111.12 67.1815 111.383 67.0059 111.63 66.8304C111.718 66.7719 111.791 66.6987 111.864 66.6402C112.024 66.5232 112.185 66.4061 112.316 66.2745C112.403 66.2013 112.476 66.1136 112.549 66.0404C112.666 65.9234 112.797 65.8064 112.899 65.6893C112.972 65.6016 113.03 65.5138 113.103 65.426C113.191 65.309 113.293 65.192 113.38 65.0749C113.453 64.9871 113.497 64.8847 113.555 64.797C113.628 64.6799 113.701 64.5629 113.759 64.4459C113.803 64.3435 113.847 64.2557 113.876 64.1533C113.92 64.0363 113.978 63.9193 114.022 63.8022C114.051 63.6998 114.065 63.5974 114.095 63.5096C114.124 63.3926 114.167 63.2756 114.182 63.1586C114.197 63.0562 114.197 62.9538 114.211 62.8514C114.372 60.9789 113.234 59.0771 110.756 57.6435C106.134 54.9665 98.6832 54.9665 94.0904 57.6435C91.8013 58.9747 90.6641 60.7302 90.6641 62.471C90.6641 62.588 90.6786 62.7051 90.6932 62.8221Z" fill="#FF8314"/>
<path d="M104.88 55.8884L104.894 53.2991L95.6211 54.7327V57.322L104.88 55.8884Z" fill="#FFC087"/>
<path d="M110.769 59.2968L111.702 57.2342L104.893 53.2991L104.879 55.8884L110.769 59.2968Z" fill="#FFC087"/>
<path d="M95.6214 57.3219V54.7327L93.1719 60.1307L94.105 60.6573L95.6214 57.3219Z" fill="#FFC087"/>
<path d="M113.789 65.2508V67.8547L117.872 58.8581L117.886 56.2688L113.789 65.2508Z" fill="#FFD9B8"/>
<path d="M86.9883 61.0959V63.6852L98.3317 70.2535L98.3463 67.6642L86.9883 61.0959Z" fill="#FFD9B8"/>
<path d="M98.3466 67.665L98.332 70.2542L113.787 67.8551V65.2512L98.3466 67.665Z" fill="#FFE9D6"/>
<path d="M113.787 65.2508L117.869 56.2687L106.526 49.7004L91.0853 52.1142L86.9883 61.0962L98.3317 67.6645L113.787 65.2508ZM95.6198 54.7327L104.878 53.2845L111.687 57.2342L110.754 59.2822L109.238 62.6176L99.9647 64.0658L94.0889 60.6573L93.1557 60.1161L95.6052 54.7327H95.6198Z" fill="#FFF7F0"/>
<path d="M114.192 53.8549C114.192 53.9573 114.192 54.0597 114.163 54.1621C114.148 54.2792 114.104 54.3962 114.075 54.5132C114.046 54.6156 114.031 54.718 114.002 54.8058C113.958 54.9228 113.915 55.0399 113.856 55.1569C113.813 55.2447 113.784 55.3471 113.74 55.4495C113.681 55.5665 113.609 55.6835 113.536 55.8006C113.477 55.8883 113.434 55.9907 113.361 56.0785C113.288 56.1955 113.186 56.3126 113.084 56.415C113.011 56.5027 112.952 56.5905 112.88 56.6783C112.777 56.7953 112.646 56.9123 112.53 57.0294C112.457 57.1025 112.384 57.1903 112.296 57.2634C112.151 57.3951 111.99 57.5121 111.844 57.6291C111.757 57.6877 111.699 57.7608 111.611 57.8193C111.363 57.9949 111.101 58.1704 110.809 58.3313C106.216 61.0084 98.7659 61.0084 94.1439 58.3313C93.8523 58.1558 93.5899 57.9949 93.3274 57.8047C93.24 57.7462 93.1816 57.6877 93.0942 57.6291C92.9338 57.4975 92.7588 57.3805 92.613 57.2488C92.5255 57.1757 92.4526 57.0879 92.3651 57.0001C92.2485 56.8831 92.1173 56.7807 92.0152 56.6637C91.9423 56.5759 91.8694 56.4881 91.7965 56.4003C91.709 56.2833 91.607 56.1809 91.5341 56.0639C91.4757 55.9761 91.4174 55.8737 91.3591 55.7859C91.2862 55.6689 91.2133 55.5519 91.155 55.4348C91.0967 55.3324 91.0675 55.23 91.0238 55.1423C90.98 55.0252 90.9217 54.9082 90.878 54.7912C90.8342 54.6888 90.8196 54.5864 90.7905 54.484C90.7613 54.3669 90.7176 54.2499 90.703 54.1329C90.6884 54.0305 90.6884 53.9281 90.6738 53.8257C90.6738 53.7086 90.6447 53.5916 90.6447 53.4746C90.6447 53.4746 90.6447 53.4746 90.6447 53.46V58.6385C90.6301 60.4086 91.7819 62.164 94.1148 63.5099C98.7221 66.1869 106.187 66.1869 110.78 63.5099C113.055 62.1787 114.192 60.4379 114.206 58.697V53.5185C114.206 53.6355 114.206 53.7379 114.206 53.8549H114.192Z" fill="#FFBE85"/>
<path style="mix-blend-mode:overlay" opacity="0.45" d="M114.193 53.8549C114.193 53.9573 114.193 54.0597 114.164 54.1621C114.149 54.2792 114.105 54.3962 114.076 54.5132C114.047 54.6156 114.033 54.718 114.003 54.8058C113.96 54.9228 113.916 55.0399 113.858 55.1569C113.814 55.2447 113.785 55.3471 113.741 55.4495C113.683 55.5665 113.61 55.6835 113.537 55.8006C113.479 55.8883 113.435 55.9907 113.362 56.0785C113.289 56.1955 113.187 56.3126 113.085 56.415C113.012 56.5027 112.954 56.5905 112.881 56.6783C112.779 56.7953 112.647 56.9123 112.531 57.0294C112.458 57.1025 112.385 57.1903 112.298 57.2634C112.152 57.3951 111.991 57.5121 111.831 57.6291C111.758 57.6877 111.685 57.7608 111.598 57.8193C111.35 57.9949 111.073 58.1704 110.796 58.3313C106.203 61.0084 98.7525 61.0084 94.1305 58.3313C93.8389 58.1558 93.5765 57.9949 93.314 57.8047C93.2265 57.7462 93.1536 57.6877 93.0807 57.6291C92.9204 57.4975 92.7454 57.3805 92.5996 57.2488C92.5121 57.1757 92.4392 57.0879 92.3517 57.0001C92.2351 56.8831 92.1039 56.7807 92.0018 56.6637C91.9289 56.5759 91.856 56.4881 91.7831 56.4003C91.6956 56.2833 91.5936 56.1809 91.5061 56.0639C91.4332 55.9761 91.3894 55.8737 91.3311 55.7859C91.2582 55.6689 91.1853 55.5519 91.1124 55.4348C91.0687 55.3324 91.0249 55.23 90.9812 55.1423C90.9374 55.0252 90.8791 54.9082 90.8354 54.7912C90.8062 54.6888 90.7771 54.5864 90.7479 54.484C90.7187 54.3669 90.675 54.2499 90.6604 54.1329C90.6458 54.0305 90.6458 53.9281 90.6313 53.8257C90.6313 53.7086 90.6021 53.5916 90.6021 53.4746C90.6021 53.4746 90.6021 53.4746 90.6021 53.46V58.6385C90.5729 60.4086 91.7394 62.164 94.0722 63.5099C98.6795 66.1869 106.145 66.1869 110.737 63.5099C113.012 62.1787 114.149 60.4379 114.164 58.697V53.5185C114.164 53.6355 114.164 53.7379 114.164 53.8549H114.193Z" fill="url(#paint10_linear_0_675)"/>
<path d="M90.6893 53.8114C90.6893 53.9138 90.6893 54.0162 90.7185 54.1186C90.7331 54.2356 90.7768 54.3526 90.806 54.4696C90.8351 54.5721 90.8497 54.6744 90.8934 54.7769C90.9372 54.8939 90.9955 55.0109 91.0392 55.1279C91.083 55.2303 91.1121 55.3327 91.1705 55.4205C91.2288 55.5375 91.3017 55.6546 91.3746 55.7716C91.4329 55.8594 91.4767 55.9618 91.5496 56.0496C91.637 56.1666 91.7245 56.269 91.812 56.386C91.8849 56.4738 91.9578 56.5616 92.0307 56.6493C92.1328 56.7664 92.264 56.8834 92.3806 56.9858C92.4681 57.0589 92.541 57.1467 92.6285 57.2345C92.7743 57.3661 92.9347 57.4832 93.1096 57.6148C93.1825 57.6733 93.2554 57.7319 93.3429 57.7904C93.5908 57.9659 93.8678 58.1415 94.1594 58.317C98.7668 60.9941 106.232 60.9941 110.825 58.317C111.116 58.1561 111.379 57.9805 111.627 57.805C111.714 57.7465 111.787 57.6733 111.86 57.6148C112.02 57.4978 112.181 57.3661 112.312 57.2491C112.399 57.176 112.472 57.0882 112.545 57.015C112.662 56.898 112.793 56.781 112.895 56.664C112.968 56.5762 113.026 56.4884 113.099 56.4006C113.187 56.2836 113.289 56.1666 113.376 56.0642C113.449 55.9764 113.493 55.874 113.551 55.7862C113.624 55.6692 113.697 55.5522 113.755 55.4351C113.799 55.3327 113.843 55.245 113.872 55.1426C113.916 55.0255 113.974 54.9085 114.018 54.7915C114.047 54.6891 114.061 54.5867 114.091 54.4989C114.12 54.3819 114.164 54.2648 114.178 54.1478C114.193 54.0454 114.193 53.943 114.207 53.8406C114.368 51.9681 113.23 50.0664 110.752 48.6328C106.13 45.9557 98.6793 45.9557 94.0865 48.6328C91.7974 49.964 90.6602 51.7194 90.6602 53.4603C90.6602 53.5773 90.6747 53.6943 90.6893 53.8114Z" fill="#FF8314"/>
<path d="M104.88 46.8774L104.894 44.2881L95.6211 45.7217V48.3256L104.88 46.8774Z" fill="#FFC087"/>
<path d="M110.769 50.2859L111.702 48.2232L104.893 44.2881L104.879 46.8774L110.769 50.2859Z" fill="#FFC087"/>
<path d="M95.6214 48.3256V45.7217L93.1719 51.1197L94.105 51.6463L95.6214 48.3256Z" fill="#FFC087"/>
<path d="M113.789 56.2545V58.8438L117.872 49.8471L117.886 47.2578L113.789 56.2545Z" fill="#FFD9B8"/>
<path d="M86.9883 52.085V54.6742L98.3317 61.2425L98.3463 58.6533L86.9883 52.085Z" fill="#FFD9B8"/>
<path d="M98.3466 58.654L98.332 61.2433L113.787 58.8442V56.2549L98.3466 58.654Z" fill="#FFE9D6"/>
<path d="M113.787 56.2544L117.869 47.2724L106.526 40.7041L91.0853 43.1178L86.9883 52.0999L98.3317 58.6682L113.787 56.2691V56.2544ZM95.6198 45.7364L104.878 44.2881L111.687 48.2379L110.754 50.2859L109.238 53.6213L99.9647 55.0695L94.0889 51.661L93.1557 51.1197L95.6052 45.7364H95.6198Z" fill="#FFF7F0"/>
<path d="M114.193 47.769C114.193 47.8714 114.193 47.9738 114.164 48.0762C114.149 48.1932 114.106 48.3102 114.077 48.4273C114.047 48.5297 114.033 48.6321 114.004 48.7198C113.96 48.8369 113.916 48.9539 113.858 49.0709C113.814 49.1733 113.785 49.2611 113.741 49.3635C113.683 49.4805 113.61 49.5976 113.537 49.7146C113.479 49.8024 113.435 49.9048 113.362 49.9925C113.289 50.1096 113.187 50.2266 113.085 50.329C113.012 50.4168 112.954 50.5046 112.881 50.5923C112.779 50.7094 112.648 50.8264 112.531 50.9434C112.458 51.0166 112.385 51.1043 112.298 51.1775C112.152 51.3091 111.992 51.4262 111.846 51.5432C111.758 51.6017 111.7 51.6748 111.612 51.7334C111.365 51.9089 111.102 52.0845 110.811 52.2454C106.218 54.9224 98.7673 54.9224 94.1453 52.2454C93.8537 52.0845 93.5913 51.9089 93.3288 51.7187C93.2414 51.6602 93.183 51.6017 93.0956 51.5432C92.9352 51.4262 92.7602 51.2945 92.6144 51.1628C92.5269 51.0897 92.454 51.0019 92.3665 50.9142C92.2499 50.7971 92.1187 50.6947 92.0166 50.5777C91.9437 50.4899 91.8708 50.4021 91.7979 50.2997C91.7104 50.1827 91.6084 50.0803 91.5355 49.9633C91.4771 49.8755 91.4188 49.7731 91.3605 49.6853C91.2876 49.5683 91.2147 49.4513 91.1564 49.3343C91.0981 49.2319 91.0689 49.1441 91.0252 49.0417C90.9814 48.9246 90.9231 48.8076 90.8794 48.6906C90.8356 48.5882 90.821 48.4858 90.7919 48.3834C90.7627 48.2664 90.719 48.1493 90.7044 48.0323C90.6898 47.9299 90.6898 47.8275 90.6752 47.7251C90.6752 47.6081 90.6461 47.491 90.6461 47.374C90.6461 47.374 90.6461 47.374 90.6461 47.3594L90.5586 49.7731C90.5586 51.5432 91.7104 53.2986 94.0433 54.6445C98.6506 57.3215 106.116 57.3215 110.708 54.6445C112.983 53.3133 114.12 51.5724 114.135 49.8463L114.222 47.4325C114.222 47.5495 114.208 47.652 114.193 47.769Z" fill="#FFB16B"/>
<path style="mix-blend-mode:multiply" opacity="0.45" d="M114.194 47.769C114.194 47.8714 114.194 47.9738 114.165 48.0762C114.15 48.1932 114.106 48.3102 114.077 48.4273C114.048 48.5297 114.034 48.6321 114.004 48.7198C113.961 48.8369 113.917 48.9539 113.859 49.0709C113.815 49.1733 113.786 49.2611 113.742 49.3635C113.684 49.4805 113.611 49.5976 113.538 49.7146C113.48 49.8024 113.436 49.9048 113.363 49.9925C113.29 50.1096 113.188 50.2266 113.086 50.329C113.013 50.4168 112.955 50.5046 112.882 50.5923C112.78 50.7094 112.648 50.8264 112.532 50.9434C112.459 51.0166 112.386 51.1043 112.299 51.1775C112.153 51.3091 111.992 51.4262 111.832 51.5432C111.759 51.6017 111.686 51.6748 111.599 51.7334C111.351 51.9089 111.074 52.0845 110.797 52.2454C106.204 54.9224 98.7535 54.9224 94.1315 52.2454C93.8399 52.0845 93.5775 51.9089 93.315 51.7187C93.2275 51.6602 93.1546 51.6017 93.0817 51.5432C92.9214 51.4262 92.7464 51.2945 92.6006 51.1628C92.5131 51.0897 92.4402 51.0019 92.3527 50.9142C92.2361 50.7971 92.1049 50.6947 92.0028 50.5777C91.9299 50.4899 91.857 50.4021 91.7841 50.2997C91.6966 50.1827 91.5946 50.0803 91.5071 49.9633C91.4342 49.8755 91.3904 49.7731 91.3321 49.6853C91.2592 49.5683 91.1863 49.4513 91.1134 49.3343C91.0697 49.2319 91.0259 49.1441 90.9822 49.0417C90.9385 48.9246 90.8801 48.8076 90.8364 48.6906C90.8072 48.5882 90.7781 48.4858 90.7489 48.3834C90.7197 48.2664 90.676 48.1493 90.6614 48.0323C90.6468 47.9299 90.6468 47.8275 90.6323 47.7251C90.6323 47.6081 90.6031 47.491 90.6031 47.374C90.6031 47.374 90.6031 47.374 90.6031 47.3594L90.5156 49.7731C90.5156 51.5432 91.6675 53.2986 94.0003 54.6445C98.6077 57.3215 106.073 57.3215 110.666 54.6445C112.94 53.3133 114.077 51.5724 114.092 49.8463L114.179 47.4325C114.179 47.5495 114.165 47.652 114.15 47.769H114.194Z" fill="url(#paint11_linear_0_675)"/>
<path d="M90.6893 47.7401C90.6893 47.8425 90.6893 47.9449 90.7185 48.0473C90.7331 48.1643 90.7768 48.2814 90.806 48.3984C90.8351 48.5008 90.8497 48.6032 90.8934 48.7056C90.9372 48.8226 90.9955 48.9396 91.0392 49.0567C91.083 49.1591 91.1121 49.2468 91.1705 49.3492C91.2288 49.4663 91.3017 49.5833 91.3746 49.7003C91.4329 49.7881 91.4767 49.8905 91.5496 49.9783C91.637 50.0953 91.7245 50.2123 91.812 50.3147C91.8849 50.4025 91.9578 50.5049 92.0307 50.5927C92.1328 50.7097 92.264 50.8267 92.3806 50.9291C92.4681 51.0169 92.541 51.0901 92.6285 51.1778C92.7743 51.3095 92.9347 51.4265 93.1096 51.5582C93.1825 51.6167 93.2554 51.6752 93.3429 51.7337C93.5908 51.9093 93.8678 52.0848 94.1594 52.2604C98.7668 54.9374 106.232 54.9374 110.825 52.2604C111.116 52.0994 111.379 51.9239 111.627 51.7484C111.714 51.6898 111.787 51.6167 111.86 51.5582C112.02 51.4412 112.181 51.3241 112.312 51.1925C112.399 51.1193 112.472 51.0316 112.545 50.9584C112.662 50.8414 112.793 50.7243 112.895 50.6073C112.968 50.5195 113.026 50.4318 113.099 50.344C113.187 50.227 113.289 50.1099 113.376 50.0075C113.449 49.9198 113.493 49.8174 113.551 49.7296C113.624 49.6126 113.697 49.4955 113.755 49.3785C113.799 49.2761 113.843 49.1883 113.872 49.0859C113.916 48.9689 113.974 48.8519 114.018 48.7348C114.047 48.6324 114.061 48.53 114.091 48.4423C114.12 48.3252 114.164 48.2082 114.178 48.0912C114.193 47.9888 114.193 47.8864 114.207 47.784C114.368 45.9115 113.23 44.0098 110.752 42.5762C106.13 39.8991 98.6793 39.8991 94.0865 42.5762C91.7974 43.9074 90.6602 45.6628 90.6602 47.4036C90.6602 47.5207 90.6747 47.6377 90.6893 47.7547V47.7401Z" fill="#FFB16B"/>
</g>
<defs>
<linearGradient id="paint0_linear_0_675" x1="13.5292" y1="68.4978" x2="37.1055" y2="68.4978" gradientUnits="userSpaceOnUse">
<stop stop-color="#FF8314"/>
<stop offset="0.7" stop-color="white"/>
</linearGradient>
<linearGradient id="paint1_linear_0_675" x1="-0.00127947" y1="59.487" x2="1.45675" y2="59.487" gradientUnits="userSpaceOnUse">
<stop stop-color="#FF8314"/>
<stop offset="0.7" stop-color="white"/>
</linearGradient>
<linearGradient id="paint2_linear_0_675" x1="13.4589" y1="52.026" x2="37.108" y2="52.026" gradientUnits="userSpaceOnUse">
<stop stop-color="#FF7800"/>
<stop offset="0.7" stop-color="white"/>
</linearGradient>
<linearGradient id="paint3_linear_0_675" x1="52.0783" y1="90.9821" x2="75.6399" y2="90.9821" gradientUnits="userSpaceOnUse">
<stop stop-color="#FF8314"/>
<stop offset="0.7" stop-color="white"/>
</linearGradient>
<linearGradient id="paint4_linear_0_675" x1="52.0783" y1="81.9714" x2="75.6399" y2="81.9714" gradientUnits="userSpaceOnUse">
<stop stop-color="#FF8314"/>
<stop offset="0.7" stop-color="white"/>
</linearGradient>
<linearGradient id="paint5_linear_0_675" x1="52.0068" y1="74.5103" x2="75.6413" y2="74.5103" gradientUnits="userSpaceOnUse">
<stop stop-color="#FF7800"/>
<stop offset="0.7" stop-color="white"/>
</linearGradient>
<linearGradient id="paint6_linear_0_675" x1="52.0783" y1="45.9401" x2="75.6399" y2="45.9401" gradientUnits="userSpaceOnUse">
<stop stop-color="#FF8314"/>
<stop offset="0.7" stop-color="white"/>
</linearGradient>
<linearGradient id="paint7_linear_0_675" x1="52.0783" y1="36.9294" x2="75.6399" y2="36.9294" gradientUnits="userSpaceOnUse">
<stop stop-color="#FF8314"/>
<stop offset="0.7" stop-color="white"/>
</linearGradient>
<linearGradient id="paint8_linear_0_675" x1="52.0068" y1="29.4537" x2="75.6413" y2="29.4537" gradientUnits="userSpaceOnUse">
<stop stop-color="#FF7800"/>
<stop offset="0.7" stop-color="white"/>
</linearGradient>
<linearGradient id="paint9_linear_0_675" x1="90.6497" y1="17.9994" x2="114.226" y2="17.9994" gradientUnits="userSpaceOnUse">
<stop stop-color="#FF8314"/>
<stop offset="0.7" stop-color="white"/>
</linearGradient>
<linearGradient id="paint10_linear_0_675" x1="90.6458" y1="59.487" x2="114.222" y2="59.487" gradientUnits="userSpaceOnUse">
<stop stop-color="#FF8314"/>
<stop offset="0.7" stop-color="white"/>
</linearGradient>
<linearGradient id="paint11_linear_0_675" x1="90.5739" y1="17.9995" x2="114.223" y2="17.9995" gradientUnits="userSpaceOnUse">
<stop stop-color="#FF7800"/>
<stop offset="0.7" stop-color="white"/>
</linearGradient>
<clipPath id="clip0_0_675">
<rect width="128" height="92" fill="white" transform="translate(0 18)"/>
</clipPath>
</defs>
</svg>
