<svg width="128" height="128" viewBox="0 0 128 128" fill="none" xmlns="http://www.w3.org/2000/svg">
<g clip-path="url(#clip0_0_160)">
<g style="mix-blend-mode:multiply" opacity="0.3">
<path d="M63.8978 62.4024L61.7042 65.5131C61.9919 65.8749 62.2316 66.2366 62.4474 66.6104L67.5779 67.8402V71.795L62.2436 73.0851C62.0159 73.4468 61.7402 73.8085 61.4285 74.1582L63.5622 77.1364L58.7913 79.9336L53.4331 78.6435C52.8218 78.8123 52.1865 78.9449 51.5631 79.0655L49.4534 82.0557H42.6807L40.4511 78.9329C39.8278 78.8003 39.2044 78.6435 38.6051 78.4626L33.4866 79.7045L28.6798 76.9073L30.8734 73.7965C30.5857 73.4227 30.358 73.061 30.1422 72.6872L25.0117 71.4694V67.5267L30.334 66.2245C30.5617 65.8628 30.8374 65.5011 31.1491 65.1514L29.0034 62.1612L33.7743 59.3639L39.1325 60.6541C39.7558 60.4973 40.3792 60.3526 41.0265 60.2321L43.1242 57.2539H49.8969L52.1385 60.3647C52.7618 60.4973 53.3852 60.6541 53.9845 60.8349L59.091 59.6051L63.8978 62.4024Z" fill="#FF7800"/>
</g>
<g style="mix-blend-mode:multiply" opacity="0.3">
<path d="M99.3195 75.5814L97.1258 78.6922C97.4135 79.0539 97.6532 79.4156 97.869 79.7894L102.999 81.0192V84.974L97.6652 86.2642C97.4375 86.6259 97.1618 86.9876 96.8501 87.3373L98.9838 90.3154L94.213 93.1127L88.8547 91.8226C88.2434 91.9914 87.6081 92.124 86.9847 92.2446L84.875 95.2348H78.1023L75.8727 92.1119C75.2494 91.9793 74.626 91.8226 74.0267 91.6417L68.9082 92.8836L64.1014 90.0863L66.295 86.9755C66.0073 86.6018 65.7796 86.24 65.5638 85.8663L60.4453 84.6364V80.6937L65.7676 79.3915C65.9953 79.0298 66.271 78.6681 66.5827 78.3184L64.437 75.3282L69.2079 72.5309L74.5661 73.821C75.1894 73.6643 75.8128 73.5196 76.4601 73.399L78.5578 70.4209H85.3305L87.5721 73.5317C88.1954 73.6643 88.8188 73.8211 89.4181 74.0019L94.5246 72.7721L99.3314 75.5694L99.3195 75.5814Z" fill="#FF7800"/>
</g>
<g style="mix-blend-mode:multiply" opacity="0.3">
<path d="M89.2882 100.334L87.0946 103.445C87.3823 103.807 87.622 104.169 87.8378 104.542L92.9682 105.772V109.727L87.634 111.017C87.4062 111.379 87.1305 111.741 86.8189 112.09L88.9526 115.068L84.1817 117.866L78.8235 116.575C78.2121 116.744 77.5768 116.877 76.9535 116.997L74.8438 119.988H68.071L65.8414 116.865C65.2181 116.732 64.5948 116.575 63.9954 116.395L58.8769 117.637L54.0701 114.839L56.2638 111.728C55.9761 111.355 55.7483 110.993 55.5325 110.619L50.4141 109.389V105.447L55.7363 104.144C55.9641 103.783 56.2398 103.421 56.5515 103.071L54.4058 100.081L59.1766 97.2839L64.5349 98.574C65.1582 98.4172 65.7815 98.2725 66.4288 98.152L68.5266 95.1738H75.2993L77.5409 98.2846C78.1642 98.4172 78.7875 98.574 79.3869 98.7548L84.4934 97.525L89.3002 100.322L89.2882 100.334Z" fill="#FF7800"/>
</g>
<path d="M85.6054 35.5385C83.4478 36.7924 79.9595 36.7924 77.8019 35.5385C75.6442 34.2845 75.6442 32.2589 77.8019 31.0049C79.9595 29.751 83.4478 29.751 85.6054 31.0049C87.7631 32.2589 87.7631 34.2845 85.6054 35.5385Z" fill="#FFD1A8"/>
<path d="M87.2237 33.2356V81.0547C87.2357 81.8867 86.6963 82.7186 85.6054 83.3456C83.4478 84.5996 79.9595 84.5996 77.8018 83.3456C76.735 82.7307 76.1956 81.9229 76.1836 81.115V33.2959C76.1956 34.1037 76.735 34.9116 77.8018 35.5265C79.9595 36.7804 83.4478 36.7804 85.6054 35.5265C86.6963 34.8995 87.2357 34.0675 87.2237 33.2356Z" fill="url(#paint0_linear_0_160)"/>
<path d="M75.5742 61.2806C73.4165 62.5346 69.9283 62.5346 67.7706 61.2806C65.6129 60.0267 65.6129 58.0011 67.7706 56.7471C69.9283 55.4932 73.4165 55.4932 75.5742 56.7471C77.7319 58.0011 77.7319 60.0267 75.5742 61.2806Z" fill="#FFD1A8"/>
<path d="M77.1925 58.9902V106.809C77.2044 107.641 76.665 108.473 75.5742 109.1C73.4165 110.354 69.9283 110.354 67.7706 109.1C66.7037 108.485 66.1643 107.677 66.1523 106.87V59.0505C66.1643 59.8584 66.7037 60.6662 67.7706 61.2811C69.9283 62.5351 73.4165 62.5351 75.5742 61.2811C76.665 60.6541 77.2044 59.8222 77.1925 58.9902Z" fill="url(#paint1_linear_0_160)"/>
<path d="M50.1953 23.349C48.0376 24.603 44.5494 24.603 42.3917 23.349C40.234 22.095 40.234 20.0694 42.3917 18.8155C44.5494 17.5615 48.0376 17.5615 50.1953 18.8155C52.353 20.0694 52.353 22.095 50.1953 23.349Z" fill="#FFD1A8"/>
<path d="M51.8135 21.0461V68.8653C51.8255 69.6972 51.2861 70.5292 50.1953 71.1562C48.0376 72.4101 44.5494 72.4101 42.3917 71.1562C41.3248 70.5412 40.7854 69.7334 40.7734 68.9256V21.1064C40.7854 21.9143 41.3248 22.7221 42.3917 23.337C44.5494 24.591 48.0376 24.591 50.1953 23.337C51.2861 22.71 51.8255 21.8781 51.8135 21.0461Z" fill="url(#paint2_linear_0_160)"/>
<path d="M31.1381 15.8974L31.1262 23.4091L28.9805 20.4189L29.0044 12.9072L31.1381 15.8974Z" fill="#FF9F4A"/>
<path d="M63.8973 13.1484L63.8853 20.6722L61.6797 23.783L61.7037 16.2713L63.8973 13.1484Z" fill="#FFCEA3"/>
<path d="M30.1305 23.4457L30.1185 30.9573L25 29.7275L25.012 22.2158L30.1305 23.4457Z" fill="#FF9F4A"/>
<path d="M67.5889 22.5527L67.5769 30.0644L62.2306 31.3545L61.1758 26.9536L62.2546 23.8429L67.5889 22.5527Z" fill="#FFC591"/>
<path d="M30.8724 24.5546L30.8484 32.0663C30.5607 31.6925 30.333 31.3308 30.1172 30.957L30.1412 23.4453C30.3569 23.8191 30.5967 24.1808 30.8724 24.5546Z" fill="#FFB778"/>
<path d="M62.2571 23.8428L62.2331 31.3545C62.0053 31.7162 61.7296 32.0779 61.418 32.4276L61.4419 24.9159C61.7536 24.5662 62.0173 24.2045 62.2571 23.8428Z" fill="#FFB778"/>
<path d="M40.4403 29.6909L40.4163 37.2026C39.793 37.07 39.1697 36.9132 38.5703 36.7324L38.5943 29.2207C39.1936 29.4016 39.817 29.5583 40.4403 29.6909Z" fill="#FFB778"/>
<path d="M53.433 29.4014L53.4091 36.913C52.7977 37.0818 52.1624 37.2145 51.5391 37.3351L51.563 29.8234C52.1984 29.7028 52.8217 29.5581 53.433 29.4014Z" fill="#FFB778"/>
<path d="M38.5914 29.2207L38.5674 36.7324L33.4609 37.9743L33.4729 30.4626L38.5914 29.2207Z" fill="#FFC591"/>
<path d="M33.4751 30.4623L33.4631 37.974L28.6562 35.1767L28.6682 27.665L33.4751 30.4623Z" fill="#FF9F4A"/>
<path d="M58.8041 30.6915L58.7801 38.2032L53.4219 36.9251L53.4339 29.4014L58.8041 30.6915Z" fill="#FF9F4A"/>
<path d="M63.5761 27.8945L63.5521 35.4183L58.7812 38.2035L58.8052 30.6918L63.5761 27.8945Z" fill="#FFCEA3"/>
<path d="M51.5634 29.8357L51.5394 37.3474L49.4297 40.3255L49.4537 32.8138L51.5634 29.8357Z" fill="#FFCEA3"/>
<path d="M42.6833 32.8142L42.6593 40.3259L40.4297 37.2031L40.4417 29.6914L42.6833 32.8142Z" fill="#FF9F4A"/>
<path d="M49.4529 32.8135L49.429 40.3252H42.6562L42.6802 32.8135H49.4529Z" fill="#FFC591"/>
<path d="M63.8978 13.1485L61.7042 16.2592C61.9919 16.6209 62.2316 16.9827 62.4474 17.3564L67.5779 18.5863V22.5411L62.2436 23.8312C62.0159 24.1929 61.7402 24.5546 61.4285 24.9043L63.5622 27.8824L58.7913 30.6797L53.4331 29.3896C52.8218 29.5584 52.1865 29.691 51.5631 29.8116L49.4534 32.8018H42.6807L40.4511 29.679C39.8278 29.5463 39.2044 29.3896 38.6051 29.2087L33.4866 30.4506L28.6798 27.6534L30.8734 24.5426C30.5857 24.1688 30.358 23.8071 30.1422 23.4333L25.0117 22.2155V18.2728L30.334 16.9706C30.5617 16.6089 30.8374 16.2472 31.1491 15.8975L29.0034 12.9073L33.7743 10.1221L39.1325 11.4122C39.7558 11.2555 40.3792 11.1108 41.0265 10.9902L43.1242 8H49.8969L52.1385 11.1108C52.7618 11.2434 53.3852 11.4002 53.9845 11.581L59.091 10.3512L63.8978 13.1485Z" fill="url(#paint3_linear_0_160)"/>
<path d="M46.2876 22.0827C51.1668 22.0827 55.1221 19.7884 55.1221 16.9583C55.1221 14.1282 51.1668 11.834 46.2876 11.834C41.4085 11.834 37.4531 14.1282 37.4531 16.9583C37.4531 19.7884 41.4085 22.0827 46.2876 22.0827Z" fill="url(#paint4_linear_0_160)"/>
<path d="M49.4149 18.7665C47.6887 19.7673 44.8957 19.7673 43.1696 18.7665C41.4435 17.7658 41.4435 16.138 43.1696 15.1373C44.8957 14.1365 47.6887 14.1365 49.4149 15.1373C51.141 16.138 51.141 17.7658 49.4149 18.7665Z" fill="#FF8112"/>
<path d="M55.1221 16.9102V20.0692C55.1461 21.3955 54.283 22.7338 52.5329 23.7466C49.0806 25.7481 43.4946 25.7481 40.0423 23.7466C38.3402 22.7579 37.4771 21.4678 37.4531 20.1656V17.0066C37.4771 18.3088 38.3402 19.5989 40.0423 20.5876C43.4946 22.5891 49.0806 22.5891 52.5329 20.5876C54.283 19.5748 55.1461 18.2365 55.1221 16.9102Z" fill="#FFC591"/>
<path d="M66.5603 29.0761L66.5363 36.5878L64.3906 33.5976L64.4146 26.0859L66.5603 29.0761Z" fill="#FFB778"/>
<path d="M99.3192 26.3271L99.2952 33.8509L97.1016 36.9617L97.1135 29.45L99.3192 26.3271Z" fill="#FFD5B0"/>
<path d="M65.5524 36.6244L65.5284 44.1481L60.4219 42.9062L60.4339 35.3945L65.5524 36.6244Z" fill="#FFB778"/>
<path d="M102.999 35.7324V43.2441L97.6406 44.5342L97.6646 37.0225L102.999 35.7324Z" fill="#FFC999"/>
<path d="M66.2825 37.7333L66.2586 45.245C65.9709 44.8712 65.7431 44.5095 65.5273 44.1357L65.5513 36.624C65.7671 36.9978 66.0068 37.3595 66.2825 37.7333Z" fill="#FFC28C"/>
<path d="M97.6672 37.0225L97.6432 44.5341C97.4155 44.8959 97.1398 45.2576 96.8281 45.6072L96.8521 38.0956C97.1638 37.7459 97.4275 37.3842 97.6672 37.0225Z" fill="#FFC28C"/>
<path d="M75.8622 42.8696L75.8382 50.3813C75.2149 50.2487 74.5915 50.092 73.9922 49.9111L74.0162 42.3994C74.6155 42.5803 75.2388 42.737 75.8622 42.8696Z" fill="#FFC28C"/>
<path d="M88.8549 42.5811L88.8309 50.0927C88.2196 50.2615 87.5843 50.3942 86.9609 50.5147L86.9849 43.0031C87.6202 42.8825 88.2436 42.7378 88.8549 42.5811Z" fill="#FFC28C"/>
<path d="M74.0055 42.3994L73.9935 49.9111L68.875 51.153L68.899 43.6413L74.0055 42.3994Z" fill="#FFC999"/>
<path d="M68.8972 43.642L68.8732 51.1537L64.0664 48.3564L64.0904 40.8447L68.8972 43.642Z" fill="#FFB778"/>
<path d="M94.2142 43.8712L94.1903 51.3829L88.832 50.1048L88.856 42.5811L94.2142 43.8712Z" fill="#FFB778"/>
<path d="M98.9943 41.0859L98.9703 48.5976L94.1875 51.3828L94.2115 43.8712L98.9943 41.0859Z" fill="#FFD5B0"/>
<path d="M86.9735 43.0146L86.9616 50.5263L84.8398 53.5045L84.8638 45.9928L86.9735 43.0146Z" fill="#FFD5B0"/>
<path d="M78.0895 45.993L78.0655 53.5046L75.8359 50.3939L75.8599 42.8701L78.0895 45.993Z" fill="#FFB778"/>
<path d="M84.8631 45.9932L84.8391 53.5048H78.0664L78.0904 45.9932H84.8631Z" fill="#FFC999"/>
<path d="M99.3195 26.3275L97.1258 29.4383C97.4135 29.8 97.6532 30.1617 97.869 30.5355L102.999 31.7653V35.7201L97.6652 37.0102C97.4375 37.372 97.1618 37.7337 96.8501 38.0833L98.9838 41.0615L94.213 43.8588L88.8547 42.5687C88.2434 42.7375 87.6081 42.8701 86.9847 42.9907L84.875 45.9809H78.1023L75.8727 42.858C75.2494 42.7254 74.626 42.5687 74.0267 42.3878L68.9082 43.6297L64.1014 40.8324L66.295 37.7216C66.0073 37.3479 65.7796 36.9861 65.5638 36.6124L60.4453 35.3825V31.4398L65.7676 30.1376C65.9953 29.7759 66.271 29.4142 66.5827 29.0645L64.437 26.0743L69.2079 23.277L74.5661 24.5671C75.1894 24.4104 75.8128 24.2657 76.4601 24.1451L78.5578 21.167H85.3305L87.5721 24.2778C88.1954 24.4104 88.8188 24.5671 89.4181 24.748L94.5246 23.5182L99.3314 26.3154L99.3195 26.3275Z" fill="url(#paint5_linear_0_160)"/>
<path d="M87.9548 33.7664C84.5025 35.768 78.9165 35.768 75.4642 33.7664C72.0119 31.7649 72.0119 28.5215 75.4642 26.508C78.9165 24.5065 84.5025 24.5065 87.9548 26.508C91.407 28.5095 91.407 31.7529 87.9548 33.7664Z" fill="url(#paint6_linear_0_160)"/>
<path d="M84.825 31.9579C83.0989 32.9587 80.3059 32.9587 78.5798 31.9579C76.8536 30.9572 76.8536 29.3294 78.5798 28.3287C80.3059 27.3279 83.0989 27.3279 84.825 28.3287C86.5512 29.3294 86.5512 30.9572 84.825 31.9579Z" fill="#FF8112"/>
<path d="M90.544 30.0889V33.2479C90.5679 34.5742 89.7049 35.9125 87.9548 36.9253C84.5025 38.9268 78.9165 38.9268 75.4642 36.9253C73.762 35.9366 72.899 34.6465 72.875 33.3443V30.1853C72.899 31.4875 73.762 32.7776 75.4642 33.7663C78.9165 35.7678 84.5025 35.7678 87.9548 33.7663C89.7049 32.7535 90.5679 31.4152 90.544 30.0889Z" fill="#FFC999"/>
<path d="M56.529 53.8297L56.5051 61.3414L54.3594 58.3632L54.3833 50.8516L56.529 53.8297Z" fill="#FF9F4A"/>
<path d="M89.2879 51.0928L89.264 58.6045L87.0703 61.7152L87.0943 54.2035L89.2879 51.0928Z" fill="#FFCEA3"/>
<path d="M55.5211 61.3903L55.4971 68.902L50.3906 67.6601L50.4026 60.1484L55.5211 61.3903Z" fill="#FF9F4A"/>
<path d="M92.9795 60.4854L92.9675 68.0091L87.6093 69.2992L86.5664 64.8983L87.6333 61.7755L92.9795 60.4854Z" fill="#FFC591"/>
<path d="M56.2513 62.4872L56.2273 69.9989C55.9396 69.6251 55.7119 69.2634 55.4961 68.8896L55.5201 61.3779C55.7358 61.7517 55.9756 62.1134 56.2513 62.4872Z" fill="#FFB778"/>
<path d="M87.636 61.7754L87.612 69.2871C87.3842 69.6488 87.1085 70.0105 86.7969 70.3602L86.8208 62.8485C87.1325 62.4988 87.3962 62.1371 87.636 61.7754Z" fill="#FFB778"/>
<path d="M65.8309 67.6353L65.807 75.147C65.1836 75.0143 64.5603 74.8576 63.9609 74.6767L63.9849 67.165C64.5843 67.3459 65.2076 67.5026 65.8309 67.6353Z" fill="#FFB778"/>
<path d="M78.8236 67.3467L78.7997 74.8584C78.1883 75.0272 77.553 75.1598 76.9297 75.2804L76.9537 67.7687C77.589 67.6481 78.2123 67.5034 78.8236 67.3467Z" fill="#FFB778"/>
<path d="M63.9862 67.1533L63.9622 74.665L58.8438 75.9069L58.8677 68.3952L63.9862 67.1533Z" fill="#FFC591"/>
<path d="M58.866 68.3956L58.842 75.9073L54.0352 73.122L54.0591 65.6104L58.866 68.3956Z" fill="#FF9F4A"/>
<path d="M84.183 68.6247L84.171 76.1364L78.8008 74.8584L78.8248 67.3467L84.183 68.6247Z" fill="#FF9F4A"/>
<path d="M88.9667 65.8389L88.9427 73.3505L84.1719 76.1358L84.1839 68.6241L88.9667 65.8389Z" fill="#FFCEA3"/>
<path d="M76.954 67.7683L76.93 75.28L74.8203 78.2702L74.8323 70.7465L76.954 67.7683Z" fill="#FFCEA3"/>
<path d="M68.0583 70.7465L68.0463 78.2582L65.8047 75.1474L65.8287 67.6357L68.0583 70.7465Z" fill="#FF9F4A"/>
<path d="M74.8316 70.7461L74.8196 78.2698L68.0469 78.2578L68.0589 70.7461H74.8316Z" fill="#FFC591"/>
<path d="M89.2882 51.0931L87.0946 54.2039C87.3823 54.5656 87.622 54.9273 87.8378 55.3011L92.9682 56.531V60.4857L87.634 61.7759C87.4062 62.1376 87.1305 62.4993 86.8189 62.849L88.9526 65.8271L84.1817 68.6244L78.8235 67.3343C78.2121 67.5031 77.5768 67.6357 76.9535 67.7563L74.8438 70.7465H68.071L65.8414 67.6237C65.2181 67.491 64.5948 67.3343 63.9954 67.1534L58.8769 68.3953L54.0701 65.598L56.2638 62.4873C55.9761 62.1135 55.7483 61.7518 55.5325 61.378L50.4141 60.1481V56.2054L55.7363 54.9032C55.9641 54.5415 56.2398 54.1798 56.5515 53.8301L54.4058 50.8399L59.1766 48.0426L64.5349 49.3328C65.1582 49.176 65.7815 49.0313 66.4288 48.9108L68.5266 45.9326H75.2993L77.5409 49.0434C78.1642 49.176 78.7875 49.3328 79.3869 49.5136L84.4934 48.2838L89.3002 51.0811L89.2882 51.0931Z" fill="url(#paint7_linear_0_160)"/>
<path d="M77.9235 58.5203C74.4712 60.5219 68.8852 60.5219 65.433 58.5203C61.9807 56.5188 61.9807 53.2754 65.433 51.2619C68.8852 49.2604 74.4712 49.2604 77.9235 51.2619C81.3758 53.2634 81.3758 56.5068 77.9235 58.5203Z" fill="url(#paint8_linear_0_160)"/>
<path d="M74.8055 56.7118C73.0794 57.7126 70.2864 57.7126 68.5602 56.7118C66.8341 55.7111 66.8341 54.0834 68.5602 53.0826C70.2864 52.0818 73.0794 52.0818 74.8055 53.0826C76.5316 54.0834 76.5316 55.7111 74.8055 56.7118Z" fill="#FF8112"/>
<path d="M80.5127 54.8428V58.0018C80.5367 59.3281 79.6736 60.6664 77.9235 61.6792C74.4712 63.6808 68.8852 63.6808 65.433 61.6792C63.7308 60.6906 62.8677 59.4004 62.8438 58.0982V54.9392C62.8677 56.2414 63.7308 57.5315 65.433 58.5202C68.8852 60.5218 74.4712 60.5218 77.9235 58.5202C79.6736 57.5074 80.5367 56.1691 80.5127 54.8428Z" fill="#FFC591"/>
</g>
<defs>
<linearGradient id="paint0_linear_0_160" x1="76.1956" y1="58.7608" x2="87.2237" y2="58.7608" gradientUnits="userSpaceOnUse">
<stop stop-color="#FFB778"/>
<stop offset="1" stop-color="#FFD5B0"/>
</linearGradient>
<linearGradient id="paint1_linear_0_160" x1="66.1643" y1="84.5155" x2="77.1925" y2="84.5155" gradientUnits="userSpaceOnUse">
<stop stop-color="#FF9F4A"/>
<stop offset="1" stop-color="#FFB675"/>
</linearGradient>
<linearGradient id="paint2_linear_0_160" x1="40.7734" y1="46.5714" x2="51.8135" y2="46.5714" gradientUnits="userSpaceOnUse">
<stop stop-color="#FF9F4A"/>
<stop offset="1" stop-color="#FFB675"/>
</linearGradient>
<linearGradient id="paint3_linear_0_160" x1="24.9997" y1="20.4069" x2="67.5899" y2="20.4069" gradientUnits="userSpaceOnUse">
<stop stop-color="#FFDBBA"/>
<stop offset="1" stop-color="#FFE3C9"/>
</linearGradient>
<linearGradient id="paint4_linear_0_160" x1="37.4651" y1="16.9583" x2="55.1221" y2="16.9583" gradientUnits="userSpaceOnUse">
<stop stop-color="#FFDBBA"/>
<stop offset="1" stop-color="#FFE3C9"/>
</linearGradient>
<linearGradient id="paint5_linear_0_160" x1="60.4094" y1="33.586" x2="102.999" y2="33.586" gradientUnits="userSpaceOnUse">
<stop stop-color="#FFD5B0"/>
<stop offset="1" stop-color="#FFDCBD"/>
</linearGradient>
<linearGradient id="paint6_linear_0_160" x1="72.875" y1="30.1372" x2="90.544" y2="30.1372" gradientUnits="userSpaceOnUse">
<stop stop-color="#FFD5B0"/>
<stop offset="1" stop-color="#FFDCBD"/>
</linearGradient>
<linearGradient id="paint7_linear_0_160" x1="50.3901" y1="58.3396" x2="92.9802" y2="58.3396" gradientUnits="userSpaceOnUse">
<stop stop-color="#FFDBBA"/>
<stop offset="1" stop-color="#FFE3C9"/>
</linearGradient>
<linearGradient id="paint8_linear_0_160" x1="62.8438" y1="54.8911" x2="80.5127" y2="54.8911" gradientUnits="userSpaceOnUse">
<stop stop-color="#FFDBBA"/>
<stop offset="1" stop-color="#FFE3C9"/>
</linearGradient>
<clipPath id="clip0_0_160">
<rect width="78" height="112" fill="white" transform="translate(25 8)"/>
</clipPath>
</defs>
</svg>
