<svg width="128" height="128" viewBox="0 0 128 128" fill="none" xmlns="http://www.w3.org/2000/svg">
<g clip-path="url(#clip0_0_928)">
<path d="M122.537 88.2656L124.786 81.3765L117.176 81.4269L67.3537 52.4351C65.2794 51.2261 62.7301 51.2261 60.6683 52.4351L9.64646 82.1196L3.21094 82.1574L4.19813 87.661C4.19813 87.7492 4.19813 87.8374 4.19813 87.9381C4.23562 88.6308 4.59801 89.2983 5.2853 89.6887L61.5555 122.345C62.3053 122.786 63.155 123 63.9923 123C64.8295 123 65.6792 122.786 66.429 122.345L121.45 90.3058C122.124 89.9154 122.487 89.2479 122.537 88.5552C122.537 88.4545 122.537 88.3663 122.537 88.2656Z" fill="#324BC5"/>
<path d="M64.0048 113.428V117.395C63.1675 117.395 62.3178 117.181 61.568 116.74L4.2981 83.4159C3.57333 83.0003 3.21094 82.2572 3.21094 81.5142V77.6855C3.24843 78.3782 3.61081 79.0457 4.2981 79.4361L61.5555 112.76C62.3053 113.201 63.155 113.415 63.9923 113.415L64.0048 113.428Z" fill="#FFA352"/>
<path d="M123.702 83.416L66.4446 116.74C65.6948 117.181 64.8451 117.395 64.0078 117.395V113.428C64.8451 113.428 65.6948 113.214 66.4446 112.773L123.702 79.4488C124.377 79.0584 124.739 78.3909 124.789 77.6982V81.3757C124.839 82.1566 124.477 82.9626 123.702 83.416Z" fill="#FF983D"/>
<path d="M124.786 77.699C124.736 78.3916 124.374 79.0591 123.699 79.4496L66.4415 112.774C65.6917 113.215 64.842 113.429 64.0048 113.429C63.1675 113.429 62.3178 113.215 61.568 112.774L4.2981 79.4496C3.62331 79.0591 3.26092 78.3791 3.21094 77.699H7.60959L60.6558 46.8306C62.7301 45.6216 65.2794 45.6216 67.3412 46.8306L120.387 77.699H124.786Z" fill="#FFA352"/>
<path d="M124.787 77.6984C124.737 78.391 124.374 79.0585 123.7 79.4489L66.4421 112.773C65.6924 113.214 64.8426 113.428 64.0054 113.428C63.1681 113.428 62.3184 113.214 61.5686 112.773L4.29874 79.4489C3.62395 79.0585 3.26156 78.3784 3.21158 77.6984C3.16159 76.9175 3.52398 76.1115 4.29874 75.6581L60.6564 42.8628C62.7308 41.6538 65.28 41.6538 67.3419 42.8628L123.7 75.6581C124.474 76.1115 124.837 76.9175 124.787 77.6984Z" fill="url(#paint0_linear_0_928)"/>
<path d="M64.0062 117.609C63.119 117.609 62.2318 117.37 61.457 116.916L4.19963 83.6048C3.44986 83.164 3 82.3832 3 81.5142V77.5722C3 77.5722 3 77.547 3 77.5344V77.484C3.02499 76.6528 3.47485 75.8972 4.19963 75.4816L60.5448 42.6737C62.6692 41.4395 65.3183 41.4395 67.4552 42.6737L123.813 75.469C124.6 75.935 125.062 76.7788 125 77.6982V81.3631C125.062 82.2824 124.6 83.1388 123.813 83.5922L66.5555 116.916C65.7807 117.37 64.906 117.609 64.0062 117.609ZM3.43737 77.9123V81.5142C3.43737 82.2321 3.79975 82.8618 4.41207 83.2144L61.6695 116.539C62.3693 116.954 63.1815 117.168 63.9938 117.168C64.806 117.168 65.6183 116.954 66.318 116.539L123.575 83.2144C124.225 82.8366 124.6 82.1313 124.55 81.3882V78.1641L124.463 78.1389C124.513 77.9878 124.538 77.8367 124.55 77.6856C124.6 76.9173 124.225 76.212 123.575 75.8342L67.2428 43.0515C65.2434 41.8929 62.7691 41.8929 60.7697 43.0515L4.41207 75.8468C3.76227 76.2246 3.38738 76.9299 3.43737 77.6856V77.9248V77.9123ZM64.0062 113.642V113.201C64.4061 113.201 64.806 113.151 65.2059 113.05L65.3183 113.478C64.8935 113.592 64.4561 113.655 64.0062 113.655V113.642Z" fill="#FFC999"/>
<path d="M83.049 68.2022C82.6116 67.8999 82.1367 67.6102 81.6494 67.3206C71.7649 61.565 55.7324 61.565 45.8479 67.3206C45.3606 67.6102 44.8857 67.8999 44.4483 68.2022H38.4377V77.736C38.4377 81.5016 40.9119 85.2799 45.8479 88.1514C55.7324 93.9069 71.7649 93.9069 81.6494 88.1514C86.5979 85.2799 89.0596 81.5016 89.0596 77.736V68.2022H83.049Z" fill="url(#paint1_linear_0_928)"/>
<path d="M63.7432 82.9372C77.7255 82.9372 89.0604 76.34 89.0604 68.202C89.0604 60.064 77.7255 53.4668 63.7432 53.4668C49.7609 53.4668 38.426 60.064 38.426 68.202C38.426 76.34 49.7609 82.9372 63.7432 82.9372Z" fill="url(#paint2_linear_0_928)"/>
<path d="M45.8368 57.7871V78.6179C40.401 75.4568 37.9517 71.1999 38.5016 67.069C38.9514 63.6812 41.4007 60.3689 45.8368 57.7871Z" fill="#FF9C45"/>
<path opacity="0.5" d="M81.6502 10.3196V57.7871C71.7657 52.0315 55.7331 52.0315 45.8362 57.7871V31.1504C41.3876 28.5686 38.9383 25.2563 38.5009 21.8685C38.401 21.1128 38.401 20.3572 38.5009 19.6015C38.9508 16.2137 41.4 12.9014 45.8362 10.3196C55.7206 4.56404 71.7532 4.56404 81.6502 10.3196Z" fill="#FFA554"/>
<path opacity="0.5" d="M45.8352 31.1501V57.7868C41.3866 60.3686 38.9374 63.6809 38.5 67.0687V21.8682C38.9499 25.256 41.3991 28.5683 45.8352 31.1501Z" fill="#FF9E47"/>
<path d="M88.1499 46.5661C88 46.5661 87.875 46.4402 87.875 46.2891V27.4734C87.875 27.3222 88 27.1963 88.1499 27.1963C88.2999 27.1963 88.4248 27.3222 88.4248 27.4734V46.2891C88.4248 46.4402 88.2999 46.5661 88.1499 46.5661Z" fill="#FFE8D4"/>
<path d="M88.1499 64.5508C88 64.5508 87.875 64.4249 87.875 64.2738V51.2136C87.875 51.0625 88 50.9365 88.1499 50.9365C88.2999 50.9365 88.4248 51.0625 88.4248 51.2136V64.2738C88.4248 64.4249 88.2999 64.5508 88.1499 64.5508Z" fill="#FFE8D4"/>
<path d="M79.1655 64.5503C79.0156 64.5503 78.8906 64.4244 78.8906 64.2732V47.4978C78.8906 47.3466 79.0156 47.2207 79.1655 47.2207C79.3155 47.2207 79.4405 47.3466 79.4405 47.4978V64.2732C79.4405 64.4244 79.3155 64.5503 79.1655 64.5503Z" fill="#FFE8D4"/>
<path d="M79.1655 80.167C79.0156 80.167 78.8906 80.041 78.8906 79.8899V72.1697C78.8906 72.0185 79.0156 71.8926 79.1655 71.8926C79.3155 71.8926 79.4405 72.0185 79.4405 72.1697V79.8899C79.4405 80.041 79.3155 80.167 79.1655 80.167Z" fill="#FFE8D4"/>
<path d="M55.5718 62.2581C55.4218 62.2581 55.2969 62.1322 55.2969 61.981V57.5857C55.2969 57.4345 55.4218 57.3086 55.5718 57.3086C55.7217 57.3086 55.8467 57.4345 55.8467 57.5857V61.981C55.8467 62.1322 55.7217 62.2581 55.5718 62.2581Z" fill="#FFE3C9"/>
<path d="M55.5718 82.4345C55.4218 82.4345 55.2969 82.3086 55.2969 82.1574V67.6238C55.2969 67.4726 55.4218 67.3467 55.5718 67.3467C55.7217 67.3467 55.8467 67.4726 55.8467 67.6238V82.1574C55.8467 82.3086 55.7217 82.4345 55.5718 82.4345Z" fill="#FFE8D4"/>
<path d="M73.0903 40.3697L73.5902 39.6392L71.016 38.1657C71.016 38.1657 70.916 38.1153 70.866 38.0775C68.5917 36.8307 65.2927 37.133 61.6063 39.274C54.7585 43.2538 49.2227 52.0697 49.2227 58.9713C49.2227 61.868 50.1974 63.9586 51.8344 65.1299C52.0718 65.3062 52.3342 65.4573 52.6091 65.5832L54.8459 66.9056L55.3458 66.1878C57.1827 66.2004 59.3196 65.5832 61.6063 64.2483C68.4542 60.2685 73.99 51.4526 73.99 44.551C73.99 42.8885 73.6651 41.478 73.0778 40.3697H73.0903Z" fill="#FFCDA1"/>
<path d="M67.7919 37.5354C68.9041 37.5354 69.9163 37.7747 70.766 38.2407C70.766 38.2407 70.8535 38.291 70.9035 38.3288L73.2903 39.7016L72.9029 40.2557L72.8279 40.3565L72.8904 40.4698C73.4777 41.5781 73.7776 42.9635 73.7776 44.5504C73.7776 51.3764 68.2668 60.1294 61.4939 64.0713C59.3445 65.3182 57.2452 65.9731 55.4083 65.9731C55.3833 65.9731 55.3583 65.9731 55.3333 65.9731H55.2333L55.1708 66.0612L54.7834 66.628L52.6966 65.4063C52.4342 65.2804 52.1842 65.1293 51.9468 64.9655H51.9343C50.5597 63.9706 49.71 62.3333 49.4851 60.2175C49.4851 60.142 49.4726 60.0538 49.4601 59.9782C49.4351 59.6634 49.4226 59.3233 49.4226 58.9833C49.4226 58.404 49.4601 57.7868 49.5476 57.1571C49.5476 57.0816 49.5601 57.0186 49.5725 56.943C49.6975 56.1244 49.885 55.2554 50.1349 54.3864C50.1599 54.3234 50.1724 54.2605 50.1974 54.1975C50.4348 53.4167 50.7347 52.6232 51.0721 51.8172C51.0971 51.7542 51.1221 51.6913 51.1471 51.6409C51.472 50.8852 51.8593 50.1422 52.2717 49.3991C52.3092 49.3361 52.3342 49.2858 52.3717 49.2228C52.7841 48.5049 53.2214 47.7871 53.6963 47.107C53.7338 47.0566 53.7713 46.9936 53.8087 46.9432C54.2961 46.2506 54.8084 45.5831 55.3458 44.9408C55.3833 44.8904 55.4332 44.84 55.4707 44.7896C56.0331 44.1347 56.6204 43.505 57.2202 42.9131C57.2702 42.8627 57.3202 42.8124 57.3701 42.7746C58.0199 42.1575 58.6822 41.5781 59.3695 41.0492C59.4195 41.0114 59.482 40.961 59.5445 40.9232C60.2568 40.3817 60.9815 39.8905 61.7188 39.4623C61.7688 39.4371 61.8063 39.4119 61.8563 39.3867C61.9187 39.349 61.9937 39.3112 62.0562 39.2734C63.0059 38.7444 63.9556 38.3288 64.8553 38.0518H64.8803C64.9678 38.014 65.0553 37.9888 65.1428 37.9636C66.0675 37.6991 66.9547 37.5606 67.7919 37.5606V37.5354ZM67.7919 37.3339C66.9422 37.3339 66.0425 37.4724 65.0803 37.7495C64.9928 37.7747 64.9053 37.7999 64.8179 37.8251C63.9056 38.1147 62.9434 38.5303 61.9562 39.0719C61.8938 39.1097 61.8188 39.1474 61.7563 39.1852C61.7063 39.2104 61.6563 39.2356 61.6063 39.2734C60.8566 39.7142 60.1318 40.2054 59.4195 40.7469C59.357 40.7847 59.3071 40.8351 59.2446 40.8728C58.5573 41.4144 57.8825 41.9937 57.2327 42.6108C57.1827 42.6612 57.1327 42.7116 57.0827 42.7494C56.4704 43.3413 55.8831 43.9836 55.3208 44.6385C55.2833 44.6889 55.2333 44.7393 55.1958 44.7896C54.646 45.4319 54.1336 46.112 53.6463 46.8047C53.6088 46.8551 53.5713 46.9181 53.5338 46.9684C53.059 47.6611 52.6091 48.379 52.1967 49.0969C52.1593 49.1598 52.1343 49.2102 52.0968 49.2732C51.6844 50.0162 51.3095 50.7719 50.9721 51.5275C50.9471 51.5905 50.9221 51.6535 50.8971 51.7164C50.5472 52.5099 50.2598 53.3159 50.0099 54.1093C49.9849 54.1723 49.9724 54.2353 49.9474 54.3108C49.685 55.1798 49.4976 56.0488 49.3726 56.8927C49.3726 56.9682 49.3476 57.0312 49.3476 57.1068C49.2601 57.7365 49.2227 58.3536 49.2227 58.9581C49.2227 59.3107 49.2352 59.6508 49.2601 59.9782C49.2601 60.0664 49.2726 60.142 49.2851 60.2175C49.5351 62.4593 50.4473 64.1217 51.8344 65.1041C52.0718 65.2804 52.3342 65.4315 52.6091 65.5575L54.8459 66.8798L55.3458 66.162C55.3458 66.162 55.3958 66.162 55.4208 66.162C57.2452 66.162 59.357 65.5449 61.6063 64.2225C68.4417 60.2427 73.99 51.4268 73.99 44.5252C73.99 42.8627 73.6651 41.4522 73.0778 40.3439L73.5777 39.6134L71.0035 38.1399C71.0035 38.1399 70.9035 38.0895 70.8535 38.0518C69.9788 37.5606 68.9416 37.3213 67.7795 37.3213L67.7919 37.3339Z" fill="#FFE7D1"/>
<path d="M71.5697 58.8747C77.0375 51.5484 78.1346 43.0808 74.0202 39.9616C69.9057 36.8425 62.1377 40.2531 56.6699 47.5794C51.2021 54.9056 50.105 63.3733 54.2194 66.4924C58.3339 69.6115 66.1018 66.2009 71.5697 58.8747Z" fill="#FFE3C9"/>
<path d="M71.5697 58.8747C77.0375 51.5484 78.1346 43.0808 74.0202 39.9616C69.9057 36.8425 62.1377 40.2531 56.6699 47.5794C51.2021 54.9056 50.105 63.3733 54.2194 66.4924C58.3339 69.6115 66.1018 66.2009 71.5697 58.8747Z" fill="#FFE7D1"/>
<path d="M64.4428 64.1352C61.5562 65.8228 58.832 66.2636 56.7951 65.3946C54.7457 64.5256 53.6211 62.435 53.6211 59.5257C53.6211 56.6165 54.7457 53.2161 56.7951 49.9668C58.8445 46.7175 61.5562 43.9971 64.4428 42.3221C67.3294 40.6345 70.0535 40.1937 72.0904 41.0627C74.1398 41.9317 75.2644 44.0223 75.2644 46.9316C75.2644 49.8408 74.1398 53.2412 72.0904 56.4905C70.041 59.7398 67.3294 62.4602 64.4428 64.1352ZM64.4428 42.914C58.807 46.2011 54.2209 53.4931 54.2209 59.1731C54.2209 64.8531 58.807 66.8052 64.4428 63.5307C70.0785 60.2436 74.6646 52.9516 74.6646 47.2716C74.6646 41.5916 70.0785 39.6395 64.4428 42.914Z" fill="#FFCDA1"/>
<path d="M65.3567 41.0622L65.2567 41.2386L61.7578 39.1983C61.8203 39.1605 61.8953 39.1227 61.9578 39.085L65.3567 41.0622Z" fill="#FFE7D1"/>
<path d="M62.2694 42.3969L62.1694 42.5732L59.2578 40.873C59.2578 40.873 59.3703 40.7849 59.4328 40.7471L62.2819 42.3969H62.2694Z" fill="#FFE7D1"/>
<path d="M60.1061 44.2865L60.0061 44.4628L57.082 42.7626C57.082 42.7626 57.182 42.6618 57.232 42.624L60.1061 44.2991V44.2865Z" fill="#FFE7D1"/>
<path d="M57.957 46.1753L57.857 46.3516L55.1953 44.8025C55.1953 44.8025 55.2828 44.7017 55.3203 44.6514L57.9445 46.1753H57.957Z" fill="#FFE7D1"/>
<path d="M56.7342 48.6185L56.6342 48.7948L53.5352 46.9938C53.5352 46.9938 53.6101 46.8805 53.6476 46.8301L56.7342 48.6185Z" fill="#FFE7D1"/>
<path d="M55.9582 51.3261L55.8582 51.5024L52.1094 49.2984C52.1094 49.2984 52.1719 49.185 52.2093 49.1221L55.9707 51.3261H55.9582Z" fill="#FFE7D1"/>
<path d="M54.4231 53.5561L54.3232 53.7324L50.8867 51.7299C50.8867 51.7299 50.9367 51.604 50.9617 51.541L54.4106 53.5561H54.4231Z" fill="#FFE7D1"/>
<path d="M53.848 56.3639L53.7481 56.5403L49.9492 54.3363C49.9742 54.2733 49.9867 54.2103 50.0117 54.1348L53.848 56.3639Z" fill="#FFE7D1"/>
<path d="M52.8591 58.9329L52.7591 59.1093L49.3477 57.1194C49.3477 57.0438 49.3602 56.9808 49.3726 56.9053L52.8591 58.9329Z" fill="#FFE7D1"/>
<path d="M53.0106 62.1701L52.9106 62.3464L49.2867 60.2432C49.2867 60.1676 49.2742 60.0795 49.2617 60.0039L53.0106 62.1827V62.1701Z" fill="#FFE7D1"/>
<path d="M68.3317 39.6392L68.2318 39.8155L64.8203 37.8383C64.9078 37.8131 64.9953 37.7879 65.0827 37.7627L68.3317 39.6518V39.6392Z" fill="#FFE7D1"/>
</g>
<defs>
<linearGradient id="paint0_linear_0_928" x1="3.21158" y1="77.6984" x2="124.787" y2="77.6984" gradientUnits="userSpaceOnUse">
<stop stop-color="#FFFBF8"/>
<stop offset="1" stop-color="#FFBD83"/>
</linearGradient>
<linearGradient id="paint1_linear_0_928" x1="38.4252" y1="77.7486" x2="89.0596" y2="77.7486" gradientUnits="userSpaceOnUse">
<stop stop-color="#FF7800"/>
<stop offset="1" stop-color="#FF8A21"/>
</linearGradient>
<linearGradient id="paint2_linear_0_928" x1="38.426" y1="68.202" x2="89.0604" y2="68.202" gradientUnits="userSpaceOnUse">
<stop stop-color="#FFC591"/>
<stop offset="1" stop-color="#FF861A"/>
</linearGradient>
<clipPath id="clip0_0_928">
<rect width="122" height="117" fill="white" transform="translate(3 6)"/>
</clipPath>
</defs>
</svg>
