<svg width="128" height="128" viewBox="0 0 128 128" fill="none" xmlns="http://www.w3.org/2000/svg">
<path d="M63.5 120L23.5 97L63.5 74L104.5 97L63.5 120Z" fill="#324BC5"/>
<g clip-path="url(#clip0_0_1021)">
<path d="M64.1994 55.8703L69.0394 53.0803L64.1994 50.2803L59.3594 53.0803L64.1994 55.8703Z" fill="#FFDCC1"/>
<path d="M59.3594 58.6703L64.1994 61.4603V55.8703L59.3594 53.0803V58.6703Z" fill="#FFBE8D"/>
<path d="M64.1994 61.4603L69.0394 58.6703V53.0803L64.1994 55.8703V61.4603Z" fill="#FFC9A0"/>
<path d="M71.3009 59.9699L76.1409 57.1799L71.3009 54.3799L66.4609 57.1799L71.3009 59.9699Z" fill="#FFDCC1"/>
<path d="M66.4609 62.7599L71.3009 65.5599V59.9699L66.4609 57.1799V62.7599Z" fill="#FFBE8D"/>
<path d="M71.3009 65.5599L76.1409 62.7599V57.1799L71.3009 59.9699V65.5599Z" fill="#FFC9A0"/>
<path d="M78.3986 64.0705L83.2386 61.2705L78.3986 58.4805L73.5586 61.2705L78.3986 64.0705Z" fill="#FFDCC1"/>
<path d="M73.5586 66.8605L78.3986 69.6505V64.0705L73.5586 61.2705V66.8605Z" fill="#FFBE8D"/>
<path d="M78.3986 69.6505L83.2386 66.8605V61.2705L78.3986 64.0705V69.6505Z" fill="#FFC9A0"/>
<path d="M85.4884 68.1601L90.3284 65.3701L85.4884 62.5801L80.6484 65.3701L85.4884 68.1601Z" fill="#FFDCC1"/>
<path d="M80.6484 70.9601L85.4884 73.7501V68.1601L80.6484 65.3701V70.9601Z" fill="#FFBE8D"/>
<path d="M85.4884 73.7501L90.3284 70.9601V65.3701L85.4884 68.1601V73.7501Z" fill="#FFC9A0"/>
<path d="M92.59 72.26L97.43 69.47L92.59 66.67L87.75 69.47L92.59 72.26Z" fill="#FFDCC1"/>
<path d="M87.75 75.0501L92.59 77.8501V72.2601L87.75 69.4701V75.0501Z" fill="#FFBE8D"/>
<path d="M92.59 77.8501L97.43 75.0501V69.4701L92.59 72.2601V77.8501Z" fill="#FFC9A0"/>
<path d="M99.6916 76.3595L104.532 73.5595L99.6916 70.7695L94.8516 73.5595L99.6916 76.3595Z" fill="#FFDCC1"/>
<path d="M94.8516 79.1496L99.6916 81.9496V76.3596L94.8516 73.5596V79.1496Z" fill="#FFBE8D"/>
<path d="M99.6916 81.9496L104.532 79.1496V73.5596L99.6916 76.3596V81.9496Z" fill="#FFC9A0"/>
<path d="M57.1095 59.9599L61.9495 57.1699L57.1095 54.3799L52.2695 57.1699L57.1095 59.9599Z" fill="#FFDCC1"/>
<path d="M52.2695 62.7599L57.1095 65.5499V59.9599L52.2695 57.1699V62.7599Z" fill="#FFBE8D"/>
<path d="M57.1095 65.5499L61.9495 62.7599V57.1699L57.1095 59.9599V65.5499Z" fill="#FFC9A0"/>
<path d="M64.1994 64.0597L69.0394 61.2697L64.1994 58.4697L59.3594 61.2697L64.1994 64.0597Z" fill="#FFDCC1"/>
<path d="M59.3594 66.8598L64.1994 69.6498V64.0598L59.3594 61.2698V66.8598Z" fill="#FFBE8D"/>
<path d="M64.1994 69.6498L69.0394 66.8598V61.2698L64.1994 64.0598V69.6498Z" fill="#FFC9A0"/>
<path d="M71.3009 68.1603L76.1409 65.3603L71.3009 62.5703L66.4609 65.3603L71.3009 68.1603Z" fill="#FFDCC1"/>
<path d="M66.4609 70.9504L71.3009 73.7504V68.1604L66.4609 65.3604V70.9504Z" fill="#FFBE8D"/>
<path d="M71.3009 73.7504L76.1409 70.9504V65.3604L71.3009 68.1604V73.7504Z" fill="#FFC9A0"/>
<path d="M78.3986 72.2599L83.2386 69.4599L78.3986 66.6699L73.5586 69.4599L78.3986 72.2599Z" fill="#FFDCC1"/>
<path d="M73.5586 75.05L78.3986 77.84V72.26L73.5586 69.46V75.05Z" fill="#FFBE8D"/>
<path d="M78.3986 77.84L83.2386 75.05V69.46L78.3986 72.26V77.84Z" fill="#FFC9A0"/>
<path d="M85.4884 76.3498L90.3284 73.5598L85.4884 70.7598L80.6484 73.5598L85.4884 76.3498Z" fill="#FFDCC1"/>
<path d="M80.6484 79.1498L85.4884 81.9398V76.3498L80.6484 73.5598V79.1498Z" fill="#FFBE8D"/>
<path d="M85.4884 81.9398L90.3284 79.1498V73.5598L85.4884 76.3498V81.9398Z" fill="#FFC9A0"/>
<path d="M92.59 80.4503L97.43 77.6604L92.59 74.8604L87.75 77.6604L92.59 80.4503Z" fill="#FFDCC1"/>
<path d="M87.75 83.2404L92.59 86.0404V80.4504L87.75 77.6604V83.2404Z" fill="#FFBE8D"/>
<path d="M92.59 86.0404L97.43 83.2404V77.6604L92.59 80.4504V86.0404Z" fill="#FFC9A0"/>
<path d="M50.0119 64.0705L54.8519 61.2705L50.0119 58.4805L45.1719 61.2705L50.0119 64.0705Z" fill="#FFDCC1"/>
<path d="M45.1719 66.8605L50.0119 69.6505V64.0705L45.1719 61.2705V66.8605Z" fill="#FFBE8D"/>
<path d="M50.0119 69.6505L54.8519 66.8605V61.2705L50.0119 64.0705V69.6505Z" fill="#FFC9A0"/>
<path d="M57.1095 68.1601L61.9495 65.3701L57.1095 62.5801L52.2695 65.3701L57.1095 68.1601Z" fill="#FFDCC1"/>
<path d="M52.2695 70.9601L57.1095 73.7501V68.1601L52.2695 65.3701V70.9601Z" fill="#FFBE8D"/>
<path d="M57.1095 73.7501L61.9495 70.9601V65.3701L57.1095 68.1601V73.7501Z" fill="#FFC9A0"/>
<path d="M64.2111 72.2599L69.0411 69.4699L64.2111 66.6699L59.3711 69.4699L64.2111 72.2599Z" fill="#FFDCC1"/>
<path d="M59.3711 75.06L64.2111 77.85V72.26L59.3711 69.47V75.06Z" fill="#FFBE8D"/>
<path d="M64.2111 77.85L69.0411 75.06V69.47L64.2111 72.26V77.85Z" fill="#FFC9A0"/>
<path d="M71.3009 76.3595L76.1409 73.5595L71.3009 70.7695L66.4609 73.5595L71.3009 76.3595Z" fill="#FFDCC1"/>
<path d="M66.4609 79.1496L71.3009 81.9496V76.3596L66.4609 73.5596V79.1496Z" fill="#FFBE8D"/>
<path d="M71.3009 81.9496L76.1409 79.1496V73.5596L71.3009 76.3596V81.9496Z" fill="#FFC9A0"/>
<path d="M78.3986 80.4601L83.2386 77.6601L78.3986 74.8701L73.5586 77.6601L78.3986 80.4601Z" fill="#FFDCC1"/>
<path d="M73.5586 83.2502L78.3986 86.0402V80.4602L73.5586 77.6602V83.2502Z" fill="#FFBE8D"/>
<path d="M78.3986 86.0402L83.2386 83.2502V77.6602L78.3986 80.4602V86.0402Z" fill="#FFC9A0"/>
<path d="M85.4902 84.5497L90.3302 81.7597L85.5002 78.9697L80.6602 81.7597L85.4902 84.5497Z" fill="#FFDCC1"/>
<path d="M80.6602 87.3498L85.4902 90.1398V84.5498L80.6602 81.7598V87.3498Z" fill="#FFBE8D"/>
<path d="M85.4883 90.1398L90.3283 87.3498V81.7598L85.4883 84.5498V90.1398Z" fill="#FFC9A0"/>
<path d="M42.9181 68.1601L47.7481 65.3701L42.9181 62.5801L38.0781 65.3701L42.9181 68.1601Z" fill="#FFDCC1"/>
<path d="M38.0781 70.9601L42.9181 73.7501V68.1601L38.0781 65.3701V70.9601Z" fill="#FFBE8D"/>
<path d="M42.9181 73.7501L47.7481 70.9601V65.3701L42.9181 68.1601V73.7501Z" fill="#FFC9A0"/>
<path d="M50.0119 72.2599L54.8519 69.4699L50.0119 66.6699L45.1719 69.4699L50.0119 72.2599Z" fill="#FFDCC1"/>
<path d="M45.1719 75.06L50.0119 77.85V72.26L45.1719 69.47V75.06Z" fill="#FFBE8D"/>
<path d="M50.0119 77.85L54.8519 75.06V69.47L50.0119 72.26V77.85Z" fill="#FFC9A0"/>
<path d="M57.1095 76.3595L61.9495 73.5595L57.1095 70.7695L52.2695 73.5595L57.1095 76.3595Z" fill="#FFDCC1"/>
<path d="M52.2695 79.1496L57.1095 81.9496V76.3596L52.2695 73.5596V79.1496Z" fill="#FFBE8D"/>
<path d="M57.1095 81.9496L61.9495 79.1496V73.5596L57.1095 76.3596V81.9496Z" fill="#FFC9A0"/>
<path d="M64.2011 80.4601L69.0411 77.6601L64.2111 74.8701L59.3711 77.6601L64.2011 80.4601Z" fill="#FFDCC1"/>
<path d="M59.3711 83.2502L64.2011 86.0402V80.4602L59.3711 77.6602V83.2502Z" fill="#FFBE8D"/>
<path d="M64.1992 86.0402L69.0392 83.2502V77.6602L64.1992 80.4602V86.0402Z" fill="#FFC9A0"/>
<path d="M71.3009 84.5497L76.1409 81.7597L71.3009 78.9697L66.4609 81.7597L71.3009 84.5497Z" fill="#FFDCC1"/>
<path d="M66.4609 87.3498L71.3009 90.1398V84.5498L66.4609 81.7598V87.3498Z" fill="#FFBE8D"/>
<path d="M71.3009 90.1398L76.1409 87.3498V81.7598L71.3009 84.5498V90.1398Z" fill="#FFC9A0"/>
<path d="M78.3986 88.6496L83.2386 85.8596L78.3986 83.0596L73.5586 85.8596L78.3986 88.6496Z" fill="#FFDCC1"/>
<path d="M73.5586 91.4396L78.3986 94.2396V88.6496L73.5586 85.8596V91.4396Z" fill="#FFBE8D"/>
<path d="M78.3986 94.2396L83.2386 91.4396V85.8596L78.3986 88.6496V94.2396Z" fill="#FFC9A0"/>
<path d="M35.8205 72.2599L40.6605 69.4699L35.8205 66.6699L30.9805 69.4699L35.8205 72.2599Z" fill="#FFDCC1"/>
<path d="M30.9805 75.06L35.8205 77.85V72.26L30.9805 69.47V75.06Z" fill="#FFBE8D"/>
<path d="M35.8205 77.85L40.6605 75.06V69.47L35.8205 72.26V77.85Z" fill="#FFC9A0"/>
<path d="M42.9181 76.3595L47.7481 73.5595L42.9181 70.7695L38.0781 73.5595L42.9181 76.3595Z" fill="#FFDCC1"/>
<path d="M38.0781 79.1496L42.9181 81.9496V76.3596L38.0781 73.5596V79.1496Z" fill="#FFBE8D"/>
<path d="M42.9181 81.9496L47.7481 79.1496V73.5596L42.9181 76.3596V81.9496Z" fill="#FFC9A0"/>
<path d="M50.0119 80.4601L54.8519 77.6601L50.0119 74.8701L45.1719 77.6601L50.0119 80.4601Z" fill="#FFDCC1"/>
<path d="M45.1719 83.2502L50.0119 86.0402V80.4602L45.1719 77.6602V83.2502Z" fill="#FFBE8D"/>
<path d="M50.0119 86.0402L54.8519 83.2502V77.6602L50.0119 80.4602V86.0402Z" fill="#FFC9A0"/>
<path d="M57.1095 84.5497L61.9495 81.7597L57.1095 78.9697L52.2695 81.7597L57.1095 84.5497Z" fill="#FFDCC1"/>
<path d="M52.2695 87.3498L57.1095 90.1398V84.5498L52.2695 81.7598V87.3498Z" fill="#FFBE8D"/>
<path d="M57.1095 90.1398L61.9495 87.3498V81.7598L57.1095 84.5498V90.1398Z" fill="#FFC9A0"/>
<path d="M64.2111 88.6496L69.0411 85.8596L64.2111 83.0596L59.3711 85.8596L64.2111 88.6496Z" fill="#FFDCC1"/>
<path d="M59.3711 91.4396L64.2111 94.2396V88.6496L59.3711 85.8596V91.4396Z" fill="#FFBE8D"/>
<path d="M64.2111 94.2396L69.0411 91.4396V85.8596L64.2111 88.6496V94.2396Z" fill="#FFC9A0"/>
<path d="M71.3009 92.7502L76.1409 89.9501L71.3009 87.1602L66.4609 89.9501L71.3009 92.7502Z" fill="#FFDCC1"/>
<path d="M66.4609 95.5402L71.3009 98.3402V92.7502L66.4609 89.9502V95.5402Z" fill="#FFBE8D"/>
<path d="M71.3009 98.3402L76.1409 95.5402V89.9502L71.3009 92.7502V98.3402Z" fill="#FFC9A0"/>
<path d="M28.7189 76.3595L33.5589 73.5595L28.7189 70.7695L23.8789 73.5595L28.7189 76.3595Z" fill="#FFDCC1"/>
<path d="M23.8789 79.1496L28.7189 81.9496V76.3596L23.8789 73.5596V79.1496Z" fill="#FFBE8D"/>
<path d="M28.7189 81.9496L33.5589 79.1496V73.5596L28.7189 76.3596V81.9496Z" fill="#FFC9A0"/>
<path d="M35.8205 80.4601L40.6605 77.6601L35.8205 74.8701L30.9805 77.6601L35.8205 80.4601Z" fill="#FFDCC1"/>
<path d="M30.9805 83.2502L35.8205 86.0402V80.4602L30.9805 77.6602V83.2502Z" fill="#FFBE8D"/>
<path d="M35.8205 86.0402L40.6605 83.2502V77.6602L35.8205 80.4602V86.0402Z" fill="#FFC9A0"/>
<path d="M42.9181 84.5497L47.7481 81.7597L42.9181 78.9697L38.0781 81.7597L42.9181 84.5497Z" fill="#FFDCC1"/>
<path d="M38.0781 87.3498L42.9181 90.1398V84.5498L38.0781 81.7598V87.3498Z" fill="#FFBE8D"/>
<path d="M42.9181 90.1398L47.7481 87.3498V81.7598L42.9181 84.5498V90.1398Z" fill="#FFC9A0"/>
<path d="M50.0119 88.6496L54.8519 85.8596L50.0119 83.0596L45.1719 85.8596L50.0119 88.6496Z" fill="#FFDCC1"/>
<path d="M45.1719 91.4396L50.0119 94.2396V88.6496L45.1719 85.8596V91.4396Z" fill="#FFBE8D"/>
<path d="M50.0119 94.2396L54.8519 91.4396V85.8596L50.0119 88.6496V94.2396Z" fill="#FFC9A0"/>
<path d="M52.2306 95.5705L57.0706 92.7705L52.2306 89.9805L47.3906 92.7705L52.2306 95.5705Z" fill="#FFEFE3"/>
<path d="M47.3906 98.3605L52.2306 101.151V95.5705L47.3906 92.7705V98.3605Z" fill="#FFE5D2"/>
<path d="M52.2306 101.151L57.0706 98.3605V92.7705L52.2306 95.5705V101.151Z" fill="#FFE8D8"/>
<path d="M64.2111 96.8398L69.0411 94.0498L64.2111 91.2598L59.3711 94.0498L64.2111 96.8398Z" fill="#FFDCC1"/>
<path d="M59.3711 99.6398L64.2111 102.43V96.8398L59.3711 94.0498V99.6398Z" fill="#FFBE8D"/>
<path d="M64.2111 102.43L69.0411 99.6398V94.0498L64.2111 96.8398V102.43Z" fill="#FFC9A0"/>
<path d="M64.1994 47.4201L69.0394 44.6201L64.1994 41.8301L59.3594 44.6201L64.1994 47.4201Z" fill="#FFDCC1"/>
<path d="M59.3594 50.2101L64.1994 53.0001V47.4201L59.3594 44.6201V50.2101Z" fill="#FFBE8D"/>
<path d="M64.1994 53.0001L69.0394 50.2101V44.6201L64.1994 47.4201V53.0001Z" fill="#FFC9A0"/>
<path d="M71.3009 51.5099L76.1409 48.7199L71.3009 45.9199L66.4609 48.7199L71.3009 51.5099Z" fill="#FFDCC1"/>
<path d="M66.4609 54.31L71.3009 57.1V51.51L66.4609 48.72V54.31Z" fill="#FFBE8D"/>
<path d="M71.3009 57.1L76.1409 54.31V48.72L71.3009 51.51V57.1Z" fill="#FFC9A0"/>
<path d="M78.3986 55.6095L83.2386 52.8195L78.3986 50.0195L73.5586 52.8195L78.3986 55.6095Z" fill="#FFDCC1"/>
<path d="M73.5586 58.3996L78.3986 61.1996V55.6096L73.5586 52.8196V58.3996Z" fill="#FFBE8D"/>
<path d="M78.3986 61.1996L83.2386 58.3996V52.8196L78.3986 55.6096V61.1996Z" fill="#FFC9A0"/>
<path d="M85.4884 59.7101L90.3284 56.9101L85.4884 54.1201L80.6484 56.9101L85.4884 59.7101Z" fill="#FFDCC1"/>
<path d="M80.6484 62.5002L85.4884 65.2902V59.7102L80.6484 56.9102V62.5002Z" fill="#FFBE8D"/>
<path d="M85.4884 65.2902L90.3284 62.5002V56.9102L85.4884 59.7102V65.2902Z" fill="#FFC9A0"/>
<path d="M92.59 63.7997L97.43 61.0097L92.59 58.2197L87.75 61.0097L92.59 63.7997Z" fill="#FFDCC1"/>
<path d="M87.75 66.5998L92.59 69.3898V63.7998L87.75 61.0098V66.5998Z" fill="#FFBE8D"/>
<path d="M92.59 69.3898L97.43 66.5998V61.0098L92.59 63.7998V69.3898Z" fill="#FFC9A0"/>
<path d="M104.57 70.7199L109.41 67.9299L104.57 65.1299L99.7305 67.9299L104.57 70.7199Z" fill="#FFEFE3"/>
<path d="M99.7305 73.5099L104.57 76.3099V70.7199L99.7305 67.9299V73.5099Z" fill="#FFE5D2"/>
<path d="M104.57 76.3099L109.41 73.5099V67.9299L104.57 70.7199V76.3099Z" fill="#FFE8D8"/>
<path d="M57.1095 51.5099L61.9495 48.7099L57.1095 45.9199L52.2695 48.7099L57.1095 51.5099Z" fill="#FFDCC1"/>
<path d="M52.2695 54.3L57.1095 57.1V51.51L52.2695 48.71V54.3Z" fill="#FFBE8D"/>
<path d="M57.1095 57.1L61.9495 54.3V48.71L57.1095 51.51V57.1Z" fill="#FFC9A0"/>
<path d="M64.1994 55.5995L69.0394 52.8095L64.1994 50.0195L59.3594 52.8095L64.1994 55.5995Z" fill="#FFDCC1"/>
<path d="M59.3594 58.3996L64.1994 61.1896V55.5996L59.3594 52.8096V58.3996Z" fill="#FFBE8D"/>
<path d="M64.1994 61.1896L69.0394 58.3996V52.8096L64.1994 55.5996V61.1896Z" fill="#FFC9A0"/>
<path d="M71.3009 59.7004L76.1409 56.9104L71.3009 54.1104L66.4609 56.9104L71.3009 59.7004Z" fill="#FFDCC1"/>
<path d="M66.4609 62.5004L71.3009 65.2904V59.7004L66.4609 56.9104V62.5004Z" fill="#FFBE8D"/>
<path d="M71.3009 65.2904L76.1409 62.5004V56.9104L71.3009 59.7004V65.2904Z" fill="#FFC9A0"/>
<path d="M78.3986 63.8L83.2386 61L78.3986 58.21L73.5586 61L78.3986 63.8Z" fill="#FFDCC1"/>
<path d="M73.5586 66.59L78.3986 69.39V63.8L73.5586 61V66.59Z" fill="#FFBE8D"/>
<path d="M78.3986 69.39L83.2386 66.59V61L78.3986 63.8V69.39Z" fill="#FFC9A0"/>
<path d="M85.4884 67.8996L90.3284 65.0996L85.4884 62.3096L80.6484 65.0996L85.4884 67.8996Z" fill="#FFDCC1"/>
<path d="M80.6484 70.6896L85.4884 73.4796V67.8996L80.6484 65.0996V70.6896Z" fill="#FFBE8D"/>
<path d="M85.4884 73.4796L90.3284 70.6896V65.0996L85.4884 67.8996V73.4796Z" fill="#FFC9A0"/>
<path d="M92.59 71.99L97.43 69.2L92.59 66.41L87.75 69.2L92.59 71.99Z" fill="#FFDCC1"/>
<path d="M87.75 74.7901L92.59 77.5801V71.9901L87.75 69.2001V74.7901Z" fill="#FFBE8D"/>
<path d="M92.59 77.5801L97.43 74.7901V69.2001L92.59 71.9901V77.5801Z" fill="#FFC9A0"/>
<path d="M50.0119 55.6095L54.8519 52.8195L50.0119 50.0195L45.1719 52.8195L50.0119 55.6095Z" fill="#FFDCC1"/>
<path d="M45.1719 58.3996L50.0119 61.1996V55.6096L45.1719 52.8196V58.3996Z" fill="#FFBE8D"/>
<path d="M50.0119 61.1996L54.8519 58.3996V52.8196L50.0119 55.6096V61.1996Z" fill="#FFC9A0"/>
<path d="M57.1095 59.7101L61.9495 56.9101L57.1095 54.1201L52.2695 56.9101L57.1095 59.7101Z" fill="#FFDCC1"/>
<path d="M52.2695 62.5002L57.1095 65.3002V59.7102L52.2695 56.9102V62.5002Z" fill="#FFBE8D"/>
<path d="M57.1095 65.3002L61.9495 62.5002V56.9102L57.1095 59.7102V65.3002Z" fill="#FFC9A0"/>
<path d="M64.2111 63.7997L69.0411 61.0097L64.2111 58.2197L59.3711 61.0097L64.2111 63.7997Z" fill="#FFDCC1"/>
<path d="M59.3711 66.5998L64.2111 69.3898V63.7998L59.3711 61.0098V66.5998Z" fill="#FFBE8D"/>
<path d="M64.2111 69.3898L69.0411 66.5998V61.0098L64.2111 63.7998V69.3898Z" fill="#FFC9A0"/>
<path d="M71.3009 67.8996L76.1409 65.1096L71.3009 62.3096L66.4609 65.1096L71.3009 67.8996Z" fill="#FFDCC1"/>
<path d="M66.4609 70.6996L71.3009 73.4896V67.8996L66.4609 65.1096V70.6996Z" fill="#FFBE8D"/>
<path d="M71.3009 73.4896L76.1409 70.6996V65.1096L71.3009 67.8996V73.4896Z" fill="#FFC9A0"/>
<path d="M78.3986 72.0002L83.2386 69.2002L78.3986 66.4102L73.5586 69.2102L78.3986 72.0002Z" fill="#FFDCC1"/>
<path d="M73.5586 74.7902L78.3986 77.5902V72.0002L73.5586 69.2002V74.7902Z" fill="#FFBE8D"/>
<path d="M78.3986 77.5902L83.2386 74.7902V69.2002L78.3986 72.0002V77.5902Z" fill="#FFC9A0"/>
<path d="M85.49 76.1L90.33 73.3L85.5 70.51L80.66 73.3L85.49 76.1Z" fill="#FFDCC1"/>
<path d="M80.66 78.89L85.49 81.68V76.1L80.66 73.3V78.89Z" fill="#FFBE8D"/>
<path d="M85.4881 81.68L90.3281 78.89V73.3L85.4881 76.1V81.68Z" fill="#FFC9A0"/>
<path d="M42.9181 59.7101L47.7481 56.9101L42.9181 54.1201L38.0781 56.9101L42.9181 59.7101Z" fill="#FFDCC1"/>
<path d="M38.0781 62.5002L42.9181 65.3002V59.7102L38.0781 56.9102V62.5002Z" fill="#FFBE8D"/>
<path d="M42.9181 65.3002L47.7481 62.5002V56.9102L42.9181 59.7102V65.3002Z" fill="#FFC9A0"/>
<path d="M50.0119 63.7997L54.8519 61.0097L50.0119 58.2197L45.1719 61.0097L50.0119 63.7997Z" fill="#FFDCC1"/>
<path d="M45.1719 66.5998L50.0119 69.3898V63.7998L45.1719 61.0098V66.5998Z" fill="#FFBE8D"/>
<path d="M50.0119 69.3898L54.8519 66.5998V61.0098L50.0119 63.7998V69.3898Z" fill="#FFC9A0"/>
<path d="M57.1095 67.8996L61.9495 65.1096L57.1095 62.3096L52.2695 65.1096L57.1095 67.8996Z" fill="#FFDCC1"/>
<path d="M52.2695 70.6996L57.1095 73.4896V67.8996L52.2695 65.1096V70.6996Z" fill="#FFBE8D"/>
<path d="M57.1095 73.4896L61.9495 70.6996V65.1096L57.1095 67.8996V73.4896Z" fill="#FFC9A0"/>
<path d="M64.2011 72.0002L69.0411 69.2002L64.2111 66.4102L59.3711 69.2102L64.2011 72.0002Z" fill="#FFDCC1"/>
<path d="M59.3711 74.7902L64.2011 77.5902V72.0002L59.3711 69.2002V74.7902Z" fill="#FFBE8D"/>
<path d="M64.1992 77.5902L69.0392 74.7902V69.2002L64.1992 72.0002V77.5902Z" fill="#FFC9A0"/>
<path d="M71.3009 76.0998L76.1409 73.2998L71.3009 70.5098L66.4609 73.2998L71.3009 76.0998Z" fill="#FFDCC1"/>
<path d="M66.4609 78.8898L71.3009 81.6798V76.0998L66.4609 73.2998V78.8898Z" fill="#FFBE8D"/>
<path d="M71.3009 81.6798L76.1409 78.8898V73.2998L71.3009 76.0998V81.6798Z" fill="#FFC9A0"/>
<path d="M78.3986 80.1904L83.2386 77.4004L78.3986 74.6104L73.5586 77.4004L78.3986 80.1904Z" fill="#FFDCC1"/>
<path d="M73.5586 82.9904L78.3986 85.7804V80.1904L73.5586 77.4004V82.9904Z" fill="#FFBE8D"/>
<path d="M78.3986 85.7804L83.2386 82.9904V77.4004L78.3986 80.1904V85.7804Z" fill="#FFC9A0"/>
<path d="M35.8205 63.7997L40.6605 61.0097L35.8205 58.2197L30.9805 61.0097L35.8205 63.7997Z" fill="#FFDCC1"/>
<path d="M30.9805 66.5998L35.8205 69.3898V63.7998L30.9805 61.0098V66.5998Z" fill="#FFBE8D"/>
<path d="M35.8205 69.3898L40.6605 66.5998V61.0098L35.8205 63.7998V69.3898Z" fill="#FFC9A0"/>
<path d="M42.9181 67.8996L47.7481 65.1096L42.9181 62.3096L38.0781 65.1096L42.9181 67.8996Z" fill="#FFDCC1"/>
<path d="M38.0781 70.6996L42.9181 73.4896V67.8996L38.0781 65.1096V70.6996Z" fill="#FFBE8D"/>
<path d="M42.9181 73.4896L47.7481 70.6996V65.1096L42.9181 67.8996V73.4896Z" fill="#FFC9A0"/>
<path d="M50.0119 72.0002L54.8519 69.2002L50.0119 66.4102L45.1719 69.2102L50.0119 72.0002Z" fill="#FFDCC1"/>
<path d="M45.1719 74.7902L50.0119 77.5902V72.0002L45.1719 69.2002V74.7902Z" fill="#FFBE8D"/>
<path d="M50.0119 77.5902L54.8519 74.7902V69.2002L50.0119 72.0002V77.5902Z" fill="#FFC9A0"/>
<path d="M57.1095 76.0998L61.9495 73.2998L57.1095 70.5098L52.2695 73.2998L57.1095 76.0998Z" fill="#FFDCC1"/>
<path d="M52.2695 78.8898L57.1095 81.6798V76.0998L52.2695 73.2998V78.8898Z" fill="#FFBE8D"/>
<path d="M57.1095 81.6798L61.9495 78.8898V73.2998L57.1095 76.0998V81.6798Z" fill="#FFC9A0"/>
<path d="M64.2111 80.1904L69.0411 77.4004L64.2111 74.6104L59.3711 77.4004L64.2111 80.1904Z" fill="#FFDCC1"/>
<path d="M59.3711 82.9904L64.2111 85.7804V80.1904L59.3711 77.4004V82.9904Z" fill="#FFBE8D"/>
<path d="M64.2111 85.7804L69.0411 82.9904V77.4004L64.2111 80.1904V85.7804Z" fill="#FFC9A0"/>
<path d="M71.3009 84.2902L76.1409 81.5002L71.3009 78.7002L66.4609 81.5002L71.3009 84.2902Z" fill="#FFDCC1"/>
<path d="M66.4609 87.0802L71.3009 89.8802V84.2902L66.4609 81.5002V87.0802Z" fill="#FFBE8D"/>
<path d="M71.3009 89.8802L76.1409 87.0802V81.5002L71.3009 84.2902V89.8802Z" fill="#FFC9A0"/>
<path d="M28.7189 67.8996L33.5589 65.1096L28.7189 62.3096L23.8789 65.1096L28.7189 67.8996Z" fill="#FFDCC1"/>
<path d="M23.8789 70.6996L28.7189 73.4896V67.8996L23.8789 65.1096V70.6996Z" fill="#FFBE8D"/>
<path d="M28.7189 73.4896L33.5589 70.6996V65.1096L28.7189 67.8996V73.4896Z" fill="#FFC9A0"/>
<path d="M30.9416 74.8205L35.7816 72.0205L30.9416 69.2305L26.1016 72.0205L30.9416 74.8205Z" fill="#FFDBC0"/>
<path d="M26.1016 77.6105L30.9416 80.4105V74.8205L26.1016 72.0205V77.6105Z" fill="#FFC69B"/>
<path d="M30.9416 80.4105L35.7816 77.6105V72.0205L30.9416 74.8205V80.4105Z" fill="#FFCDA7"/>
<path d="M42.9181 76.0998L47.7481 73.2998L42.9181 70.5098L38.0781 73.2998L42.9181 76.0998Z" fill="#FFDCC1"/>
<path d="M38.0781 78.8898L42.9181 81.6798V76.0998L38.0781 73.2998V78.8898Z" fill="#FFBE8D"/>
<path d="M42.9181 81.6798L47.7481 78.8898V73.2998L42.9181 76.0998V81.6798Z" fill="#FFC9A0"/>
<path d="M50.0119 80.1904L54.8519 77.4004L50.0119 74.6104L45.1719 77.4004L50.0119 80.1904Z" fill="#FFDCC1"/>
<path d="M45.1719 82.9904L50.0119 85.7804V80.1904L45.1719 77.4004V82.9904Z" fill="#FFBE8D"/>
<path d="M50.0119 85.7804L54.8519 82.9904V77.4004L50.0119 80.1904V85.7804Z" fill="#FFC9A0"/>
<path d="M57.1095 84.2902L61.9495 81.5002L57.1095 78.7002L52.2695 81.5002L57.1095 84.2902Z" fill="#FFDCC1"/>
<path d="M52.2695 87.0802L57.1095 89.8802V84.2902L52.2695 81.5002V87.0802Z" fill="#FFBE8D"/>
<path d="M57.1095 89.8802L61.9495 87.0802V81.5002L57.1095 84.2902V89.8802Z" fill="#FFC9A0"/>
<path d="M64.2111 88.3898L69.0411 85.5898L64.2111 82.7998L59.3711 85.5898L64.2111 88.3898Z" fill="#FFDCC1"/>
<path d="M59.3711 91.1798L64.2111 93.9799V88.3898L59.3711 85.5898V91.1798Z" fill="#FFBE8D"/>
<path d="M64.2111 93.9799L69.0411 91.1798V85.5898L64.2111 88.3898V93.9799Z" fill="#FFC9A0"/>
<path d="M64.1994 38.9601L69.0394 36.1601L64.1994 33.3701L59.3594 36.1601L64.1994 38.9601Z" fill="#FFDCC1"/>
<path d="M59.3594 41.7502L64.1994 44.5502V38.9602L59.3594 36.1602V41.7502Z" fill="#FFBE8D"/>
<path d="M64.1994 44.5502L69.0394 41.7502V36.1602L64.1994 38.9602V44.5502Z" fill="#FFC9A0"/>
<path d="M71.3009 43.0597L76.1409 40.2597L71.3009 37.4697L66.4609 40.2597L71.3009 43.0597Z" fill="#FFDCC1"/>
<path d="M66.4609 45.8498L71.3009 48.6398V43.0598L66.4609 40.2598V45.8498Z" fill="#FFBE8D"/>
<path d="M71.3009 48.6398L76.1409 45.8498V40.2598L71.3009 43.0598V48.6398Z" fill="#FFC9A0"/>
<path d="M78.3986 47.1505L83.2386 44.3605L78.3986 41.5605L73.5586 44.3605L78.3986 47.1505Z" fill="#FFDCC1"/>
<path d="M73.5586 49.9506L78.3986 52.7406V47.1506L73.5586 44.3606V49.9506Z" fill="#FFBE8D"/>
<path d="M78.3986 52.7406L83.2386 49.9506V44.3606L78.3986 47.1506V52.7406Z" fill="#FFC9A0"/>
<path d="M85.4884 51.2502L90.3284 48.4602L85.4884 45.6602L80.6484 48.4602L85.4884 51.2502Z" fill="#FFDCC1"/>
<path d="M80.6484 54.0402L85.4884 56.8402V51.2502L80.6484 48.4602V54.0402Z" fill="#FFBE8D"/>
<path d="M85.4884 56.8402L90.3284 54.0402V48.4602L85.4884 51.2502V56.8402Z" fill="#FFC9A0"/>
<path d="M92.59 55.3498L97.43 52.5498L92.59 49.7598L87.75 52.5498L92.59 55.3498Z" fill="#FFDCC1"/>
<path d="M87.75 58.1398L92.59 60.9398V55.3498L87.75 52.5498V58.1398Z" fill="#FFBE8D"/>
<path d="M92.59 60.9398L97.43 58.1398V52.5498L92.59 55.3498V60.9398Z" fill="#FFC9A0"/>
<path d="M99.6877 59.4403L104.528 56.6504L99.6877 53.8604L94.8477 56.6504L99.6877 59.4403Z" fill="#FFDCC1"/>
<path d="M94.8477 62.2404L99.6877 65.0304V59.4404L94.8477 56.6504V62.2404Z" fill="#FFBE8D"/>
<path d="M99.6877 65.0304L104.528 62.2404V56.6504L99.6877 59.4404V65.0304Z" fill="#FFC9A0"/>
<path d="M57.1095 43.05L61.9495 40.26L57.1095 37.46L52.2695 40.26L57.1095 43.05Z" fill="#FFDCC1"/>
<path d="M52.2695 45.84L57.1095 48.64V43.05L52.2695 40.26V45.84Z" fill="#FFBE8D"/>
<path d="M57.1095 48.64L61.9495 45.84V40.26L57.1095 43.05V48.64Z" fill="#FFC9A0"/>
<path d="M64.1994 47.1505L69.0394 44.3505L64.1994 41.5605L59.3594 44.3505L64.1994 47.1505Z" fill="#FFDCC1"/>
<path d="M59.3594 49.9406L64.1994 52.7406V47.1506L59.3594 44.3506V49.9406Z" fill="#FFBE8D"/>
<path d="M64.1994 52.7406L69.0394 49.9406V44.3506L64.1994 47.1506V52.7406Z" fill="#FFC9A0"/>
<path d="M71.297 51.2402L76.137 48.4502L71.297 45.6602L66.457 48.4502L71.297 51.2402Z" fill="#FFDCC1"/>
<path d="M66.457 54.0402L71.297 56.8302V51.2402L66.457 48.4502V54.0402Z" fill="#FFBE8D"/>
<path d="M71.297 56.8302L76.137 54.0402V48.4502L71.297 51.2402V56.8302Z" fill="#FFC9A0"/>
<path d="M78.3986 55.34L83.2386 52.55L78.3986 49.75L73.5586 52.55L78.3986 55.34Z" fill="#FFDCC1"/>
<path d="M73.5586 58.14L78.3986 60.93V55.34L73.5586 52.55V58.14Z" fill="#FFBE8D"/>
<path d="M78.3986 60.93L83.2386 58.14V52.55L78.3986 55.34V60.93Z" fill="#FFC9A0"/>
<path d="M85.4884 59.4406L90.3284 56.6506L85.4884 53.8506L80.6484 56.6506L85.4884 59.4406Z" fill="#FFDCC1"/>
<path d="M80.6484 62.2306L85.4884 65.0306V59.4406L80.6484 56.6506V62.2306Z" fill="#FFBE8D"/>
<path d="M85.4884 65.0306L90.3284 62.2306V56.6506L85.4884 59.4406V65.0306Z" fill="#FFC9A0"/>
<path d="M92.59 63.5402L97.43 60.7402L92.59 57.9502L87.75 60.7402L92.59 63.5402Z" fill="#FFDCC1"/>
<path d="M87.75 66.3302L92.59 69.1202V63.5402L87.75 60.7402V66.3302Z" fill="#FFBE8D"/>
<path d="M92.59 69.1202L97.43 66.3302V60.7402L92.59 63.5402V69.1202Z" fill="#FFC9A0"/>
<path d="M50.008 47.1503L54.848 44.3603L50.008 41.5703L45.168 44.3603L50.008 47.1503Z" fill="#FFDCC1"/>
<path d="M45.168 49.9504L50.008 52.7404V47.1504L45.168 44.3604V49.9504Z" fill="#FFBE8D"/>
<path d="M50.008 52.7404L54.848 49.9504V44.3604L50.008 47.1504V52.7404Z" fill="#FFC9A0"/>
<path d="M57.1095 51.2502L61.9495 48.4602L57.1095 45.6602L52.2695 48.4602L57.1095 51.2502Z" fill="#FFDCC1"/>
<path d="M52.2695 54.0402L57.1095 56.8402V51.2502L52.2695 48.4602V54.0402Z" fill="#FFBE8D"/>
<path d="M57.1095 56.8402L61.9495 54.0402V48.4602L57.1095 51.2502V56.8402Z" fill="#FFC9A0"/>
<path d="M64.2072 55.3498L69.0372 52.5498L64.2072 49.7598L59.3672 52.5498L64.2072 55.3498Z" fill="#FFDCC1"/>
<path d="M59.3672 58.1398L64.2072 60.9398V55.3498L59.3672 52.5498V58.1398Z" fill="#FFBE8D"/>
<path d="M64.2072 60.9398L69.0372 58.1398V52.5498L64.2072 55.3498V60.9398Z" fill="#FFC9A0"/>
<path d="M71.297 59.4504L76.137 56.6504L71.297 53.8604L66.457 56.6504L71.297 59.4504Z" fill="#FFDCC1"/>
<path d="M66.457 62.2404L71.297 65.0304V59.4504L66.457 56.6504V62.2404Z" fill="#FFBE8D"/>
<path d="M71.297 65.0304L76.137 62.2404V56.6504L71.297 59.4504V65.0304Z" fill="#FFC9A0"/>
<path d="M78.3986 63.5402L83.2386 60.7502L78.3986 57.9502L73.5586 60.7502L78.3986 63.5402Z" fill="#FFDCC1"/>
<path d="M73.5586 66.3402L78.3986 69.1302V63.5402L73.5586 60.7502V66.3402Z" fill="#FFBE8D"/>
<path d="M78.3986 69.1302L83.2386 66.3402V60.7502L78.3986 63.5402V69.1302Z" fill="#FFC9A0"/>
<path d="M85.4902 67.6398L90.3302 64.8498L85.5002 62.0498L80.6602 64.8498L85.4902 67.6398Z" fill="#FFDCC1"/>
<path d="M80.6602 70.4299L85.4902 73.2299V67.6399L80.6602 64.8499V70.4299Z" fill="#FFBE8D"/>
<path d="M85.4883 73.2296L90.3283 70.4296V64.8496L85.4883 67.6396V73.2296Z" fill="#FFC9A0"/>
<path d="M42.9181 51.2502L47.7481 48.4602L42.9181 45.6602L38.0781 48.4602L42.9181 51.2502Z" fill="#FFDCC1"/>
<path d="M38.0781 54.0402L42.9181 56.8402V51.2502L38.0781 48.4602V54.0402Z" fill="#FFBE8D"/>
<path d="M42.9181 56.8402L47.7481 54.0402V48.4602L42.9181 51.2502V56.8402Z" fill="#FFC9A0"/>
<path d="M50.008 55.3498L54.848 52.5498L50.008 49.7598L45.168 52.5498L50.008 55.3498Z" fill="#FFDCC1"/>
<path d="M45.168 58.1398L50.008 60.9398V55.3498L45.168 52.5498V58.1398Z" fill="#FFBE8D"/>
<path d="M50.008 60.9398L54.848 58.1398V52.5498L50.008 55.3498V60.9398Z" fill="#FFC9A0"/>
<path d="M57.1095 59.4504L61.9495 56.6504L57.1095 53.8604L52.2695 56.6504L57.1095 59.4504Z" fill="#FFDCC1"/>
<path d="M52.2695 62.2404L57.1095 65.0304V59.4504L52.2695 56.6504V62.2404Z" fill="#FFBE8D"/>
<path d="M57.1095 65.0304L61.9495 62.2404V56.6504L57.1095 59.4504V65.0304Z" fill="#FFC9A0"/>
<path d="M64.1972 63.5402L69.0372 60.7502L64.2072 57.9502L59.3672 60.7502L64.1972 63.5402Z" fill="#FFDCC1"/>
<path d="M59.3672 66.3402L64.1972 69.1302V63.5402L59.3672 60.7502V66.3402Z" fill="#FFBE8D"/>
<path d="M64.1953 69.13L69.0353 66.34V60.75L64.1953 63.54V69.13Z" fill="#FFC9A0"/>
<path d="M71.3009 67.6398L76.1409 64.8498L71.3009 62.0498L66.4609 64.8498L71.3009 67.6398Z" fill="#FFDCC1"/>
<path d="M66.4609 70.4299L71.3009 73.2299V67.6399L66.4609 64.8499V70.4299Z" fill="#FFBE8D"/>
<path d="M71.3009 73.2299L76.1409 70.4299V64.8499L71.3009 67.6399V73.2299Z" fill="#FFC9A0"/>
<path d="M78.3986 71.7404L83.2386 68.9404L78.3986 66.1504L73.5586 68.9404L78.3986 71.7404Z" fill="#FFDCC1"/>
<path d="M73.5586 74.5304L78.3986 77.3204V71.7404L73.5586 68.9404V74.5304Z" fill="#FFBE8D"/>
<path d="M78.3986 77.3204L83.2386 74.5304V68.9404L78.3986 71.7404V77.3204Z" fill="#FFC9A0"/>
<path d="M35.8166 55.3498L40.6566 52.5498L35.8166 49.7598L30.9766 52.5498L35.8166 55.3498Z" fill="#FFDCC1"/>
<path d="M30.9766 58.1398L35.8166 60.9398V55.3498L30.9766 52.5498V58.1398Z" fill="#FFBE8D"/>
<path d="M35.8166 60.9398L40.6566 58.1398V52.5498L35.8166 55.3498V60.9398Z" fill="#FFC9A0"/>
<path d="M42.9181 59.4504L47.7481 56.6504L42.9181 53.8604L38.0781 56.6504L42.9181 59.4504Z" fill="#FFDCC1"/>
<path d="M38.0781 62.2404L42.9181 65.0304V59.4504L38.0781 56.6504V62.2404Z" fill="#FFBE8D"/>
<path d="M42.9181 65.0304L47.7481 62.2404V56.6504L42.9181 59.4504V65.0304Z" fill="#FFC9A0"/>
<path d="M50.008 63.5402L54.848 60.7502L50.008 57.9502L45.168 60.7502L50.008 63.5402Z" fill="#FFDCC1"/>
<path d="M45.168 66.3402L50.008 69.1302V63.5402L45.168 60.7502V66.3402Z" fill="#FFBE8D"/>
<path d="M50.008 69.1302L54.848 66.3402V60.7502L50.008 63.5402V69.1302Z" fill="#FFC9A0"/>
<path d="M57.1095 67.6398L61.9495 64.8498L57.1095 62.0498L52.2695 64.8498L57.1095 67.6398Z" fill="#FFDCC1"/>
<path d="M52.2695 70.4299L57.1095 73.2299V67.6399L52.2695 64.8499V70.4299Z" fill="#FFBE8D"/>
<path d="M57.1095 73.2299L61.9495 70.4299V64.8499L57.1095 67.6399V73.2299Z" fill="#FFC9A0"/>
<path d="M64.2072 71.7404L69.0372 68.9404L64.2072 66.1504L59.3672 68.9404L64.2072 71.7404Z" fill="#FFDCC1"/>
<path d="M59.3672 74.5304L64.2072 77.3204V71.7404L59.3672 68.9404V74.5304Z" fill="#FFBE8D"/>
<path d="M64.2072 77.3204L69.0372 74.5304V68.9404L64.2072 71.7404V77.3204Z" fill="#FFC9A0"/>
<path d="M76.1798 78.6506L81.0198 75.8605L76.1798 73.0605L71.3398 75.8605L76.1798 78.6506Z" fill="#FFDBC0"/>
<path d="M71.3398 81.4506L76.1798 84.2406V78.6506L71.3398 75.8606V81.4506Z" fill="#FFC69B"/>
<path d="M76.1798 84.2406L81.0198 81.4506V75.8606L76.1798 78.6506V84.2406Z" fill="#FFCDA7"/>
<path d="M28.7189 59.4501L33.5589 56.6501L28.7189 53.8601L23.8789 56.6501L28.7189 59.4501Z" fill="#FFDCC1"/>
<path d="M23.8789 62.2401L28.7189 65.0301V59.4501L23.8789 56.6501V62.2401Z" fill="#FFBE8D"/>
<path d="M28.7189 65.0301L33.5589 62.2401V56.6501L28.7189 59.4501V65.0301Z" fill="#FFC9A0"/>
<path d="M35.8166 63.5402L40.6566 60.7502L35.8166 57.9502L30.9766 60.7502L35.8166 63.5402Z" fill="#FFDCC1"/>
<path d="M30.9766 66.3402L35.8166 69.1302V63.5402L30.9766 60.7502V66.3402Z" fill="#FFBE8D"/>
<path d="M35.8166 69.1302L40.6566 66.3402V60.7502L35.8166 63.5402V69.1302Z" fill="#FFC9A0"/>
<path d="M42.9181 67.6398L47.7481 64.8498L42.9181 62.0498L38.0781 64.8498L42.9181 67.6398Z" fill="#FFDCC1"/>
<path d="M38.0781 70.4299L42.9181 73.2299V67.6399L38.0781 64.8499V70.4299Z" fill="#FFBE8D"/>
<path d="M42.9181 73.2299L47.7481 70.4299V64.8499L42.9181 67.6399V73.2299Z" fill="#FFC9A0"/>
<path d="M50.008 71.7404L54.848 68.9404L50.008 66.1504L45.168 68.9404L50.008 71.7404Z" fill="#FFDCC1"/>
<path d="M45.168 74.5304L50.008 77.3204V71.7404L45.168 68.9404V74.5304Z" fill="#FFBE8D"/>
<path d="M50.008 77.3204L54.848 74.5304V68.9404L50.008 71.7404V77.3204Z" fill="#FFC9A0"/>
<path d="M57.1095 75.83L61.9495 73.04L57.1095 70.25L52.2695 73.04L57.1095 75.83Z" fill="#FFDCC1"/>
<path d="M52.2695 78.63L57.1095 81.42V75.83L52.2695 73.04V78.63Z" fill="#FFBE8D"/>
<path d="M57.1095 81.42L61.9495 78.63V73.04L57.1095 75.83V81.42Z" fill="#FFC9A0"/>
<path d="M64.2072 79.9298L69.0372 77.1398L64.2072 74.3398L59.3672 77.1398L64.2072 79.9298Z" fill="#FFDCC1"/>
<path d="M59.3672 82.7299L64.2072 85.5199V79.9299L59.3672 77.1399V82.7299Z" fill="#FFBE8D"/>
<path d="M64.2072 85.5199L69.0372 82.7299V77.1399L64.2072 79.9299V85.5199Z" fill="#FFC9A0"/>
<path d="M64.1994 30.5002L69.0394 27.7102L64.1994 24.9102L59.3594 27.7102L64.1994 30.5002Z" fill="#FFDCC1"/>
<path d="M59.3594 33.3002L64.1994 36.0902V30.5002L59.3594 27.7102V33.3002Z" fill="#FFBE8D"/>
<path d="M64.1994 36.0902L69.0394 33.3002V27.7102L64.1994 30.5002V36.0902Z" fill="#FFC9A0"/>
<path d="M71.3009 34.5998L76.1409 31.7998L71.3009 29.0098L66.4609 31.7998L71.3009 34.5998Z" fill="#FFDCC1"/>
<path d="M66.4609 37.3898L71.3009 40.1898V34.5998L66.4609 31.7998V37.3898Z" fill="#FFBE8D"/>
<path d="M71.3009 40.1898L76.1409 37.3898V31.7998L71.3009 34.5998V40.1898Z" fill="#FFC9A0"/>
<path d="M78.3986 38.7004L83.2386 35.9004L78.3986 33.1104L73.5586 35.9004L78.3986 38.7004Z" fill="#FFDCC1"/>
<path d="M73.5586 41.4904L78.3986 44.2804V38.7004L73.5586 35.9004V41.4904Z" fill="#FFBE8D"/>
<path d="M78.3986 44.2804L83.2386 41.4904V35.9004L78.3986 38.7004V44.2804Z" fill="#FFC9A0"/>
<path d="M85.4884 42.79L90.3284 40L85.4884 37.21L80.6484 40L85.4884 42.79Z" fill="#FFDCC1"/>
<path d="M80.6484 45.59L85.4884 48.38V42.79L80.6484 40V45.59Z" fill="#FFBE8D"/>
<path d="M85.4884 48.38L90.3284 45.59V40L85.4884 42.79V48.38Z" fill="#FFC9A0"/>
<path d="M92.59 46.89L97.43 44.1L92.59 41.3L87.75 44.1L92.59 46.89Z" fill="#FFDCC1"/>
<path d="M87.75 49.6801L92.59 52.4801V46.8901L87.75 44.1001V49.6801Z" fill="#FFBE8D"/>
<path d="M92.59 52.4801L97.43 49.6801V44.1001L92.59 46.8901V52.4801Z" fill="#FFC9A0"/>
<path d="M99.6916 50.9904L104.532 48.1904L99.6916 45.4004L94.8516 48.1904L99.6916 50.9904Z" fill="#FFDCC1"/>
<path d="M94.8516 53.7804L99.6916 56.5804V50.9904L94.8516 48.1904V53.7804Z" fill="#FFBE8D"/>
<path d="M99.6916 56.5804L104.532 53.7804V48.1904L99.6916 50.9904V56.5804Z" fill="#FFC9A0"/>
<path d="M57.1095 34.5898L61.9495 31.7998L57.1095 29.0098L52.2695 31.7998L57.1095 34.5898Z" fill="#FFDCC1"/>
<path d="M52.2695 37.3898L57.1095 40.1798V34.5898L52.2695 31.7998V37.3898Z" fill="#FFBE8D"/>
<path d="M57.1095 40.1798L61.9495 37.3898V31.7998L57.1095 34.5898V40.1798Z" fill="#FFC9A0"/>
<path d="M64.1994 38.6896L69.0394 35.8996L64.1994 33.0996L59.3594 35.8996L64.1994 38.6896Z" fill="#FFDCC1"/>
<path d="M59.3594 41.4797L64.1994 44.2797V38.6897L59.3594 35.8997V41.4797Z" fill="#FFBE8D"/>
<path d="M64.1994 44.2797L69.0394 41.4797V35.8997L64.1994 38.6897V44.2797Z" fill="#FFC9A0"/>
<path d="M71.3009 42.7902L76.1409 39.9902L71.3009 37.2002L66.4609 39.9902L71.3009 42.7902Z" fill="#FFDCC1"/>
<path d="M66.4609 45.5802L71.3009 48.3802V42.7902L66.4609 39.9902V45.5802Z" fill="#FFBE8D"/>
<path d="M71.3009 48.3802L76.1409 45.5802V39.9902L71.3009 42.7902V48.3802Z" fill="#FFC9A0"/>
<path d="M78.3986 46.8898L83.2386 44.0898L78.3986 41.2998L73.5586 44.0898L78.3986 46.8898Z" fill="#FFDCC1"/>
<path d="M73.5586 49.6798L78.3986 52.4698V46.8898L73.5586 44.0898V49.6798Z" fill="#FFBE8D"/>
<path d="M78.3986 52.4698L83.2386 49.6798V44.0898L78.3986 46.8898V52.4698Z" fill="#FFC9A0"/>
<path d="M85.4884 50.9796L90.3284 48.1896L85.4884 45.3896L80.6484 48.1896L85.4884 50.9796Z" fill="#FFDCC1"/>
<path d="M80.6484 53.7797L85.4884 56.5697V50.9797L80.6484 48.1897V53.7797Z" fill="#FFBE8D"/>
<path d="M85.4884 56.5697L90.3284 53.7797V48.1897L85.4884 50.9797V56.5697Z" fill="#FFC9A0"/>
<path d="M92.59 55.08L97.43 52.29L92.59 49.49L87.75 52.29L92.59 55.08Z" fill="#FFDCC1"/>
<path d="M87.75 57.87L92.59 60.67V55.08L87.75 52.29V57.87Z" fill="#FFBE8D"/>
<path d="M92.59 60.67L97.43 57.87V52.29L92.59 55.08V60.67Z" fill="#FFC9A0"/>
<path d="M50.0119 38.7004L54.8519 35.9004L50.0119 33.1104L45.1719 35.9004L50.0119 38.7004Z" fill="#FFDCC1"/>
<path d="M45.1719 41.4904L50.0119 44.2804V38.7004L45.1719 35.9004V41.4904Z" fill="#FFBE8D"/>
<path d="M50.0119 44.2804L54.8519 41.4904V35.9004L50.0119 38.7004V44.2804Z" fill="#FFC9A0"/>
<path d="M57.1095 42.79L61.9495 40L57.1095 37.21L52.2695 40L57.1095 42.79Z" fill="#FFDCC1"/>
<path d="M52.2695 45.59L57.1095 48.38V42.79L52.2695 40V45.59Z" fill="#FFBE8D"/>
<path d="M57.1095 48.38L61.9495 45.59V40L57.1095 42.79V48.38Z" fill="#FFC9A0"/>
<path d="M64.2111 46.8898L69.0411 44.0998L64.2111 41.2998L59.3711 44.0998L64.2111 46.8898Z" fill="#FFDCC1"/>
<path d="M59.3711 49.6799L64.2111 52.4799V46.8899L59.3711 44.0999V49.6799Z" fill="#FFBE8D"/>
<path d="M64.2111 52.4799L69.0411 49.6799V44.0999L64.2111 46.8899V52.4799Z" fill="#FFC9A0"/>
<path d="M71.3009 50.9904L76.1409 48.1904L71.3009 45.4004L66.4609 48.1904L71.3009 50.9904Z" fill="#FFDCC1"/>
<path d="M66.4609 53.7804L71.3009 56.5804V50.9904L66.4609 48.1904V53.7804Z" fill="#FFBE8D"/>
<path d="M71.3009 56.5804L76.1409 53.7804V48.1904L71.3009 50.9904V56.5804Z" fill="#FFC9A0"/>
<path d="M78.3986 55.09L83.2386 52.29L78.3986 49.5L73.5586 52.29L78.3986 55.09Z" fill="#FFDCC1"/>
<path d="M73.5586 57.88L78.3986 60.67V55.09L73.5586 52.29V57.88Z" fill="#FFBE8D"/>
<path d="M78.3986 60.67L83.2386 57.88V52.29L78.3986 55.09V60.67Z" fill="#FFC9A0"/>
<path d="M85.49 59.18L90.33 56.39L85.5 53.59L80.66 56.39L85.49 59.18Z" fill="#FFDCC1"/>
<path d="M80.66 61.98L85.49 64.77V59.18L80.66 56.39V61.98Z" fill="#FFBE8D"/>
<path d="M85.4881 64.7698L90.3281 61.9798V56.3898L85.4881 59.1798V64.7698Z" fill="#FFC9A0"/>
<path d="M42.9181 42.79L47.7481 40L42.9181 37.21L38.0781 40L42.9181 42.79Z" fill="#FFDCC1"/>
<path d="M38.0781 45.59L42.9181 48.38V42.79L38.0781 40V45.59Z" fill="#FFBE8D"/>
<path d="M42.9181 48.38L47.7481 45.59V40L42.9181 42.79V48.38Z" fill="#FFC9A0"/>
<path d="M50.0119 46.8898L54.8519 44.0998L50.0119 41.2998L45.1719 44.0998L50.0119 46.8898Z" fill="#FFDCC1"/>
<path d="M45.1719 49.6799L50.0119 52.4799V46.8899L45.1719 44.0999V49.6799Z" fill="#FFBE8D"/>
<path d="M50.0119 52.4799L54.8519 49.6799V44.0999L50.0119 46.8899V52.4799Z" fill="#FFC9A0"/>
<path d="M57.1095 50.9904L61.9495 48.1904L57.1095 45.4004L52.2695 48.1904L57.1095 50.9904Z" fill="#FFDCC1"/>
<path d="M52.2695 53.7804L57.1095 56.5804V50.9904L52.2695 48.1904V53.7804Z" fill="#FFBE8D"/>
<path d="M57.1095 56.5804L61.9495 53.7804V48.1904L57.1095 50.9904V56.5804Z" fill="#FFC9A0"/>
<path d="M64.2011 55.09L69.0411 52.29L64.2111 49.5L59.3711 52.29L64.2011 55.09Z" fill="#FFDCC1"/>
<path d="M59.3711 57.88L64.2011 60.67V55.09L59.3711 52.29V57.88Z" fill="#FFBE8D"/>
<path d="M64.1992 60.67L69.0392 57.88V52.29L64.1992 55.09V60.67Z" fill="#FFC9A0"/>
<path d="M71.3009 59.1798L76.1409 56.3898L71.3009 53.5898L66.4609 56.3898L71.3009 59.1798Z" fill="#FFDCC1"/>
<path d="M66.4609 61.9799L71.3009 64.7699V59.1799L66.4609 56.3899V61.9799Z" fill="#FFBE8D"/>
<path d="M71.3009 64.7699L76.1409 61.9799V56.3899L71.3009 59.1799V64.7699Z" fill="#FFC9A0"/>
<path d="M78.3986 63.2804L83.2386 60.4904L78.3986 57.6904L73.5586 60.4904L78.3986 63.2804Z" fill="#FFDCC1"/>
<path d="M73.5586 66.0705L78.3986 68.8705V63.2805L73.5586 60.4905V66.0705Z" fill="#FFBE8D"/>
<path d="M78.3986 68.8705L83.2386 66.0705V60.4905L78.3986 63.2805V68.8705Z" fill="#FFC9A0"/>
<path d="M35.8205 46.8898L40.6605 44.0998L35.8205 41.2998L30.9805 44.0998L35.8205 46.8898Z" fill="#FFDCC1"/>
<path d="M30.9805 49.6799L35.8205 52.4799V46.8899L30.9805 44.0999V49.6799Z" fill="#FFBE8D"/>
<path d="M35.8205 52.4799L40.6605 49.6799V44.0999L35.8205 46.8899V52.4799Z" fill="#FFC9A0"/>
<path d="M42.9181 50.9904L47.7481 48.1904L42.9181 45.4004L38.0781 48.1904L42.9181 50.9904Z" fill="#FFDCC1"/>
<path d="M38.0781 53.7804L42.9181 56.5804V50.9904L38.0781 48.1904V53.7804Z" fill="#FFBE8D"/>
<path d="M42.9181 56.5804L47.7481 53.7804V48.1904L42.9181 50.9904V56.5804Z" fill="#FFC9A0"/>
<path d="M50.0119 55.09L54.8519 52.29L50.0119 49.5L45.1719 52.29L50.0119 55.09Z" fill="#FFDCC1"/>
<path d="M45.1719 57.88L50.0119 60.67V55.09L45.1719 52.29V57.88Z" fill="#FFBE8D"/>
<path d="M50.0119 60.67L54.8519 57.88V52.29L50.0119 55.09V60.67Z" fill="#FFC9A0"/>
<path d="M57.1095 59.1798L61.9495 56.3898L57.1095 53.5898L52.2695 56.3898L57.1095 59.1798Z" fill="#FFDCC1"/>
<path d="M52.2695 61.9799L57.1095 64.7699V59.1799L52.2695 56.3899V61.9799Z" fill="#FFBE8D"/>
<path d="M57.1095 64.7699L61.9495 61.9799V56.3899L57.1095 59.1799V64.7699Z" fill="#FFC9A0"/>
<path d="M64.2111 63.2804L69.0411 60.4904L64.2111 57.6904L59.3711 60.4904L64.2111 63.2804Z" fill="#FFDCC1"/>
<path d="M59.3711 66.0705L64.2111 68.8705V63.2805L59.3711 60.4905V66.0705Z" fill="#FFBE8D"/>
<path d="M64.2111 68.8705L69.0411 66.0705V60.4905L64.2111 63.2805V68.8705Z" fill="#FFC9A0"/>
<path d="M71.3009 67.38L76.1409 64.58L71.3009 61.79L66.4609 64.58L71.3009 67.38Z" fill="#FFDCC1"/>
<path d="M66.4609 70.1701L71.3009 72.9601V67.3801L66.4609 64.5801V70.1701Z" fill="#FFBE8D"/>
<path d="M71.3009 72.9601L76.1409 70.1701V64.5801L71.3009 67.3801V72.9601Z" fill="#FFC9A0"/>
<path d="M23.84 53.8097L28.68 51.0097L23.84 48.2197L19 51.0097L23.84 53.8097Z" fill="#FFEFE3"/>
<path d="M19 56.5998L23.84 59.3998V53.8098L19 51.0098V56.5998Z" fill="#FFE5D2"/>
<path d="M23.84 59.3998L28.68 56.5998V51.0098L23.84 53.8098V59.3998Z" fill="#FFE8D8"/>
<path d="M35.8205 55.09L40.6605 52.29L35.8205 49.5L30.9805 52.29L35.8205 55.09Z" fill="#FFDCC1"/>
<path d="M30.9805 57.88L35.8205 60.67V55.09L30.9805 52.29V57.88Z" fill="#FFBE8D"/>
<path d="M35.8205 60.67L40.6605 57.88V52.29L35.8205 55.09V60.67Z" fill="#FFC9A0"/>
<path d="M42.9181 59.1798L47.7481 56.3898L42.9181 53.5898L38.0781 56.3898L42.9181 59.1798Z" fill="#FFDCC1"/>
<path d="M38.0781 61.9799L42.9181 64.7699V59.1799L38.0781 56.3899V61.9799Z" fill="#FFBE8D"/>
<path d="M42.9181 64.7699L47.7481 61.9799V56.3899L42.9181 59.1799V64.7699Z" fill="#FFC9A0"/>
<path d="M50.0119 63.2804L54.8519 60.4904L50.0119 57.6904L45.1719 60.4904L50.0119 63.2804Z" fill="#FFDCC1"/>
<path d="M45.1719 66.0705L50.0119 68.8705V63.2805L45.1719 60.4905V66.0705Z" fill="#FFBE8D"/>
<path d="M50.0119 68.8705L54.8519 66.0705V60.4905L50.0119 63.2805V68.8705Z" fill="#FFC9A0"/>
<path d="M57.1095 67.38L61.9495 64.58L57.1095 61.79L52.2695 64.58L57.1095 67.38Z" fill="#FFDCC1"/>
<path d="M52.2695 70.1701L57.1095 72.9601V67.3801L52.2695 64.5801V70.1701Z" fill="#FFBE8D"/>
<path d="M57.1095 72.9601L61.9495 70.1701V64.5801L57.1095 67.3801V72.9601Z" fill="#FFC9A0"/>
<path d="M64.2111 71.4697L69.0411 68.6796L64.2111 65.8896L59.3711 68.6796L64.2111 71.4697Z" fill="#FFDCC1"/>
<path d="M59.3711 74.2697L64.2111 77.0597V71.4697L59.3711 68.6797V74.2697Z" fill="#FFBE8D"/>
<path d="M64.2111 77.0597L69.0411 74.2697V68.6797L64.2111 71.4697V77.0597Z" fill="#FFC9A0"/>
<path d="M64.1994 22.04L69.0394 19.25L64.1994 16.46L59.3594 19.25L64.1994 22.04Z" fill="#FFDCC1"/>
<path d="M59.3594 24.84L64.1994 27.63V22.04L59.3594 19.25V24.84Z" fill="#FFBE8D"/>
<path d="M64.1994 27.63L69.0394 24.84V19.25L64.1994 22.04V27.63Z" fill="#FFC9A0"/>
<path d="M71.297 26.1398L76.137 23.3498L71.297 20.5498L66.457 23.3498L71.297 26.1398Z" fill="#FFDCC1"/>
<path d="M66.457 28.9399L71.297 31.7299V26.1399L66.457 23.3499V28.9399Z" fill="#FFBE8D"/>
<path d="M71.297 31.7299L76.137 28.9399V23.3499L71.297 26.1399V31.7299Z" fill="#FFC9A0"/>
<path d="M78.3986 30.2404L83.2386 27.4504L78.3986 24.6504L73.5586 27.4504L78.3986 30.2404Z" fill="#FFDCC1"/>
<path d="M73.5586 33.0304L78.3986 35.8304V30.2404L73.5586 27.4504V33.0304Z" fill="#FFBE8D"/>
<path d="M78.3986 35.8304L83.2386 33.0304V27.4504L78.3986 30.2404V35.8304Z" fill="#FFC9A0"/>
<path d="M85.4884 34.34L90.3284 31.54L85.4884 28.75L80.6484 31.54L85.4884 34.34Z" fill="#FFDCC1"/>
<path d="M80.6484 37.13L85.4884 39.92V34.34L80.6484 31.54V37.13Z" fill="#FFBE8D"/>
<path d="M85.4884 39.92L90.3284 37.13V31.54L85.4884 34.34V39.92Z" fill="#FFC9A0"/>
<path d="M92.59 38.4296L97.43 35.6396L92.59 32.8496L87.75 35.6396L92.59 38.4296Z" fill="#FFDCC1"/>
<path d="M87.75 41.2296L92.59 44.0196V38.4296L87.75 35.6396V41.2296Z" fill="#FFBE8D"/>
<path d="M92.59 44.0196L97.43 41.2296V35.6396L92.59 38.4296V44.0196Z" fill="#FFC9A0"/>
<path d="M99.6877 42.5304L104.528 39.7404L99.6877 36.9404L94.8477 39.7404L99.6877 42.5304Z" fill="#FFDCC1"/>
<path d="M94.8477 45.3205L99.6877 48.1205V42.5305L94.8477 39.7405V45.3205Z" fill="#FFBE8D"/>
<path d="M99.6877 48.1205L104.528 45.3205V39.7405L99.6877 42.5305V48.1205Z" fill="#FFC9A0"/>
<path d="M57.1095 26.1398L61.9495 23.3398L57.1095 20.5498L52.2695 23.3398L57.1095 26.1398Z" fill="#FFDCC1"/>
<path d="M52.2695 28.9298L57.1095 31.7198V26.1398L52.2695 23.3398V28.9298Z" fill="#FFBE8D"/>
<path d="M57.1095 31.7198L61.9495 28.9298V23.3398L57.1095 26.1398V31.7198Z" fill="#FFC9A0"/>
<path d="M64.1994 30.2304L69.0394 27.4404L64.1994 24.6504L59.3594 27.4404L64.1994 30.2304Z" fill="#FFDCC1"/>
<path d="M59.3594 33.0304L64.1994 35.8204V30.2304L59.3594 27.4404V33.0304Z" fill="#FFBE8D"/>
<path d="M64.1994 35.8204L69.0394 33.0304V27.4404L64.1994 30.2304V35.8204Z" fill="#FFC9A0"/>
<path d="M71.3009 34.3302L76.1409 31.5402L71.3009 28.7402L66.4609 31.5402L71.3009 34.3302Z" fill="#FFDCC1"/>
<path d="M66.4609 37.1303L71.3009 39.9203V34.3303L66.4609 31.5403V37.1303Z" fill="#FFBE8D"/>
<path d="M71.3009 39.9203L76.1409 37.1303V31.5403L71.3009 34.3303V39.9203Z" fill="#FFC9A0"/>
<path d="M78.3986 38.4298L83.2386 35.6298L78.3986 32.8398L73.5586 35.6298L78.3986 38.4298Z" fill="#FFDCC1"/>
<path d="M73.5586 41.2199L78.3986 44.0199V38.4299L73.5586 35.6299V41.2199Z" fill="#FFBE8D"/>
<path d="M78.3986 44.0199L83.2386 41.2199V35.6299L78.3986 38.4299V44.0199Z" fill="#FFC9A0"/>
<path d="M85.4884 42.5304L90.3284 39.7304L85.4884 36.9404L80.6484 39.7304L85.4884 42.5304Z" fill="#FFDCC1"/>
<path d="M80.6484 45.3205L85.4884 48.1105V42.5305L80.6484 39.7305V45.3205Z" fill="#FFBE8D"/>
<path d="M85.4884 48.1105L90.3284 45.3205V39.7305L85.4884 42.5305V48.1105Z" fill="#FFC9A0"/>
<path d="M92.59 46.6203L97.43 43.8303L92.59 41.0303L87.75 43.8303L92.59 46.6203Z" fill="#FFDCC1"/>
<path d="M87.75 49.4203L92.59 52.2103V46.6203L87.75 43.8303V49.4203Z" fill="#FFBE8D"/>
<path d="M92.59 52.2103L97.43 49.4203V43.8303L92.59 46.6203V52.2103Z" fill="#FFC9A0"/>
<path d="M50.008 30.2404L54.848 27.4504L50.008 24.6504L45.168 27.4504L50.008 30.2404Z" fill="#FFDCC1"/>
<path d="M45.168 33.0304L50.008 35.8304V30.2404L45.168 27.4504V33.0304Z" fill="#FFBE8D"/>
<path d="M50.008 35.8304L54.848 33.0304V27.4504L50.008 30.2404V35.8304Z" fill="#FFC9A0"/>
<path d="M57.1095 34.34L61.9495 31.54L57.1095 28.75L52.2695 31.54L57.1095 34.34Z" fill="#FFDCC1"/>
<path d="M52.2695 37.13L57.1095 39.92V34.34L52.2695 31.54V37.13Z" fill="#FFBE8D"/>
<path d="M57.1095 39.92L61.9495 37.13V31.54L57.1095 34.34V39.92Z" fill="#FFC9A0"/>
<path d="M64.2072 38.4296L69.0372 35.6396L64.2072 32.8496L59.3672 35.6396L64.2072 38.4296Z" fill="#FFDCC1"/>
<path d="M59.3672 41.2296L64.2072 44.0196V38.4296L59.3672 35.6396V41.2296Z" fill="#FFBE8D"/>
<path d="M64.2072 44.0196L69.0372 41.2296V35.6396L64.2072 38.4296V44.0196Z" fill="#FFC9A0"/>
<path d="M71.3009 42.5304L76.1409 39.7404L71.3009 36.9404L66.4609 39.7404L71.3009 42.5304Z" fill="#FFDCC1"/>
<path d="M66.4609 45.3305L71.3009 48.1205V42.5305L66.4609 39.7405V45.3305Z" fill="#FFBE8D"/>
<path d="M71.3009 48.1205L76.1409 45.3305V39.7405L71.3009 42.5305V48.1205Z" fill="#FFC9A0"/>
<path d="M78.3986 46.63L83.2386 43.83L78.3986 41.04L73.5586 43.83L78.3986 46.63Z" fill="#FFDCC1"/>
<path d="M73.5586 49.4201L78.3986 52.2201V46.6301L73.5586 43.8301V49.4201Z" fill="#FFBE8D"/>
<path d="M78.3986 52.2201L83.2386 49.4201V43.8301L78.3986 46.6301V52.2201Z" fill="#FFC9A0"/>
<path d="M90.3789 53.54L95.2189 50.75L90.3789 47.96L85.5389 50.75L90.3789 53.54Z" fill="#FFDBC0"/>
<path d="M85.5389 56.34L90.3789 59.13V53.54L85.5389 50.75V56.34Z" fill="#FFC69B"/>
<path d="M90.3789 59.13L95.2189 56.34V50.75L90.3789 53.54V59.13Z" fill="#FFCDA7"/>
<path d="M42.9181 34.34L47.7481 31.54L42.9181 28.75L38.0781 31.54L42.9181 34.34Z" fill="#FFDCC1"/>
<path d="M38.0781 37.13L42.9181 39.92V34.34L38.0781 31.54V37.13Z" fill="#FFBE8D"/>
<path d="M42.9181 39.92L47.7481 37.13V31.54L42.9181 34.34V39.92Z" fill="#FFC9A0"/>
<path d="M50.008 38.4296L54.848 35.6396L50.008 32.8496L45.168 35.6396L50.008 38.4296Z" fill="#FFDCC1"/>
<path d="M45.168 41.2296L50.008 44.0196V38.4296L45.168 35.6396V41.2296Z" fill="#FFBE8D"/>
<path d="M50.008 44.0196L54.848 41.2296V35.6396L50.008 38.4296V44.0196Z" fill="#FFC9A0"/>
<path d="M57.1095 42.5304L61.9495 39.7404L57.1095 36.9404L52.2695 39.7404L57.1095 42.5304Z" fill="#FFDCC1"/>
<path d="M52.2695 45.3305L57.1095 48.1205V42.5305L52.2695 39.7405V45.3305Z" fill="#FFBE8D"/>
<path d="M57.1095 48.1205L61.9495 45.3305V39.7405L57.1095 42.5305V48.1205Z" fill="#FFC9A0"/>
<path d="M64.1972 46.63L69.0372 43.83L64.2072 41.04L59.3672 43.83L64.1972 46.63Z" fill="#FFDCC1"/>
<path d="M59.3672 49.4201L64.1972 52.2201V46.6301L59.3672 43.8301V49.4201Z" fill="#FFBE8D"/>
<path d="M64.1953 52.2201L69.0353 49.4201V43.8301L64.1953 46.6301V52.2201Z" fill="#FFC9A0"/>
<path d="M71.3009 50.7296L76.1409 47.9296L71.3009 45.1396L66.4609 47.9296L71.3009 50.7296Z" fill="#FFDCC1"/>
<path d="M66.4609 53.5197L71.3009 56.3097V50.7297L66.4609 47.9297V53.5197Z" fill="#FFBE8D"/>
<path d="M71.3009 56.3097L76.1409 53.5197V47.9297L71.3009 50.7297V56.3097Z" fill="#FFC9A0"/>
<path d="M78.3986 54.8202L83.2386 52.0302L78.3986 49.2402L73.5586 52.0302L78.3986 54.8202Z" fill="#FFDCC1"/>
<path d="M73.5586 57.6203L78.3986 60.4103V54.8203L73.5586 52.0303V57.6203Z" fill="#FFBE8D"/>
<path d="M78.3986 60.4103L83.2386 57.6203V52.0303L78.3986 54.8203V60.4103Z" fill="#FFC9A0"/>
<path d="M35.8166 38.4296L40.6566 35.6396L35.8166 32.8496L30.9766 35.6396L35.8166 38.4296Z" fill="#FFDCC1"/>
<path d="M30.9766 41.2296L35.8166 44.0196V38.4296L30.9766 35.6396V41.2296Z" fill="#FFBE8D"/>
<path d="M35.8166 44.0196L40.6566 41.2296V35.6396L35.8166 38.4296V44.0196Z" fill="#FFC9A0"/>
<path d="M42.9181 42.5304L47.7481 39.7404L42.9181 36.9404L38.0781 39.7404L42.9181 42.5304Z" fill="#FFDCC1"/>
<path d="M38.0781 45.3305L42.9181 48.1205V42.5305L38.0781 39.7405V45.3305Z" fill="#FFBE8D"/>
<path d="M42.9181 48.1205L47.7481 45.3305V39.7405L42.9181 42.5305V48.1205Z" fill="#FFC9A0"/>
<path d="M50.008 46.63L54.848 43.83L50.008 41.04L45.168 43.83L50.008 46.63Z" fill="#FFDCC1"/>
<path d="M45.168 49.4201L50.008 52.2201V46.6301L45.168 43.8301V49.4201Z" fill="#FFBE8D"/>
<path d="M50.008 52.2201L54.848 49.4201V43.8301L50.008 46.6301V52.2201Z" fill="#FFC9A0"/>
<path d="M57.1095 50.7296L61.9495 47.9296L57.1095 45.1396L52.2695 47.9296L57.1095 50.7296Z" fill="#FFDCC1"/>
<path d="M52.2695 53.5197L57.1095 56.3097V50.7297L52.2695 47.9297V53.5197Z" fill="#FFBE8D"/>
<path d="M57.1095 56.3097L61.9495 53.5197V47.9297L57.1095 50.7297V56.3097Z" fill="#FFC9A0"/>
<path d="M64.2072 54.8202L69.0372 52.0302L64.2072 49.2402L59.3672 52.0302L64.2072 54.8202Z" fill="#FFDCC1"/>
<path d="M59.3672 57.6203L64.2072 60.4103V54.8203L59.3672 52.0303V57.6203Z" fill="#FFBE8D"/>
<path d="M64.2072 60.4103L69.0372 57.6203V52.0303L64.2072 54.8203V60.4103Z" fill="#FFC9A0"/>
<path d="M71.297 58.9201L76.137 56.1301L71.297 53.3301L66.457 56.1301L71.297 58.9201Z" fill="#FFDCC1"/>
<path d="M66.457 61.7101L71.297 64.5101V58.9201L66.457 56.1301V61.7101Z" fill="#FFBE8D"/>
<path d="M71.297 64.5101L76.137 61.7101V56.1301L71.297 58.9201V64.5101Z" fill="#FFC9A0"/>
<path d="M28.7189 42.5304L33.5589 39.7404L28.7189 36.9404L23.8789 39.7404L28.7189 42.5304Z" fill="#FFDCC1"/>
<path d="M23.8789 45.3305L28.7189 48.1205V42.5305L23.8789 39.7405V45.3305Z" fill="#FFBE8D"/>
<path d="M28.7189 48.1205L33.5589 45.3305V39.7405L28.7189 42.5305V48.1205Z" fill="#FFC9A0"/>
<path d="M35.8166 46.63L40.6566 43.83L35.8166 41.04L30.9766 43.83L35.8166 46.63Z" fill="#FFDCC1"/>
<path d="M30.9766 49.4201L35.8166 52.2201V46.6301L30.9766 43.8301V49.4201Z" fill="#FFBE8D"/>
<path d="M35.8166 52.2201L40.6566 49.4201V43.8301L35.8166 46.6301V52.2201Z" fill="#FFC9A0"/>
<path d="M42.9181 50.7296L47.7481 47.9296L42.9181 45.1396L38.0781 47.9296L42.9181 50.7296Z" fill="#FFDCC1"/>
<path d="M38.0781 53.5197L42.9181 56.3097V50.7297L38.0781 47.9297V53.5197Z" fill="#FFBE8D"/>
<path d="M42.9181 56.3097L47.7481 53.5197V47.9297L42.9181 50.7297V56.3097Z" fill="#FFC9A0"/>
<path d="M50.008 54.8202L54.848 52.0302L50.008 49.2402L45.168 52.0302L50.008 54.8202Z" fill="#FFDCC1"/>
<path d="M45.168 57.6203L50.008 60.4103V54.8203L45.168 52.0303V57.6203Z" fill="#FFBE8D"/>
<path d="M50.008 60.4103L54.848 57.6203V52.0303L50.008 54.8203V60.4103Z" fill="#FFC9A0"/>
<path d="M52.2306 61.7404L57.0706 58.9504L52.2306 56.1504L47.3906 58.9504L52.2306 61.7404Z" fill="#FFDBC0"/>
<path d="M47.3906 64.5304L52.2306 67.3304V61.7404L47.3906 58.9504V64.5304Z" fill="#FFC69B"/>
<path d="M52.2306 67.3304L57.0706 64.5304V58.9504L52.2306 61.7404V67.3304Z" fill="#FFCDA7"/>
<path d="M64.2072 63.0197L69.0372 60.2197L64.2072 57.4297L59.3672 60.2197L64.2072 63.0197Z" fill="#FFDCC1"/>
<path d="M59.3672 65.8097L64.2072 68.6097V63.0197L59.3672 60.2197V65.8097Z" fill="#FFBE8D"/>
<path d="M64.2072 68.6097L69.0372 65.8097V60.2197L64.2072 63.0197V68.6097Z" fill="#FFC9A0"/>
<path d="M64.1994 13.59L69.0394 10.79L64.1994 8L59.3594 10.79L64.1994 13.59Z" fill="#FFDCC1"/>
<path d="M59.3594 16.38L64.1994 19.18V13.59L59.3594 10.79V16.38Z" fill="#FFBE8D"/>
<path d="M64.1994 19.18L69.0394 16.38V10.79L64.1994 13.59V19.18Z" fill="#FFC9A0"/>
<path d="M71.3009 17.6896L76.1409 14.8896L71.3009 12.0996L66.4609 14.8896L71.3009 17.6896Z" fill="#FFDCC1"/>
<path d="M66.4609 20.4796L71.3009 23.2696V17.6896L66.4609 14.8896V20.4796Z" fill="#FFBE8D"/>
<path d="M71.3009 23.2696L76.1409 20.4796V14.8896L71.3009 17.6896V23.2696Z" fill="#FFC9A0"/>
<path d="M78.3986 21.7804L83.2386 18.9904L78.3986 16.1904L73.5586 18.9904L78.3986 21.7804Z" fill="#FFDCC1"/>
<path d="M73.5586 24.5805L78.3986 27.3705V21.7805L73.5586 18.9905V24.5805Z" fill="#FFBE8D"/>
<path d="M78.3986 27.3705L83.2386 24.5805V18.9905L78.3986 21.7805V27.3705Z" fill="#FFC9A0"/>
<path d="M85.4884 25.88L90.3284 23.09L85.4884 20.29L80.6484 23.09L85.4884 25.88Z" fill="#FFDCC1"/>
<path d="M80.6484 28.6701L85.4884 31.4701V25.8801L80.6484 23.0901V28.6701Z" fill="#FFBE8D"/>
<path d="M85.4884 31.4701L90.3284 28.6701V23.0901L85.4884 25.8801V31.4701Z" fill="#FFC9A0"/>
<path d="M92.59 24.34L97.43 21.54L92.59 18.75L87.75 21.55L92.59 24.34Z" fill="#FFEFE3"/>
<path d="M87.75 27.13L92.59 29.93V24.34L87.75 21.54V27.13Z" fill="#FFE5D2"/>
<path d="M92.59 29.93L97.43 27.13V21.54L92.59 24.34V29.93Z" fill="#FFE8D8"/>
<path d="M99.6916 34.0702L104.532 31.2802L99.6916 28.4902L94.8516 31.2802L99.6916 34.0702Z" fill="#FFDCC1"/>
<path d="M94.8516 36.8703L99.6916 39.6603V34.0703L94.8516 31.2803V36.8703Z" fill="#FFBE8D"/>
<path d="M99.6916 39.6603L104.532 36.8703V31.2803L99.6916 34.0703V39.6603Z" fill="#FFC9A0"/>
<path d="M57.1095 17.6798L61.9495 14.8898L57.1095 12.0898L52.2695 14.8898L57.1095 17.6798Z" fill="#FFDCC1"/>
<path d="M52.2695 20.4699L57.1095 23.2699V17.6799L52.2695 14.8899V20.4699Z" fill="#FFBE8D"/>
<path d="M57.1095 23.2699L61.9495 20.4699V14.8899L57.1095 17.6799V23.2699Z" fill="#FFC9A0"/>
<path d="M64.1994 16.1398L69.0394 13.3498L64.1994 10.5498L59.3594 13.3498L64.1994 16.1398Z" fill="#FFDBC0"/>
<path d="M59.3594 18.9299L64.1994 21.7299V16.1399L59.3594 13.3499V18.9299Z" fill="#FFC69B"/>
<path d="M64.1994 21.7299L69.0394 18.9299V13.3499L64.1994 16.1399V21.7299Z" fill="#FFCDA7"/>
<path d="M71.3009 25.87L76.1409 23.08L71.3009 20.29L66.4609 23.08L71.3009 25.87Z" fill="#FFDCC1"/>
<path d="M66.4609 28.6701L71.3009 31.4601V25.8701L66.4609 23.0801V28.6701Z" fill="#FFBE8D"/>
<path d="M71.3009 31.4601L76.1409 28.6701V23.0801L71.3009 25.8701V31.4601Z" fill="#FFC9A0"/>
<path d="M78.3986 29.9699L83.2386 27.1799L78.3986 24.3799L73.5586 27.1799L78.3986 29.9699Z" fill="#FFDCC1"/>
<path d="M73.5586 32.7699L78.3986 35.5599V29.9699L73.5586 27.1799V32.7699Z" fill="#FFBE8D"/>
<path d="M78.3986 35.5599L83.2386 32.7699V27.1799L78.3986 29.9699V35.5599Z" fill="#FFC9A0"/>
<path d="M85.4884 34.0705L90.3284 31.2705L85.4884 28.4805L80.6484 31.2705L85.4884 34.0705Z" fill="#FFDCC1"/>
<path d="M80.6484 36.8605L85.4884 39.6605V34.0705L80.6484 31.2705V36.8605Z" fill="#FFBE8D"/>
<path d="M85.4884 39.6605L90.3284 36.8605V31.2705L85.4884 34.0705V39.6605Z" fill="#FFC9A0"/>
<path d="M92.59 38.17L97.43 35.37L92.59 32.58L87.75 35.37L92.59 38.17Z" fill="#FFDCC1"/>
<path d="M87.75 40.96L92.59 43.75V38.17L87.75 35.37V40.96Z" fill="#FFBE8D"/>
<path d="M92.59 43.75L97.43 40.96V35.37L92.59 38.17V43.75Z" fill="#FFC9A0"/>
<path d="M50.0119 21.7804L54.8519 18.9904L50.0119 16.1904L45.1719 18.9904L50.0119 21.7804Z" fill="#FFDCC1"/>
<path d="M45.1719 24.5805L50.0119 27.3705V21.7805L45.1719 18.9905V24.5805Z" fill="#FFBE8D"/>
<path d="M50.0119 27.3705L54.8519 24.5805V18.9905L50.0119 21.7805V27.3705Z" fill="#FFC9A0"/>
<path d="M57.1095 25.88L61.9495 23.09L57.1095 20.29L52.2695 23.09L57.1095 25.88Z" fill="#FFDCC1"/>
<path d="M52.2695 28.6701L57.1095 31.4701V25.8801L52.2695 23.0901V28.6701Z" fill="#FFBE8D"/>
<path d="M57.1095 31.4701L61.9495 28.6701V23.0901L57.1095 25.8801V31.4701Z" fill="#FFC9A0"/>
<path d="M64.2111 29.9796L69.0411 27.1796L64.2111 24.3896L59.3711 27.1796L64.2111 29.9796Z" fill="#FFDCC1"/>
<path d="M59.3711 32.7697L64.2111 35.5697V29.9797L59.3711 27.1797V32.7697Z" fill="#FFBE8D"/>
<path d="M64.2111 35.5697L69.0411 32.7697V27.1797L64.2111 29.9797V35.5697Z" fill="#FFC9A0"/>
<path d="M71.3009 34.0702L76.1409 31.2802L71.3009 28.4902L66.4609 31.2802L71.3009 34.0702Z" fill="#FFDCC1"/>
<path d="M66.4609 36.8703L71.3009 39.6603V34.0703L66.4609 31.2803V36.8703Z" fill="#FFBE8D"/>
<path d="M71.3009 39.6603L76.1409 36.8703V31.2803L71.3009 34.0703V39.6603Z" fill="#FFC9A0"/>
<path d="M78.3986 38.1701L83.2386 35.3801L78.3986 32.5801L73.5586 35.3801L78.3986 38.1701Z" fill="#FFDCC1"/>
<path d="M73.5586 40.9701L78.3986 43.7601V38.1701L73.5586 35.3801V40.9701Z" fill="#FFBE8D"/>
<path d="M78.3986 43.7601L83.2386 40.9701V35.3801L78.3986 38.1701V43.7601Z" fill="#FFC9A0"/>
<path d="M85.4902 42.2697L90.3302 39.4797L85.5002 36.6797L80.6602 39.4797L85.4902 42.2697Z" fill="#FFDCC1"/>
<path d="M80.6602 45.0597L85.4902 47.8597V42.2697L80.6602 39.4797V45.0597Z" fill="#FFBE8D"/>
<path d="M85.4883 47.8595L90.3283 45.0595V39.4795L85.4883 42.2695V47.8595Z" fill="#FFC9A0"/>
<path d="M42.9181 25.88L47.7481 23.09L42.9181 20.29L38.0781 23.09L42.9181 25.88Z" fill="#FFDCC1"/>
<path d="M38.0781 28.6701L42.9181 31.4701V25.8801L38.0781 23.0901V28.6701Z" fill="#FFBE8D"/>
<path d="M42.9181 31.4701L47.7481 28.6701V23.0901L42.9181 25.8801V31.4701Z" fill="#FFC9A0"/>
<path d="M50.0119 29.9796L54.8519 27.1796L50.0119 24.3896L45.1719 27.1796L50.0119 29.9796Z" fill="#FFDCC1"/>
<path d="M45.1719 32.7697L50.0119 35.5697V29.9797L45.1719 27.1797V32.7697Z" fill="#FFBE8D"/>
<path d="M50.0119 35.5697L54.8519 32.7697V27.1797L50.0119 29.9797V35.5697Z" fill="#FFC9A0"/>
<path d="M57.1095 34.0702L61.9495 31.2802L57.1095 28.4902L52.2695 31.2802L57.1095 34.0702Z" fill="#FFDCC1"/>
<path d="M52.2695 36.8703L57.1095 39.6603V34.0703L52.2695 31.2803V36.8703Z" fill="#FFBE8D"/>
<path d="M57.1095 39.6603L61.9495 36.8703V31.2803L57.1095 34.0703V39.6603Z" fill="#FFC9A0"/>
<path d="M64.2011 38.1701L69.0411 35.3801L64.2111 32.5801L59.3711 35.3801L64.2011 38.1701Z" fill="#FFDCC1"/>
<path d="M59.3711 40.9701L64.2011 43.7601V38.1701L59.3711 35.3801V40.9701Z" fill="#FFBE8D"/>
<path d="M64.1992 43.7599L69.0392 40.9699V35.3799L64.1992 38.1699V43.7599Z" fill="#FFC9A0"/>
<path d="M71.3009 42.2697L76.1409 39.4797L71.3009 36.6797L66.4609 39.4797L71.3009 42.2697Z" fill="#FFDCC1"/>
<path d="M66.4609 45.0597L71.3009 47.8597V42.2697L66.4609 39.4797V45.0597Z" fill="#FFBE8D"/>
<path d="M71.3009 47.8597L76.1409 45.0597V39.4797L71.3009 42.2697V47.8597Z" fill="#FFC9A0"/>
<path d="M78.3986 46.3703L83.2386 43.5703L78.3986 40.7803L73.5586 43.5703L78.3986 46.3703Z" fill="#FFDCC1"/>
<path d="M73.5586 49.1603L78.3986 51.9503V46.3703L73.5586 43.5703V49.1603Z" fill="#FFBE8D"/>
<path d="M78.3986 51.9503L83.2386 49.1603V43.5703L78.3986 46.3703V51.9503Z" fill="#FFC9A0"/>
<path d="M35.8205 29.9796L40.6605 27.1796L35.8205 24.3896L30.9805 27.1796L35.8205 29.9796Z" fill="#FFDCC1"/>
<path d="M30.9805 32.7697L35.8205 35.5697V29.9797L30.9805 27.1797V32.7697Z" fill="#FFBE8D"/>
<path d="M35.8205 35.5697L40.6605 32.7697V27.1797L35.8205 29.9797V35.5697Z" fill="#FFC9A0"/>
<path d="M42.9181 34.0702L47.7481 31.2802L42.9181 28.4902L38.0781 31.2802L42.9181 34.0702Z" fill="#FFDCC1"/>
<path d="M38.0781 36.8703L42.9181 39.6603V34.0703L38.0781 31.2803V36.8703Z" fill="#FFBE8D"/>
<path d="M42.9181 39.6603L47.7481 36.8703V31.2803L42.9181 34.0703V39.6603Z" fill="#FFC9A0"/>
<path d="M50.0119 32.5302L54.8519 29.7402L50.0119 26.9502L45.1719 29.7402L50.0119 32.5302Z" fill="#FFDBC0"/>
<path d="M45.1719 35.3302L50.0119 38.1202V32.5302L45.1719 29.7402V35.3302Z" fill="#FFC69B"/>
<path d="M50.0119 38.1202L54.8519 35.3302V29.7402L50.0119 32.5302V38.1202Z" fill="#FFCDA7"/>
<path d="M57.1095 42.2697L61.9495 39.4797L57.1095 36.6797L52.2695 39.4797L57.1095 42.2697Z" fill="#FFDCC1"/>
<path d="M52.2695 45.0597L57.1095 47.8597V42.2697L52.2695 39.4797V45.0597Z" fill="#FFBE8D"/>
<path d="M57.1095 47.8597L61.9495 45.0597V39.4797L57.1095 42.2697V47.8597Z" fill="#FFC9A0"/>
<path d="M64.2111 46.3703L69.0411 43.5703L64.2111 40.7803L59.3711 43.5703L64.2111 46.3703Z" fill="#FFDCC1"/>
<path d="M59.3711 49.1603L64.2111 51.9503V46.3703L59.3711 43.5703V49.1603Z" fill="#FFBE8D"/>
<path d="M64.2111 51.9503L69.0411 49.1603V43.5703L64.2111 46.3703V51.9503Z" fill="#FFC9A0"/>
<path d="M71.3009 50.4599L76.1409 47.6699L71.3009 44.8799L66.4609 47.6699L71.3009 50.4599Z" fill="#FFDCC1"/>
<path d="M66.4609 53.2599L71.3009 56.0499V50.4599L66.4609 47.6699V53.2599Z" fill="#FFBE8D"/>
<path d="M71.3009 56.0499L76.1409 53.2599V47.6699L71.3009 50.4599V56.0499Z" fill="#FFC9A0"/>
<path d="M28.7189 34.0702L33.5589 31.2802L28.7189 28.4902L23.8789 31.2802L28.7189 34.0702Z" fill="#FFDCC1"/>
<path d="M23.8789 36.8703L28.7189 39.6603V34.0703L23.8789 31.2803V36.8703Z" fill="#FFBE8D"/>
<path d="M28.7189 39.6603L33.5589 36.8703V31.2803L28.7189 34.0703V39.6603Z" fill="#FFC9A0"/>
<path d="M35.8205 38.1701L40.6605 35.3801L35.8205 32.5801L30.9805 35.3801L35.8205 38.1701Z" fill="#FFDCC1"/>
<path d="M30.9805 40.9701L35.8205 43.7601V38.1701L30.9805 35.3801V40.9701Z" fill="#FFBE8D"/>
<path d="M35.8205 43.7601L40.6605 40.9701V35.3801L35.8205 38.1701V43.7601Z" fill="#FFC9A0"/>
<path d="M42.9181 42.2697L47.7481 39.4797L42.9181 36.6797L38.0781 39.4797L42.9181 42.2697Z" fill="#FFDCC1"/>
<path d="M38.0781 45.0597L42.9181 47.8597V42.2697L38.0781 39.4797V45.0597Z" fill="#FFBE8D"/>
<path d="M42.9181 47.8597L47.7481 45.0597V39.4797L42.9181 42.2697V47.8597Z" fill="#FFC9A0"/>
<path d="M50.0119 46.3703L54.8519 43.5703L50.0119 40.7803L45.1719 43.5703L50.0119 46.3703Z" fill="#FFDCC1"/>
<path d="M45.1719 49.1603L50.0119 51.9503V46.3703L45.1719 43.5703V49.1603Z" fill="#FFBE8D"/>
<path d="M50.0119 51.9503L54.8519 49.1603V43.5703L50.0119 46.3703V51.9503Z" fill="#FFC9A0"/>
<path d="M57.1095 50.4599L61.9495 47.6699L57.1095 44.8799L52.2695 47.6699L57.1095 50.4599Z" fill="#FFDCC1"/>
<path d="M52.2695 53.2599L57.1095 56.0499V50.4599L52.2695 47.6699V53.2599Z" fill="#FFBE8D"/>
<path d="M57.1095 56.0499L61.9495 53.2599V47.6699L57.1095 50.4599V56.0499Z" fill="#FFC9A0"/>
<path d="M64.2111 54.5597L69.0411 51.7697L64.2111 48.9697L59.3711 51.7697L64.2111 54.5597Z" fill="#FFDCC1"/>
<path d="M59.3711 57.3498L64.2111 60.1498V54.5598L59.3711 51.7698V57.3498Z" fill="#FFBE8D"/>
<path d="M64.2111 60.1498L69.0411 57.3498V51.7698L64.2111 54.5598V60.1498Z" fill="#FFC9A0"/>
</g>
<defs>
<clipPath id="clip0_0_1021">
<rect width="90.41" height="94.43" fill="white" transform="translate(19 8)"/>
</clipPath>
</defs>
</svg>
