<svg width="128" height="128" viewBox="0 0 128 128" fill="none" xmlns="http://www.w3.org/2000/svg">
<g clip-path="url(#clip0_0_1959)">
<path d="M21.707 62.7833V80.8954C21.707 81.3364 21.9867 81.7774 22.5782 82.1215C23.729 82.7884 25.6112 82.7884 26.7621 82.1215C27.3321 81.7881 27.6225 81.3579 27.6333 80.9277V62.8156L21.7178 62.7833H21.707Z" fill="#5D79FF"/>
<path d="M26.7532 61.568C26.2907 61.2991 25.7744 61.1485 25.1291 61.084C23.8385 60.9657 22.6339 61.3206 22.0423 61.9982C21.4508 62.6651 21.6766 63.4502 22.5908 63.9772C23.2792 64.3752 24.1719 64.5472 25.1399 64.4612C26.1078 64.3752 26.8607 64.0525 27.3017 63.547C27.8932 62.8802 27.6674 62.095 26.7532 61.568Z" fill="#748BFF"/>
<path d="M16.3281 68.4512V84.0035C16.3281 84.4444 16.6078 84.8854 17.1993 85.2296C18.3501 85.8964 20.2323 85.8964 21.3832 85.2296C21.9532 84.8962 22.2436 84.466 22.2543 84.0357V68.4834L16.3389 68.4512H16.3281Z" fill="#FF9B42"/>
<path d="M21.3625 67.236C20.9001 66.9671 20.3838 66.8165 19.7385 66.752C18.4478 66.6337 17.2432 66.9886 16.6517 67.6662C16.0601 68.333 16.286 69.1182 17.2002 69.6452C17.8886 70.0431 18.7813 70.2152 19.7492 70.1292C20.7172 70.0431 21.4701 69.7205 21.9111 69.215C22.5026 68.5481 22.2768 67.763 21.3625 67.236Z" fill="#FFCDA1"/>
<path d="M10.9375 74.0332V87.1225C10.9375 87.5635 11.2171 88.0045 11.8087 88.3486C12.9595 89.0155 14.8417 89.0155 15.9925 88.3486C16.5626 88.0152 16.853 87.585 16.8637 87.1548V74.0655L10.9483 74.0332H10.9375Z" fill="#5D79FF"/>
<path d="M15.9719 72.818C15.5094 72.5491 14.9932 72.3985 14.3479 72.334C13.0572 72.2157 11.8526 72.5706 11.2611 73.2482C10.6695 73.9151 10.8954 74.7002 11.8096 75.2272C12.4979 75.6252 13.3906 75.7973 14.3586 75.7112C15.3266 75.6252 16.0795 75.3025 16.5204 74.797C17.112 74.1302 16.8861 73.345 15.9719 72.818Z" fill="#748BFF"/>
<path d="M5.47266 80.4971V90.2737C5.47266 90.7147 5.7523 91.1557 6.34384 91.4998C7.49467 92.1667 9.37687 92.1667 10.5277 91.4998C11.0977 91.1664 11.3881 90.7362 11.3989 90.306V80.5293L5.48341 80.4971H5.47266Z" fill="#FFAA5E"/>
<path d="M10.5071 79.2819C10.0446 79.013 9.52834 78.8624 8.88301 78.7979C7.59236 78.6796 6.38776 79.0345 5.79621 79.7121C5.20467 80.3789 5.43053 81.1641 6.34474 81.6911C7.03308 82.089 7.92578 82.2611 8.89377 82.1751C9.86175 82.089 10.6146 81.7664 11.0556 81.2609C11.6471 80.594 11.4213 79.8089 10.5071 79.2819Z" fill="#FFC694"/>
<path d="M0 86.6064V93.4361C0 93.8771 0.27964 94.3181 0.871187 94.6622C2.02201 95.3291 3.90421 95.3291 5.05504 94.6622C5.62507 94.3288 5.91547 93.8986 5.92622 93.4684V86.6387L0 86.6064Z" fill="#8EA2FF"/>
<path d="M5.03442 85.3912C4.57194 85.1224 4.05568 84.9718 3.41036 84.9073C2.11971 84.7889 0.915103 85.1439 0.323556 85.8215C-0.267991 86.4883 -0.0421273 87.2734 0.872082 87.8005C1.56043 88.1984 2.45313 88.3705 3.42111 88.2844C4.3891 88.1984 5.14197 87.8757 5.58295 87.3702C6.17449 86.7034 5.94863 85.9183 5.03442 85.3912Z" fill="#FF9436"/>
<path d="M39.3214 53.0496V78.4968C39.2676 81.6051 41.3004 84.7135 45.3982 87.0796C53.5078 91.7582 66.6401 91.7582 74.7497 87.0796C78.7507 84.7672 80.7835 81.745 80.8265 78.7227V53.2754L39.3214 53.0496Z" fill="#5D79FF"/>
<path d="M40.5463 53.0605H39.3094V78.5078C39.2879 79.9168 39.7073 81.315 40.5463 82.6594V53.0605Z" fill="#5D79FF"/>
<path d="M76.1461 53.2541L54.1836 53.1357V90.0913C61.2391 91.2959 69.1766 90.2956 74.7479 87.0798C75.2427 86.7894 75.7051 86.499 76.1461 86.1871V53.2541Z" fill="#FF9B42"/>
<path d="M72.8125 53.2324V88.0584C73.4793 87.7573 74.1247 87.4346 74.7377 87.0797C78.7387 84.7673 80.7715 81.745 80.8145 78.7227V53.2754L72.8125 53.2324Z" fill="#FF9436"/>
<path d="M60.0686 53.0712L72.7922 62.622C67.35 65.0527 60.8645 65.7518 54.2499 64.6225L60.0686 53.0712Z" fill="#FFCDA1"/>
<path d="M74.7085 44.5421C79.9357 47.5644 82.2373 52.0924 80.0217 56.4806C78.731 59.0296 76.4186 60.9978 72.7833 62.6112L60.0597 53.0604L50.2723 52.2429L40.0977 49.6509C43.3135 43.2729 54.8541 39.6269 65.8783 41.5091C69.3308 42.1006 72.3208 43.1546 74.6978 44.5313L74.7085 44.5421Z" fill="url(#paint0_linear_0_1959)"/>
<path d="M60.068 53.0713L54.2493 64.6226C50.7646 64.031 47.7746 63.0093 45.3869 61.6326C43.2573 60.3957 41.601 58.8792 40.5039 57.1046L60.0787 53.0713H60.068Z" fill="#748BFF"/>
<path d="M60.0686 53.0716L40.4937 57.1048C38.945 54.5988 38.8159 52.2111 40.1065 49.6621L60.0686 53.0716Z" fill="#748BFF"/>
<path d="M34.6756 83.5413V102.955C38.7089 103.03 42.7852 102.18 45.872 100.406C48.7974 98.7171 50.2709 96.5123 50.3139 94.2967V83.6166L34.6864 83.5305L34.6756 83.5413Z" fill="#FF9B42"/>
<path d="M23.3818 83.4766V99.728C23.7045 99.9646 24.0594 100.19 24.4359 100.406C28.0174 102.471 32.9326 103.277 37.5682 102.847V83.5518L23.3711 83.4766H23.3818Z" fill="#FF9436"/>
<path d="M48.6016 83.6162V98.2328C49.6986 97.0067 50.2794 95.6515 50.3009 94.2963V83.6162H48.6016Z" fill="#FF9B42"/>
<path d="M24.554 83.4873L20.0044 83.4658V94.1459C19.9722 96.4153 21.4456 98.6847 24.4464 100.416C24.4787 100.438 24.5217 100.459 24.5647 100.481V83.4981L24.554 83.4873Z" fill="#5D79FF"/>
<path d="M35.1478 83.4336L37.5571 92.0702C32.6203 92.5219 28.0493 91.6615 24.5 89.6179L35.1478 83.4336Z" fill="#FFC694"/>
<path d="M45.7972 77.249C50.5296 79.9809 51.6374 83.9604 48.6367 87.4021L35.1602 83.4334L45.808 77.249H45.7972Z" fill="#FFCDA1"/>
<path d="M48.625 87.4023C46.3663 89.9836 42.4944 91.6185 37.5576 92.0702L35.1484 83.4336L48.625 87.4023Z" fill="#FFCDA1"/>
<path d="M35.1488 83.4337L24.501 89.6181C19.7686 86.8862 18.6608 82.9067 21.6723 79.465L35.1488 83.4337Z" fill="#748BFF"/>
<path d="M37.4608 74.7971L35.1484 83.4337L21.6719 79.465C24.6834 76.0232 30.8677 74.1948 37.4608 74.7971Z" fill="#FF9436"/>
<path d="M45.7963 77.2491L35.1484 83.4335L37.4608 74.7969C40.752 75.098 43.4193 75.8832 45.7855 77.2491H45.7963Z" fill="#FF7800"/>
<path style="mix-blend-mode:screen" d="M50.2296 84.187C50.1758 84.4344 50.1005 84.8108 49.9069 85.241C49.5627 86.1337 48.7453 87.2523 47.5085 88.2956C46.2716 89.3496 44.5615 90.2208 42.6255 90.8338C40.6895 91.4469 38.5277 91.7803 36.3659 91.8879C34.204 92.0169 32.0207 91.8664 30.0309 91.4469C28.0412 91.0274 26.2343 90.3929 24.8146 89.6185C23.3734 88.8656 22.2978 88.0052 21.6525 87.3061C20.9964 86.607 20.7383 86.1122 20.7383 86.1122C20.7383 86.1122 20.9641 86.6177 21.588 87.3598C22.201 88.102 23.2228 89.0592 24.6748 89.8766C26.1052 90.7155 27.9121 91.4577 29.9449 91.8986C31.9669 92.3503 34.1933 92.5224 36.3981 92.4149C38.603 92.2858 40.7971 91.9201 42.7761 91.2748C44.7551 90.6295 46.4652 89.6292 47.7128 88.5214C48.9604 87.4136 49.7026 86.1875 50.0037 85.2733C50.1651 84.8216 50.2296 84.4451 50.2618 84.187C50.2941 83.9289 50.2941 83.7998 50.2941 83.7998C50.2941 83.7998 50.2941 83.9396 50.2403 84.187H50.2296Z" fill="url(#paint1_radial_0_1959)"/>
<path d="M90.7989 43.8435L90.7773 50.5333C90.7881 45.8977 87.7443 41.2622 81.6353 37.7451C69.5032 30.7326 49.8208 30.7326 37.764 37.7451C31.7732 41.2299 28.7832 45.7902 28.7617 50.3612L28.7832 43.6714C28.794 39.1003 31.7947 34.54 37.7855 31.0553C49.8423 24.0428 69.5247 24.0428 81.6568 31.0553C87.7658 34.5831 90.8096 39.2186 90.7989 43.8435Z" fill="url(#paint2_linear_0_1959)"/>
<path d="M37.7862 35.0561C49.843 28.0435 69.5254 28.0435 81.6575 35.0561C87.261 38.2934 90.2833 42.4558 90.735 46.7042C91.2621 41.7244 88.2398 36.6371 81.6575 32.8404C69.5254 25.8279 49.843 25.8279 37.7862 32.8404C31.3007 36.6156 28.3215 41.6599 28.8485 46.6074C29.2894 42.402 32.2579 38.2719 37.7862 35.0668V35.0561Z" fill="#5774FF"/>
<path style="mix-blend-mode:screen" opacity="0.2" d="M37.9247 60.4713C50.0568 67.473 69.7392 67.473 81.796 60.4713C93.8528 53.4587 93.7883 42.0688 81.6562 35.0563C69.5241 28.0437 49.8417 28.0437 37.7849 35.0563C25.7281 42.058 25.7926 53.4587 37.9355 60.4713H37.9247Z" fill="url(#paint3_linear_0_1959)"/>
<path d="M92.1636 43.843L92.1421 50.5329C92.1313 55.3083 89.0015 60.0729 82.7418 63.7082C70.158 71.0219 49.6045 71.0219 36.9454 63.7082C30.5674 60.0299 27.3838 55.1792 27.3946 50.35L27.4161 43.6602C27.4053 48.5001 30.5889 53.34 36.9669 57.0184C49.6367 64.332 70.1795 64.332 82.7634 57.0184C89.0122 53.383 92.1421 48.6184 92.1636 43.843Z" fill="url(#paint4_linear_0_1959)"/>
<path d="M82.6124 30.4853C95.2823 37.7989 95.3468 49.7052 82.7522 57.0188C70.1684 64.3325 49.6148 64.3325 36.9557 57.0188C24.2859 49.7052 24.2214 37.7989 36.8052 30.4853C49.389 23.1716 69.9425 23.1716 82.6124 30.4853ZM37.9237 56.4595C50.0558 63.4613 69.7382 63.4613 81.795 56.4595C93.8518 49.447 93.7873 38.0571 81.6552 31.0445C69.5231 24.032 49.8407 24.032 37.7839 31.0445C25.7271 38.0463 25.7916 49.447 37.9345 56.4595H37.9237Z" fill="url(#paint5_linear_0_1959)"/>
<path d="M88.582 66.7955C88.582 68.4518 89.7436 69.1294 91.1848 68.3013C92.6261 67.4731 93.7876 65.4511 93.7876 63.7948C93.7876 62.1384 92.6261 61.4608 91.1848 62.289C89.7436 63.1172 88.582 65.1392 88.582 66.7955Z" fill="#6D86FF"/>
<path d="M93.0451 62.1164L84.6236 57.255C84.1504 56.9754 83.4943 57.0076 82.763 57.4271C81.3217 58.2552 80.1602 60.2773 80.1602 61.9336C80.1602 62.751 80.4398 63.3318 80.9023 63.6114L89.3238 68.4729C88.8613 68.1932 88.5816 67.6232 88.5816 66.795C88.5816 65.1387 89.7432 63.1167 91.1844 62.2885C91.9158 61.8691 92.5719 61.8368 93.0451 62.1164Z" fill="url(#paint6_linear_0_1959)"/>
<path d="M119.148 86.5524C119.148 89.3811 121.127 90.5212 123.58 89.1122C126.021 87.7032 128.011 84.2615 128.011 81.4436C128.011 79.5829 127.15 78.4536 125.871 78.303C125.204 78.217 124.419 78.4106 123.58 78.8946C121.138 80.3035 119.148 83.7453 119.148 86.5632V86.5524Z" fill="url(#paint7_radial_0_1959)"/>
<path d="M126.731 78.5829L95.0777 60.3095C94.271 59.8255 93.1525 59.89 91.9156 60.5999C89.4741 62.0088 87.4844 65.4506 87.4844 68.2685C87.4844 69.6667 87.9684 70.6454 88.7535 71.1187L120.407 89.3921C119.622 88.9189 119.138 87.9401 119.138 86.5419C119.138 83.7132 121.117 80.2823 123.569 78.8733C124.806 78.1635 125.924 78.0989 126.731 78.5829Z" fill="url(#paint8_radial_0_1959)"/>
<path style="mix-blend-mode:screen" d="M119.149 86.5527C120.257 81.132 123.903 78.271 125.871 78.2925C123.344 77.4106 118.601 81.9386 119.149 86.5527Z" fill="url(#paint9_radial_0_1959)"/>
<path opacity="0.5" d="M59.983 62.7729C76.924 62.7729 90.6574 55.391 90.6574 46.2849C90.6574 37.1788 76.924 29.7969 59.983 29.7969C43.042 29.7969 29.3086 37.1788 29.3086 46.2849C29.3086 55.391 43.042 62.7729 59.983 62.7729Z" fill="url(#paint10_linear_0_1959)"/>
</g>
<defs>
<linearGradient id="paint0_linear_0_1959" x1="40.1084" y1="51.8235" x2="80.8606" y2="51.8235" gradientUnits="userSpaceOnUse">
<stop stop-color="#FFC087"/>
<stop offset="1" stop-color="#FFCDA1"/>
</linearGradient>
<radialGradient id="paint1_radial_0_1959" cx="0" cy="0" r="1" gradientUnits="userSpaceOnUse" gradientTransform="translate(36.538 91.9739) scale(20.5105 20.5105)">
<stop stop-color="#FFA352"/>
<stop offset="0.07" stop-color="#F09D5E"/>
<stop offset="0.72" stop-color="#6869D0"/>
<stop offset="1" stop-color="#3255FF"/>
</radialGradient>
<linearGradient id="paint2_linear_0_1959" x1="28.7617" y1="38.1539" x2="90.7989" y2="38.1539" gradientUnits="userSpaceOnUse">
<stop stop-color="#FF9B42"/>
<stop offset="1" stop-color="#7E94FF"/>
</linearGradient>
<linearGradient id="paint3_linear_0_1959" x1="28.7826" y1="47.7584" x2="90.7983" y2="47.7584" gradientUnits="userSpaceOnUse">
<stop stop-color="#FFDCBD"/>
<stop offset="1" stop-color="#FFE9D6"/>
</linearGradient>
<linearGradient id="paint4_linear_0_1959" x1="27.3946" y1="56.4268" x2="92.1636" y2="56.4268" gradientUnits="userSpaceOnUse">
<stop stop-color="#7E94FF"/>
<stop offset="1" stop-color="#FF9B42"/>
</linearGradient>
<linearGradient id="paint5_linear_0_1959" x1="27.4157" y1="43.7467" x2="92.1632" y2="43.7467" gradientUnits="userSpaceOnUse">
<stop stop-color="#FFC694"/>
<stop offset="0.46" stop-color="#FFDCBD"/>
<stop offset="1" stop-color="#FFE9D6"/>
</linearGradient>
<linearGradient id="paint6_linear_0_1959" x1="87.904" y1="59.1479" x2="84.2257" y2="65.5259" gradientUnits="userSpaceOnUse">
<stop stop-color="#FFE9D6"/>
<stop offset="0.52" stop-color="#FFD4AD"/>
<stop offset="0.69" stop-color="#FFCB9E"/>
<stop offset="1" stop-color="#FFB778"/>
</linearGradient>
<radialGradient id="paint7_radial_0_1959" cx="0" cy="0" r="1" gradientUnits="userSpaceOnUse" gradientTransform="translate(123.537 79.0774) scale(19.1661 19.1661)">
<stop stop-color="#5D79FF"/>
<stop offset="0.36" stop-color="#5572FF"/>
<stop offset="1" stop-color="#5370FF"/>
</radialGradient>
<radialGradient id="paint8_radial_0_1959" cx="0" cy="0" r="1" gradientUnits="userSpaceOnUse" gradientTransform="translate(123.536 79.0777) scale(19.1661 19.1661)">
<stop stop-color="#5D79FF"/>
<stop offset="0.36" stop-color="#5572FF"/>
<stop offset="1" stop-color="#5370FF"/>
</radialGradient>
<radialGradient id="paint9_radial_0_1959" cx="0" cy="0" r="1" gradientUnits="userSpaceOnUse" gradientTransform="translate(124.624 78.1957) scale(10.8952)">
<stop stop-color="#F7B37C"/>
<stop offset="0.05" stop-color="#CE9F97"/>
<stop offset="0.1" stop-color="#A98DB0"/>
<stop offset="0.16" stop-color="#887EC5"/>
<stop offset="0.22" stop-color="#6D71D7"/>
<stop offset="0.29" stop-color="#5766E6"/>
<stop offset="0.37" stop-color="#465EF1"/>
<stop offset="0.47" stop-color="#3A59F9"/>
<stop offset="0.61" stop-color="#3355FD"/>
<stop offset="1" stop-color="#3255FF"/>
</radialGradient>
<linearGradient id="paint10_linear_0_1959" x1="29.3086" y1="46.2849" x2="90.6681" y2="46.2849" gradientUnits="userSpaceOnUse">
<stop stop-color="#FFC694"/>
<stop offset="0.46" stop-color="#FFDCBD"/>
<stop offset="1" stop-color="#FFE9D6"/>
</linearGradient>
<clipPath id="clip0_0_1959">
<rect width="128" height="128" fill="white"/>
</clipPath>
</defs>
</svg>
