<svg width="128" height="128" viewBox="0 0 128 128" fill="none" xmlns="http://www.w3.org/2000/svg">
<g clip-path="url(#clip0_0_851)">
<path d="M115.149 56.1266H125.224V50.431H115.149C114.552 48.82 113.442 47.2506 111.819 45.8163L118.94 41.7317L111.913 37.699L104.791 41.7837C102.299 40.8482 99.5653 40.2142 96.7376 39.8713V34.1133H86.7988V39.892C83.9816 40.235 81.2482 40.869 78.7452 41.8044L71.6236 37.7198L68.8692 39.2996L64.5963 36.8676V41.7421L71.7178 45.8267C70.0945 47.261 68.9844 48.82 68.3874 50.4414H58.3125V56.137H68.3874C68.9844 57.748 70.0945 59.3174 71.7178 60.7517L64.5963 64.8364L71.6236 68.869L78.7452 64.7844C81.2377 65.7198 83.9711 66.3538 86.7988 66.6968V72.4756H96.7376V66.6968C99.5549 66.3538 102.288 65.7198 104.791 64.7844L111.913 68.869L118.94 64.8364L111.819 60.7517C113.442 59.3174 114.552 57.7584 115.149 56.137V56.1266Z" fill="url(#paint0_linear_0_851)"/>
<path d="M64.5859 59.9512V64.8257L68.8484 62.3832L64.5859 59.9512Z" fill="#90A3FF"/>
<path d="M114.699 39.2889L118.941 41.7417V36.8672L114.699 39.2889Z" fill="#90A3FF"/>
<path d="M114.699 62.3728L118.941 64.8257V59.9512L114.699 62.3728Z" fill="#90A3FF"/>
<path d="M115.149 51.2526H125.224V45.557H115.149C114.552 43.946 113.442 42.3766 111.819 40.9423L118.94 36.8577L111.913 32.825L104.791 36.9096C102.299 35.9742 99.5653 35.3402 96.7376 34.9972V29.2393H86.7988V35.0076C83.9816 35.3506 81.2482 35.9846 78.7452 36.92L71.6236 32.8354L64.5963 36.8681L71.7178 40.9527C70.0945 42.387 68.9844 43.946 68.3874 45.5674H58.3125V51.263H68.3874C68.9844 52.874 70.0945 54.4434 71.7178 55.8777L64.5963 59.9623L71.6236 63.995L78.7452 59.9104C81.2377 60.8458 83.9711 61.4798 86.7988 61.8228V67.6015H96.7376V61.8228C99.5549 61.4798 102.288 60.8458 104.791 59.9104L111.913 63.995L118.94 59.9623L111.819 55.8777C113.442 54.4434 114.552 52.8844 115.149 51.263V51.2526Z" fill="url(#paint1_linear_0_851)"/>
<path d="M96.9694 72.6941H86.5488V66.8946C83.763 66.5412 81.1448 65.9176 78.757 65.0341L71.6145 69.1292L64.3462 64.9614V59.8166L68.6611 57.343C68.4935 57.0208 68.3364 56.6882 68.2108 56.366H58.0625V45.3281H68.2108C68.3364 44.9955 68.4831 44.6733 68.6611 44.3512L64.3462 41.8775V36.7327L71.6145 32.565L78.757 36.66C81.1448 35.7765 83.763 35.1529 86.5488 34.7996V29H96.9694V34.7996C99.7552 35.1529 102.373 35.7765 104.761 36.66L111.904 32.565L119.172 36.7327V41.8775L114.857 44.3512C115.025 44.6733 115.171 44.9955 115.307 45.3281H125.456V56.3764H115.307C115.182 56.6986 115.035 57.0312 114.857 57.3534L119.172 59.827V64.9718L111.904 69.1396L104.761 65.0445C102.373 65.928 99.7552 66.5516 96.9694 66.905V72.7045V72.6941ZM87.0306 72.2264H96.4981V66.4788L96.7076 66.4581C99.5771 66.1151 102.258 65.4707 104.698 64.5664L104.803 64.5249L111.904 68.5991L118.701 64.712V60.1076L114.229 57.5405L114.344 57.343C114.574 56.9272 114.773 56.4907 114.93 56.075L114.983 55.9191H124.984V45.8166H114.983L114.93 45.6607C114.773 45.2346 114.574 44.8085 114.344 44.3927L114.229 44.1952L118.701 41.6281V37.003L111.904 33.1158L104.803 37.1901L104.698 37.1485C102.258 36.2442 99.5667 35.5999 96.7076 35.2569L96.4981 35.2361V29.4677H87.0306V35.2153L86.8211 35.2361C83.9516 35.5791 81.2705 36.2235 78.8303 37.1277L78.7256 37.1693L71.6249 33.095L64.828 36.9822V41.5865L69.2999 44.1537L69.1847 44.3512C68.9543 44.7669 68.7553 45.193 68.5983 45.6192L68.5459 45.7751H58.5443V55.8775H68.5459L68.5983 56.0334C68.7553 56.4491 68.9543 56.8857 69.1847 57.3014L69.2999 57.4989L64.828 60.0661V64.6704L71.6249 68.5575L78.7256 64.4833L78.8303 64.5249C81.2705 65.4291 83.962 66.0735 86.8211 66.4165L87.0306 66.4373V72.1849V72.2264Z" fill="#C7D0FF"/>
<path d="M52.6696 63.4442H61.9591V58.1955H52.6696C52.1145 56.7092 51.0987 55.2645 49.601 53.9446L56.1676 50.1821L49.6848 46.4717L43.1078 50.2341C40.8038 49.3714 38.2903 48.7894 35.6825 48.4776V43.1458H26.5083V48.4776C23.911 48.7894 21.387 49.3818 19.083 50.2341L12.506 46.4717L9.96106 47.9267L6.02324 45.6922V50.1925L12.5898 53.955C11.0921 55.2749 10.0658 56.7196 9.52119 58.2059H0.242188V63.4546H9.53167C10.0867 64.9409 11.1026 66.3855 12.6002 67.7055L6.03371 71.468L12.5164 75.1784L19.0934 71.416C21.3975 72.2786 23.911 72.8607 26.5187 73.1725V78.5043H35.693V73.1725C38.2903 72.8607 40.8143 72.2683 43.1183 71.416L49.6953 75.1784L56.178 71.468L49.6115 67.7055C51.1091 66.3855 52.1355 64.9409 52.6801 63.4546L52.6696 63.4442Z" fill="url(#paint2_linear_0_851)"/>
<path d="M6.03516 66.968V71.4684L9.9625 69.2234L6.03516 66.968Z" fill="#90A3FF"/>
<path d="M52.25 47.9165L56.1669 50.1719V45.6819L52.25 47.9165Z" fill="#90A3FF"/>
<path d="M52.25 69.213L56.1669 71.4684V66.968L52.25 69.213Z" fill="#90A3FF"/>
<path d="M52.6696 58.954H61.9591V53.7053H52.6696C52.1145 52.219 51.0987 50.7743 49.601 49.4543L56.1676 45.6919L49.6848 41.9814L43.1183 45.7439C40.8143 44.8812 38.2903 44.2992 35.693 43.9874V38.6555H26.5187V43.9874C23.9215 44.2992 21.3975 44.8916 19.0934 45.7439L12.5269 41.9814L6.04418 45.6919L12.6107 49.4543C11.1131 50.7743 10.0867 52.219 9.54214 53.7053H0.242188V58.954H9.53167C10.0867 60.4402 11.1026 61.8849 12.6002 63.2049L6.03371 66.9673L12.5164 70.6778L19.083 66.9154C21.387 67.778 23.9005 68.36 26.5083 68.6718V74.0037H35.6825V68.6718C38.2798 68.36 40.8038 67.7676 43.1078 66.9154L49.6744 70.6778L56.1571 66.9673L49.5906 63.2049C51.0882 61.8849 52.1145 60.4402 52.6591 58.954H52.6696Z" fill="url(#paint3_linear_0_851)"/>
<path d="M35.9221 78.7432H26.2766V73.3906C23.7107 73.0684 21.3019 72.4863 19.1131 71.686L12.5151 75.4589L5.79152 71.6029V66.8323L9.76076 64.5561C9.61414 64.2651 9.47799 63.9741 9.36279 63.6831H0V53.4559H9.36279C9.47799 53.1649 9.61414 52.8635 9.76076 52.5828L5.79152 50.3067V45.5361L12.5151 41.6801L19.1131 45.4529C21.3124 44.6422 23.7212 44.0706 26.2766 43.7484V38.3958H35.9221V43.7484C38.4775 44.0706 40.8863 44.6422 43.0856 45.4529L49.6835 41.6801L56.4071 45.5361V50.3067L52.4379 52.5828C52.5845 52.8739 52.7207 53.1649 52.8359 53.4559H62.1987V63.6831H52.8359C52.7207 63.9741 52.5845 64.2651 52.4379 64.5561L56.4071 66.8323V71.6029L49.6835 75.4589L43.0856 71.686C40.8863 72.4967 38.4775 73.0684 35.9221 73.3906V78.7432ZM26.7478 78.2755H35.4404V72.9748L35.6498 72.954C38.289 72.6318 40.7711 72.0498 43.0227 71.2079L43.1275 71.1664L49.673 74.9184L55.9149 71.343V67.1129L51.7781 64.7432L51.8933 64.5457C52.1028 64.1612 52.2913 63.7662 52.4274 63.3816L52.4798 63.2257H61.7064V53.9444H52.4798L52.4274 53.7885C52.2808 53.3935 52.1028 52.9986 51.8933 52.6244L51.7781 52.4269L55.9044 50.0572V45.8271L49.6626 42.2517L43.117 46.0038L43.0123 45.9622C40.7606 45.1203 38.289 44.5383 35.6393 44.2161L35.4299 44.1953V38.8946H26.7374V44.1953L26.5279 44.2161C23.8887 44.5383 21.4066 45.1203 19.155 45.9622L19.0502 46.0038L12.5047 42.2517L6.2628 45.8271V50.0572L10.3891 52.4269L10.2739 52.6244C10.0645 53.009 9.88643 53.4039 9.73981 53.7885L9.68745 53.9444H0.471281V63.2257H9.69792L9.75029 63.3816C9.89691 63.7662 10.0749 64.1612 10.2844 64.5457L10.3996 64.7432L6.2628 67.1129V71.343L12.5047 74.9184L19.0502 71.1664L19.155 71.2079C21.4066 72.0498 23.8783 72.6318 26.5279 72.954L26.7374 72.9748V78.2755H26.7478Z" fill="#C7D0FF"/>
<path d="M78.3987 87.546H85.3213V83.6276H78.3987C77.9902 82.5155 77.2257 81.445 76.1051 80.4576L80.996 77.6514L76.1679 74.8867L71.2666 77.693C69.5491 77.0486 67.6744 76.6224 65.7369 76.3834V72.4131H58.9086V76.3834C56.9711 76.6224 55.0964 77.059 53.3789 77.693L48.4776 74.8867L46.582 75.9676L43.6495 74.2943V77.641L48.5404 80.4472C47.4198 81.4346 46.6553 82.5051 46.2468 83.6172H39.3242V87.5356H46.2468C46.6553 88.6477 47.4198 89.7182 48.5404 90.7056L43.6495 93.5118L48.4776 96.2765L53.3789 93.4702C55.0964 94.1146 56.9711 94.5408 58.9086 94.7798V98.7501H65.7369V94.7798C67.6744 94.5408 69.5491 94.1042 71.2666 93.4702L76.1679 96.2765L80.996 93.5118L76.1051 90.7056C77.2257 89.7182 77.9902 88.6477 78.3987 87.5356V87.546Z" fill="url(#paint4_linear_0_851)"/>
<path d="M43.6484 90.165V93.5221L46.5704 91.8384L43.6484 90.165Z" fill="#90A3FF"/>
<path d="M78.0859 75.9676L80.9974 77.6514V74.3047L78.0859 75.9676Z" fill="#90A3FF"/>
<path d="M78.0859 91.8384L80.9974 93.5221V90.165L78.0859 91.8384Z" fill="#90A3FF"/>
<path d="M78.3986 84.1893H85.3212V80.2709H78.3986C77.9902 79.1588 77.2256 78.0883 76.105 77.1009L80.9959 74.2947L76.1679 71.53L71.2666 74.3363C69.549 73.6919 67.6743 73.2658 65.7369 73.0267V69.0564H58.9085V73.0267C56.971 73.2658 55.0964 73.7023 53.3788 74.3363L48.4775 71.53L43.6495 74.2947L48.5403 77.1009C47.4197 78.0883 46.6552 79.1588 46.2468 80.2709H39.3242V84.1893H46.2468C46.6552 85.3014 47.4197 86.3719 48.5403 87.3593L43.6495 90.1655L48.4775 92.9302L53.3788 90.124C55.0964 90.7684 56.971 91.1945 58.9085 91.4335V95.4038H65.7369V91.4335C67.6743 91.1945 69.549 90.758 71.2666 90.124L76.1679 92.9302L80.9959 90.1655L76.105 87.3593C77.2256 86.3719 77.9797 85.3014 78.3986 84.1893Z" fill="url(#paint5_linear_0_851)"/>
<path d="M65.9777 99H58.6676V94.9985C56.7825 94.7595 55.0126 94.3333 53.3998 93.7409L48.4775 96.5575L43.4086 93.6578V90.0304L46.3515 88.3467C46.2572 88.1596 46.163 87.9621 46.0897 87.7751H39.0938V80.0423H46.0897C46.163 79.8552 46.2572 79.6578 46.3515 79.4707L43.4086 77.7869V74.1596L48.4775 71.2598L53.3998 74.0765C55.0126 73.484 56.793 73.0579 58.6676 72.8189V68.8174H65.9777V72.8189C67.8629 73.0579 69.6328 73.484 71.2456 74.0765L76.1679 71.2598L81.2368 74.1596V77.7869L78.2939 79.4707C78.3881 79.6578 78.4719 79.8449 78.5557 80.0423H85.5516V87.7751H78.5557C78.4824 87.9621 78.3986 88.1492 78.2939 88.3467L81.2368 90.0304V93.6578L76.1679 96.5575L71.2456 93.7409C69.6328 94.3333 67.8524 94.7595 65.9777 94.9985V99ZM59.1494 98.5323H65.5064V94.5932L65.7159 94.5724C67.6848 94.3333 69.5176 93.8968 71.1932 93.2732L71.298 93.2316L76.1679 96.0275L80.7655 93.3979V90.3215L77.6655 88.5442L77.7807 88.3467C77.9378 88.0557 78.0739 87.7647 78.1787 87.484L78.231 87.3281H85.0803V80.5308H78.231L78.1787 80.3749C78.0739 80.0839 77.9378 79.7929 77.7807 79.5123L77.6655 79.3148L80.7655 77.5375V74.461L76.1679 71.8315L71.298 74.6273L71.1932 74.5858C69.528 73.9621 67.6848 73.5256 65.7159 73.2866L65.5064 73.2658V69.3267H59.1494V73.2658L58.9399 73.2866C56.971 73.5256 55.1383 73.9621 53.4626 74.5858L53.3579 74.6273L48.488 71.8315L43.8903 74.461V77.5375L46.9903 79.3148L46.8751 79.5123C46.718 79.7929 46.5819 80.0839 46.4772 80.3749L46.4248 80.5308H39.5755V87.3281H46.4248L46.4772 87.484C46.5819 87.7647 46.718 88.0557 46.8751 88.3467L46.9903 88.5442L43.8903 90.3215V93.3979L48.488 96.0275L53.3579 93.2316L53.4626 93.2732C55.1278 93.8968 56.971 94.3333 58.9399 94.5724L59.1494 94.5932V98.5323Z" fill="#C7D0FF"/>
<path d="M47.339 53.2891V56.4383V56.8748H47.318C47.2447 57.7791 46.941 58.6833 46.3964 59.546C46.3336 59.6499 46.2707 59.7434 46.1974 59.8474C45.5481 60.7932 44.616 61.687 43.4011 62.4873C43.3383 62.5289 43.265 62.5705 43.2022 62.612C43.0136 62.7368 42.8042 62.8511 42.6052 62.9758C41.914 63.3708 41.1809 63.7241 40.4059 64.0255C40.343 64.0567 40.2697 64.0775 40.2069 64.0983C39.3167 64.4413 38.3846 64.7323 37.4106 64.961C37.3478 64.9817 37.2745 64.9921 37.2116 65.0129C36.3005 65.2208 35.3684 65.3871 34.4154 65.491C34.3525 65.491 34.2792 65.5118 34.2164 65.5118C33.2948 65.6157 32.3522 65.6677 31.4201 65.6781C31.3573 65.6781 31.284 65.6781 31.2211 65.6781C30.289 65.6781 29.3465 65.6365 28.4249 65.543C28.362 65.543 28.2887 65.5326 28.2259 65.5222C27.2728 65.4183 26.3408 65.2728 25.4296 65.0753C25.3668 65.0649 25.2935 65.0441 25.2306 65.0337C24.2671 64.8154 23.3246 64.5452 22.4344 64.2126C22.3715 64.1918 22.2982 64.1607 22.2354 64.1399C21.3556 63.8073 20.5283 63.4123 19.7533 62.9758C19.6486 62.9134 19.5438 62.8511 19.4391 62.7887C19.3763 62.7471 19.303 62.7056 19.2401 62.664C18.0567 61.9261 17.1246 61.105 16.4438 60.2319C16.3705 60.1488 16.3077 60.0552 16.2449 59.9721C15.5222 58.9743 15.1243 57.9246 15.0405 56.8644H15.0195V53.2787H15.983C16.0668 53.1436 16.1506 53.0189 16.2553 52.8837C16.3182 52.7902 16.381 52.7071 16.4543 52.6239C16.7057 52.3017 16.9884 51.9899 17.3131 51.6885C17.7006 51.3143 18.1405 50.9506 18.6327 50.6076C18.9783 50.3581 19.3553 50.1191 19.7638 49.8904C26.0685 46.2735 36.3005 46.2735 42.6052 49.8904C43.0032 50.1191 43.3802 50.3581 43.7363 50.6076C44.2285 50.9506 44.6684 51.3143 45.0559 51.6885C45.5062 52.1146 45.8832 52.5616 46.1974 53.0189C46.2602 53.102 46.3126 53.1956 46.3754 53.2787H47.339V53.2891Z" fill="#FF7800"/>
<path d="M31.1871 47.3752C35.4705 47.3752 39.4921 48.3314 42.5083 50.0567C42.9062 50.2854 43.2728 50.5244 43.6184 50.7635C44.1002 51.1065 44.5296 51.4598 44.917 51.8236C45.3464 52.2394 45.7235 52.6759 46.0377 53.1228C46.09 53.2059 46.1529 53.2891 46.2052 53.3826L46.2681 53.4762H47.1373V56.667V56.8437C47.0535 57.7271 46.7498 58.6002 46.2366 59.4316C46.1843 59.5252 46.111 59.6187 46.0481 59.7227C45.3988 60.6685 44.4772 61.5311 43.3042 62.3106C43.2414 62.3522 43.1785 62.3938 43.1052 62.4353C42.9167 62.5601 42.7177 62.6744 42.5083 62.7887C41.838 63.1733 41.1049 63.5267 40.3404 63.8281C40.2775 63.8489 40.2147 63.88 40.1414 63.9008C39.2722 64.2438 38.3401 64.5244 37.3661 64.7531C37.3032 64.7739 37.2404 64.7843 37.1776 64.7947C36.2874 65.0025 35.3553 65.1584 34.4022 65.2728C34.3394 65.2728 34.2766 65.2935 34.2033 65.2935C33.2921 65.3975 32.3495 65.4495 31.4279 65.4598C31.3651 65.4598 31.3023 65.4598 31.2289 65.4598H31.1766C30.2654 65.4598 29.3438 65.4183 28.4536 65.3247C28.3908 65.3247 28.3279 65.3143 28.2651 65.3039C27.3225 65.2104 26.3905 65.0545 25.4898 64.857C25.427 64.8466 25.3641 64.8258 25.2908 64.8154C24.3273 64.5972 23.3952 64.327 22.5155 64.0048H22.4945C22.4422 63.9736 22.3793 63.9528 22.327 63.932C21.4577 63.5994 20.6304 63.2149 19.8763 62.7783C19.7716 62.716 19.6668 62.6536 19.5726 62.6016C19.5098 62.5601 19.4364 62.5185 19.3736 62.4873C18.2321 61.7702 17.3104 60.9699 16.6297 60.0968C16.5669 60.0241 16.504 59.9409 16.4412 59.8474C15.75 58.8912 15.352 57.8726 15.2682 56.8333V56.6566H15.2473V53.4658H16.1165L16.1794 53.3722C16.2631 53.2475 16.3469 53.1124 16.4412 52.9877C16.4936 52.9045 16.5564 52.8214 16.6297 52.7278C16.8706 52.416 17.1533 52.1042 17.4675 51.8132C17.855 51.4391 18.2949 51.0857 18.7662 50.7531C19.1118 50.5036 19.4888 50.2646 19.8763 50.0463C22.8925 48.3106 26.9141 47.3648 31.1975 47.3648L31.1871 47.3752ZM31.1871 47.1777C27.0503 47.1777 22.9239 48.082 19.7716 49.8904C19.3736 50.1191 18.9966 50.3581 18.6405 50.6076C18.1483 50.9506 17.7084 51.3143 17.3209 51.6885C17.0067 51.9899 16.7135 52.3121 16.4621 52.6239C16.3888 52.7071 16.326 52.8006 16.2631 52.8837C16.1689 53.0189 16.0746 53.1436 15.9909 53.2787H15.0273V56.8644H15.0483C15.1321 57.9246 15.5405 58.9743 16.2527 59.9721C16.3155 60.0552 16.3783 60.1488 16.4517 60.2319C17.1324 61.105 18.0645 61.9261 19.2479 62.664C19.3108 62.7056 19.3841 62.7471 19.4469 62.7887C19.5516 62.8511 19.6564 62.9134 19.7611 62.9758C20.5361 63.4227 21.3635 63.8073 22.2432 64.1399C22.306 64.1711 22.3793 64.1918 22.4422 64.2126C23.3324 64.5452 24.2749 64.8154 25.2384 65.0337C25.3013 65.0441 25.3746 65.0649 25.4374 65.0753C26.3486 65.2728 27.2807 65.4183 28.2337 65.5222C28.2965 65.5222 28.3698 65.5326 28.4327 65.543C29.3438 65.6365 30.255 65.6781 31.1766 65.6781C31.1975 65.6781 31.208 65.6781 31.2289 65.6781C31.2918 65.6781 31.3651 65.6781 31.4279 65.6781C32.36 65.6781 33.3026 65.6157 34.2242 65.5118C34.287 65.5118 34.3603 65.5014 34.4232 65.491C35.3762 65.3767 36.3083 65.2208 37.2195 65.0129C37.2823 65.0025 37.3556 64.9817 37.4184 64.961C38.3819 64.7323 39.3245 64.4413 40.2147 64.0983C40.2775 64.0775 40.3509 64.0463 40.4137 64.0255C41.1887 63.7137 41.9218 63.3708 42.613 62.9758C42.8225 62.8615 43.0215 62.7368 43.21 62.612C43.2728 62.5705 43.3461 62.5289 43.409 62.4873C44.6238 61.687 45.5559 60.7932 46.2052 59.8474C46.2785 59.7434 46.3414 59.6499 46.4042 59.546C46.9383 58.6833 47.2525 57.7791 47.3258 56.8748H47.3468V56.4383V53.2891H46.3833C46.3309 53.1956 46.2681 53.1124 46.2052 53.0293C45.891 52.5719 45.5035 52.125 45.0637 51.6989C44.6762 51.3247 44.2363 50.961 43.7441 50.618C43.3985 50.3685 43.0215 50.1295 42.613 49.9008C39.4607 48.0924 35.3239 47.1881 31.1871 47.1881V47.1777Z" fill="#FFBD82"/>
<path d="M31.1883 62.4467C40.1073 62.4467 47.3375 58.3052 47.3375 53.1965C47.3375 48.0877 40.1073 43.9463 31.1883 43.9463C22.2693 43.9463 15.0391 48.0877 15.0391 53.1965C15.0391 58.3052 22.2693 62.4467 31.1883 62.4467Z" fill="#FFBD82"/>
<path d="M45.0527 51.6891C44.5395 50.0989 43.199 48.6334 41.1568 47.4693C38.4862 45.9415 34.9463 45.0996 31.1761 45.0996C27.4058 45.0996 23.866 45.9415 21.1954 47.4693C19.1532 48.6334 17.8231 50.0989 17.2995 51.6891C17.1424 52.1776 17.0586 52.6764 17.0586 53.1857C17.0586 54.7447 17.8231 56.231 19.237 57.5094C19.2998 57.5718 19.3626 57.6237 19.4359 57.6861C19.9491 58.1226 20.5356 58.528 21.1954 58.9021C21.5305 59.0892 21.8761 59.2763 22.2322 59.4426C22.2951 59.4738 22.3684 59.505 22.4312 59.5361C23.3005 59.9311 24.243 60.2637 25.2275 60.5235C25.2903 60.5443 25.3636 60.5547 25.4265 60.5755C26.3167 60.8041 27.2592 60.9808 28.2227 61.0952C28.2856 61.0952 28.3589 61.1159 28.4217 61.1159C29.3224 61.2199 30.2335 61.2718 31.1761 61.2718H31.218C31.2808 61.2718 31.3541 61.2718 31.417 61.2718C32.37 61.2718 33.3021 61.1991 34.2132 61.0848C34.2761 61.0848 34.3494 61.064 34.4122 61.0536C35.3757 60.9289 36.3183 60.7418 37.2085 60.4923C37.2713 60.4715 37.3446 60.4612 37.4075 60.4404C38.4024 60.1597 39.3345 59.8064 40.2037 59.401C40.2666 59.3698 40.3399 59.3387 40.4027 59.3075C40.6646 59.1828 40.9159 59.0476 41.1568 58.9021C41.9422 58.4552 42.6335 57.9563 43.199 57.4263C43.2618 57.3639 43.3351 57.3015 43.398 57.2392C44.6338 56.0231 45.2936 54.6304 45.2936 53.1857C45.2936 52.6764 45.2098 52.1776 45.0527 51.6891ZM43.398 56.2414C43.3351 56.3246 43.2723 56.4077 43.199 56.4909C42.5601 57.2496 41.7014 57.9563 40.6017 58.5903C40.5389 58.6319 40.4656 58.6631 40.4027 58.7047C40.3399 58.7358 40.2666 58.7774 40.2037 58.8086C39.345 59.2659 38.4024 59.6401 37.4075 59.9415C37.3446 59.9623 37.2713 59.9831 37.2085 60.0038C36.3078 60.2637 35.3757 60.4612 34.4122 60.5963C34.3494 60.5963 34.2761 60.6171 34.2132 60.6274C33.2916 60.7522 32.3595 60.8145 31.417 60.8249C31.3541 60.8249 31.2808 60.8249 31.218 60.8249C30.2754 60.8249 29.3433 60.773 28.4217 60.6586C28.3589 60.6586 28.2856 60.6378 28.2227 60.6378C27.2697 60.5131 26.3271 60.326 25.4265 60.087C25.3636 60.0662 25.2903 60.0558 25.2275 60.035C24.2325 59.7544 23.3005 59.401 22.4312 58.9645C22.3684 58.9333 22.2951 58.9021 22.2322 58.8606C22.0646 58.7774 21.8971 58.6839 21.74 58.5903C20.8079 58.0499 20.0329 57.4574 19.4359 56.8234C19.3731 56.7507 19.2998 56.6779 19.237 56.6052C17.6137 54.7344 17.4042 52.5621 18.6191 50.6081C19.2579 49.5792 20.3052 48.6126 21.74 47.7915C26.9346 44.8086 35.3967 44.8086 40.6017 47.7915C42.0365 48.6126 43.0838 49.5792 43.7226 50.6081C44.8642 52.4374 44.749 54.4641 43.398 56.2518V56.2414Z" fill="#FF7800"/>
<path d="M16.8823 57.4053V60.6481C16.809 60.565 16.7462 60.4714 16.6833 60.3883V57.1455C16.7462 57.2287 16.809 57.3222 16.8823 57.4053Z" fill="#FFBD82"/>
<path d="M19.4487 59.5572V62.8C19.3859 62.7584 19.3126 62.7168 19.2498 62.6753V59.4325C19.3126 59.4741 19.3859 59.5156 19.4487 59.5572Z" fill="#FFBD82"/>
<path d="M22.4448 60.9808V64.2236C22.382 64.2028 22.3087 64.1716 22.2458 64.1508V60.9081C22.3087 60.9289 22.382 60.96 22.4448 60.9808Z" fill="#FFBD82"/>
<path d="M25.4409 61.8432V65.086C25.3781 65.0756 25.3048 65.0548 25.2419 65.0444V61.8016C25.3048 61.812 25.3781 61.8328 25.4409 61.8432Z" fill="#FFBD82"/>
<path d="M28.4331 62.3107V65.5535C28.3703 65.5535 28.297 65.5431 28.2341 65.5327V62.2899C28.297 62.2899 28.3703 62.3003 28.4331 62.3107Z" fill="#FFBD82"/>
<path d="M31.4292 62.4462V65.6889C31.3664 65.6889 31.2931 65.6889 31.2302 65.6889V62.4462C31.2931 62.4462 31.3664 62.4462 31.4292 62.4462Z" fill="#FFBD82"/>
<path d="M34.4253 62.2587V65.5014C34.3625 65.5014 34.2892 65.5222 34.2263 65.5222V62.2795C34.2892 62.2795 34.3625 62.2691 34.4253 62.2587Z" fill="#FFBD82"/>
<path d="M37.4175 61.7294V64.9721C37.3547 64.9929 37.2813 65.0033 37.2185 65.0241V61.7813C37.2813 61.7709 37.3547 61.7502 37.4175 61.7398V61.7294Z" fill="#FFBD82"/>
<path d="M40.4136 60.7938V64.0366C40.3507 64.0678 40.2774 64.0886 40.2146 64.1093V60.8666C40.2774 60.8458 40.3507 60.8146 40.4136 60.7938Z" fill="#FFBD82"/>
<path d="M43.398 59.245V62.4878C43.3351 62.5293 43.2618 62.5709 43.199 62.6125V59.3697C43.2618 59.3281 43.3351 59.2866 43.398 59.245Z" fill="#FFBD82"/>
<path d="M46.0581 56.6259V59.8686C45.9953 59.9726 45.9324 60.0661 45.8591 60.17V56.9273C45.9324 56.8233 45.9953 56.7298 46.0581 56.6259Z" fill="#FFBD82"/>
<path d="M107.913 44.1534V47.3026V47.7391H107.892C107.819 48.6433 107.515 49.5476 106.971 50.4102C106.908 50.5142 106.845 50.6077 106.772 50.7116C106.122 51.6574 105.19 52.5513 103.975 53.3516C103.913 53.3931 103.839 53.4347 103.776 53.4763C103.588 53.601 103.378 53.7153 103.179 53.8401C102.488 54.235 101.755 54.5884 100.98 54.8898C100.917 54.921 100.844 54.9418 100.781 54.9626C99.8909 55.3055 98.9588 55.5966 97.9848 55.8252C97.922 55.846 97.8487 55.8564 97.7859 55.8772C96.8747 56.0851 95.9426 56.2513 94.9896 56.3553C94.9268 56.3553 94.8534 56.3761 94.7906 56.3761C93.869 56.48 92.9264 56.532 91.9943 56.5424C91.9315 56.5424 91.8582 56.5424 91.7954 56.5424C90.8633 56.5424 89.9207 56.5008 88.9991 56.4073C88.9362 56.4073 88.8629 56.3969 88.8001 56.3865C87.8471 56.2825 86.915 56.137 86.0038 55.9395C85.941 55.9291 85.8677 55.9084 85.8048 55.898C84.8413 55.6797 83.8988 55.4095 83.0086 55.0769C82.9457 55.0561 82.8724 55.0249 82.8096 55.0041C81.9299 54.6715 81.1025 54.2766 80.3275 53.8401C80.2228 53.7777 80.1181 53.7153 80.0133 53.653C79.9505 53.6114 79.8772 53.5698 79.8143 53.5283C78.6309 52.7903 77.6988 51.9692 77.0181 51.0962C76.9448 51.013 76.8819 50.9195 76.8191 50.8364C76.0964 49.8386 75.6985 48.7888 75.6147 47.7287H75.5938V44.143H76.5573C76.641 44.0078 76.7248 43.8831 76.8296 43.748C76.8924 43.6545 76.9552 43.5713 77.0285 43.4882C77.2799 43.166 77.5627 42.8542 77.8873 42.5528C78.2748 42.1786 78.7147 41.8148 79.2069 41.4718C79.5525 41.2224 79.9295 40.9833 80.338 40.7547C86.6427 37.1378 96.8747 37.1378 103.179 40.7547C103.577 40.9833 103.954 41.2224 104.31 41.4718C104.803 41.8148 105.243 42.1786 105.63 42.5528C106.08 42.9789 106.457 43.4258 106.772 43.8831C106.834 43.9663 106.887 44.0598 106.95 44.143H107.913V44.1534Z" fill="#FF7800"/>
<path d="M91.7613 38.2395C96.0447 38.2395 100.066 39.1957 103.082 40.921C103.48 41.1496 103.847 41.3887 104.193 41.6277C104.674 41.9707 105.104 42.3241 105.491 42.6879C105.921 43.1036 106.298 43.5401 106.612 43.9871C106.664 44.0702 106.727 44.1534 106.779 44.2469L106.842 44.3404H107.712V47.5312V47.7079C107.628 48.5914 107.324 49.4644 106.811 50.2959C106.758 50.3894 106.685 50.483 106.622 50.5869C105.973 51.5327 105.051 52.3954 103.878 53.1749C103.816 53.2165 103.753 53.258 103.679 53.2996C103.491 53.4243 103.292 53.5387 103.082 53.653C102.412 54.0375 101.679 54.3909 100.915 54.6923C100.852 54.7131 100.789 54.7443 100.716 54.7651C99.8464 55.1081 98.9143 55.3887 97.9403 55.6173C97.8775 55.6381 97.8146 55.6485 97.7518 55.6589C96.8616 55.8668 95.9295 56.0227 94.9765 56.137C94.9136 56.137 94.8508 56.1578 94.7775 56.1578C93.8663 56.2617 92.9238 56.3137 92.0021 56.3241C91.9393 56.3241 91.8765 56.3241 91.8032 56.3241H91.7508C90.8397 56.3241 89.918 56.2825 89.0278 56.189C88.965 56.189 88.9022 56.1786 88.8393 56.1682C87.8968 56.0747 86.9647 55.9188 86.064 55.7213C86.0012 55.7109 85.9383 55.6901 85.865 55.6797C84.9015 55.4614 83.9694 55.1912 83.0897 54.869H83.0687C83.0164 54.8378 82.9536 54.817 82.9012 54.7963C82.0319 54.4637 81.2046 54.0791 80.4505 53.6426C80.3458 53.5802 80.2411 53.5179 80.1468 53.4659C80.084 53.4243 80.0107 53.3828 79.9478 53.3516C78.8063 52.6344 77.8847 51.8341 77.2039 50.9611C77.1411 50.8883 77.0782 50.8052 77.0154 50.7116C76.3242 49.7554 75.9262 48.7369 75.8424 47.6975V47.5208H75.8215V44.33H76.6907L76.7536 44.2365C76.8374 44.1118 76.9211 43.9767 77.0154 43.8519C77.0678 43.7688 77.1306 43.6856 77.2039 43.5921C77.4448 43.2803 77.7276 42.9685 78.0417 42.6775C78.4292 42.3033 78.8691 41.9499 79.3404 41.6173C79.686 41.3679 80.063 41.1289 80.4505 40.9106C83.4667 39.1749 87.4883 38.2291 91.7717 38.2291L91.7613 38.2395ZM91.7613 38.042C87.6245 38.042 83.4981 38.9462 80.3458 40.7547C79.9478 40.9833 79.5708 41.2224 79.2147 41.4718C78.7225 41.8148 78.2826 42.1786 77.8951 42.5528C77.5809 42.8542 77.2877 43.1764 77.0363 43.4882C76.963 43.5713 76.9002 43.6649 76.8374 43.748C76.7431 43.8831 76.6489 44.0078 76.5651 44.143H75.6016V47.7287H75.6225C75.7063 48.7888 76.1147 49.8386 76.8269 50.8364C76.8897 50.9195 76.9526 51.013 77.0259 51.0962C77.7066 51.9692 78.6387 52.7903 79.8221 53.5283C79.885 53.5698 79.9583 53.6114 80.0211 53.653C80.1259 53.7153 80.2306 53.7777 80.3353 53.8401C81.1103 54.287 81.9377 54.6715 82.8174 55.0041C82.8802 55.0353 82.9535 55.0561 83.0164 55.0769C83.9066 55.4095 84.8491 55.6797 85.8127 55.898C85.8755 55.9084 85.9488 55.9292 86.0116 55.9395C86.9228 56.137 87.8549 56.2825 88.8079 56.3865C88.8707 56.3865 88.9441 56.3969 89.0069 56.4073C89.918 56.5008 90.8292 56.5424 91.7508 56.5424C91.7717 56.5424 91.7822 56.5424 91.8032 56.5424C91.866 56.5424 91.9393 56.5424 92.0021 56.5424C92.9342 56.5424 93.8768 56.48 94.7984 56.3761C94.8613 56.3761 94.9346 56.3657 94.9974 56.3553C95.9504 56.241 96.8825 56.0851 97.7937 55.8772C97.8565 55.8668 97.9298 55.846 97.9927 55.8252C98.9562 55.5966 99.8987 55.3055 100.789 54.9626C100.852 54.9418 100.925 54.9106 100.988 54.8898C101.763 54.578 102.496 54.235 103.187 53.8401C103.397 53.7257 103.596 53.601 103.784 53.4763C103.847 53.4347 103.92 53.3931 103.983 53.3516C105.198 52.5513 106.13 51.6574 106.779 50.7116C106.853 50.6077 106.916 50.5142 106.978 50.4102C107.513 49.5476 107.827 48.6433 107.9 47.7391H107.921V47.3026V44.1534H106.957C106.905 44.0598 106.842 43.9767 106.779 43.8935C106.465 43.4362 106.078 42.9893 105.638 42.5632C105.25 42.189 104.811 41.8252 104.318 41.4822C103.973 41.2328 103.596 40.9937 103.187 40.7651C100.035 38.9566 95.8981 38.0524 91.7613 38.0524V38.042Z" fill="#FFBD82"/>
<path d="M91.7625 53.3002C100.682 53.3002 107.912 49.1587 107.912 44.05C107.912 38.9413 100.682 34.7998 91.7625 34.7998C82.8435 34.7998 75.6133 38.9413 75.6133 44.05C75.6133 49.1587 82.8435 53.3002 91.7625 53.3002Z" fill="#FFBD82"/>
<path d="M105.643 42.5533C105.129 40.9631 103.789 39.4976 101.747 38.3336C99.076 36.8057 95.5362 35.9639 91.7659 35.9639C87.9957 35.9639 84.4558 36.8057 81.7852 38.3336C79.743 39.4976 78.413 40.9631 77.8893 42.5533C77.7322 43.0418 77.6484 43.5407 77.6484 44.05C77.6484 45.609 78.413 47.0953 79.8268 48.3737C79.8896 48.436 79.9525 48.488 80.0258 48.5504C80.539 48.9869 81.1254 49.3922 81.7852 49.7664C82.1204 49.9535 82.466 50.1406 82.8221 50.3069C82.8849 50.338 82.9582 50.3692 83.021 50.4004C83.8903 50.7953 84.8329 51.1279 85.8173 51.3878C85.8802 51.4086 85.9535 51.419 86.0163 51.4397C86.9065 51.6684 87.8491 51.8451 88.8126 51.9594C88.8754 51.9594 88.9487 51.9802 89.0116 51.9802C89.9122 52.0841 90.8234 52.1361 91.7659 52.1361H91.8078C91.8707 52.1361 91.944 52.1361 92.0068 52.1361C92.9598 52.1361 93.8919 52.0633 94.8031 51.949C94.8659 51.949 94.9392 51.9282 95.0021 51.9178C95.9656 51.7931 96.9081 51.606 97.7983 51.3566C97.8612 51.3358 97.9345 51.3254 97.9973 51.3046C98.9922 51.024 99.9243 50.6706 100.794 50.2653C100.856 50.2341 100.93 50.2029 100.993 50.1717C101.254 50.047 101.506 49.9119 101.747 49.7664C102.532 49.3195 103.223 48.8206 103.789 48.2905C103.852 48.2282 103.925 48.1658 103.988 48.1034C105.224 46.8874 105.883 45.4947 105.883 44.05C105.883 43.5407 105.8 43.0418 105.643 42.5533ZM103.988 47.1057C103.925 47.1888 103.862 47.272 103.789 47.3551C103.15 48.1138 102.291 48.8206 101.192 49.4546C101.129 49.4962 101.055 49.5273 100.993 49.5689C100.93 49.6001 100.856 49.6417 100.794 49.6728C99.9348 50.1302 98.9922 50.5043 97.9973 50.8057C97.9345 50.8265 97.8612 50.8473 97.7983 50.8681C96.8977 51.1279 95.9656 51.3254 95.0021 51.4605C94.9392 51.4605 94.8659 51.4813 94.8031 51.4917C93.8815 51.6164 92.9494 51.6788 92.0068 51.6892C91.944 51.6892 91.8707 51.6892 91.8078 51.6892C90.8653 51.6892 89.9332 51.6372 89.0116 51.5229C88.9487 51.5229 88.8754 51.5021 88.8126 51.5021C87.8595 51.3774 86.917 51.1903 86.0163 50.9512C85.9535 50.9305 85.8802 50.9201 85.8173 50.8993C84.8224 50.6187 83.8903 50.2653 83.021 49.8288C82.9582 49.7976 82.8849 49.7664 82.8221 49.7248C82.6545 49.6417 82.4869 49.5481 82.3298 49.4546C81.3977 48.9141 80.6228 48.3217 80.0258 47.6877C79.963 47.6149 79.8896 47.5422 79.8268 47.4694C78.2035 45.5986 77.994 43.4264 79.2089 41.4724C79.8477 40.4435 80.895 39.4769 82.3298 38.6558C87.5244 35.6729 95.9865 35.6729 101.192 38.6558C102.626 39.4769 103.674 40.4435 104.312 41.4724C105.454 43.3017 105.339 45.3284 103.988 47.1161V47.1057Z" fill="#FF7800"/>
<path d="M77.4568 48.2598V51.5026C77.3835 51.4194 77.3207 51.3259 77.2578 51.2428V48C77.3207 48.0831 77.3835 48.1767 77.4568 48.2598Z" fill="#FFBD82"/>
<path d="M80.0349 50.4109V53.6536C79.9721 53.612 79.8988 53.5705 79.8359 53.5289V50.2861C79.8988 50.3277 79.9721 50.3693 80.0349 50.4109Z" fill="#FFBD82"/>
<path d="M83.0271 51.8345V55.0772C82.9643 55.0564 82.891 55.0253 82.8281 55.0045V51.7617C82.891 51.7825 82.9643 51.8137 83.0271 51.8345Z" fill="#FFBD82"/>
<path d="M86.0232 52.7076V55.9504C85.9604 55.94 85.8871 55.9192 85.8242 55.9088V52.666C85.8871 52.6764 85.9604 52.6972 86.0232 52.7076Z" fill="#FFBD82"/>
<path d="M89.0076 53.1751V56.4178C88.9447 56.4178 88.8714 56.4075 88.8086 56.3971V53.1543C88.8714 53.1543 88.9447 53.1647 89.0076 53.1751Z" fill="#FFBD82"/>
<path d="M92.0037 53.3105V56.5533C91.9408 56.5533 91.8675 56.5533 91.8047 56.5533V53.3105C91.8675 53.3105 91.9408 53.3105 92.0037 53.3105Z" fill="#FFBD82"/>
<path d="M94.9998 53.123V56.3658C94.9369 56.3658 94.8636 56.3866 94.8008 56.3866V53.1438C94.8636 53.1438 94.9369 53.1334 94.9998 53.123Z" fill="#FFBD82"/>
<path d="M97.9959 52.5938V55.8365C97.933 55.8573 97.8597 55.8677 97.7969 55.8885V52.6457C97.8597 52.6353 97.933 52.6145 97.9959 52.6041V52.5938Z" fill="#FFBD82"/>
<path d="M100.988 51.6582V54.901C100.925 54.9321 100.852 54.9529 100.789 54.9737V51.731C100.852 51.7102 100.925 51.679 100.988 51.6582Z" fill="#FFBD82"/>
<path d="M103.984 50.1094V53.3521C103.921 53.3937 103.848 53.4353 103.785 53.4769V50.2341C103.848 50.1925 103.921 50.1509 103.984 50.1094Z" fill="#FFBD82"/>
<path d="M106.644 47.4902V50.733C106.581 50.8369 106.519 50.9305 106.445 51.0344V47.7916C106.519 47.6877 106.581 47.5942 106.644 47.4902Z" fill="#FFBD82"/>
<path d="M78.9874 78.7539V81.9032V82.3397H78.9664C78.8931 83.2439 78.5894 84.1481 78.0448 85.0108C77.982 85.1147 77.9192 85.2083 77.8458 85.3122C77.1965 86.258 76.2644 87.1519 75.0496 87.9522C74.9867 87.9937 74.9134 88.0353 74.8506 88.0769C74.6621 88.2016 74.4526 88.3159 74.2536 88.4406C73.5624 88.8356 72.8293 89.189 72.0543 89.4904C71.9915 89.5216 71.9182 89.5424 71.8553 89.5631C70.9651 89.9061 70.033 90.1971 69.0591 90.4258C68.9962 90.4466 68.9229 90.457 68.8601 90.4778C67.9489 90.6856 67.0168 90.8519 66.0638 90.9559C66.001 90.9559 65.9277 90.9767 65.8648 90.9767C64.9432 91.0806 64.0006 91.1326 63.0686 91.143C63.0057 91.143 62.9324 91.143 62.8696 91.143C61.9375 91.143 60.9949 91.1014 60.0733 91.0078C60.0105 91.0078 59.9372 90.9974 59.8743 90.9871C58.9213 90.8831 57.9892 90.7376 57.078 90.5401C57.0152 90.5297 56.9419 90.5089 56.8791 90.4986C55.9156 90.2803 54.973 90.0101 54.0828 89.6775C54.02 89.6567 53.9466 89.6255 53.8838 89.6047C53.0041 89.2721 52.1767 88.8772 51.4017 88.4406C51.297 88.3783 51.1923 88.3159 51.0875 88.2536C51.0247 88.212 50.9514 88.1704 50.8886 88.1288C49.7051 87.3909 48.773 86.5698 48.0923 85.6968C48.019 85.6136 47.9561 85.5201 47.8933 85.4369C47.1707 84.4392 46.7727 83.3894 46.6889 82.3293H46.668V78.7435H47.6315C47.7153 78.6084 47.799 78.4837 47.9038 78.3486C47.9666 78.2551 48.0294 78.1719 48.1028 78.0888C48.3541 77.7666 48.6369 77.4548 48.9615 77.1533C49.349 76.7792 49.7889 76.4154 50.2811 76.0724C50.6267 75.823 51.0038 75.5839 51.4122 75.3553C57.7169 71.7383 67.9489 71.7383 74.2536 75.3553C74.6516 75.5839 75.0286 75.823 75.3847 76.0724C75.8769 76.4154 76.3168 76.7792 76.7043 77.1533C77.1546 77.5795 77.5317 78.0264 77.8458 78.4837C77.9087 78.5669 77.961 78.6604 78.0239 78.7435H78.9874V78.7539Z" fill="#FF7800"/>
<path d="M62.8394 72.8401C67.1228 72.8401 71.1444 73.7962 74.1606 75.5216C74.5586 75.7502 74.9251 75.9893 75.2708 76.2283C75.7525 76.5713 76.1819 76.9247 76.5694 77.2885C76.9988 77.7042 77.3758 78.1407 77.69 78.5876C77.7424 78.6708 77.8052 78.7539 77.8576 78.8475L77.9204 78.941H78.7897V82.1318V82.3085C78.7059 83.1919 78.4022 84.065 77.889 84.8965C77.8366 84.99 77.7633 85.0836 77.7005 85.1875C77.0512 86.1333 76.1295 86.996 74.9566 87.7755C74.8937 87.817 74.8309 87.8586 74.7576 87.9002C74.5691 88.0249 74.3701 88.1392 74.1606 88.2536C73.4904 88.6381 72.7572 88.9915 71.9927 89.2929C71.9299 89.3137 71.8671 89.3449 71.7937 89.3657C70.9245 89.7087 69.9924 89.9893 69.0184 90.2179C68.9556 90.2387 68.8927 90.2491 68.8299 90.2595C67.9397 90.4674 67.0076 90.6233 66.0546 90.7376C65.9917 90.7376 65.9289 90.7584 65.8556 90.7584C64.9445 90.8623 64.0019 90.9143 63.0698 90.9247C63.007 90.9247 62.9441 90.9247 62.8813 90.9247H62.8289C61.9178 90.9247 60.9962 90.8831 60.106 90.7896C60.0431 90.7896 59.9803 90.7792 59.9175 90.7688C58.9749 90.6752 58.0428 90.5193 57.1421 90.3219C57.0793 90.3115 57.0165 90.2907 56.9431 90.2803C55.9796 90.062 55.0476 89.7918 54.1678 89.4696H54.1469C54.0945 89.4384 54.0317 89.4176 53.9793 89.3968C53.1101 89.0643 52.2827 88.6797 51.5286 88.2432C51.4239 88.1808 51.3192 88.1185 51.2249 88.0665C51.1621 88.0249 51.0888 87.9833 51.0259 87.9522C49.8844 87.235 48.9628 86.4347 48.282 85.5617C48.2192 85.4889 48.1564 85.4058 48.0935 85.3122C47.4023 84.356 47.0043 83.3375 46.9206 82.2981V82.1214H46.8996V78.9306H47.7689L47.8317 78.8371C47.9155 78.7124 47.9993 78.5772 48.0935 78.4525C48.1459 78.3694 48.2087 78.2862 48.282 78.1927C48.5229 77.8809 48.8057 77.5691 49.1199 77.2781C49.5074 76.9039 49.9472 76.5505 50.4185 76.2179C50.7641 75.9685 51.1412 75.7294 51.5286 75.5112C54.5448 73.7755 58.5664 72.8297 62.8499 72.8297L62.8394 72.8401ZM62.8394 72.6426C58.7026 72.6426 54.5763 73.5468 51.4239 75.3553C51.0259 75.5839 50.6489 75.823 50.2928 76.0724C49.8006 76.4154 49.3608 76.7792 48.9733 77.1533C48.6591 77.4548 48.3658 77.7769 48.1145 78.0888C48.0412 78.1719 47.9783 78.2654 47.9155 78.3486C47.8212 78.4837 47.727 78.6084 47.6432 78.7435H46.6797V82.3293H46.7006C46.7844 83.3894 47.1929 84.4392 47.905 85.4369C47.9679 85.5201 48.0307 85.6136 48.104 85.6968C48.7847 86.5698 49.7168 87.3909 50.9003 88.1288C50.9631 88.1704 51.0364 88.212 51.0993 88.2536C51.204 88.3159 51.3087 88.3783 51.4134 88.4406C52.1884 88.8876 53.0158 89.2721 53.8955 89.6047C53.9584 89.6359 54.0317 89.6567 54.0945 89.6775C54.9847 90.0101 55.9273 90.2803 56.8908 90.4986C56.9536 90.5089 57.0269 90.5297 57.0898 90.5401C58.0009 90.7376 58.933 90.8831 59.886 90.987C59.9489 90.987 60.0222 90.9974 60.085 91.0078C60.9962 91.1014 61.9073 91.143 62.8289 91.143C62.8499 91.143 62.8603 91.143 62.8813 91.143C62.9441 91.143 63.0174 91.143 63.0803 91.143C64.0124 91.143 64.9549 91.0806 65.8765 90.9767C65.9394 90.9767 66.0127 90.9663 66.0755 90.9559C67.0286 90.8415 67.9607 90.6856 68.8718 90.4778C68.9346 90.4674 69.0079 90.4466 69.0708 90.4258C70.0343 90.1971 70.9769 89.9061 71.8671 89.5631C71.9299 89.5424 72.0032 89.5112 72.066 89.4904C72.841 89.1786 73.5741 88.8356 74.2654 88.4406C74.4748 88.3263 74.6738 88.2016 74.8623 88.0769C74.9251 88.0353 74.9985 87.9937 75.0613 87.9522C76.2762 87.1519 77.2082 86.258 77.8576 85.3122C77.9309 85.2083 77.9937 85.1147 78.0565 85.0108C78.5907 84.1481 78.9049 83.2439 78.9782 82.3397H78.9991V81.9032V78.7539H78.0356C77.9832 78.6604 77.9204 78.5772 77.8576 78.4941C77.5434 78.0368 77.1559 77.5899 76.716 77.1637C76.3285 76.7896 75.8887 76.4258 75.3964 76.0828C75.0508 75.8334 74.6738 75.5943 74.2654 75.3657C71.113 73.5572 66.9762 72.653 62.8394 72.653V72.6426Z" fill="#FFBD82"/>
<path d="M62.8367 87.9105C71.7557 87.9105 78.986 83.7691 78.986 78.6603C78.986 73.5516 71.7557 69.4102 62.8367 69.4102C53.9178 69.4102 46.6875 73.5516 46.6875 78.6603C46.6875 83.7691 53.9178 87.9105 62.8367 87.9105Z" fill="#FFBD82"/>
<path d="M76.7129 77.1529C76.1997 75.5627 74.8591 74.0973 72.8169 72.9332C70.1463 71.4053 66.6065 70.5635 62.8362 70.5635C59.066 70.5635 55.5261 71.4053 52.8556 72.9332C50.8133 74.0973 49.4833 75.5627 48.9596 77.1529C48.8025 77.6414 48.7188 78.1403 48.7188 78.6496C48.7188 80.2086 49.4833 81.6949 50.8971 82.9733C50.96 83.0356 51.0228 83.0876 51.0961 83.15C51.6093 83.5865 52.1958 83.9918 52.8556 84.366C53.1907 84.5531 53.5363 84.7402 53.8924 84.9065C53.9552 84.9376 54.0285 84.9688 54.0914 85C54.9606 85.395 55.9032 85.7275 56.8876 85.9874C56.9505 86.0082 57.0238 86.0186 57.0866 86.0393C57.9768 86.268 58.9194 86.4447 59.8829 86.559C59.9457 86.559 60.019 86.5798 60.0819 86.5798C60.9825 86.6837 61.8937 86.7357 62.8362 86.7357H62.8781C62.941 86.7357 63.0143 86.7357 63.0771 86.7357C64.0302 86.7357 64.9622 86.663 65.8734 86.5486C65.9362 86.5486 66.0095 86.5278 66.0724 86.5174C67.0359 86.3927 67.9784 86.2056 68.8686 85.9562C68.9315 85.9354 69.0048 85.925 69.0676 85.9042C70.0626 85.6236 70.9946 85.2702 71.8639 84.8649C71.9267 84.8337 72 84.8025 72.0629 84.7713C72.3247 84.6466 72.5761 84.5115 72.8169 84.366C73.6024 83.9191 74.2936 83.4202 74.8592 82.8901C74.922 82.8278 74.9953 82.7654 75.0581 82.703C76.2939 81.487 76.9537 80.0943 76.9537 78.6496C76.9537 78.1403 76.87 77.6414 76.7129 77.1529ZM75.0581 81.7053C74.9953 81.7884 74.9325 81.8716 74.8592 81.9547C74.2203 82.7134 73.3615 83.4202 72.2619 84.0542C72.199 84.0958 72.1257 84.127 72.0629 84.1685C72 84.1997 71.9267 84.2413 71.8639 84.2725C71.0051 84.7298 70.0626 85.1039 69.0676 85.4053C69.0048 85.4261 68.9315 85.4469 68.8686 85.4677C67.968 85.7275 67.0359 85.925 66.0724 86.0601C66.0095 86.0601 65.9362 86.0809 65.8734 86.0913C64.9518 86.216 64.0197 86.2784 63.0771 86.2888C63.0143 86.2888 62.941 86.2888 62.8781 86.2888C61.9356 86.2888 61.0035 86.2368 60.0819 86.1225C60.019 86.1225 59.9457 86.1017 59.8829 86.1017C58.9298 85.977 57.9873 85.7899 57.0866 85.5509C57.0238 85.5301 56.9505 85.5197 56.8876 85.4989C55.8927 85.2183 54.9606 84.8649 54.0914 84.4284C54.0285 84.3972 53.9552 84.366 53.8924 84.3244C53.7248 84.2413 53.5572 84.1477 53.4001 84.0542C52.4681 83.5137 51.6931 82.9213 51.0961 82.2873C51.0333 82.2146 50.96 82.1418 50.8971 82.069C49.2738 80.1982 49.0644 78.026 50.2792 76.072C50.9181 75.0431 51.9654 74.0765 53.4001 73.2554C58.5947 70.2725 67.0568 70.2725 72.2619 73.2554C73.6967 74.0765 74.744 75.0431 75.3828 76.072C76.5243 77.9013 76.4091 79.928 75.0581 81.7157V81.7053Z" fill="#FF7800"/>
<path d="M48.531 82.8693V86.1121C48.4577 86.0289 48.3949 85.9354 48.332 85.8523V82.6095C48.3949 82.6926 48.4577 82.7862 48.531 82.8693Z" fill="#FFBD82"/>
<path d="M51.1052 85.0212V88.264C51.0424 88.2224 50.9691 88.1808 50.9062 88.1392V84.8965C50.9691 84.9381 51.0424 84.9796 51.1052 85.0212Z" fill="#FFBD82"/>
<path d="M54.1013 86.4341V89.6768C54.0385 89.6561 53.9652 89.6249 53.9023 89.6041V86.3613C53.9652 86.3821 54.0385 86.4133 54.1013 86.4341Z" fill="#FFBD82"/>
<path d="M57.0974 87.3072V90.55C57.0346 90.5396 56.9613 90.5188 56.8984 90.5084V87.2656C56.9613 87.276 57.0346 87.2968 57.0974 87.3072Z" fill="#FFBD82"/>
<path d="M60.0935 87.7747V91.0175C60.0307 91.0175 59.9574 91.0071 59.8945 90.9967V87.7539C59.9574 87.7539 60.0307 87.7643 60.0935 87.7747Z" fill="#FFBD82"/>
<path d="M63.0896 87.9102V91.1529C63.0268 91.1529 62.9535 91.1529 62.8906 91.1529V87.9102C62.9535 87.9102 63.0268 87.9102 63.0896 87.9102Z" fill="#FFBD82"/>
<path d="M66.074 87.7227V90.9654C66.0111 90.9654 65.9378 90.9862 65.875 90.9862V87.7434C65.9378 87.7434 66.0111 87.733 66.074 87.7227Z" fill="#FFBD82"/>
<path d="M69.0662 87.1934V90.4361C69.0033 90.4569 68.93 90.4673 68.8672 90.4881V87.2453C68.93 87.2349 69.0033 87.2141 69.0662 87.2038V87.1934Z" fill="#FFBD82"/>
<path d="M72.0623 86.2578V89.5006C71.9994 89.5318 71.9261 89.5525 71.8633 89.5733V86.3306C71.9261 86.3098 71.9994 86.2786 72.0623 86.2578Z" fill="#FFBD82"/>
<path d="M75.0584 84.709V87.9517C74.9955 87.9933 74.9222 88.0349 74.8594 88.0765V84.8337C74.9222 84.7921 74.9955 84.7506 75.0584 84.709Z" fill="#FFBD82"/>
<path d="M77.7185 82.0898V85.3326C77.6557 85.4365 77.5928 85.5301 77.5195 85.634V82.3913C77.5928 82.2873 77.6557 82.1938 77.7185 82.0898Z" fill="#FFBD82"/>
</g>
<defs>
<linearGradient id="paint0_linear_0_851" x1="58.302" y1="53.2788" x2="125.224" y2="53.2788" gradientUnits="userSpaceOnUse">
<stop stop-color="#728AFF"/>
<stop offset="1" stop-color="#8499FF"/>
</linearGradient>
<linearGradient id="paint1_linear_0_851" x1="58.302" y1="48.4048" x2="125.224" y2="48.4048" gradientUnits="userSpaceOnUse">
<stop stop-color="#9EAEFF"/>
<stop offset="1" stop-color="#90A3FF"/>
</linearGradient>
<linearGradient id="paint2_linear_0_851" x1="0.242188" y1="60.825" x2="61.9591" y2="60.825" gradientUnits="userSpaceOnUse">
<stop stop-color="#728AFF"/>
<stop offset="1" stop-color="#8499FF"/>
</linearGradient>
<linearGradient id="paint3_linear_0_851" x1="0.242188" y1="56.3244" x2="61.9591" y2="56.3244" gradientUnits="userSpaceOnUse">
<stop stop-color="#9EAEFF"/>
<stop offset="1" stop-color="#90A3FF"/>
</linearGradient>
<linearGradient id="paint4_linear_0_851" x1="39.3347" y1="85.5816" x2="85.3213" y2="85.5816" gradientUnits="userSpaceOnUse">
<stop stop-color="#728AFF"/>
<stop offset="1" stop-color="#8499FF"/>
</linearGradient>
<linearGradient id="paint5_linear_0_851" x1="39.3346" y1="82.2353" x2="85.3212" y2="82.2353" gradientUnits="userSpaceOnUse">
<stop stop-color="#9EAEFF"/>
<stop offset="1" stop-color="#90A3FF"/>
</linearGradient>
<clipPath id="clip0_0_851">
<rect width="128" height="70" fill="white" transform="translate(0 29)"/>
</clipPath>
</defs>
</svg>
